<svg width="147" height="114" viewBox="0 0 147 114" fill="none" xmlns="http://www.w3.org/2000/svg">
<path d="M12.0076 62.8976V62.8976ZM12.0076 62.8976V62.7381H12.1671V58.5903L12.0076 56.995L11.6885 54.1235L11.529 53.4854V53.3258L11.6885 53.1663V53.0068V52.8472V52.6877L11.848 52.5282V52.3687V52.2091V52.0496L12.0076 51.8901V51.7305V51.571M12.0076 62.8976H11.848M12.0076 51.571V51.571ZM12.0076 51.571L12.1671 51.4115V51.2519L12.3266 51.0924V50.9329L12.4862 50.7734L12.6457 50.4543V50.1352M12.6457 50.1352V50.1352ZM12.6457 50.1352L12.8052 49.8162V49.6566V49.4971V49.3376L12.9647 49.0185V48.859L13.1243 48.6995L13.2838 48.5399L13.4433 48.3804L13.6029 48.2209L13.7624 48.0613M13.7624 48.0613V48.0613ZM13.7624 48.0613V47.7423V47.5828M13.7624 47.5828V47.5828ZM13.7624 47.5828L13.9219 47.4232M13.9219 47.4232V47.4232ZM13.9219 47.4232V47.2637V47.1042M13.9219 47.1042V47.1042ZM13.9219 47.1042L14.0815 46.9446M14.0815 46.9446V46.9446ZM14.0815 46.9446V46.7851M14.0815 46.7851V46.7851ZM14.0815 46.7851L13.9219 46.466V46.3065V46.147V45.9875V45.8279L13.7624 45.6684V45.5089V45.1898V45.0303V44.8707L13.6029 44.7112V44.5517V44.3922V44.2326V44.0731L13.4433 43.9136M13.4433 43.9136V43.9136ZM13.4433 43.9136V43.754M13.4433 43.754V43.754ZM13.4433 43.754H13.6029M13.6029 43.754V43.754ZM13.6029 43.754V43.5945M13.6029 43.5945V43.5945ZM13.6029 43.5945L13.7624 43.435M13.7624 43.435V43.435ZM13.7624 43.435V43.2754H13.9219M13.9219 43.2754V43.2754ZM13.9219 43.2754V43.1159H14.0815M14.0815 43.1159V43.1159ZM14.0815 43.1159V42.9564M14.0815 42.9564V42.9564ZM14.0815 42.9564L14.4005 42.4778L14.56 42.3183V42.1587L14.7196 41.9992V41.8397L14.8791 41.6801V41.5206L15.0386 41.3611H15.1982L15.5172 41.2016L15.6768 41.042L15.8363 40.8825H15.9958L16.3149 40.5634H16.4744M16.4744 40.5634V40.5634ZM16.4744 40.5634H16.6339V40.723H16.7935V40.8825H16.953M16.953 40.8825V40.8825ZM16.953 40.8825H17.1125V41.042M17.1125 41.042V41.042ZM17.1125 41.042H17.2721V41.2016M17.2721 41.2016V41.2016ZM17.2721 41.2016H17.4316M17.4316 41.2016V41.2016ZM17.4316 41.2016V41.3611H17.5911M17.5911 41.3611V41.3611ZM17.5911 41.3611V41.5206M17.5911 41.5206V41.5206ZM17.5911 41.5206H17.7506M17.7506 41.5206V41.5206ZM17.7506 41.5206V41.6801M17.7506 41.6801V41.6801ZM17.7506 41.6801H17.9102M17.9102 41.6801V41.6801ZM17.9102 41.6801V41.8397H18.0697M18.0697 41.8397V41.8397ZM18.0697 41.8397L18.2292 41.9992M18.2292 41.9992V41.9992ZM18.2292 41.9992V42.3183H18.0697M18.0697 42.3183V42.3183ZM18.0697 42.3183V42.4778M18.0697 42.4778V42.4778ZM18.0697 42.4778H18.2292M18.2292 42.4778V42.4778ZM18.2292 42.4778H18.3888V42.3183M18.3888 42.3183V42.3183ZM18.3888 42.3183V42.1587M18.3888 42.1587V42.1587ZM18.3888 42.1587L18.5483 41.9992M18.5483 41.9992V41.9992ZM18.5483 41.9992H18.7078M18.7078 41.9992V41.9992ZM18.7078 41.9992H18.8674V42.1587M18.8674 42.1587V42.1587ZM18.8674 42.1587L19.0269 41.9992M19.0269 41.9992V41.9992ZM19.0269 41.9992V41.8397M19.0269 41.8397V41.8397ZM19.0269 41.8397L19.1864 41.6801H19.0269V41.5206M19.0269 41.5206V41.5206ZM19.0269 41.5206L19.1864 41.3611L19.3459 41.2016H19.5055L19.665 41.042L20.1436 40.723V40.4039V40.2444L19.8245 39.9253L19.665 39.7658V39.6063L19.8245 39.4467V39.2872V39.1277L19.9841 38.9681V38.8086V38.6491L20.1436 38.4895V38.33V38.1705L20.3031 38.011V37.8514V37.6919L20.4627 37.5324L20.1436 37.2133H19.9841V37.0538M19.9841 37.0538V37.0538ZM19.9841 37.0538H19.8245M19.8245 37.0538V37.0538ZM19.8245 37.0538H19.665M19.665 37.0538V37.0538ZM19.665 37.0538V36.8942M19.665 36.8942V36.8942ZM19.665 36.8942H19.8245M19.8245 36.8942V36.8942ZM19.8245 36.8942V36.7347M19.8245 36.7347V36.7347ZM19.8245 36.7347H19.9841M19.9841 36.7347V36.7347ZM19.9841 36.7347V36.5752M19.9841 36.5752V36.5752ZM19.9841 36.5752H20.1436V36.4157V36.2561M20.1436 36.2561V36.2561ZM20.1436 36.2561H20.3031V36.0966M20.3031 36.0966V36.0966ZM20.3031 36.0966V35.9371L20.4627 35.7775M20.4627 35.7775V35.7775ZM20.4627 35.7775V35.618H20.6222V35.4585M20.6222 35.4585V35.4585ZM20.6222 35.4585L20.7817 35.1394V34.9799M20.7817 34.9799V34.9799ZM20.7817 34.9799V34.8204H20.9412V34.6608M20.9412 34.6608V34.6608ZM20.9412 34.6608V34.5013M20.9412 34.5013V34.5013ZM20.9412 34.5013L21.1008 34.3418M21.1008 34.3418V34.3418ZM21.1008 34.3418V34.1822M21.1008 34.1822V34.1822ZM21.1008 34.1822L21.2603 34.0227M21.2603 34.0227V34.0227ZM21.2603 34.0227V33.7036M21.2603 33.7036V33.7036ZM21.2603 33.7036V33.5441M21.2603 33.5441V33.5441ZM21.2603 33.5441H21.1008V33.3846M21.1008 33.3846V33.3846ZM21.1008 33.3846V33.2251M21.1008 33.2251V33.2251ZM21.1008 33.2251H20.9412M20.9412 33.2251V33.2251ZM20.9412 33.2251V33.0655M20.9412 33.0655V33.0655ZM20.9412 33.0655V32.906M20.9412 32.906V32.906ZM20.9412 32.906V32.7465M20.9412 32.7465V32.7465ZM20.9412 32.7465V32.5869M20.9412 32.5869V32.5869ZM20.9412 32.5869V32.4274M20.9412 32.4274V32.4274ZM20.9412 32.4274V32.2679M20.9412 32.2679V32.2679ZM20.9412 32.2679V32.1083M20.9412 32.1083V32.1083ZM20.9412 32.1083V31.9488M20.9412 31.9488V31.9488ZM20.9412 31.9488V31.7893L21.1008 31.6298V31.4702M21.1008 31.4702V31.4702ZM21.1008 31.4702L21.2603 31.3107M21.2603 31.3107V31.3107ZM21.2603 31.3107L21.4198 31.1512M21.4198 31.1512V31.1512ZM21.4198 31.1512V30.9916H21.5794M21.5794 30.9916V30.9916ZM21.5794 30.9916L21.7389 30.8321M21.7389 30.8321V30.8321ZM21.7389 30.8321H21.8984H22.058M22.058 30.8321V30.8321ZM22.058 30.8321L22.2175 30.6726M22.2175 30.6726V30.6726ZM22.2175 30.6726H22.377M22.377 30.6726V30.6726ZM22.377 30.6726H22.5365M22.5365 30.6726V30.6726ZM22.5365 30.6726V30.513L22.6961 30.3535H22.8556M22.8556 30.3535V30.3535ZM22.8556 30.3535V30.194M22.8556 30.194V30.194ZM22.8556 30.194V30.0345M22.8556 30.0345V30.0345ZM22.8556 30.0345V29.8749M22.8556 29.8749V29.8749ZM22.8556 29.8749H23.0151V29.7154M23.0151 29.7154V29.7154ZM23.0151 29.7154H23.1747M23.1747 29.7154V29.7154ZM23.1747 29.7154L23.3342 29.5559M23.3342 29.5559V29.5559ZM23.3342 29.5559L23.6533 29.3963M23.6533 29.3963V29.3963ZM23.6533 29.3963V29.2368M23.6533 29.2368V29.2368ZM23.6533 29.2368V29.0773M23.6533 29.0773V29.0773ZM23.6533 29.0773V28.9177M23.6533 28.9177V28.9177ZM23.6533 28.9177V28.7582M23.6533 28.7582V28.7582ZM23.6533 28.7582V28.5987H23.8128M23.8128 28.5987V28.5987ZM23.8128 28.5987V28.4392M23.8128 28.4392V28.4392ZM23.8128 28.4392V28.2796M23.8128 28.2796V28.2796ZM23.8128 28.2796H23.9723V27.9606M23.9723 27.9606V27.9606ZM23.9723 27.9606H24.1318V27.801H24.2914M24.2914 27.801V27.801ZM24.2914 27.801H24.4509V27.6415M24.4509 27.6415V27.6415ZM24.4509 27.6415V27.482M24.4509 27.482V27.482ZM24.4509 27.482H24.6104V27.3224H24.4509L24.6104 27.1629V27.0034L24.77 26.8439V26.6843L24.9295 26.5248L25.089 26.3653V26.2057L25.5676 25.2486L25.7271 25.089L25.8867 24.9295V24.77L26.2057 24.2914L26.3653 24.1318L26.5248 23.8128M26.5248 23.8128V23.8128ZM26.5248 23.8128H26.8439V23.6533H27.0034M27.0034 23.6533V23.6533ZM27.0034 23.6533V23.4937M27.0034 23.4937V23.4937ZM27.0034 23.4937V23.3342M27.0034 23.3342V23.3342ZM27.0034 23.3342V23.1747M27.0034 23.1747V23.1747ZM27.0034 23.1747V23.0151H27.1629H27.3224H27.482L27.801 22.8556H27.9606H28.1201H28.2796H28.4392L28.5987 22.6961H28.7582H28.9177H29.0773H29.2368L29.3963 22.5365H29.5559H29.7154H29.8749H30.0345M30.0345 22.5365V22.5365ZM30.0345 22.5365H30.194M30.194 22.5365V22.5365ZM30.194 22.5365H30.3535H30.513H30.6726M30.6726 22.5365V22.5365ZM30.6726 22.5365H30.8321M30.8321 22.5365V22.5365ZM30.8321 22.5365V22.6961M30.8321 22.6961V22.6961ZM30.8321 22.6961H30.9916M30.9916 22.6961V22.6961ZM30.9916 22.6961H31.1512M31.1512 22.6961V22.6961ZM31.1512 22.6961H31.3107M31.3107 22.6961V22.6961ZM31.3107 22.6961V22.5365V22.377V22.058V21.8984L31.4702 21.5794V21.4198V21.2603V21.1008V20.9412M31.4702 20.9412V20.9412ZM31.4702 20.9412L31.3107 20.7817M31.3107 20.7817V20.7817ZM31.3107 20.7817V20.6222H31.1512V20.4627M31.1512 20.4627V20.4627ZM31.1512 20.4627L31.3107 20.3031M31.3107 20.3031V20.3031ZM31.3107 20.3031V20.1436H31.4702M31.4702 20.1436V20.1436ZM31.4702 20.1436V19.9841M31.4702 19.9841V19.9841ZM31.4702 19.9841H31.6298V19.8245M31.6298 19.8245V19.8245ZM31.6298 19.8245H31.4702V19.665M31.4702 19.665V19.665ZM31.4702 19.665V19.5055M31.4702 19.5055V19.5055ZM31.4702 19.5055V19.3459V19.1864L31.6298 18.8674V18.7078V18.5483L31.7893 18.3888V18.0697L31.9488 17.7506V17.5911V17.4316V17.2721L32.1083 16.953V16.7935L32.2679 16.4744V16.3149V16.1553L32.4274 15.9958L32.5869 15.8363L32.7465 15.6768V15.5172L32.906 15.3577L33.0655 15.1982L33.2251 14.8791V14.7196L33.3846 14.56L33.5441 14.4005H33.7036V14.241M33.7036 14.241V14.241ZM33.7036 14.241V14.0815M33.7036 14.0815V14.0815ZM33.7036 14.0815L33.8632 13.9219M33.8632 13.9219V13.9219ZM33.8632 13.9219V13.7624M33.8632 13.7624V13.7624ZM33.8632 13.7624V13.6029M33.8632 13.6029V13.6029ZM33.8632 13.6029V13.4433M33.8632 13.4433V13.4433ZM33.8632 13.4433V13.2838M33.8632 13.2838V13.2838ZM33.8632 13.2838V13.1243M33.8632 13.1243V13.1243ZM33.8632 13.1243H34.0227V12.9647M34.0227 12.9647V12.9647ZM34.0227 12.9647V12.8052L34.1822 12.4862V12.3266L34.3418 12.1671V12.0076L34.5013 11.848L34.6608 11.529M34.6608 11.529V11.529ZM34.6608 11.529L34.5013 11.0504V10.8909L34.3418 10.7313V10.4123L34.1822 10.2527L34.3418 10.0932V9.93368V9.77415L34.5013 9.61462V9.45509V9.29556L34.6608 9.13603V8.9765V8.81697L34.8204 8.65744V8.49791V8.33838L34.9799 8.17885V7.85979V7.70026L35.2989 7.3812M35.2989 7.3812V7.3812ZM35.2989 7.3812V7.22167M35.2989 7.22167V7.22167ZM35.2989 7.22167H35.4585M35.2989 7.22167V7.06214M35.2989 7.06214V7.06214ZM35.2989 7.06214H35.4585M35.4585 7.06214V7.06214ZM35.4585 7.06214V6.90261L35.618 7.06214M35.618 7.06214V7.06214ZM35.618 7.06214V6.90261M35.618 6.90261V6.90261ZM35.618 6.90261H35.7775M35.7775 6.90261V6.90261ZM35.7775 6.90261H35.9371M35.9371 6.90261V6.90261ZM35.9371 6.90261V6.74308M35.9371 6.74308V6.74308ZM35.9371 6.74308H36.0966M36.0966 6.74308V6.74308ZM36.0966 6.74308H36.2561M36.2561 6.74308V6.74308ZM36.2561 6.74308L36.4157 6.90261H36.5752M36.5752 6.90261V6.90261ZM36.5752 6.90261L36.7347 6.74308M36.7347 6.74308V6.74308ZM36.7347 6.74308H36.8942M36.8942 6.74308V6.74308ZM36.8942 6.74308H37.0538M37.0538 6.74308V6.74308ZM37.0538 6.74308H37.2133M37.2133 6.74308V6.74308ZM37.2133 6.74308H37.3728M37.3728 6.74308V6.74308ZM37.3728 6.74308H37.5324M37.5324 6.74308V6.74308ZM37.5324 6.74308H37.6919H37.8514M37.8514 6.74308V6.74308ZM37.8514 6.74308H38.011M38.011 6.74308V6.74308ZM38.011 6.74308H38.1705M38.1705 6.74308V6.74308ZM38.1705 6.74308H38.33M38.33 6.74308V6.74308ZM38.33 6.74308H38.4895M38.4895 6.74308V6.74308ZM38.4895 6.74308H38.6491V6.90261H38.8086M38.8086 6.90261V6.90261ZM38.8086 6.90261H38.9681M38.9681 6.90261V6.90261ZM38.9681 6.90261H39.1277M39.1277 6.90261V6.90261ZM39.1277 6.90261H39.2872M39.2872 6.90261V6.90261ZM39.2872 6.90261V7.06214M39.2872 7.06214V7.06214ZM39.2872 7.06214H39.4467M39.4467 7.06214V7.06214ZM39.4467 7.06214V7.22167M39.4467 7.22167V7.22167ZM39.4467 7.22167H39.6063V7.3812M39.6063 7.3812V7.3812ZM39.6063 7.3812H39.7658M39.7658 7.3812V7.3812ZM39.7658 7.3812L39.9253 7.22167M39.9253 7.22167V7.22167ZM39.9253 7.22167H40.0848M40.0848 7.22167V7.22167ZM40.0848 7.22167H40.2444M40.2444 7.22167V7.22167ZM40.2444 7.22167H40.4039M40.4039 7.22167V7.22167ZM40.4039 7.22167L40.5634 7.06214M40.5634 7.06214V7.06214ZM40.5634 7.06214V6.90261M40.5634 6.90261V6.90261ZM40.5634 6.90261V6.74308M40.5634 6.74308V6.74308ZM40.5634 6.74308V6.58355M40.5634 6.58355V6.58355ZM40.5634 6.58355V6.42402M40.5634 6.42402V6.42402ZM40.5634 6.42402V6.26449H40.723M40.723 6.26449V6.26449ZM40.723 6.26449V6.10496M40.723 6.10496V6.10496ZM40.723 6.10496V5.94543M40.723 5.94543V5.94543ZM40.723 5.94543L40.8825 5.7859M40.8825 5.7859V5.7859ZM40.8825 5.7859H41.042M41.042 5.7859V5.7859ZM41.042 5.7859V5.62637M41.042 5.7859H41.2016M41.042 5.62637V5.62637ZM41.2016 5.7859V5.7859ZM41.2016 5.7859L41.3611 5.62637M41.3611 5.62637V5.62637ZM41.3611 5.62637H41.5206M41.5206 5.62637V5.62637ZM41.5206 5.62637V5.46684M41.5206 5.46684V5.46684ZM41.5206 5.46684H41.6801M41.6801 5.46684V5.46684ZM41.6801 5.46684H41.8397V5.62637L41.9992 5.46684M41.9992 5.46684V5.46684ZM41.9992 5.46684H42.1587M42.1587 5.46684V5.46684ZM42.1587 5.46684H42.3183M42.3183 5.46684V5.46684ZM42.3183 5.46684H42.4778M42.4778 5.46684V5.46684ZM42.4778 5.46684H42.6373M42.6373 5.46684V5.46684ZM42.6373 5.46684V5.62637M42.6373 5.62637V5.62637ZM42.6373 5.62637H42.7969M42.7969 5.62637V5.62637ZM42.7969 5.62637V5.7859M42.7969 5.7859V5.7859ZM42.7969 5.7859H42.9564M42.9564 5.7859V5.7859ZM42.9564 5.7859V5.94543M42.9564 5.94543V5.94543ZM42.9564 5.94543H43.1159V6.10496M43.1159 6.10496V6.10496ZM43.1159 6.10496H43.2754M43.2754 6.10496V6.10496ZM43.2754 6.10496V6.26449M43.2754 6.26449V6.26449ZM43.2754 6.26449V6.42402M43.2754 6.42402V6.42402ZM43.2754 6.42402L43.435 6.58355M43.435 6.58355V6.58355ZM43.435 6.58355V6.74308M43.435 6.74308V6.74308ZM43.435 6.74308L43.2754 6.90261M43.2754 6.90261V6.90261ZM43.2754 6.90261H43.435V7.06214M43.435 7.06214V7.06214ZM43.435 7.06214H43.5945M43.5945 7.06214V7.06214ZM43.5945 7.06214L43.754 7.22167M43.754 7.22167V7.22167ZM43.754 7.22167H43.9136M43.9136 7.22167V7.22167ZM43.9136 7.22167V7.3812M43.9136 7.3812V7.3812ZM43.9136 7.3812H44.0731M44.0731 7.3812V7.3812ZM44.0731 7.3812V7.54073M44.0731 7.54073V7.54073ZM44.0731 7.54073V7.70026M44.0731 7.70026V7.70026ZM44.0731 7.70026L44.2326 7.85979M44.2326 7.85979V7.85979ZM44.2326 7.85979H44.3922M44.3922 7.85979V7.85979ZM44.3922 7.85979L44.2326 8.01932M44.2326 8.01932V8.01932ZM44.2326 8.01932H44.3922M44.3922 8.01932V8.01932ZM44.3922 8.01932H44.5517M44.5517 8.01932V8.01932ZM44.5517 8.01932L48.3804 1M48.3804 1V1ZM48.3804 1V1.15953M48.3804 1.15953V1.15953ZM48.3804 1.15953H48.5399M48.5399 1.15953V1.15953ZM48.5399 1.15953V1.31906M48.5399 1.31906V1.31906ZM48.5399 1.31906H48.6995M48.6995 1.31906V1.31906ZM48.6995 1.31906V1.47859M48.6995 1.47859V1.47859ZM48.6995 1.47859L48.859 1.63812M48.859 1.63812V1.63812ZM48.859 1.63812V1.79765M48.859 1.79765V1.79765ZM48.859 1.79765V1.95718M48.859 1.95718V1.95718ZM48.859 1.95718H49.0185M49.0185 1.95718V1.79765M49.0185 1.95718V1.95718ZM49.0185 1.95718V2.11671M49.0185 1.79765V1.79765ZM49.0185 2.11671V2.11671ZM49.0185 2.11671H49.1781M49.1781 2.11671V2.11671ZM49.1781 2.11671V2.27624M49.1781 2.27624V2.27624ZM49.1781 2.27624H49.3376M49.3376 2.27624V2.27624ZM49.3376 2.27624V2.43577M49.3376 2.43577V2.43577ZM49.3376 2.43577V2.5953M49.3376 2.5953V2.5953ZM49.3376 2.5953H49.4971M49.4971 2.5953V2.5953ZM49.4971 2.5953L49.6566 2.75483M49.6566 2.75483V2.75483ZM49.6566 2.75483H49.8162M49.8162 2.75483V2.75483ZM49.8162 2.75483H49.9757M49.9757 2.75483V2.75483ZM49.9757 2.75483H50.1352M50.1352 2.75483V2.75483ZM50.1352 2.75483V2.91436M50.1352 2.91436V2.91436ZM50.1352 2.91436H50.2948M50.2948 2.91436V2.91436ZM50.2948 2.91436L50.4543 3.07389M50.4543 3.07389V3.07389ZM50.4543 3.07389V3.23342H50.6138V3.07389M50.6138 3.07389V3.07389ZM50.6138 3.07389H50.7734M50.7734 3.07389V3.07389ZM50.7734 3.07389H50.9329M50.9329 3.07389V3.07389ZM50.9329 3.07389V2.91436M50.9329 2.91436V2.91436ZM50.9329 2.91436H51.0924M51.0924 2.91436V2.91436ZM51.0924 2.91436V3.07389M51.0924 3.07389V3.07389ZM51.0924 3.07389H51.2519M51.2519 3.07389V3.07389ZM51.2519 3.07389H51.4115M51.4115 3.07389V3.07389ZM51.4115 3.07389H51.571M51.571 3.07389V3.07389ZM51.571 3.07389H51.7305V3.23342M51.7305 3.23342V3.23342ZM51.7305 3.23342V3.39295M51.7305 3.39295V3.39295ZM51.7305 3.39295V3.55248M51.7305 3.55248V3.55248ZM51.7305 3.55248V3.71201M51.7305 3.71201V3.71201ZM51.7305 3.71201H51.8901M51.8901 3.71201V3.71201ZM51.8901 3.71201V3.87154M51.8901 3.87154V3.87154ZM51.8901 3.87154H52.0496M52.0496 3.87154V3.87154ZM52.0496 3.87154V4.03107M52.0496 4.03107V4.03107ZM52.0496 4.03107H52.2091M52.2091 4.03107V4.03107ZM52.2091 4.03107V4.1906M52.2091 4.1906V4.1906ZM52.2091 4.1906V4.35013M52.2091 4.35013V4.35013ZM52.2091 4.35013H52.3687V4.50966M52.3687 4.50966V4.50966ZM52.3687 4.50966L52.5282 4.66919M52.5282 4.66919V4.66919ZM52.5282 4.66919V4.82872M52.5282 4.82872V4.82872ZM52.5282 4.82872H52.6877M52.6877 4.82872V4.82872ZM52.6877 4.82872V4.98825M52.6877 4.98825V4.98825ZM52.6877 4.98825H52.8472M52.8472 4.98825V4.98825ZM52.8472 4.98825H53.0068M53.0068 4.98825V4.98825ZM53.0068 4.98825V5.14778M53.0068 5.14778V5.14778ZM53.0068 5.14778H53.1663M53.1663 5.14778V5.14778ZM53.1663 5.14778V5.30731M53.1663 5.30731V5.30731ZM53.1663 5.30731H53.3258M53.3258 5.30731V5.30731ZM53.3258 5.30731V5.46684M53.3258 5.46684V5.46684ZM53.3258 5.46684V5.62637M53.3258 5.62637V5.62637ZM53.3258 5.62637H53.4854M53.4854 5.62637V5.62637ZM53.4854 5.62637V5.7859M53.4854 5.7859V5.7859ZM53.4854 5.7859H53.6449M53.6449 5.7859V5.7859ZM53.6449 5.7859H53.8044M53.8044 5.7859V5.7859ZM53.8044 5.7859V5.62637M53.8044 5.62637V5.62637ZM53.8044 5.62637H53.964V5.7859M53.964 5.7859V5.7859ZM53.964 5.7859H54.1235M54.1235 5.7859V5.7859ZM54.1235 5.7859H54.283M54.283 5.7859V5.7859ZM54.283 5.7859V5.62637M54.283 5.62637V5.62637ZM54.283 5.62637H54.4425M54.4425 5.62637V5.62637ZM54.4425 5.62637H54.6021M54.6021 5.62637V5.62637ZM54.6021 5.62637V5.46684H54.7616M54.7616 5.46684V5.46684ZM54.7616 5.46684H54.9211M54.9211 5.46684V5.46684ZM54.9211 5.46684H55.0807M55.0807 5.46684V5.46684ZM55.0807 5.46684H55.2402M55.2402 5.46684V5.46684ZM55.2402 5.46684H55.3997M55.3997 5.46684V5.46684ZM55.3997 5.46684H55.5593M55.5593 5.46684V5.46684ZM55.5593 5.46684V5.30731M55.5593 5.30731V5.30731ZM55.5593 5.30731H55.7188M55.7188 5.30731V5.30731ZM55.7188 5.30731H55.8783M55.8783 5.30731V5.30731ZM55.8783 5.30731V5.14778M55.8783 5.14778V5.14778ZM55.8783 5.14778L56.0378 5.30731M56.0378 5.30731V5.14778M56.0378 5.30731V5.30731ZM56.0378 5.30731H56.1974M56.1974 5.30731V5.30731ZM56.1974 5.30731H56.3569M56.3569 5.30731V5.30731ZM56.3569 5.30731V5.14778M56.3569 5.14778V5.14778ZM56.3569 5.14778H56.5164M56.5164 5.14778V5.14778ZM56.5164 5.14778H56.676M56.676 5.14778V5.14778ZM56.676 5.14778L56.8355 5.30731M56.8355 5.30731V5.30731ZM56.8355 5.30731V5.14778M56.8355 5.14778V5.14778ZM56.8355 5.14778H56.995M56.995 5.14778V5.14778ZM56.995 5.14778V4.98825M56.995 4.98825V4.98825ZM56.995 4.98825H57.1546M57.1546 4.98825V4.98825ZM57.1546 4.98825H57.3141M57.3141 4.98825V4.98825ZM57.3141 4.98825V4.82872M57.3141 4.98825H57.4736M57.4736 4.98825V4.98825ZM57.4736 4.98825H57.6331M57.6331 4.98825V4.98825ZM57.6331 4.98825V4.82872M57.6331 4.82872V4.82872ZM57.6331 4.82872H57.7927M57.7927 4.82872V4.82872ZM57.7927 4.82872H57.9522M57.9522 4.82872V4.82872ZM57.9522 4.82872V4.66919M57.9522 4.66919V4.66919ZM57.9522 4.66919H58.1117M58.1117 4.66919V4.66919ZM58.1117 4.66919V4.50966M58.1117 4.50966V4.50966ZM58.1117 4.50966H58.2713M58.2713 4.50966V4.50966ZM58.2713 4.50966H58.4308M58.4308 4.50966V4.50966ZM58.4308 4.50966H58.5903M58.5903 4.50966V4.50966ZM58.5903 4.50966V4.35013M58.5903 4.35013V4.35013ZM58.5903 4.35013H58.7499M58.7499 4.35013V4.35013ZM58.7499 4.35013V4.1906M58.7499 4.1906V4.1906ZM58.7499 4.1906V4.03107M58.7499 4.03107V4.03107ZM58.7499 4.03107H58.9094M58.9094 4.03107V4.03107ZM58.9094 4.03107V3.87154M58.9094 3.87154V3.87154ZM58.9094 3.87154V3.71201M58.9094 3.71201V3.71201ZM58.9094 3.71201V3.55248M58.9094 3.55248V3.55248ZM58.9094 3.55248H59.0689M59.0689 3.55248V3.55248ZM59.0689 3.55248H59.2284M59.2284 3.55248V3.55248ZM59.2284 3.55248H59.388M59.388 3.55248V3.55248ZM59.388 3.55248H59.5475M59.5475 3.55248V3.55248ZM59.5475 3.55248H59.707M59.707 3.55248V3.55248ZM59.707 3.55248H59.8666M59.8666 3.55248V3.55248ZM59.8666 3.55248V3.39295M59.8666 3.39295V3.39295ZM59.8666 3.39295L60.0261 3.55248M60.0261 3.55248V3.39295M60.0261 3.55248V3.55248ZM60.0261 3.39295V3.39295ZM60.0261 3.39295H60.1856M60.1856 3.39295V3.39295ZM60.1856 3.39295H60.3452M60.3452 3.39295V3.39295ZM60.3452 3.39295V3.55248M60.3452 3.55248V3.55248ZM60.3452 3.55248V3.71201M60.3452 3.71201V3.71201ZM60.3452 3.71201V3.87154L60.5047 4.03107M60.5047 4.03107V4.03107ZM60.5047 4.03107L60.6642 4.1906M60.6642 4.1906V4.1906ZM60.6642 4.1906H60.8237H60.9833L61.1428 4.35013M61.1428 4.35013V4.35013ZM61.1428 4.35013V4.50966M61.1428 4.50966V4.50966ZM61.1428 4.50966V4.66919M61.1428 4.66919V4.66919ZM61.1428 4.66919H61.3023M61.3023 4.66919V4.66919ZM61.3023 4.66919V4.82872M61.3023 4.82872V4.82872ZM61.3023 4.82872V4.98825M61.3023 4.98825V4.98825ZM61.3023 4.98825V5.14778M61.3023 5.14778V5.14778ZM61.3023 5.14778H61.1428M61.1428 5.14778V5.14778ZM61.1428 5.14778V5.30731M61.1428 5.30731V5.30731ZM61.1428 5.30731H60.9833M60.9833 5.30731V5.30731ZM60.9833 5.30731V5.46684M60.9833 5.46684V5.46684ZM60.9833 5.46684L61.1428 5.62637M61.1428 5.62637V5.62637ZM61.1428 5.62637V5.7859M61.1428 5.7859V5.7859ZM61.1428 5.7859H61.3023M61.3023 5.7859V5.7859ZM61.3023 5.7859V5.62637M61.3023 5.62637V5.62637ZM61.3023 5.62637H61.4619M61.4619 5.62637V5.62637ZM61.4619 5.62637V5.46684M61.4619 5.46684V5.46684ZM61.4619 5.46684L61.6214 5.30731M61.6214 5.30731V5.30731ZM61.6214 5.30731V5.14778H61.7809H61.9405M61.9405 5.14778V5.14778ZM61.9405 5.14778L62.1 5.30731V5.14778M62.1 5.14778V5.14778ZM62.1 5.14778L61.9405 4.98825M62.1 5.14778V4.98825H61.9405M62.1 5.14778H62.2595V4.98825M61.9405 4.98825V4.98825ZM62.2595 4.98825V4.98825ZM62.2595 4.98825V4.82872M62.2595 4.82872V4.82872ZM62.2595 4.82872V4.66919M62.2595 4.66919V4.50966H62.419M62.2595 4.66919L62.419 4.50966M62.419 4.50966V4.50966ZM62.419 4.50966H62.5786M62.5786 4.50966V4.50966ZM62.5786 4.50966H62.7381V4.66919M62.7381 4.66919V4.66919ZM62.7381 4.66919V4.82872H62.8976V4.66919L63.0572 4.82872H63.2167M63.2167 4.82872V4.82872ZM63.2167 4.82872H63.3762M63.3762 4.82872V4.82872ZM63.3762 4.82872H63.5358M63.5358 4.82872V4.82872ZM63.5358 4.82872V4.98825M63.5358 4.98825V4.98825ZM63.5358 4.98825V5.14778M63.5358 4.98825H63.6953M63.6953 4.98825V4.98825ZM63.6953 4.98825H63.8548M63.8548 4.98825V4.98825ZM63.8548 4.98825H64.0143M64.0143 4.98825V4.98825ZM64.0143 4.98825V4.82872M64.0143 4.82872V4.82872ZM64.0143 4.82872H63.8548M63.8548 4.82872V4.82872ZM63.8548 4.82872H63.6953M63.6953 4.82872V4.82872ZM63.6953 4.82872V4.66919M63.6953 4.66919V4.66919ZM63.6953 4.66919V4.50966M63.6953 4.50966V4.50966ZM63.6953 4.50966V4.35013M63.6953 4.35013V4.35013ZM63.6953 4.35013H63.8548V4.1906M63.8548 4.1906V4.1906ZM63.8548 4.1906V4.03107M63.8548 4.03107V4.03107ZM63.8548 4.03107H64.0143M64.0143 4.03107V4.03107ZM64.0143 4.03107H64.1739M64.1739 4.03107V4.03107ZM64.1739 4.03107V3.87154M64.1739 3.87154V3.87154ZM64.1739 3.87154H64.3334M64.3334 3.87154V3.87154ZM64.3334 3.87154H64.4929M64.4929 3.87154V3.87154ZM64.4929 3.87154H64.6525M64.6525 3.87154V3.87154ZM64.6525 3.87154H64.812M64.812 3.87154V3.87154ZM64.812 3.87154H64.9715M64.9715 3.87154V3.87154ZM64.9715 3.87154H65.131M65.131 3.87154V3.87154ZM65.131 3.87154V4.03107M65.131 3.87154H65.2906V4.03107M65.131 4.03107V4.03107ZM65.2906 4.03107V4.03107ZM65.2906 4.03107H65.4501M65.4501 4.03107V4.03107ZM65.4501 4.03107V4.1906M65.4501 4.1906V4.1906ZM65.4501 4.1906H65.6096V4.35013M65.6096 4.35013V4.35013ZM65.6096 4.35013H65.7692M65.7692 4.35013V4.35013ZM65.7692 4.35013H65.9287M65.9287 4.35013V4.35013ZM65.9287 4.35013H66.0882M66.0882 4.35013V4.35013ZM66.0882 4.35013V4.50966M66.0882 4.50966V4.50966ZM66.0882 4.50966H66.2478M66.2478 4.50966V4.50966ZM66.2478 4.50966V4.66919M66.2478 4.66919V4.66919ZM66.2478 4.66919H66.4073M66.4073 4.66919V4.66919ZM66.4073 4.66919V4.82872M66.4073 4.82872V4.82872ZM66.4073 4.82872H66.5668M66.5668 4.82872V4.82872ZM66.5668 4.82872V4.98825M66.5668 4.98825V4.98825ZM66.5668 4.98825H66.7263M66.7263 4.98825V5.14778M66.7263 4.98825V4.98825ZM66.7263 4.98825H66.8859M66.8859 4.98825V4.98825ZM66.8859 4.98825V5.14778M66.8859 5.14778V5.14778ZM66.8859 5.14778H67.0454M67.0454 5.14778V5.14778ZM67.0454 5.14778L67.2049 5.30731M67.2049 5.30731V5.30731ZM67.2049 5.30731H67.3645V5.46684M67.3645 5.46684V5.46684ZM67.3645 5.46684L67.524 5.62637M67.524 5.62637V5.62637ZM67.524 5.62637H67.6835V5.7859M67.6835 5.7859V5.7859ZM67.6835 5.7859H67.8431M67.8431 5.7859V5.7859ZM67.8431 5.7859H68.0026M68.0026 5.7859V5.7859ZM68.0026 5.7859V5.62637M68.0026 5.62637V5.62637ZM68.0026 5.62637H68.1621M68.1621 5.62637V5.62637ZM68.1621 5.62637V5.46684M68.1621 5.46684V5.46684ZM68.1621 5.46684H68.3216M68.3216 5.46684V5.30731M68.3216 5.46684H68.4812M68.3216 5.30731V5.30731ZM68.4812 5.46684V5.46684ZM68.4812 5.46684V5.30731M68.4812 5.30731V5.30731ZM68.4812 5.30731V5.14778M68.4812 5.14778V5.14778ZM68.4812 5.14778H68.6407M68.6407 5.14778V5.14778ZM68.6407 5.14778V4.98825M68.6407 4.98825V4.98825ZM68.6407 4.98825H68.8002M68.8002 4.98825V4.98825ZM68.8002 4.98825V4.82872M68.8002 4.82872V4.82872ZM68.8002 4.82872V4.66919M68.8002 4.66919V4.66919ZM68.8002 4.66919H68.9598M68.9598 4.66919V4.66919ZM68.9598 4.66919V4.50966H69.1193M69.1193 4.50966V4.50966ZM69.1193 4.50966H69.2788M69.2788 4.50966V4.50966ZM69.2788 4.50966V4.35013H69.4384M69.4384 4.35013V4.35013ZM69.4384 4.35013V4.50966H69.5979M69.5979 4.50966V4.50966ZM69.5979 4.50966H69.7574M69.7574 4.50966V4.50966ZM69.7574 4.50966L70.3955 6.10496L70.8741 5.7859L71.8313 6.26449L71.9908 6.42402L72.7885 6.90261L73.9052 7.22167L75.0219 7.70026L76.1386 8.17885L76.7767 8.49791L77.4149 9.13603L77.8934 9.77415L78.372 10.4123L78.6911 11.0504L79.1697 11.529L79.6483 12.4862L79.9673 12.8052L80.4459 13.7624L80.9245 14.0815L81.8817 14.8791H82.3603L82.8389 15.3577L83.477 15.6768L84.1151 15.9958L84.4342 16.6339L84.9128 17.1125L85.0723 17.4316L85.8699 18.0697L86.3485 18.7078L86.5081 18.8674V19.0269L86.9867 19.665L87.3057 20.4627L87.9438 21.1008L88.1034 21.7389L88.901 21.8984L89.6987 22.058L90.1773 23.1747L90.3368 23.3342M90.3368 23.3342V23.3342ZM90.3368 23.3342V23.4937L90.6558 23.8128L91.294 24.6104L91.4535 24.9295V25.2486H91.294V25.4081H91.1344L90.8154 25.8867V26.2057M90.8154 26.2057V26.2057ZM90.8154 26.2057L90.6558 26.6843M90.6558 26.6843V26.6843ZM90.6558 26.6843H90.4963L90.0177 27.1629L89.8582 27.3224L89.6987 27.482V27.6415L89.5391 27.801V27.9606L89.3796 28.1201L89.2201 28.2796M89.2201 28.2796V28.2796ZM89.2201 28.2796V28.4392M89.2201 28.4392V28.4392ZM89.2201 28.4392H89.0605V28.5987M89.0605 28.5987V28.5987ZM89.0605 28.5987V28.7582M89.0605 28.7582V28.7582ZM89.0605 28.7582V28.9177M89.0605 28.7582H88.901M89.0605 28.9177V28.9177ZM88.901 28.7582V28.7582ZM88.901 28.7582V28.9177M88.901 28.9177V28.9177ZM88.901 28.9177L88.7415 29.2368M88.7415 29.2368H88.582M88.7415 29.2368L88.582 29.5559L88.2629 29.7154L87.9438 30.194M87.9438 30.194V30.194ZM87.9438 30.194L87.7843 30.513V30.6726L87.6248 30.8321M87.6248 30.8321V30.8321ZM87.6248 30.8321L87.3057 31.1512V31.3107L87.1462 31.4702H86.9867L86.6676 31.6298M86.6676 31.6298V31.6298ZM86.6676 31.6298V31.9488L86.5081 32.1083M86.5081 32.1083V32.1083ZM86.5081 32.1083L86.189 32.2679H86.0295M86.0295 32.2679V32.2679ZM86.0295 32.2679V32.4274L85.8699 32.5869M85.8699 32.5869V32.5869ZM85.8699 32.5869V32.906H85.7104V33.2251M85.7104 33.2251V33.2251ZM85.7104 33.2251V33.3846V33.5441V33.8632L85.5509 34.0227V34.3418L85.3914 34.5013L85.5509 34.9799L85.7104 35.4585V35.9371V36.2561V36.5752V36.7347M85.7104 36.7347V36.7347ZM85.7104 36.7347H85.5509M85.5509 36.7347V36.7347ZM85.5509 36.7347H85.3914M85.3914 36.7347V36.7347ZM85.3914 36.7347V36.5752M85.3914 36.7347H85.2318M85.2318 36.7347V36.7347ZM85.2318 36.7347L85.0723 36.8942M85.0723 36.8942H85.2318L85.0723 36.7347M85.0723 36.8942V36.7347M85.0723 36.8942V36.8942ZM85.0723 36.7347V36.7347ZM85.0723 36.7347H84.9128M84.9128 36.7347V36.7347ZM84.9128 36.7347V36.8942M84.9128 36.8942V36.8942ZM84.9128 36.8942V37.0538M84.9128 37.0538H85.0723M84.9128 37.0538V37.0538ZM84.9128 37.0538H84.7532M85.0723 37.0538V37.0538ZM84.7532 37.0538V37.0538ZM84.7532 37.0538V37.2133M84.7532 37.2133V37.2133ZM84.7532 37.2133V37.3728M84.7532 37.3728V37.3728ZM84.7532 37.3728H84.5937M84.5937 37.3728V37.3728ZM84.5937 37.3728H84.4342M84.5937 37.3728V37.5324M84.4342 37.3728V37.3728ZM84.5937 37.5324V37.5324ZM84.5937 37.5324H84.4342M84.5937 37.5324V37.6919M84.4342 37.5324V37.5324ZM84.5937 37.6919V37.6919ZM84.5937 37.6919V37.8514M84.5937 37.8514V37.8514ZM84.5937 37.8514H84.7532M84.7532 37.8514V37.8514ZM84.7532 37.8514V38.011M84.7532 38.011V38.011ZM84.7532 38.011V38.1705M84.7532 38.1705V38.1705ZM84.7532 38.1705H84.9128M84.9128 38.1705V38.1705ZM84.9128 38.1705L85.0723 38.33M85.0723 38.33H84.9128M85.0723 38.33V38.33ZM85.0723 38.33V38.4895M85.0723 38.4895V38.4895ZM85.0723 38.4895H85.2318M85.2318 38.4895V38.4895ZM85.2318 38.4895V38.6491M85.2318 38.6491V38.6491ZM85.2318 38.6491H85.3914M85.3914 38.6491V38.6491ZM85.3914 38.6491L85.5509 38.8086V38.6491M85.5509 38.6491V38.6491ZM85.5509 38.6491H85.7104M85.7104 38.6491V38.6491ZM85.7104 38.6491V38.8086V38.9681V39.1277V39.2872V39.4467M85.7104 39.4467V39.4467ZM85.7104 39.4467V39.6063M85.7104 39.6063V39.6063ZM85.7104 39.6063V39.7658H85.8699M85.8699 39.7658V39.7658ZM85.8699 39.7658H86.0295M86.0295 39.7658V39.7658ZM86.0295 39.7658H86.189H86.3485V39.9253M86.3485 39.9253V39.9253ZM86.3485 39.9253H86.5081M86.5081 39.9253V39.9253ZM86.5081 39.9253H86.6676L86.8271 40.0848L86.9867 39.9253V40.0848M86.9867 40.0848H87.1462M86.9867 40.0848V40.0848ZM86.9867 40.0848L87.1462 40.2444M87.1462 40.2444H86.9867M87.1462 40.2444V40.2444ZM87.1462 40.2444H87.3057M87.3057 40.2444V40.2444ZM87.3057 40.2444V40.0848M87.3057 40.0848V40.0848ZM87.3057 40.0848H87.4652M87.4652 40.0848V40.0848ZM87.4652 40.0848H87.7843H87.9438M87.9438 40.0848V40.0848ZM87.9438 40.0848H88.1034M88.1034 40.0848V40.0848ZM88.1034 40.0848H88.2629M88.2629 40.0848V40.0848ZM88.2629 40.0848V39.9253M88.2629 39.9253V39.9253ZM88.2629 39.9253H88.4224M88.4224 39.9253V39.9253ZM88.4224 39.9253V39.7658M88.4224 39.7658V39.7658ZM88.4224 39.7658H88.582M88.582 39.7658V39.7658ZM88.582 39.7658H88.7415L88.901 39.6063M88.901 39.6063V39.6063ZM88.901 39.6063H89.0605M89.0605 39.6063V39.6063ZM89.0605 39.6063V39.7658M89.0605 39.6063H89.2201M89.0605 39.7658V39.7658ZM89.2201 39.6063V39.6063ZM89.2201 39.6063H89.3796M89.3796 39.6063V39.6063ZM89.3796 39.6063H89.5391V39.7658M89.5391 39.7658V39.7658ZM89.5391 39.7658H90.1773L90.3368 39.6063M90.3368 39.6063V39.6063ZM90.3368 39.6063H90.4963V39.4467M90.4963 39.4467V39.4467ZM90.4963 39.4467H90.6558M90.6558 39.4467V39.4467ZM90.6558 39.4467L90.8154 39.6063V39.4467M90.8154 39.4467V39.4467ZM90.8154 39.4467H90.9749M90.9749 39.4467V39.4467ZM90.9749 39.4467H91.1344M91.1344 39.4467V39.4467ZM91.1344 39.4467L91.613 39.6063H91.7726L91.9321 39.2872L92.4107 38.9681H92.5702H92.7297L93.2083 38.8086L93.3679 38.6491H93.5274M93.5274 38.6491V38.6491ZM93.5274 38.6491L93.6869 38.4895M93.6869 38.4895V38.4895ZM93.6869 38.4895H93.8464M93.8464 38.4895V38.4895ZM93.8464 38.4895V38.6491M93.8464 38.6491V38.6491ZM93.8464 38.6491H94.006M94.006 38.6491V38.6491ZM94.006 38.6491L94.1655 38.8086M94.1655 38.8086V38.8086ZM94.1655 38.8086H94.325M94.325 38.8086V38.8086ZM94.325 38.8086H94.4846M94.4846 38.8086V38.8086ZM94.4846 38.8086H94.6441M94.6441 38.8086V38.8086ZM94.6441 38.8086V38.6491M94.6441 38.8086H94.8036M94.8036 38.8086V38.8086ZM94.8036 38.8086V38.6491M94.8036 38.6491V38.6491ZM94.8036 38.6491H94.9632M94.9632 38.6491V38.6491ZM94.9632 38.6491V38.8086M94.9632 38.8086V38.8086ZM94.9632 38.8086L95.1227 38.9681V39.1277M95.1227 39.1277V39.1277ZM95.1227 39.1277V39.2872M95.1227 39.2872V39.2872ZM95.1227 39.2872V39.4467M95.1227 39.4467V39.4467ZM95.1227 39.4467H95.2822V39.6063M95.2822 39.6063V39.6063ZM95.2822 39.6063H95.6013M95.6013 39.6063V39.6063ZM95.6013 39.6063H95.7608M95.7608 39.6063V39.6063ZM95.7608 39.6063H95.9203M95.9203 39.6063V39.6063ZM95.9203 39.6063V39.7658M95.9203 39.7658V39.7658ZM95.9203 39.7658H96.0799M96.0799 39.7658V39.6063M96.0799 39.7658H96.2394M96.0799 39.6063V39.6063ZM96.2394 39.7658V39.7658ZM96.2394 39.7658V39.6063H96.3989M96.3989 39.6063V39.6063ZM96.3989 39.6063H96.718H96.8775L96.5585 39.9253L96.3989 40.2444L96.0799 40.723L95.7608 41.042V41.2016L95.2822 41.6801L94.9632 42.1587L94.6441 42.6373L94.4846 42.7969M94.4846 42.7969V42.7969ZM94.4846 42.7969V43.1159V43.5945V43.9136L94.6441 44.0731M94.6441 44.0731V44.0731ZM94.6441 44.0731H94.8036V44.2326L94.9632 44.5517V44.7112L95.2822 45.1898V45.8279L95.4417 45.9875L95.6013 46.466L95.7608 46.7851L95.9203 46.9446L96.0799 47.2637L96.3989 47.5828L96.718 47.9018L96.8775 48.0613V48.2209H97.037L97.1966 48.3804L97.3561 48.5399M97.3561 48.5399V48.5399ZM97.3561 48.5399L97.5156 48.6995V48.859M97.5156 48.859V48.859ZM97.5156 48.859L97.8347 49.4971M97.8347 49.4971V49.4971ZM97.8347 49.4971L97.9942 50.1352H98.1538M98.1538 50.1352V50.1352ZM98.1538 50.1352L98.3133 50.2948H98.4728H98.6323M98.6323 50.2948V50.2948ZM98.6323 50.2948V50.1352M98.6323 50.1352V50.1352ZM98.6323 50.1352L98.7919 50.2948H98.9514L99.7491 50.7734L99.9086 52.2091L100.068 53.0068H100.228H100.387M100.387 53.0068V53.0068ZM100.387 53.0068L100.547 53.1663M100.547 53.1663V53.1663ZM100.547 53.1663L100.706 53.3258H100.866V53.4854H101.025L101.185 53.6449V53.8044V53.964L101.344 54.283V54.4425L101.504 54.6021V54.7616H101.663V54.9211H101.823L101.982 55.0807M101.982 55.0807V55.0807ZM101.982 55.0807L102.142 55.2402H102.302H102.461M102.461 55.2402V55.2402ZM102.461 55.2402L102.621 55.3997M102.621 55.3997V55.3997ZM102.621 55.3997H102.78H102.94M102.94 55.3997V55.3997ZM102.94 55.3997H103.099M103.099 55.3997V55.3997ZM103.099 55.3997H103.259H103.418L103.578 55.5593L103.737 55.7188L103.897 55.8783L104.056 56.0378L104.375 56.5164L104.535 56.676L104.694 56.8355L105.014 56.995L105.173 57.1546L105.333 57.4736L105.492 57.6331L105.652 57.7927M105.652 57.7927V57.7927ZM105.652 57.7927L105.811 57.9522L105.971 58.1117L106.29 58.4308M106.29 58.4308V58.4308ZM106.29 58.4308H106.449V58.5903L106.609 58.7499L106.768 58.9094H106.928V59.0689H107.087H107.406L108.045 59.388H108.364L109.161 59.707L109.48 59.8666L109.959 60.0261H110.278M110.278 60.0261V60.0261ZM110.278 60.0261L110.438 60.1856L113.469 61.1428L119.052 63.0572H119.212L122.402 64.1739L128.305 66.0882L128.464 66.2478L135.643 68.6407H135.803M135.803 68.6407V68.6407ZM135.803 68.6407H144.577H145.056L141.067 72.948M141.067 72.948V72.948ZM141.067 72.948L138.993 74.7028L138.674 74.8624L134.527 79.1697L131.017 82.8389V82.9984L124.636 88.4224L120.488 92.5702L116.5 98.1538L116.181 98.4728H115.862H115.543L113.788 98.3133L113.309 98.4728L112.831 98.3133H112.511V98.4728H112.192L110.597 98.3133H108.842L108.364 98.1538H108.045L107.566 98.3133H107.087L106.29 98.4728H105.811L105.333 98.6323H105.014L104.854 98.7919H104.535L103.737 98.9514L102.78 99.2705M102.78 99.2705V99.2705ZM102.78 99.2705H102.461L101.344 99.7491L99.43 100.706L98.7919 101.025L98.3133 101.344L97.9942 101.504L97.6752 101.823L97.5156 101.982V102.142L97.3561 102.302V102.621V102.78L97.1966 102.94V103.099L97.037 103.259L96.8775 103.418L96.718 103.737L96.5585 104.056L96.2394 104.216L96.0799 104.375M96.0799 104.375V104.375ZM96.0799 104.375L95.9203 104.535L95.7608 104.694H95.6013M95.6013 104.694V104.694ZM95.6013 104.694L95.4417 104.854H94.9632H94.6441H94.4846H94.325H94.1655H94.006L93.6869 105.014L93.2083 105.173L93.0488 105.333H92.8893H92.7297H92.4107H92.2511L91.4535 105.492H91.1344L90.0177 105.652H89.5391H88.4224M88.4224 105.652V105.652ZM88.4224 105.652H88.2629V105.811M88.2629 105.811V105.811ZM88.2629 105.811H88.1034L87.9438 106.13L87.6248 106.29V106.449H87.4652L87.3057 106.609M87.3057 106.609V106.609ZM87.3057 106.609L87.1462 106.768V106.928V107.087V107.247H86.9867L86.8271 107.406M86.8271 107.406V107.406ZM86.8271 107.406L86.6676 107.566M86.6676 107.566V107.566ZM86.6676 107.566H86.5081M86.5081 107.566V107.566ZM86.5081 107.566V107.726M86.5081 107.726V107.726ZM86.5081 107.726H86.3485M86.3485 107.726V107.726ZM86.3485 107.726H86.189M86.189 107.726V107.726ZM86.189 107.726V107.885M86.189 107.885V107.885ZM86.189 107.885L86.0295 107.726M86.0295 107.726V107.726ZM86.0295 107.726V107.885M86.0295 107.726H85.8699M86.0295 107.885V107.885ZM85.8699 107.726V107.885M85.8699 107.726V107.726ZM85.8699 107.726H85.7104M85.8699 107.885V107.885ZM85.7104 107.726V107.726ZM85.7104 107.726V107.566M85.7104 107.566V107.566ZM85.7104 107.566H85.5509M85.5509 107.566V107.566ZM85.5509 107.566H85.3914H85.2318M85.2318 107.566V107.566ZM85.2318 107.566L85.0723 107.406M85.0723 107.406V107.406ZM85.0723 107.406H84.9128M84.9128 107.406V107.406ZM84.9128 107.406V107.566H84.5937M84.5937 107.566V107.566ZM84.5937 107.566L84.4342 107.726M84.4342 107.726V107.726ZM84.4342 107.726H84.2746L84.1151 107.566M84.1151 107.566V107.566ZM84.1151 107.566H83.9556H83.7961M83.7961 107.566V107.566ZM83.7961 107.566H83.6365M83.6365 107.566V107.566ZM83.6365 107.566H83.477V107.726L83.3175 107.566M83.3175 107.566V107.566ZM83.3175 107.566H82.9984V107.726H82.8389M82.8389 107.726V107.726ZM82.8389 107.726H82.6793M82.6793 107.726V107.726ZM82.6793 107.726H82.5198M82.5198 107.726V107.726ZM82.5198 107.726H82.3603M82.3603 107.726V107.726ZM82.3603 107.726H82.2008V107.885M82.2008 107.885V107.885ZM82.2008 107.885H82.0412M82.0412 107.885V107.885ZM82.0412 107.885L81.8817 107.726H81.7222M81.7222 107.726V107.726ZM81.7222 107.726H81.5626M81.5626 107.726V107.726ZM81.5626 107.726H81.4031M81.4031 107.726V107.726ZM81.4031 107.726V107.885H81.2436M81.2436 107.885V107.885ZM81.2436 107.885H81.084M81.084 107.885V107.885ZM81.084 107.885H80.9245H80.765H80.6055V107.726M80.6055 107.726V107.726ZM80.6055 107.726H80.4459H80.2864M80.2864 107.726V107.726ZM80.2864 107.726L80.1269 107.885V107.726L79.9673 107.885M79.9673 107.885V107.885ZM79.9673 107.885H79.8078M79.8078 107.885V107.885ZM79.8078 107.885H79.6483V107.726H79.4887H79.3292V107.566M79.3292 107.566V107.566ZM79.3292 107.566H79.1697M79.1697 107.566V107.566ZM79.1697 107.566V107.406H79.0102M79.0102 107.406V107.406ZM79.0102 107.406L78.8506 107.247L78.6911 107.087M78.6911 107.087V107.087ZM78.6911 107.087V106.928H78.5316L78.372 106.768M78.372 106.768V106.768ZM78.372 106.768V106.609M78.372 106.609V106.609ZM78.372 106.609H78.2125M78.2125 106.609V106.609ZM78.2125 106.609L78.053 106.449V106.29H77.8934M77.8934 106.29V106.29ZM77.8934 106.29H77.7339V106.13M77.7339 106.13V106.13ZM77.7339 106.13L77.5744 105.971H77.2553L77.0958 105.811M77.0958 105.811V105.811ZM77.0958 105.811V105.652L76.9363 105.492M76.9363 105.492V105.492ZM76.9363 105.492V105.333M76.9363 105.333V105.333ZM76.9363 105.333L76.7767 105.173H76.6172V105.014M76.6172 105.014V105.014ZM76.6172 105.014H76.4577H76.2981L76.1386 104.854L75.9791 104.694M75.9791 104.694V104.694ZM75.9791 104.694L75.8196 104.535M75.8196 104.535V104.694M75.8196 104.535H75.66V104.694L75.5005 104.854H75.341V105.014H75.1814H75.0219M75.0219 105.014V105.014ZM75.0219 105.014H74.8624L74.7028 105.173L73.7457 105.492L72.4694 106.13H72.3099L72.1504 106.29H71.9908L71.5122 106.449L70.7146 106.928H70.3955H70.236L70.0765 107.087L69.5979 107.247V107.406H69.4384L68.6407 107.885L67.2049 108.523L67.0454 108.683V108.842L66.4073 110.278H66.2478V110.597H66.0882M66.0882 110.597V110.597ZM66.0882 110.597V110.757H65.9287L65.7692 111.076L65.4501 111.235L65.2906 111.554L64.9715 111.873M64.9715 111.873V111.873ZM64.9715 111.873H64.812L64.6525 112.192M64.6525 112.192V112.192ZM64.6525 112.192L64.4929 112.352H64.3334V112.671L64.1739 112.99V113.15M64.1739 113.15V113.15ZM64.1739 113.15H64.0143M64.0143 113.15V113.15ZM64.0143 113.15H63.8548M63.8548 113.15V113.15ZM63.8548 113.15L63.6953 112.99M63.6953 112.99V112.99ZM63.6953 112.99L63.5358 112.671V112.511M63.5358 112.511V112.511ZM63.5358 112.511H63.3762M63.3762 112.511V112.511ZM63.3762 112.511H63.2167M63.2167 112.511V112.511ZM63.2167 112.511V112.671L63.0572 112.511V112.671L62.8976 112.511M62.8976 112.511V112.671M62.8976 112.511V112.511ZM62.8976 112.511H62.7381M62.7381 112.511V112.511ZM62.7381 112.511H62.5786M62.5786 112.511V112.511ZM62.5786 112.511H62.419H62.2595M62.2595 112.511V112.511ZM62.2595 112.511H62.1H61.9405M61.9405 112.511V112.511ZM61.9405 112.511V112.352M61.9405 112.352V112.352ZM61.9405 112.352V112.192M61.9405 112.192V112.192ZM61.9405 112.192H61.7809M61.7809 112.192V112.192ZM61.7809 112.192V112.352M61.7809 112.352V112.352ZM61.7809 112.352H61.6214M61.6214 112.352V112.352ZM61.6214 112.352H61.4619M61.4619 112.352V112.352ZM61.4619 112.352L61.3023 112.511M61.3023 112.511V112.511ZM61.3023 112.511V112.352M61.3023 112.352V112.352ZM61.3023 112.352H61.1428M61.1428 112.352V112.352ZM61.1428 112.352H60.9833M60.9833 112.352V112.352ZM60.9833 112.352H60.8237M60.8237 112.352V112.352ZM60.8237 112.352H60.6642M60.6642 112.352V112.352ZM60.6642 112.352L60.5047 112.192M60.5047 112.192V112.192ZM60.5047 112.192H60.3452M60.3452 112.192V112.192ZM60.3452 112.192H60.1856M60.1856 112.192V112.192ZM60.1856 112.192V112.033M60.1856 112.033V112.033ZM60.1856 112.033H60.0261M60.0261 112.033V112.033ZM60.0261 112.033H59.8666M59.8666 112.033V112.033ZM59.8666 112.033L59.707 111.873M59.707 111.873V111.873ZM59.707 111.873L59.5475 111.714M59.5475 111.714V111.714ZM59.5475 111.714V111.873M59.5475 111.873V111.873ZM59.5475 111.873H59.388M59.388 111.873V111.873ZM59.388 111.873L59.2284 112.033V111.873M59.2284 111.873V111.873ZM59.2284 111.873H59.0689M59.0689 111.873V111.873ZM59.0689 111.873H58.9094V112.033M58.9094 112.033V112.033ZM58.9094 112.033L58.7499 111.873M58.7499 111.873V112.033M58.7499 111.873V111.873ZM58.7499 111.873H58.5903M58.5903 111.873V111.873ZM58.5903 111.873H58.4308M58.4308 111.873V111.873ZM58.4308 111.873V112.033H58.1117H57.9522M57.9522 112.033V112.033ZM57.9522 112.033H57.7927L57.4736 111.873H57.3141L56.8355 111.714L56.5164 111.554M56.5164 111.554V111.554ZM56.5164 111.554H56.0378V111.395M56.0378 111.395V111.395ZM56.0378 111.395L55.8783 111.076L55.7188 110.916M55.7188 110.916V110.916ZM55.7188 110.916V111.076L55.5593 111.235M55.5593 111.235V111.235ZM55.5593 111.235H55.2402V111.076L55.0807 111.235V111.076M55.0807 111.076V111.076ZM55.0807 111.076H54.9211H54.7616M54.7616 111.076V111.076ZM54.7616 111.076H54.6021M54.6021 111.076V111.076ZM54.6021 111.076V110.916H54.4425V110.757M54.4425 110.757V110.757ZM54.4425 110.757L54.283 110.597L54.1235 110.757M54.1235 110.757V110.757ZM54.1235 110.757V110.916M54.1235 110.916V110.916ZM54.1235 110.916H53.964L53.8044 111.076L53.4854 111.235L53.1663 111.076H52.8472M52.8472 111.076V111.076ZM52.8472 111.076H52.6877H52.2091H51.8901H51.7305H51.4115H51.2519L50.9329 110.916M50.9329 110.916V110.916ZM50.9329 110.916L50.7734 111.076H50.6138M50.6138 111.076V111.076ZM50.6138 111.076H50.4543M50.4543 111.076V111.076ZM50.4543 111.076H50.2948V110.916L49.9757 110.757L49.8162 110.597M49.8162 110.597V110.597ZM49.8162 110.597L49.6566 110.438M49.6566 110.438V110.438ZM49.6566 110.438H49.4971M49.4971 110.438V110.438ZM49.4971 110.438V110.278M49.4971 110.278V110.278ZM49.4971 110.278H49.3376V110.119M49.3376 110.119V110.119ZM49.3376 110.119L49.1781 109.959M49.1781 109.959V109.959ZM49.1781 109.959H49.0185V109.799H48.859L48.6995 109.64H48.5399L48.3804 109.48M48.3804 109.48V109.48ZM48.3804 109.48H48.2209L48.0613 109.321L47.9018 109.161L47.7423 109.002H47.5828L47.4232 108.842H47.2637L47.1042 108.683L46.9446 108.523H46.7851L46.6256 108.364L46.466 108.204H46.3065L46.147 108.045L45.8279 107.885M45.8279 107.885V107.885ZM45.8279 107.885V107.726H45.6684L45.5089 107.566L45.1898 107.406L44.8707 107.247L44.3922 106.768L43.9136 106.449H43.754L43.5945 106.29M43.5945 106.29V106.29ZM43.5945 106.29H43.435L42.7969 105.811L42.6373 105.652M42.6373 105.652V105.652ZM42.6373 105.652L42.4778 105.492L41.9992 105.333V105.173L41.6801 105.014L41.042 104.694L40.8825 104.535M40.8825 104.535V104.535ZM40.8825 104.535H40.723M40.723 104.535V104.535ZM40.723 104.535V104.375L40.5634 104.216V104.056H40.4039M40.4039 104.056V104.056ZM40.4039 104.056H40.2444M40.2444 104.056V104.056ZM40.2444 104.056V103.897H40.0848M40.0848 103.897V103.897ZM40.0848 103.897V103.737M40.0848 103.737V103.737ZM40.0848 103.737H39.9253M39.9253 103.737V103.737ZM39.9253 103.737V103.578M39.9253 103.737H39.7658M39.7658 103.737V103.737ZM39.7658 103.737H39.6063M39.6063 103.737V103.737ZM39.6063 103.737L39.4467 103.578M39.4467 103.578V103.578ZM39.4467 103.578H39.2872M39.2872 103.578V103.578ZM39.2872 103.578H39.1277V103.418M39.1277 103.418V103.418ZM39.1277 103.418H38.9681L38.6491 103.259H38.33L38.011 103.099H37.6919H37.3728H36.8942H36.7347H36.4157H36.2561L36.0966 102.94H35.9371L35.1394 103.099H34.9799H34.5013H34.3418H33.8632H33.7036H33.3846L32.4274 102.94M32.4274 102.94V102.94ZM32.4274 102.94H32.2679H32.1083H31.9488M31.9488 102.94V102.94ZM31.9488 102.94V102.78M31.9488 102.78V102.78ZM31.9488 102.78V102.621M31.9488 102.621V102.621ZM31.9488 102.621H32.1083M32.1083 102.621V102.621ZM32.1083 102.621V102.461M32.1083 102.461V102.461ZM32.1083 102.461V102.302M32.1083 102.302V102.302ZM32.1083 102.302H31.9488M31.9488 102.302V102.302ZM31.9488 102.302H31.7893M31.7893 102.302V102.302ZM31.7893 102.302V102.142M31.7893 102.142V102.142ZM31.7893 102.142V101.982M31.7893 101.982V101.982ZM31.7893 101.982V101.823H31.6298V101.663M31.6298 101.663V101.663ZM31.6298 101.663V101.504M31.6298 101.663V102.142M31.6298 101.504H31.7893M31.6298 101.504H31.4702V101.344M31.7893 101.504V101.504ZM31.7893 101.504H31.9488M31.7893 101.504V101.344M31.9488 101.504V101.504ZM31.7893 101.344V101.344ZM31.7893 101.344V101.185M31.7893 101.185V101.185ZM31.7893 101.185L31.6298 101.025M31.6298 101.025V101.025ZM31.6298 101.025H31.4702M31.4702 101.025V101.025ZM31.4702 101.025H31.3107V101.185M31.3107 101.185V101.185ZM31.3107 101.185V101.344M31.3107 101.344V101.344ZM31.3107 101.344H31.4702M31.4702 101.344V101.344ZM31.6298 102.142V102.142ZM31.6298 102.142L31.4702 102.302M31.4702 102.302V102.302ZM31.4702 102.302V102.142V101.982V101.823H31.1512M31.1512 101.823V101.823ZM31.1512 101.823H31.3107V101.982M31.3107 101.982V101.982ZM31.3107 101.982H31.1512M31.1512 101.982V101.982ZM31.1512 101.982V102.142M31.1512 101.982H30.9916M30.9916 101.982V101.982ZM30.9916 101.982V102.142M30.9916 102.142V102.142ZM30.9916 102.142H30.8321M30.8321 102.142V102.142ZM30.8321 102.142V102.302M30.8321 102.302V102.302ZM30.8321 102.302H30.6726M30.8321 102.302L30.6726 102.461M30.6726 102.461V102.461ZM30.6726 102.461H30.513M30.513 102.461V102.461ZM30.513 102.461H30.3535M30.3535 102.461V102.461ZM30.3535 102.461V102.621M30.3535 102.621V102.621ZM30.3535 102.621L30.194 102.78H30.0345M30.0345 102.78V102.78ZM30.0345 102.78L29.5559 102.302V102.142M29.5559 102.142V102.142ZM29.5559 102.142V101.982V101.823M29.5559 101.823V101.823ZM29.5559 101.823H29.7154M29.5559 101.823V101.663M29.5559 101.823H29.3963V101.344V101.185L28.5987 100.387L28.1201 99.9086V96.718H28.2796V96.5585M29.7154 101.823V101.823ZM29.7154 101.823L29.5559 101.663M29.5559 101.663V101.663ZM28.2796 96.5585V96.5585ZM28.2796 96.5585H28.4392M28.4392 96.5585V96.5585ZM28.4392 96.5585V96.3989M28.4392 96.3989V96.3989ZM28.4392 96.3989V96.2394M28.4392 96.2394V96.2394ZM28.4392 96.2394H28.5987M28.5987 96.2394V96.2394ZM28.5987 96.2394V96.0799M28.5987 96.0799V96.0799ZM28.5987 96.0799V95.9203M28.5987 95.9203V95.9203ZM28.5987 95.9203V95.7608M28.5987 95.7608V95.7608ZM28.5987 95.7608V95.6013M28.5987 95.6013V95.6013ZM28.5987 95.6013H28.4392M28.4392 95.6013V95.6013ZM28.4392 95.6013V95.4417M28.4392 95.4417V95.4417ZM28.4392 95.4417H28.2796M28.2796 95.4417V95.4417ZM28.2796 95.4417V95.2822M28.2796 95.2822V95.2822ZM28.2796 95.2822V95.1227M28.2796 95.1227V95.1227ZM28.2796 95.1227H28.4392M28.4392 95.1227V95.1227ZM28.4392 95.1227V94.9632M28.4392 94.9632V94.9632ZM28.4392 94.9632H28.5987M28.4392 94.9632V94.8036L28.5987 94.9632M28.5987 94.9632V94.9632ZM28.5987 94.9632V94.8036M28.5987 94.8036V94.8036ZM28.5987 94.8036V94.6441M28.5987 94.6441V94.6441ZM28.5987 94.6441V94.4846H28.4392M28.4392 94.4846V94.4846ZM28.4392 94.4846V94.6441M28.4392 94.4846H28.2796M28.2796 94.4846V94.4846ZM28.2796 94.4846H28.1201L28.2796 94.325H28.1201M28.1201 94.325V94.325ZM28.1201 94.325H27.9606M27.9606 94.325V94.325ZM27.9606 94.325H27.801M27.801 94.325V94.325ZM27.801 94.325V94.1655M27.801 94.325H27.6415M27.801 94.1655V94.1655ZM27.6415 94.325V94.325ZM27.6415 94.325V94.1655M27.6415 94.1655V94.1655ZM27.6415 94.1655H27.482M27.482 94.1655V94.1655ZM27.482 94.1655V94.006M27.482 94.006V94.006ZM27.482 94.006H27.3224M27.3224 94.006V94.006ZM27.3224 94.006H27.1629M27.1629 94.006V94.006ZM27.1629 94.006V93.8464M27.1629 93.8464V93.8464ZM27.1629 93.8464H27.0034M27.0034 93.8464V93.8464ZM27.0034 93.8464V94.006M27.0034 93.8464H26.8439M27.0034 94.006V94.006ZM26.8439 93.8464V94.006M26.8439 93.8464V93.8464ZM26.8439 94.006V94.006ZM26.8439 94.006H26.6843M26.6843 94.006V94.006ZM26.6843 94.006V93.8464M26.6843 93.8464V93.8464ZM26.6843 93.8464H26.5248M26.5248 93.8464V93.8464ZM26.5248 93.8464V94.006M26.5248 94.006V94.006ZM26.5248 94.006H26.3653M26.3653 94.006V94.006ZM26.3653 94.006H26.2057M26.2057 94.006V94.006ZM26.2057 94.006V93.8464M26.2057 93.8464V93.8464ZM26.2057 93.8464H26.0462M26.0462 93.8464V93.8464ZM26.0462 93.8464V93.6869M26.0462 93.6869V93.6869ZM26.0462 93.6869H25.8867M25.8867 93.6869V93.6869ZM25.8867 93.6869H25.7271M25.7271 93.6869V93.6869ZM25.7271 93.6869H25.5676M25.5676 93.6869V93.6869ZM25.5676 93.6869V93.5274L25.4081 93.6869M25.4081 93.6869V93.6869ZM25.4081 93.6869H25.2486M25.2486 93.6869V93.6869ZM25.2486 93.6869V93.5274M25.2486 93.6869H25.089M25.2486 93.5274V93.5274ZM25.2486 93.5274L25.089 93.6869M25.089 93.6869V93.6869ZM25.089 93.6869H24.9295M24.9295 93.6869V93.6869ZM24.9295 93.6869H24.77M24.9295 93.6869L24.77 93.8464M24.77 93.8464V93.8464ZM24.77 93.8464H24.6104M24.6104 93.8464V93.8464ZM24.6104 93.8464V94.006M24.6104 94.006V94.006ZM24.6104 94.006H24.4509M24.4509 94.006V94.006ZM24.4509 94.006V94.1655M24.4509 94.1655V94.1655ZM24.4509 94.1655H24.2914M24.2914 94.1655V94.1655ZM24.2914 94.1655H24.1318M24.1318 94.1655V94.1655ZM24.1318 94.1655H23.9723M23.9723 94.1655V94.1655ZM23.9723 94.1655V94.325M23.9723 94.325V94.325ZM23.9723 94.325H23.8128M23.8128 94.325V94.325ZM23.8128 94.325H23.6533M23.6533 94.325V94.325ZM23.6533 94.325H23.4937M23.4937 94.325V94.325ZM23.4937 94.325V94.4846M23.4937 94.4846V94.4846ZM23.4937 94.4846H23.3342M23.3342 94.4846V94.4846ZM23.3342 94.4846V94.325M23.3342 94.325V94.325ZM23.3342 94.325H23.1747M23.1747 94.325V94.325ZM23.1747 94.325V94.1655M23.1747 94.1655V94.1655ZM23.1747 94.1655V94.006M23.1747 94.006V94.006ZM23.1747 94.006V93.8464M23.1747 93.8464V93.8464ZM23.1747 93.8464V93.6869M23.1747 93.6869V93.6869ZM23.1747 93.6869V93.5274M23.1747 93.5274V93.5274ZM23.1747 93.5274V93.3679M23.1747 93.3679V93.3679ZM23.1747 93.3679L23.3342 93.2083M23.3342 93.2083V93.2083ZM23.3342 93.2083V93.0488M23.3342 93.0488V93.0488ZM23.3342 93.0488V92.8893M23.3342 92.8893V92.8893ZM23.3342 92.8893L21.5794 91.613V90.9749L20.7817 89.5391L20.3031 89.0605M20.3031 89.0605V89.0605ZM20.3031 89.0605L20.4627 88.901M20.4627 88.901V88.901ZM20.4627 88.901V88.7415M20.4627 88.7415V88.7415ZM20.4627 88.7415H20.3031M20.3031 88.7415V88.7415ZM20.3031 88.7415V88.582M20.3031 88.582V88.582ZM20.3031 88.582V88.4224M20.3031 88.4224V88.4224ZM20.3031 88.4224V88.2629M20.3031 88.2629V88.2629ZM20.3031 88.2629V88.1034M20.3031 88.1034V88.1034ZM20.3031 88.1034H20.4627V87.9438M20.4627 87.9438H20.3031M20.4627 87.9438V87.9438ZM20.4627 87.9438V87.7843M20.3031 87.9438V87.9438ZM20.4627 87.7843V87.7843ZM20.4627 87.7843H20.3031M20.3031 87.7843V87.7843ZM20.3031 87.7843V87.6248M20.3031 87.6248V87.6248ZM20.3031 87.6248V87.4652M20.3031 87.4652V87.4652ZM20.3031 87.4652V87.3057M20.3031 87.3057V87.3057ZM20.3031 87.3057H20.1436M20.1436 87.3057V87.3057ZM20.1436 87.3057V87.1462M20.1436 87.1462V87.1462ZM20.1436 87.1462H19.9841M19.9841 87.1462V87.1462ZM19.9841 87.1462L20.1436 86.9867H19.9841M19.9841 86.9867V86.9867ZM19.9841 86.9867V86.8271M19.9841 86.8271V86.8271ZM19.9841 86.8271V86.6676M19.9841 86.6676V86.6676ZM19.9841 86.6676V86.5081M19.9841 86.5081V86.5081ZM19.9841 86.5081V86.3485M19.9841 86.3485V86.3485ZM19.9841 86.3485H20.1436M20.1436 86.3485V86.3485ZM20.1436 86.3485V86.189M20.1436 86.189V86.189ZM20.1436 86.189V86.0295H19.9841M19.9841 86.0295V86.0295ZM19.9841 86.0295V85.8699M19.9841 85.8699V85.8699ZM19.9841 85.8699V85.7104M19.9841 85.7104V85.7104ZM19.9841 85.7104H19.8245M19.8245 85.7104V85.7104ZM19.8245 85.7104V85.5509M19.8245 85.5509V85.5509ZM19.8245 85.5509H19.9841M19.9841 85.5509V85.5509ZM19.9841 85.5509V85.3914M19.9841 85.3914V85.3914ZM19.9841 85.3914V85.2318M19.9841 85.2318V85.2318ZM19.9841 85.2318V85.0723M19.9841 85.0723V85.0723ZM19.9841 85.0723H20.1436M20.1436 85.0723V85.0723ZM20.1436 85.0723V84.9128M20.1436 84.9128V84.9128ZM20.1436 84.9128H20.3031M20.3031 84.9128V84.9128ZM20.3031 84.9128V84.7532M20.3031 84.7532H20.1436M20.3031 84.7532V84.7532ZM20.3031 84.7532V84.5937M20.3031 84.5937V84.5937ZM20.3031 84.5937V84.4342M20.3031 84.4342V84.4342ZM20.3031 84.4342H20.1436M20.3031 84.4342V84.2746M20.3031 84.2746V84.2746ZM20.3031 84.2746V84.1151M20.3031 84.1151V84.1151ZM20.3031 84.1151H20.4627M20.4627 84.1151V84.1151ZM20.4627 84.1151V83.9556M20.4627 83.9556V83.9556ZM20.4627 83.9556V83.7961M20.4627 83.7961V83.7961ZM20.4627 83.7961V83.6365M20.4627 83.6365V83.6365ZM20.4627 83.6365V83.477M20.4627 83.477V83.477ZM20.4627 83.477H20.3031M20.3031 83.477V83.477ZM20.3031 83.477V83.3175M20.3031 83.3175V83.3175ZM20.3031 83.3175H20.1436M20.1436 83.3175V83.3175ZM20.1436 83.3175V83.1579M20.1436 83.1579V83.1579ZM20.1436 83.1579H19.9841M19.9841 83.1579V83.1579ZM19.9841 83.1579V82.9984M19.9841 82.9984V82.9984ZM19.9841 82.9984H19.8245M19.8245 82.9984V82.9984ZM19.8245 82.9984V82.8389M19.8245 82.8389V82.8389ZM19.8245 82.8389V82.6793M19.8245 82.6793V82.6793ZM19.8245 82.6793H19.665M19.665 82.6793V82.6793ZM19.665 82.6793L19.5055 82.5198M19.5055 82.5198V82.5198ZM19.5055 82.5198V82.3603M19.5055 82.3603V82.3603ZM19.5055 82.3603H19.3459M19.3459 82.3603V82.3603ZM19.3459 82.3603V82.5198M19.3459 82.3603H19.1864M19.3459 82.5198V82.5198ZM19.1864 82.3603V82.3603ZM19.1864 82.3603L19.3459 82.2008M19.3459 82.2008V82.2008ZM19.3459 82.2008H19.1864M19.1864 82.2008V82.2008ZM19.1864 82.2008H19.0269M19.0269 82.2008V82.2008ZM19.0269 82.2008H18.8674M18.8674 82.2008V82.2008ZM18.8674 82.2008H18.7078M18.7078 82.2008V82.2008ZM18.7078 82.2008H18.5483M18.5483 82.2008V82.2008ZM18.5483 82.2008H18.3888M18.3888 82.2008V82.2008ZM18.3888 82.2008V82.3603M18.3888 82.3603V82.3603ZM18.3888 82.3603H18.2292M18.2292 82.3603V82.3603ZM18.2292 82.3603V82.2008M18.2292 82.2008V82.2008ZM18.2292 82.2008H18.0697M18.0697 82.2008V82.2008ZM18.0697 82.2008V82.3603M18.0697 82.2008V82.0412M18.0697 82.0412V82.0412ZM18.0697 82.0412H17.9102M17.9102 82.0412V82.0412ZM17.9102 82.0412V81.8817M17.9102 81.8817V81.8817ZM17.9102 81.8817H17.7506M17.7506 81.8817V81.8817ZM17.7506 81.8817V81.7222M17.7506 81.7222V81.7222ZM17.7506 81.7222H17.5911M17.5911 81.7222V81.7222ZM17.5911 81.7222V81.5626M17.5911 81.5626V81.5626ZM17.5911 81.5626H17.4316M17.4316 81.5626V81.5626ZM17.4316 81.5626V81.4031M17.4316 81.4031H17.5911M17.4316 81.4031V81.4031ZM17.4316 81.4031V81.2436M17.5911 81.4031V81.4031ZM17.4316 81.2436V81.2436ZM17.4316 81.2436H17.2721M17.2721 81.2436V81.2436ZM17.2721 81.2436H17.1125M17.1125 81.2436V81.2436ZM17.1125 81.2436V81.084M17.1125 81.084V81.084ZM17.1125 81.084H16.953M16.953 81.084V81.084ZM16.953 81.084V80.9245M16.953 80.9245V80.9245ZM16.953 80.9245H16.7935M16.7935 80.9245V80.9245ZM16.7935 80.9245V80.765M16.7935 80.765V80.765ZM16.7935 80.765L16.6339 80.9245M16.6339 80.9245V80.9245ZM16.6339 80.9245V81.084M16.6339 80.9245H16.4744M16.6339 81.084V81.084ZM16.4744 80.9245V80.9245ZM16.4744 80.9245H16.3149M16.3149 80.9245V80.9245ZM16.3149 80.9245H16.1553M16.1553 80.9245V80.9245ZM16.1553 80.9245H15.9958M15.9958 80.9245V80.9245ZM15.9958 80.9245V80.765M15.9958 80.765V80.765ZM15.9958 80.765H15.8363M15.8363 80.765V80.765ZM15.8363 80.765V80.6055M15.8363 80.6055V80.6055ZM15.8363 80.6055V80.4459M15.8363 80.4459V80.4459ZM15.8363 80.4459V80.2864M15.8363 80.2864V80.2864ZM15.8363 80.2864H15.9958M15.8363 80.2864V80.1269M15.9958 80.2864V80.2864ZM15.8363 80.1269V80.1269ZM15.8363 80.1269H15.9958M15.8363 80.1269V79.9673M15.9958 80.1269V80.1269ZM15.8363 79.9673V79.9673ZM15.8363 79.9673V79.8078M15.8363 79.8078V79.8078ZM15.8363 79.8078H15.6768M15.8363 79.8078V79.6483M15.6768 79.8078V79.8078ZM15.6768 79.8078V79.6483M15.8363 79.6483V79.6483ZM15.8363 79.6483H15.6768M15.6768 79.6483V79.6483ZM15.6768 79.6483V79.4887M15.6768 79.4887V79.4887ZM15.6768 79.4887H15.5172M15.5172 79.4887V79.4887ZM15.5172 79.4887H15.3577M15.3577 79.4887V79.4887ZM15.3577 79.4887V79.3292M15.3577 79.3292V79.3292ZM15.3577 79.3292L15.1982 79.1697M15.1982 79.1697V79.1697ZM15.1982 79.1697H15.0386M15.0386 79.1697V79.1697ZM15.0386 79.1697H14.8791M14.8791 79.1697V79.1697ZM14.8791 79.1697H14.7196M14.7196 79.1697V79.1697ZM14.7196 79.1697H14.56M14.56 79.1697V79.1697ZM14.56 79.1697V79.0102M14.56 79.1697H14.4005M14.56 79.0102V79.0102ZM14.4005 79.1697V79.1697ZM14.4005 79.1697H14.241M14.241 79.1697V79.1697ZM14.241 79.1697H14.0815M14.0815 79.1697V79.1697ZM14.0815 79.1697V79.0102M14.0815 79.0102V79.0102ZM14.0815 79.0102H13.9219M13.9219 79.0102V79.0102ZM13.9219 79.0102V79.1697M13.9219 79.0102H13.7624M13.9219 79.1697V79.1697ZM13.7624 79.0102V79.0102ZM13.7624 79.0102V78.8506M13.7624 78.8506V78.8506ZM13.7624 78.8506H13.6029M13.6029 78.8506V78.8506ZM13.6029 78.8506H13.4433M13.6029 78.8506V78.6911M13.4433 78.8506V78.8506ZM13.6029 78.6911V78.6911ZM13.6029 78.6911H13.4433M13.6029 78.6911V78.5316M13.4433 78.6911V78.6911ZM13.6029 78.5316V78.5316ZM13.6029 78.5316H13.4433M13.4433 78.5316V78.5316ZM13.4433 78.5316V78.372M13.4433 78.5316H13.2838V78.372M13.4433 78.372V78.372ZM13.4433 78.372H13.2838M13.2838 78.372V78.372ZM13.2838 78.372V78.2125M13.2838 78.2125V78.2125ZM13.2838 78.2125H13.1243M13.1243 78.2125V78.2125ZM13.1243 78.2125V78.372M13.1243 78.372V78.372ZM13.1243 78.372H12.9647M12.9647 78.372V78.372ZM12.9647 78.372V78.2125M12.9647 78.2125V78.2125ZM12.9647 78.2125H12.8052M12.8052 78.2125V78.2125ZM12.8052 78.2125V78.053M12.8052 78.053V78.053ZM12.8052 78.053H12.6457M12.6457 78.053V78.053ZM12.6457 78.053L12.8052 77.8934H12.6457M12.6457 78.053V77.8934M12.6457 77.8934V77.8934ZM12.6457 77.8934H12.4862M12.6457 77.8934L12.4862 77.7339M12.4862 77.8934V77.8934ZM12.4862 77.8934V77.7339M12.4862 77.7339V77.7339ZM12.4862 77.7339H12.6457M12.4862 77.7339V77.5744M12.6457 77.7339V77.7339ZM12.4862 77.5744V77.5744ZM12.4862 77.5744V77.4149M12.4862 77.4149V77.4149ZM12.4862 77.4149H12.6457M12.4862 77.4149V77.2553M12.6457 77.4149V77.4149ZM12.4862 77.2553V77.2553ZM12.4862 77.2553H12.6457M12.6457 77.2553V77.2553ZM12.6457 77.2553L12.4862 77.0958M12.4862 77.0958V77.0958ZM12.4862 77.0958H12.3266V76.9363M12.3266 76.9363V76.9363ZM12.3266 76.9363H12.1671M12.1671 76.9363V76.9363ZM12.1671 76.9363H12.0076M12.0076 76.9363V76.9363ZM12.0076 76.9363V76.7767M12.0076 76.7767V76.7767ZM12.0076 76.7767H11.848M11.848 76.7767V76.7767ZM11.848 76.7767V76.6172H11.6885M11.6885 76.6172V76.6172ZM11.6885 76.6172V76.7767M11.6885 76.6172V76.4577M11.6885 76.7767V76.7767ZM11.6885 76.4577V76.4577ZM11.6885 76.4577H11.529M11.529 76.4577V76.4577ZM11.529 76.4577V76.2981M11.529 76.2981V76.2981ZM11.529 76.2981H11.3694M11.3694 76.2981V76.2981ZM11.3694 76.2981V76.1386M11.3694 76.2981H11.2099V76.1386M11.3694 76.1386V76.1386ZM11.2099 76.1386V76.1386ZM11.2099 76.1386H11.0504M11.0504 76.1386V76.1386ZM11.0504 76.1386V75.9791M11.0504 75.9791V75.9791ZM11.0504 75.9791H10.8909M10.8909 75.9791V75.9791ZM10.8909 75.9791V75.8196M10.8909 75.8196V75.8196ZM10.8909 75.8196V75.66M10.8909 75.8196H11.0504M10.8909 75.66V75.66ZM11.0504 75.8196V75.8196ZM11.0504 75.8196V75.66M11.0504 75.66V75.66ZM11.0504 75.66V75.5005M11.0504 75.5005V75.5005ZM11.0504 75.5005V75.341M11.0504 75.341V75.341ZM11.0504 75.341V75.1814M11.0504 75.1814V75.1814ZM11.0504 75.1814V75.0219M11.0504 75.0219V75.0219ZM11.0504 75.0219V74.8624M11.0504 74.8624V74.8624ZM11.0504 74.8624H10.8909V74.7028M10.8909 74.7028V74.7028ZM10.8909 74.7028H10.7313M10.7313 74.7028V74.7028ZM10.7313 74.7028V74.5433M10.7313 74.5433V74.5433ZM10.7313 74.5433V74.3838M10.7313 74.3838V74.3838ZM10.7313 74.3838V74.2243M10.7313 74.2243V74.2243ZM10.7313 74.2243H10.5718M10.5718 74.2243V74.2243ZM10.5718 74.2243V74.0647M10.5718 74.0647V74.0647ZM10.5718 74.0647H10.4123M10.4123 74.0647V74.0647ZM10.4123 74.0647H10.2527V73.9052M10.2527 73.9052V73.9052ZM10.2527 73.9052V73.7457M10.2527 73.7457V73.7457ZM10.2527 73.7457H10.0932M10.0932 73.7457V73.7457ZM10.0932 73.7457H9.93368M10.0932 73.7457V73.5861H9.93368M9.93368 73.7457V73.7457ZM9.93368 73.5861V73.5861ZM9.93368 73.5861H9.77415V73.4266M9.77415 73.4266V73.4266ZM9.77415 73.4266V73.2671M9.77415 73.2671V73.2671ZM9.77415 73.2671V73.1075M9.77415 73.1075V73.1075ZM9.77415 73.1075H9.61462M9.61462 73.1075V73.1075ZM9.61462 73.1075H9.45509M9.45509 73.1075V73.1075ZM9.45509 73.1075V72.948M9.45509 72.948V72.948ZM9.45509 72.948H9.29556M9.29556 72.948V72.948ZM9.29556 72.948H9.13603M9.13603 72.948V72.948ZM9.13603 72.948H8.9765M8.9765 72.948V72.948ZM8.9765 72.948V72.7885M8.9765 72.7885V72.7885ZM8.9765 72.7885H8.81697M8.81697 72.7885V72.7885ZM8.81697 72.7885L8.65744 72.629M8.65744 72.629V72.629ZM8.65744 72.629V72.4694H8.49791M8.49791 72.4694V72.4694ZM8.49791 72.4694H8.33838V72.3099M8.33838 72.3099V72.3099ZM8.33838 72.3099H8.17885M8.17885 72.3099V72.3099ZM8.17885 72.3099V72.1504M8.17885 72.1504V72.1504ZM8.17885 72.1504L8.01932 71.9908M8.01932 71.9908V71.9908ZM8.01932 71.9908H7.85979M7.85979 71.9908V71.9908ZM7.85979 71.9908V71.8313M7.85979 71.8313V71.8313ZM7.85979 71.8313H7.70026M7.70026 71.8313V71.8313ZM7.70026 71.8313V71.9908M7.70026 71.8313H7.54073M7.54073 71.8313V71.8313ZM7.54073 71.8313V71.6718M7.54073 71.6718V71.6718ZM7.54073 71.6718H7.3812M7.3812 71.6718V71.6718ZM7.3812 71.6718H7.22167M7.22167 71.6718V71.6718ZM7.22167 71.6718H7.06214M7.06214 71.6718V71.6718ZM7.06214 71.6718H6.90261M6.90261 71.6718V71.6718ZM6.90261 71.6718H6.74308M6.74308 71.6718V71.6718ZM6.74308 71.6718H6.58355M6.58355 71.6718V71.6718ZM6.58355 71.6718V71.5122M6.58355 71.5122V71.5122ZM6.58355 71.5122H6.42402M6.42402 71.5122V71.5122ZM6.42402 71.5122V71.6718M6.42402 71.6718V71.6718ZM6.42402 71.6718H6.26449M6.26449 71.6718V71.6718ZM6.26449 71.6718V71.5122M6.26449 71.5122V71.5122ZM6.26449 71.5122V71.3527M6.26449 71.3527V71.3527ZM6.26449 71.3527H6.10496M6.10496 71.3527V71.3527ZM6.10496 71.3527V71.1932M6.10496 71.1932V71.1932ZM6.10496 71.1932H5.94543M5.94543 71.1932V71.1932ZM5.94543 71.1932V71.3527M5.94543 71.1932H5.7859M5.94543 71.3527V71.3527ZM5.7859 71.1932V71.1932ZM5.7859 71.1932H5.62637M5.62637 71.1932V71.0337M5.62637 71.1932L5.46684 71.0337M5.62637 71.1932V71.1932ZM5.62637 71.1932H5.46684M5.62637 71.0337V71.0337ZM5.62637 71.0337H5.46684M5.46684 71.0337V71.0337ZM5.46684 71.0337V71.1932M5.46684 71.0337H5.30731M5.46684 71.1932V71.1932ZM5.46684 71.1932H5.30731M5.46684 71.1932L5.30731 71.0337M5.30731 71.1932V71.1932ZM5.30731 71.1932V71.0337M5.30731 71.0337V71.0337ZM5.30731 71.0337H5.14778M5.14778 71.0337V71.0337ZM5.14778 71.0337V71.1932M5.14778 71.1932V71.1932ZM5.14778 71.1932H4.98825M4.98825 71.1932V71.1932ZM4.98825 71.1932V71.3527M4.98825 71.1932H4.82872M4.82872 71.1932V71.3527M4.82872 71.1932V71.1932ZM4.82872 71.1932H4.66919M4.82872 71.3527V71.3527ZM4.66919 71.1932V71.1932ZM4.66919 71.1932V71.3527M4.66919 71.3527V71.3527ZM4.66919 71.3527H4.50966M4.50966 71.3527V71.3527ZM4.50966 71.3527H4.35013M4.35013 71.3527V71.3527ZM4.35013 71.3527V71.5122M4.35013 71.5122V71.5122ZM4.35013 71.5122H4.1906M4.1906 71.5122V71.5122ZM4.1906 71.5122V71.3527M4.1906 71.3527V71.3527ZM4.1906 71.3527V71.1932M4.1906 71.3527H4.03107M4.1906 71.1932V71.1932ZM4.03107 71.3527V71.3527ZM4.03107 71.3527V71.1932M4.03107 71.1932V71.1932ZM4.03107 71.1932H3.87154M3.87154 71.1932V71.1932ZM3.87154 71.1932V71.0337M3.87154 71.0337V71.0337ZM3.87154 71.0337H3.71201M3.71201 71.0337V71.0337ZM3.71201 71.0337H3.55248M3.55248 71.0337V71.0337ZM3.55248 71.0337V70.8741M3.55248 70.8741V70.8741ZM3.55248 70.8741H3.39295M3.39295 70.8741V70.8741ZM3.39295 70.8741V70.7146M3.39295 70.8741H3.23342M3.39295 70.7146V70.7146ZM3.23342 70.8741V70.8741ZM3.23342 70.8741H3.07389M3.07389 70.8741V70.8741ZM3.07389 70.8741V70.7146M3.07389 70.7146V70.7146ZM3.07389 70.7146H2.91436M2.91436 70.7146V70.7146ZM2.91436 70.7146H2.75483M2.75483 70.7146V70.7146ZM2.75483 70.7146V70.5551M2.75483 70.7146H2.5953M2.75483 70.5551L2.5953 70.7146M2.75483 70.5551V70.5551ZM2.75483 70.5551H2.5953M2.5953 70.7146V70.5551M2.5953 70.7146V70.7146ZM2.5953 70.7146H2.43577M2.5953 70.5551V70.5551ZM2.43577 70.7146V70.7146ZM2.43577 70.7146H2.27624M2.27624 70.7146V70.7146ZM2.27624 70.7146H2.11671M2.11671 70.7146V70.7146ZM2.11671 70.7146V70.8741M2.11671 70.7146H1.95718M1.95718 70.7146V70.5551M1.95718 70.7146V70.7146ZM1.95718 70.7146L1.79765 70.5551M1.95718 70.5551V70.5551ZM1.79765 70.5551V70.5551ZM1.79765 70.5551V70.7146M1.79765 70.7146V70.7146ZM1.79765 70.7146H1.63812M1.63812 70.7146V70.7146ZM1.63812 70.7146V70.5551M1.63812 70.7146H1.47859M1.63812 70.5551V70.5551ZM1.63812 70.5551L1.47859 70.7146M1.63812 70.5551H1.47859M1.47859 70.7146V70.7146ZM1.47859 70.5551V70.5551ZM1.47859 70.5551V70.3955M1.47859 70.3955V70.3955ZM1.47859 70.3955H1.31906V70.236M1.31906 70.236V70.236ZM1.31906 70.236V70.0765M1.31906 70.0765V70.0765ZM1.31906 70.0765H1.15953M1.15953 70.0765V70.0765ZM1.15953 70.0765V69.9169M1.15953 69.9169V69.9169ZM1.15953 69.9169V69.7574M1.15953 69.7574V69.7574ZM1.15953 69.7574H1.31906M1.31906 69.7574V69.7574ZM1.31906 69.7574V69.5979H1.15953M1.15953 69.5979V69.5979ZM1.15953 69.5979V69.4384M1.15953 69.4384V69.4384ZM1.15953 69.4384V69.2788M1.15953 69.2788V69.2788ZM1.15953 69.2788H1M1 69.2788V69.2788ZM1 69.2788V69.1193H1.15953M1.15953 69.1193V69.1193ZM1.15953 69.1193H1.31906M1.31906 69.1193V69.1193ZM1.31906 69.1193V68.9598H1.47859M1.47859 68.9598V68.9598ZM1.47859 68.9598V68.8002M1.47859 68.8002V68.8002ZM1.47859 68.8002V68.6407M1.47859 68.6407V68.6407ZM1.47859 68.6407V68.4812M1.47859 68.4812V68.4812ZM1.47859 68.4812H1.63812M1.63812 68.4812V68.4812ZM1.63812 68.4812H1.79765M1.79765 68.4812V68.4812ZM1.79765 68.4812V68.3216M1.79765 68.3216V68.3216ZM1.79765 68.3216L1.95718 68.1621M1.95718 68.1621V68.1621ZM1.95718 68.1621H1.79765M1.95718 68.1621V68.0026M1.79765 68.1621V68.1621ZM1.95718 68.0026V68.0026ZM1.95718 68.0026V67.8431M1.95718 67.8431V67.8431ZM1.95718 67.8431H2.11671V68.0026M2.11671 68.0026V68.0026ZM2.11671 68.0026H2.27624M2.27624 68.0026V68.0026ZM2.27624 68.0026V67.8431M2.27624 67.8431V67.8431ZM2.27624 67.8431V67.6835M2.27624 67.6835V67.6835ZM2.27624 67.6835V67.524M2.27624 67.524V67.524ZM2.27624 67.524H2.43577M2.43577 67.524V67.524ZM2.43577 67.524H2.5953M2.5953 67.524V67.524ZM2.5953 67.524H2.75483M2.75483 67.524V67.524ZM2.75483 67.524V67.3645M2.75483 67.3645V67.3645ZM2.75483 67.3645H2.91436M2.91436 67.3645V67.3645ZM2.91436 67.3645V67.2049M2.91436 67.2049V67.2049ZM2.91436 67.2049V67.0454M2.91436 67.0454V67.0454ZM2.91436 67.0454H2.75483V66.8859M2.75483 66.8859V66.8859ZM2.75483 66.8859V66.7263M2.75483 66.7263V66.7263ZM2.75483 66.7263L2.91436 66.5668M2.91436 66.5668V66.5668ZM2.91436 66.5668H3.07389M3.07389 66.5668V66.5668ZM3.07389 66.5668V66.4073M3.07389 66.4073V66.4073ZM3.07389 66.4073V66.2478M3.07389 66.2478V66.2478ZM3.07389 66.2478H2.91436M2.91436 66.2478V66.2478ZM2.91436 66.2478H2.75483M2.75483 66.2478V66.2478ZM2.75483 66.2478V66.0882M2.75483 66.0882V66.0882ZM2.75483 66.0882V65.9287M2.75483 65.9287V65.9287ZM2.75483 65.9287V65.7692M2.75483 65.7692V65.7692ZM2.75483 65.7692H2.91436M2.91436 65.7692V65.7692ZM2.91436 65.7692H3.07389V65.6096M3.07389 65.6096V65.6096ZM3.07389 65.6096L2.91436 65.4501M2.91436 65.4501V65.4501ZM2.91436 65.4501H3.07389M3.07389 65.4501V65.4501ZM3.07389 65.4501L3.23342 65.2906M3.23342 65.2906V65.2906ZM3.23342 65.2906V65.131M3.23342 65.131V65.131ZM3.23342 65.131H3.07389M3.07389 65.131V65.131ZM3.07389 65.131V65.2906H2.91436M2.91436 65.2906V65.2906ZM2.91436 65.2906V65.131M2.91436 65.131V65.131ZM2.91436 65.131V64.9715M2.91436 64.9715V64.9715ZM2.91436 64.9715V64.812M2.91436 64.812V64.812ZM2.91436 64.812V64.6525M2.91436 64.6525V64.6525ZM2.91436 64.6525H3.07389M3.07389 64.6525V64.6525ZM3.07389 64.6525H3.23342M3.23342 64.6525V64.6525ZM3.23342 64.6525V64.4929M3.23342 64.4929V64.4929ZM3.23342 64.4929H3.07389M3.23342 64.4929H3.39295M3.39295 64.4929V64.4929ZM3.39295 64.4929V64.3334M3.39295 64.3334H3.55248M3.39295 64.3334V64.3334ZM3.55248 64.3334V64.3334ZM3.55248 64.3334V64.1739H3.71201M3.71201 64.1739V64.1739ZM3.71201 64.1739H3.87154M3.87154 64.1739V64.1739ZM3.87154 64.1739V64.3334M3.87154 64.3334V64.3334ZM3.87154 64.3334H4.03107M4.03107 64.3334V64.3334ZM4.03107 64.3334V64.1739M4.03107 64.1739V64.1739ZM4.03107 64.1739H4.1906M4.1906 64.1739V64.1739ZM4.1906 64.1739V64.3334M4.1906 64.3334V64.3334ZM4.1906 64.3334H4.35013M4.35013 64.3334V64.3334ZM4.35013 64.3334H4.50966M4.50966 64.3334V64.3334ZM4.50966 64.3334H4.66919M4.66919 64.3334V64.3334ZM4.66919 64.3334V64.4929M4.66919 64.3334L4.82872 64.4929M4.82872 64.4929V64.4929ZM4.82872 64.4929H4.98825M4.98825 64.4929V64.4929ZM4.98825 64.4929V64.3334M4.98825 64.3334V64.3334ZM4.98825 64.3334H5.14778M5.14778 64.3334V64.3334ZM5.14778 64.3334H5.30731M5.30731 64.3334V64.3334ZM5.30731 64.3334H5.46684M5.46684 64.3334V64.3334ZM5.46684 64.3334V64.1739M5.46684 64.1739V64.1739ZM5.46684 64.1739H5.62637M5.62637 64.1739V64.1739ZM5.62637 64.1739H5.7859M5.7859 64.1739V64.1739ZM5.7859 64.1739V64.0143M5.7859 64.0143V64.0143ZM5.7859 64.0143H5.94543M5.94543 64.0143V64.0143ZM5.94543 64.0143H6.10496M6.10496 64.0143V64.1739M6.10496 64.0143H6.26449M6.10496 64.1739V64.1739ZM6.26449 64.0143V64.0143ZM6.26449 64.0143V64.1739M6.26449 64.1739V64.1739ZM6.26449 64.1739H6.42402M6.42402 64.1739V64.1739ZM6.42402 64.1739V64.0143M6.42402 64.1739H6.58355M6.42402 64.0143V64.0143ZM6.42402 64.0143L6.58355 64.1739M6.58355 64.1739V64.1739ZM6.58355 64.1739V64.3334M6.58355 64.3334V64.3334ZM6.58355 64.3334H6.74308M6.74308 64.3334V64.3334ZM6.74308 64.3334H6.90261M6.90261 64.3334V64.3334ZM6.90261 64.3334V64.1739M6.90261 64.1739V64.1739ZM6.90261 64.1739H7.06214M7.06214 64.1739V64.1739ZM7.06214 64.1739V64.0143M7.06214 64.1739H7.22167M7.06214 64.0143V64.0143ZM7.22167 64.1739V64.1739ZM7.22167 64.1739H7.3812M7.3812 64.1739V64.1739ZM7.3812 64.1739V64.3334M7.3812 64.3334V64.3334ZM7.3812 64.3334H7.54073M7.54073 64.3334V64.3334ZM7.54073 64.3334L7.70026 64.4929M7.70026 64.4929H7.54073M7.70026 64.4929V64.6525M7.54073 64.4929V64.4929ZM7.70026 64.6525V64.6525ZM7.70026 64.6525V64.812M7.70026 64.812V64.812ZM7.70026 64.812V64.9715M7.70026 64.9715V64.9715ZM7.70026 64.9715H7.85979M7.85979 64.9715V64.9715ZM7.85979 64.9715L8.01932 65.131M8.01932 65.131V65.131ZM8.01932 65.131H8.17885M8.17885 65.131V65.131ZM8.17885 65.131V64.9715M8.17885 64.9715V64.9715ZM8.17885 64.9715H8.33838M8.33838 64.9715V64.9715ZM8.33838 64.9715L8.49791 65.131M8.49791 65.131V65.131ZM8.49791 65.131V64.9715M8.49791 64.9715V64.9715ZM8.49791 64.9715H8.65744M8.65744 64.9715V64.9715ZM8.65744 64.9715V64.812M8.65744 64.812V64.812ZM8.65744 64.812H8.81697M8.81697 64.812V64.812ZM8.81697 64.812H8.9765M8.9765 64.812V64.812ZM8.9765 64.812V64.6525M8.9765 64.812H9.13603M8.9765 64.6525V64.6525ZM9.13603 64.812V64.812ZM9.13603 64.812V64.6525M9.13603 64.6525V64.6525ZM9.13603 64.6525H9.29556M9.29556 64.6525V64.6525ZM9.29556 64.6525H9.45509M9.45509 64.6525V64.6525ZM9.45509 64.6525V64.4929M9.45509 64.4929V64.4929ZM9.45509 64.4929H9.61462M9.61462 64.4929V64.4929ZM9.61462 64.4929V64.3334H9.45509M9.45509 64.3334V64.3334ZM9.45509 64.3334V64.1739M9.45509 64.1739V64.1739ZM9.45509 64.1739H9.61462M9.61462 64.1739V64.1739ZM9.61462 64.1739V64.0143M9.61462 64.0143V64.0143ZM9.61462 64.0143H9.77415M9.77415 64.0143V64.0143ZM9.77415 64.0143V63.8548M9.77415 63.8548V63.8548ZM9.77415 63.8548H9.93368M9.93368 63.8548V63.8548ZM9.93368 63.8548V64.0143M9.93368 63.8548H10.0932M10.0932 63.8548V63.8548ZM10.0932 63.8548H10.2527M10.2527 63.8548V63.8548ZM10.2527 63.8548H10.4123M10.4123 63.8548V63.8548ZM10.4123 63.8548V63.6953M10.4123 63.8548H10.5718M10.4123 63.6953V63.6953ZM10.5718 63.8548V63.8548ZM10.5718 63.8548H10.7313M10.7313 63.8548V63.8548ZM10.7313 63.8548H10.8909M10.8909 63.8548V63.8548ZM10.8909 63.8548H11.0504M11.0504 63.8548V63.8548ZM11.0504 63.8548V63.6953M11.0504 63.6953V63.6953ZM11.0504 63.6953V63.5358M11.0504 63.5358V63.5358ZM11.0504 63.5358H11.2099M11.2099 63.5358V63.5358ZM11.2099 63.5358V63.3762H11.3694M11.3694 63.3762V63.3762ZM11.3694 63.3762H11.529M11.529 63.3762V63.3762ZM11.529 63.3762V63.2167M11.529 63.2167V63.2167ZM11.529 63.2167H11.6885M11.6885 63.2167V63.2167ZM11.6885 63.2167V63.0572H11.848M11.848 63.0572V63.0572ZM11.848 63.0572V62.8976M11.848 62.8976V62.8976Z" stroke="#31A5E5"/>
<path d="M64 56.6C64.5683 56.6 65.1134 56.8107 65.5152 57.1858C65.9171 57.5609 66.1429 58.0696 66.1429 58.6C66.1429 58.8626 66.0874 59.1227 65.9797 59.3654C65.8721 59.608 65.7142 59.8285 65.5152 60.0142C65.3162 60.1999 65.08 60.3472 64.82 60.4478C64.5601 60.5483 64.2814 60.6 64 60.6C63.4317 60.6 62.8866 60.3893 62.4848 60.0142C62.0829 59.6391 61.8571 59.1304 61.8571 58.6C61.8571 58.0696 62.0829 57.5609 62.4848 57.1858C62.8866 56.8107 63.4317 56.6 64 56.6ZM64 53C65.5913 53 67.1174 53.59 68.2426 54.6402C69.3679 55.6904 70 57.1148 70 58.6C70 62.8 64 69 64 69C64 69 58 62.8 58 58.6C58 57.1148 58.6321 55.6904 59.7574 54.6402C60.8826 53.59 62.4087 53 64 53ZM64 54.6C62.8634 54.6 61.7733 55.0214 60.9695 55.7716C60.1658 56.5217 59.7143 57.5391 59.7143 58.6C59.7143 59.4 59.7143 61 64 66.368C68.2857 61 68.2857 59.4 68.2857 58.6C68.2857 57.5391 67.8342 56.5217 67.0305 55.7716C66.2267 55.0214 65.1366 54.6 64 54.6Z" fill="white"/>
</svg>
