<svg width="46" height="59" viewBox="0 0 46 59" fill="none" xmlns="http://www.w3.org/2000/svg">
<path d="M1.47784 57.4144H1.31856M1.47784 57.4144V57.4144ZM1.47784 57.4144V57.2551M1.47784 57.4144H1.63712M1.31856 57.4144V57.4144ZM1.31856 57.4144H1.15928M1.47784 57.2551V57.2551ZM1.63712 57.4144V57.4144ZM1.63712 57.4144V57.5737M1.63712 57.5737V57.5737ZM1.63712 57.5737H1.47784V57.733M1.47784 57.733V57.733ZM1.47784 57.733H1.31856M1.31856 57.733V57.733ZM1.31856 57.733V57.8922M1.31856 57.8922V57.8922ZM1.31856 57.8922H1.15928M1.15928 57.8922V57.8922ZM1.15928 57.8922V57.733M1.15928 57.733V57.733ZM1.15928 57.733H1M1 57.733V57.733ZM1 57.733V57.5737H1.15928M1.15928 57.5737V57.5737ZM1.15928 57.5737V57.4144M1.15928 57.4144V57.4144Z" stroke="#31A5E5"/>
<path d="M32.1082 26.7849V26.7849ZM32.1082 26.7849H31.9492M31.9492 26.7849V26.7849ZM31.9492 26.7849V26.9438M31.9492 26.7849H31.7903M31.7903 26.7849V26.7849Z" stroke="#31A5E5"/>
<path d="M38.6501 27.7416V27.7416ZM38.6501 27.7416L38.8094 27.5823M38.6501 27.7416H38.8094M38.6501 27.7416V27.9008M38.8094 27.5823V27.5823ZM38.8094 27.7416V27.7416ZM38.8094 27.7416H38.9687M38.8094 27.7416V27.9008M38.9687 27.7416V27.7416ZM38.8094 27.9008H38.9687M38.8094 27.9008V27.9008ZM38.8094 27.9008V28.0601M38.8094 27.9008H38.6501M38.9687 27.9008V27.9008ZM38.8094 28.0601V28.0601ZM38.8094 28.0601H38.9687M38.8094 28.0601L38.9687 28.2194M38.9687 28.0601V28.0601ZM38.9687 28.0601V28.2194M38.9687 28.2194V28.2194ZM38.9687 28.2194H39.1279M39.1279 28.2194V28.2194ZM38.6501 27.9008V27.9008Z" stroke="#31A5E5"/>
<path d="M14.5609 3.65305L15.0395 2.69588L15.3586 2.37682V2.21729L15.8372 2.37682L16.1562 2.69588L17.1134 3.17446H17.2729H17.7515L18.2301 3.33399L19.0278 3.81258M14.5609 3.65305V3.81258H14.7205M14.5609 3.65305V3.65305ZM19.0278 3.81258V3.81258ZM19.0278 3.81258L19.5064 3.97211M19.5064 3.97211V3.97211ZM19.5064 3.97211L20.304 4.29117L20.6231 4.4507L21.2612 4.61023L22.0588 4.92929L23.016 4.4507L23.6541 3.97211M23.6541 3.97211V3.97211ZM23.6541 3.97211L24.1327 3.65305H24.2923H24.4518L24.7708 3.97211H24.9304H25.2494L25.409 4.13164L26.0471 4.29117L26.2066 4.4507M26.2066 4.4507V4.4507ZM26.2066 4.4507L26.5257 4.76976M26.5257 4.76976V4.76976ZM26.5257 4.76976L26.6852 4.92929L27.0043 4.61023H27.1638L27.3233 4.4507M27.3233 4.4507V4.4507ZM27.3233 4.4507L27.4829 4.61023M27.4829 4.61023V4.61023ZM27.4829 4.61023V4.76976M27.4829 4.76976V4.76976ZM27.4829 4.76976V4.92929M27.4829 4.92929V4.92929ZM27.4829 4.92929H27.6424M27.6424 4.92929V4.92929ZM27.6424 4.92929V5.08882M27.6424 5.08882V5.08882ZM27.6424 5.08882V5.24835M27.6424 5.24835V5.24835ZM27.6424 5.24835H27.8019M27.8019 5.24835V5.24835ZM27.8019 5.24835H27.9614M27.9614 5.24835V5.24835ZM27.9614 5.24835V5.40788H28.121M28.121 5.40788V5.40788ZM28.121 5.40788H28.2805M28.2805 5.40788V5.40788ZM28.2805 5.40788L28.44 5.56741M28.44 5.56741V5.56741ZM28.44 5.56741H28.5996M28.5996 5.56741V5.56741ZM28.5996 5.56741V5.72694H28.7591M28.7591 5.72694V5.72694ZM28.7591 5.72694V5.88647M28.7591 5.88647V5.88647ZM28.7591 5.88647V6.046M28.7591 6.046V6.046ZM28.7591 6.046L28.5996 6.20553M28.5996 6.20553V6.20553ZM28.5996 6.20553H28.44M28.5996 6.20553V6.36506M28.44 6.20553V6.20553ZM28.5996 6.36506V6.36506ZM28.5996 6.36506H28.7591M28.7591 6.36506V6.36506ZM28.7591 6.36506V6.52459M28.7591 6.52459V6.52459ZM28.7591 6.52459H28.9186M28.9186 6.52459V6.52459ZM28.9186 6.52459H29.0782M29.0782 6.52459V6.52459ZM29.0782 6.52459H29.2377M29.2377 6.52459V6.52459ZM29.2377 6.52459H29.3972M29.3972 6.52459V6.52459ZM29.3972 6.52459H29.5567M29.5567 6.52459V6.52459ZM29.5567 6.52459V6.68412M29.5567 6.68412V6.68412ZM29.5567 6.68412H29.7163M29.7163 6.68412V6.68412ZM29.7163 6.68412H29.8758M29.8758 6.68412V6.68412ZM29.8758 6.68412H30.0353M30.0353 6.68412V6.68412ZM30.0353 6.68412V6.84365M30.0353 6.84365V6.84365ZM30.0353 6.84365H30.1949V6.68412M30.1949 6.68412V6.68412ZM30.1949 6.68412V6.52459H30.3544M30.3544 6.52459V6.52459ZM30.3544 6.52459V6.68412M30.3544 6.68412V6.68412ZM30.3544 6.68412H30.5139M30.5139 6.68412V6.68412ZM30.5139 6.68412V6.52459M30.5139 6.52459V6.52459ZM30.5139 6.52459H30.6735M30.6735 6.52459V6.52459ZM30.6735 6.52459V6.68412M30.6735 6.68412V6.68412ZM30.6735 6.68412H30.833V6.84365M30.833 6.84365V6.84365ZM30.833 6.84365H30.9925M30.9925 6.84365V6.84365ZM30.9925 6.84365H31.152V7.00318M31.152 7.00318V7.00318ZM31.152 7.00318V7.16271M31.152 7.16271V7.16271ZM31.152 7.16271H31.3116M31.3116 7.16271V7.16271ZM31.3116 7.16271H31.4711M31.4711 7.16271V7.16271ZM31.4711 7.16271V7.32224M31.4711 7.32224V7.32224ZM31.4711 7.32224H31.6306M31.6306 7.32224V7.32224ZM31.6306 7.32224V7.16271H31.7902M31.7902 7.16271V7.16271ZM31.7902 7.16271H31.9497M31.9497 7.16271V7.16271ZM31.9497 7.16271H32.1092M32.1092 7.16271V7.16271ZM32.1092 7.16271L32.2688 7.00318M32.2688 7.00318V7.00318ZM32.2688 7.00318V6.84365H32.4283M32.4283 6.84365V6.84365ZM32.4283 6.84365H32.5878M32.5878 6.84365V6.84365ZM32.5878 6.84365H32.7473M32.7473 6.84365V6.84365ZM32.7473 6.84365V6.68412M32.7473 6.68412V6.68412ZM32.7473 6.68412H32.9069M32.9069 6.68412V6.68412ZM32.9069 6.68412H33.0664M33.0664 6.68412V6.68412ZM33.0664 6.68412H33.2259V6.52459M33.2259 6.52459V6.52459ZM33.2259 6.52459H33.3855M33.3855 6.52459V6.52459ZM33.3855 6.52459H33.545M33.545 6.52459V6.52459ZM33.545 6.52459H33.7045M33.7045 6.52459V6.52459ZM33.7045 6.52459H33.8641M33.8641 6.52459V6.52459ZM33.8641 6.52459V6.36506M33.8641 6.36506V6.36506ZM33.8641 6.36506H34.0236M34.0236 6.36506V6.36506ZM34.0236 6.36506V6.20553M34.0236 6.20553V6.20553ZM34.0236 6.20553V6.046M34.0236 6.046V6.046ZM34.0236 6.046V5.88647M34.0236 5.88647V5.88647ZM34.0236 5.88647H33.8641M33.8641 5.88647V5.88647ZM33.8641 5.88647L34.0236 5.72694M34.0236 5.72694V5.72694ZM34.0236 5.72694V5.56741M34.0236 5.56741V5.56741ZM34.0236 5.56741V5.40788H33.8641M33.8641 5.40788V5.40788ZM33.8641 5.40788V5.24835M33.8641 5.24835V5.24835ZM33.8641 5.24835V5.08882M33.8641 5.08882V5.08882ZM33.8641 5.08882H33.7045M33.8641 5.08882H34.0236M33.7045 5.08882V5.08882ZM33.7045 5.08882V4.92929M34.0236 5.08882V5.08882ZM34.0236 5.08882L34.1831 5.24835M34.1831 5.24835V5.24835ZM34.1831 5.24835L34.3426 5.40788M34.3426 5.40788V5.40788ZM34.3426 5.40788V5.56741H34.5022M34.5022 5.56741V5.56741ZM34.5022 5.56741V5.72694L34.6617 6.046M34.6617 6.046V6.046ZM34.6617 6.046V6.20553H34.8212V6.36506M34.8212 6.36506V6.36506ZM34.8212 6.36506V6.52459M34.8212 6.52459V6.52459ZM34.8212 6.52459V6.68412V6.84365M34.8212 6.84365V6.84365ZM34.8212 6.84365V7.00318M34.8212 7.00318V7.00318ZM34.8212 7.00318L34.9808 7.16271V7.32224M34.9808 7.32224V7.32224ZM34.9808 7.32224V7.6413H35.1403L35.2998 7.96036V8.11989M35.2998 8.11989V8.11989ZM35.2998 8.11989V8.27942M35.2998 8.27942V8.27942ZM35.2998 8.27942V8.43895M35.2998 8.43895V8.43895ZM35.2998 8.43895H35.4594M35.4594 8.43895V8.43895ZM35.4594 8.43895V8.59848V8.75801H35.6189V8.91754M35.6189 8.91754V8.91754ZM35.6189 8.91754V9.07707H35.7784V9.2366M35.7784 9.2366V9.2366ZM35.7784 9.2366L35.9379 9.39613V9.55566L36.0975 9.87472L36.257 10.0343V10.1938L36.4165 10.3533M36.4165 10.3533V10.3533ZM36.4165 10.3533V10.5128M36.4165 10.5128V10.5128ZM36.4165 10.5128H36.5761M36.5761 10.5128V10.5128ZM36.5761 10.5128V10.6724M36.5761 10.6724V10.6724ZM36.5761 10.6724H36.7356V10.8319M36.7356 10.8319V10.8319ZM36.7356 10.8319L36.8951 10.9914M36.8951 10.9914V10.9914ZM36.8951 10.9914L37.0547 11.151V11.3105M37.0547 11.3105V11.3105ZM37.0547 11.3105H37.2142V11.47H37.3737V11.6296H37.5332V11.7891L37.6928 11.9486M37.6928 11.9486V11.9486ZM37.6928 11.9486V12.1081H37.8523M37.8523 12.1081V12.1081ZM37.8523 12.1081L38.1714 12.4272V12.5867M38.1714 12.5867V12.5867ZM38.1714 12.5867L38.3309 12.7463M38.3309 12.7463V12.7463ZM38.3309 12.7463V12.9058H38.4904M38.4904 12.9058V12.9058ZM38.4904 12.9058V13.0653M38.4904 13.0653V13.0653ZM38.4904 13.0653H38.65M38.65 13.0653V13.0653ZM38.65 13.0653V13.2249M38.65 13.2249V13.2249ZM38.65 13.2249H38.8095V13.3844M38.8095 13.3844V13.3844ZM38.8095 13.3844L38.969 13.5439M38.969 13.5439V13.5439ZM38.969 13.5439L39.1285 13.7034V13.863M39.1285 13.863V13.863ZM39.1285 13.863L39.2881 14.0225M39.2881 14.0225V14.0225ZM39.2881 14.0225L39.4476 14.182M39.4476 14.182V14.0225M39.4476 14.182V14.182ZM39.4476 14.182H39.6071M39.4476 14.0225V14.0225ZM39.6071 14.182V14.182ZM39.6071 14.182V14.0225M39.6071 14.0225V14.0225ZM39.6071 14.0225H39.7667M39.7667 14.0225V14.0225ZM39.7667 14.0225V14.182L39.9262 14.0225M39.9262 14.0225V14.0225ZM39.9262 14.0225L40.0857 14.182M40.0857 14.182V14.182ZM40.0857 14.182H40.2453M40.2453 14.182V14.182ZM40.2453 14.182V14.3416M40.2453 14.3416V14.3416ZM40.2453 14.3416H40.0857M40.0857 14.3416V14.3416ZM40.0857 14.3416V14.5011M40.0857 14.5011V14.5011ZM40.0857 14.5011H40.2453M40.2453 14.5011V14.5011ZM40.2453 14.5011V14.6606V14.8202H40.4048M40.4048 14.8202V14.8202ZM40.4048 14.8202V14.9797M40.4048 14.9797V14.9797ZM40.4048 14.9797H40.5643V15.1392M40.5643 15.1392V15.1392ZM40.5643 15.1392L40.7238 15.2987M40.7238 15.2987V15.2987ZM40.7238 15.2987L40.8834 15.4583M40.8834 15.4583V15.4583ZM40.8834 15.4583V15.6178H41.0429M41.0429 15.6178V15.6178ZM41.0429 15.6178V15.7773M41.0429 15.7773V15.7773ZM41.0429 15.7773H41.2024M41.2024 15.7773V15.7773ZM41.2024 15.7773V15.9369M41.2024 15.9369V15.9369ZM41.2024 15.9369H41.362V16.0964M41.362 16.0964V16.0964ZM41.362 16.0964V16.2559H41.5215M41.5215 16.2559V16.2559ZM41.5215 16.2559V16.4155L41.681 16.575M41.681 16.575V16.575ZM41.681 16.575H41.8406M41.8406 16.575V16.575ZM41.8406 16.575V16.7345M41.8406 16.7345V16.7345ZM41.8406 16.7345H42.0001M42.0001 16.7345V16.7345ZM42.0001 16.7345H42.1596M42.1596 16.7345V16.7345ZM42.1596 16.7345V16.575M42.1596 16.7345H42.3191M42.1596 16.7345V16.894M42.1596 16.575V16.575ZM42.1596 16.575L42.3191 16.7345M42.3191 16.7345V16.7345ZM42.1596 16.894V16.894ZM42.1596 16.894V17.0536M42.1596 17.0536V17.0536ZM42.1596 17.0536H42.3191M42.3191 17.0536V17.0536ZM42.3191 17.0536V17.2131M42.3191 17.2131V17.2131ZM42.3191 17.2131L42.4787 17.3726M42.4787 17.3726V17.3726ZM42.4787 17.3726V17.5322H42.6382M42.6382 17.5322V17.5322ZM42.6382 17.5322H42.7977M42.7977 17.5322V17.5322ZM42.7977 17.5322H42.9573M42.9573 17.5322V17.5322ZM42.9573 17.5322V17.6917M42.9573 17.6917V17.6917ZM42.9573 17.6917H43.1168M43.1168 17.6917V17.6917ZM43.1168 17.6917H43.2763M43.2763 17.6917V17.6917ZM43.2763 17.6917H43.4359M43.4359 17.6917V17.6917ZM43.4359 17.6917H43.5954V17.8512M43.5954 17.8512V17.8512ZM43.5954 17.8512H43.7549M43.7549 17.8512V17.8512ZM43.7549 17.8512V17.6917M43.7549 17.6917V17.6917ZM43.7549 17.6917H43.9144M43.9144 17.6917V17.6917ZM43.9144 17.6917H44.074M44.074 17.6917V17.6917ZM44.074 17.6917V17.8512M44.074 17.8512V17.8512ZM44.074 17.8512V18.0108M44.074 18.0108V18.0108ZM44.074 18.0108H44.2335V18.1703M44.2335 18.1703V18.1703ZM44.2335 18.1703H44.393M44.393 18.1703V18.1703ZM44.393 18.1703V18.3298M44.393 18.3298V18.3298ZM44.393 18.3298H44.5526M44.5526 18.3298V18.3298ZM44.5526 18.3298V18.4893M44.5526 18.4893V18.4893ZM44.5526 18.4893H44.7121M44.5526 18.4893V18.6489M44.5526 18.4893H44.393M44.7121 18.4893V18.4893ZM44.7121 18.4893V18.6489M44.7121 18.6489V18.6489ZM44.7121 18.6489H44.5526M44.5526 18.6489V18.6489ZM44.393 18.4893V18.4893ZM44.393 18.4893H44.2335M44.2335 18.4893V18.4893ZM44.2335 18.4893V18.6489M44.2335 18.6489V18.6489ZM44.2335 18.6489V18.8084M44.2335 18.8084V18.8084ZM44.2335 18.8084V18.9679M44.2335 18.9679V18.9679ZM44.2335 18.9679V19.1275H44.074M44.074 19.1275V19.1275ZM44.074 19.1275V18.9679M44.074 19.1275H43.9144M44.074 18.9679V18.9679ZM43.9144 19.1275V19.1275ZM43.9144 19.1275H43.7549M43.7549 19.1275V19.1275ZM43.7549 19.1275V18.9679M43.7549 18.9679V18.9679ZM43.7549 18.9679H43.5954M43.5954 18.9679V19.1275M43.5954 18.9679V18.9679ZM43.5954 18.9679H43.4359M43.5954 19.1275V19.1275ZM43.4359 18.9679V18.9679ZM43.4359 18.9679V18.8084M43.4359 18.8084H43.2763M43.4359 18.8084V18.8084ZM43.4359 18.8084V18.6489M43.2763 18.8084V18.8084ZM43.2763 18.8084V18.6489M43.4359 18.6489V18.6489ZM43.4359 18.6489H43.2763M43.2763 18.6489V18.6489ZM43.2763 18.6489H43.1168M43.1168 18.6489V18.6489ZM43.1168 18.6489V18.4893M43.1168 18.4893V18.4893ZM43.1168 18.4893H42.9573M42.9573 18.4893V18.4893ZM42.9573 18.4893L42.7977 18.3298M42.7977 18.3298V18.3298ZM42.7977 18.3298H42.9573M42.7977 18.3298V18.1703M42.9573 18.3298V18.3298ZM42.9573 18.3298V18.1703M42.9573 18.1703V18.1703ZM42.9573 18.1703H42.7977M42.7977 18.1703V18.1703ZM42.7977 18.1703H42.6382M42.6382 18.1703V18.1703ZM42.6382 18.1703V18.3298M42.6382 18.1703H42.4787M42.4787 18.1703V18.1703ZM42.4787 18.1703V18.0108M42.4787 18.0108V18.0108ZM42.4787 18.0108H42.3191V18.1703M42.3191 18.1703V18.1703ZM42.3191 18.1703H42.1596V18.0108M42.1596 18.0108V18.0108ZM42.1596 18.0108H42.0001M42.0001 18.0108V18.0108ZM42.0001 18.0108L41.8406 17.8512M41.8406 17.8512V17.8512ZM41.8406 17.8512V18.0108M41.8406 18.0108V18.0108ZM41.8406 18.0108H41.681M41.681 18.0108V18.0108ZM41.681 18.0108V18.1703M41.681 18.1703V18.1703ZM41.681 18.1703H41.5215M41.5215 18.1703V18.1703ZM41.5215 18.1703L41.681 18.3298H41.5215M41.5215 18.3298V18.3298ZM41.5215 18.3298V18.4893M41.5215 18.4893V18.4893ZM41.5215 18.4893H41.681M41.681 18.4893V18.4893ZM41.681 18.4893V18.6489M41.681 18.6489V18.6489ZM41.681 18.6489V18.8084M41.681 18.8084V18.8084ZM41.681 18.8084V18.9679L41.8406 18.8084M41.8406 18.8084V18.8084ZM41.8406 18.8084V18.9679M41.8406 18.9679V18.9679ZM41.8406 18.9679H42.0001M42.0001 18.9679V18.9679ZM42.0001 18.9679V19.1275H41.8406H41.681L41.0429 19.287M41.0429 19.287V19.287ZM41.0429 19.287V20.4037V20.8823V21.5204V21.999V22.4776V22.9562V23.1157M41.0429 23.1157V23.1157ZM41.0429 23.1157V23.2752L41.2024 23.1157M41.2024 23.1157V23.1157ZM41.2024 23.1157H41.362M41.362 23.1157V23.1157ZM41.362 23.1157H41.5215M41.5215 23.1157V23.1157ZM41.5215 23.1157V23.2752M41.5215 23.2752V23.2752ZM41.5215 23.2752V23.4348H41.681M41.681 23.4348V23.4348ZM41.681 23.4348H41.8406M41.8406 23.4348V23.4348ZM41.8406 23.4348V23.5943M41.8406 23.5943V23.5943ZM41.8406 23.5943H42.0001M42.0001 23.5943V23.5943ZM42.0001 23.5943H42.1596M42.1596 23.5943V23.5943ZM42.1596 23.5943V23.7538M42.1596 23.7538V23.7538ZM42.1596 23.7538H42.3191M42.3191 23.7538V23.7538ZM42.3191 23.7538V23.9134M42.3191 23.9134V23.9134ZM42.3191 23.9134H42.4787M42.4787 23.9134V23.9134ZM42.4787 23.9134H42.6382M42.6382 23.9134V23.9134ZM42.6382 23.9134H42.7977M42.7977 23.9134V23.9134ZM42.7977 23.9134V24.0729M42.7977 24.0729V24.0729ZM42.7977 24.0729H42.9573M42.9573 24.0729V24.0729ZM42.9573 24.0729V24.2324M42.9573 24.2324V24.2324ZM42.9573 24.2324V24.3919M42.9573 24.3919V24.3919ZM42.9573 24.3919H43.1168M43.1168 24.3919V24.3919ZM43.1168 24.3919V24.5515M43.1168 24.5515V24.5515ZM43.1168 24.5515V24.711M43.1168 24.711V24.711ZM43.1168 24.711H42.9573V24.8705M42.9573 24.8705V24.8705ZM42.9573 24.8705H42.7977M42.7977 24.8705V24.8705ZM42.7977 24.8705V25.0301M42.7977 25.0301V25.0301ZM42.7977 25.0301H42.6382M42.6382 25.0301V25.0301ZM42.6382 25.0301V25.1896M42.6382 25.1896V25.1896ZM42.6382 25.1896H42.4787M42.4787 25.1896V25.1896ZM42.4787 25.1896H42.3191M42.3191 25.1896V25.1896ZM42.3191 25.1896H42.1596M42.1596 25.1896V25.1896ZM42.1596 25.1896V25.3491M42.1596 25.3491V25.3491ZM42.1596 25.3491H42.0001M42.0001 25.3491V25.3491ZM42.0001 25.3491H41.8406M41.8406 25.3491V25.3491ZM41.8406 25.3491H41.681M41.681 25.3491V25.3491ZM41.681 25.3491V25.5087M41.681 25.5087V25.5087ZM41.681 25.5087H41.5215M41.5215 25.5087V25.5087ZM41.5215 25.5087V25.6682M41.5215 25.6682V25.6682ZM41.5215 25.6682H41.681M41.681 25.6682V25.6682ZM41.681 25.6682V25.8277M41.681 25.8277V25.8277ZM41.681 25.8277H41.5215V25.9872M41.5215 25.9872V25.9872ZM41.5215 25.9872V26.1468M41.5215 26.1468V26.1468ZM41.5215 26.1468H41.362M41.362 26.1468V26.1468ZM41.362 26.1468H41.2024M41.2024 26.1468V26.1468ZM41.2024 26.1468V26.3063M41.2024 26.3063V26.3063ZM41.2024 26.3063H41.362M41.2024 26.3063V26.4658M41.2024 26.4658V26.4658ZM41.2024 26.4658H41.362M41.362 26.4658V26.4658ZM41.362 26.4658V26.6254M41.362 26.6254V26.6254ZM41.362 26.6254H41.5215M41.5215 26.6254V26.6254ZM41.5215 26.6254V26.7849M41.5215 26.7849V26.7849ZM41.5215 26.7849V26.9444H41.681M41.681 26.9444V26.9444ZM41.681 26.9444V27.104M41.681 27.104V27.104ZM41.681 27.104H41.8406M41.8406 27.104V27.104ZM41.8406 27.104V27.2635M41.8406 27.2635V27.2635ZM41.8406 27.2635H42.0001M42.0001 27.2635V27.2635ZM42.0001 27.2635V27.423M42.0001 27.423V27.423ZM42.0001 27.423V27.5825M42.0001 27.5825V27.5825ZM42.0001 27.5825V27.7421M42.0001 27.7421V27.7421ZM42.0001 27.7421L42.1596 27.9016H42.0001M42.0001 27.9016V27.9016ZM42.0001 27.9016V28.0611H42.1596M42.1596 28.0611V28.0611ZM42.1596 28.0611V28.2207M42.1596 28.2207V28.2207ZM42.1596 28.2207H42.0001M42.0001 28.2207V28.2207ZM42.0001 28.2207V28.3802M42.0001 28.3802V28.3802ZM42.0001 28.3802V28.5397M42.0001 28.5397V28.5397ZM42.0001 28.5397V28.6993M42.0001 28.6993V28.6993ZM42.0001 28.6993V28.8588M42.0001 28.8588V28.8588ZM42.0001 28.8588V29.0183H41.8406V29.1778L41.681 29.3374M41.681 29.3374V29.3374ZM41.681 29.3374L41.2024 29.4969H41.0429M41.0429 29.4969V29.4969ZM41.0429 29.4969L40.8834 29.6564M40.8834 29.6564V29.6564ZM40.8834 29.6564L40.7238 29.816M40.7238 29.816V29.816ZM40.7238 29.816V29.9755M40.7238 29.9755V29.9755ZM40.7238 29.9755H40.5643M40.5643 29.9755V29.9755ZM40.5643 29.9755H40.4048V30.135M40.4048 30.135V30.135ZM40.4048 30.135H40.2453M40.2453 30.135V30.135ZM40.2453 30.135V30.2946M40.2453 30.2946V30.2946ZM40.2453 30.2946H40.0857M40.0857 30.2946V30.2946ZM40.0857 30.2946H39.9262M39.9262 30.2946V30.2946ZM39.9262 30.2946V30.4541M39.9262 30.4541V30.4541ZM39.9262 30.4541V30.6136M39.9262 30.6136V30.6136ZM39.9262 30.6136H40.0857M40.0857 30.6136V30.6136ZM40.0857 30.6136H40.2453M40.2453 30.6136V30.6136ZM40.2453 30.6136V30.7731M40.2453 30.7731V30.7731ZM40.2453 30.7731H40.4048M40.4048 30.7731V30.7731ZM40.4048 30.7731V30.9327M40.4048 30.9327V30.9327ZM40.4048 30.9327H40.5643M40.5643 30.9327V30.9327ZM40.5643 30.9327V31.0922M40.5643 30.9327L40.7238 30.7731V30.9327M40.5643 31.0922V31.0922ZM40.7238 30.9327V30.9327ZM40.7238 30.9327H40.8834M40.8834 30.9327V30.9327ZM40.8834 30.9327V31.0922M40.8834 31.0922V31.0922ZM40.8834 31.0922L41.0429 30.9327M41.0429 30.9327V30.9327ZM41.0429 30.9327V31.0922M41.0429 31.0922V31.0922ZM41.0429 31.0922V31.2517M41.0429 31.2517V31.2517ZM41.0429 31.2517V31.4113M41.0429 31.4113V31.4113ZM41.0429 31.4113V31.5708M41.0429 31.5708V31.5708ZM41.0429 31.5708H41.2024V31.7303M41.2024 31.7303V31.7303ZM41.2024 31.7303V31.8899M41.2024 31.8899V31.8899ZM41.2024 31.8899H41.362M41.362 31.8899V31.8899ZM41.362 31.8899V32.0494M41.362 32.0494V32.0494ZM41.362 32.0494V32.2089M41.362 32.2089V32.2089ZM41.362 32.2089V32.3684M41.362 32.3684V32.3684ZM41.362 32.3684V32.528M41.362 32.528V32.528ZM41.362 32.528H41.5215M41.362 32.528V32.6875M41.362 32.528L41.2024 32.3684M41.5215 32.528V32.528ZM41.5215 32.528V32.6875M41.5215 32.6875V32.6875ZM41.5215 32.6875V32.847M41.5215 32.847V32.847ZM41.5215 32.847V33.0066M41.5215 33.0066V33.0066ZM41.5215 33.0066H41.362M41.362 33.0066V33.0066ZM41.362 33.0066V33.1661M41.362 33.1661V33.1661ZM41.362 33.1661H41.5215M41.362 33.1661V33.3256M41.362 33.1661H41.2024M41.5215 33.1661V33.1661ZM41.2024 33.1661V33.1661ZM41.2024 33.1661V33.0066M41.2024 33.0066V33.0066ZM41.2024 33.0066V32.847M41.2024 32.847V32.847ZM41.2024 32.847H41.362M41.362 32.847V32.847ZM41.362 32.847V32.6875M41.362 32.6875V32.6875ZM41.2024 32.3684V32.3684ZM41.2024 32.3684V32.2089M41.2024 32.2089V32.2089ZM41.2024 32.2089V32.0494H41.0429M41.0429 32.0494V32.0494ZM41.0429 32.0494V31.8899M41.0429 31.8899V31.8899ZM41.0429 31.8899V31.7303H40.8834M40.8834 31.7303V31.7303ZM40.8834 31.7303V31.5708M40.8834 31.5708V31.5708ZM40.8834 31.5708H40.7238V31.4113M40.7238 31.4113V31.4113ZM40.7238 31.4113V31.2517H40.5643M40.5643 31.2517V31.2517ZM40.5643 31.2517L40.4048 31.0922M40.4048 31.0922V31.0922ZM40.4048 31.0922H40.2453M40.2453 31.0922V31.0922ZM40.2453 31.0922V30.9327M40.2453 30.9327V30.9327ZM40.2453 30.9327H40.0857M40.0857 30.9327V30.9327ZM40.0857 30.9327V30.7731M40.0857 30.7731V30.7731ZM40.0857 30.7731H39.9262M39.9262 30.7731V30.7731ZM39.9262 30.7731L39.7667 30.6136M39.7667 30.6136V30.6136ZM39.7667 30.6136H39.6071M39.6071 30.6136V30.6136ZM39.6071 30.6136L39.4476 30.4541M39.4476 30.4541V30.4541ZM39.4476 30.4541H39.2881M39.2881 30.4541V30.4541ZM39.2881 30.4541V30.2946M39.2881 30.2946V30.2946ZM39.2881 30.2946H39.1285M39.1285 30.2946V30.2946ZM39.1285 30.2946V30.135M39.1285 30.135V30.135ZM39.1285 30.135H38.969M38.969 30.135V30.135ZM38.969 30.135V29.9755M38.969 29.9755V29.9755ZM38.969 29.9755H39.1285V29.816M39.1285 29.816V29.816ZM39.1285 29.816L39.2881 29.6564M39.2881 29.6564V29.6564ZM39.2881 29.6564L39.4476 29.4969M39.4476 29.4969V29.4969ZM39.4476 29.4969V29.3374M39.4476 29.3374V29.3374ZM39.4476 29.3374H39.6071M39.6071 29.3374V29.3374ZM39.6071 29.3374L39.4476 29.1778M39.4476 29.1778V29.1778ZM39.4476 29.1778V29.0183M39.4476 29.0183V29.0183ZM39.4476 29.0183L39.2881 28.8588M39.2881 28.8588V28.8588ZM39.2881 28.8588V28.6993M39.2881 28.6993H39.1285M39.2881 28.6993V28.6993ZM39.2881 28.6993V28.5397M39.2881 28.6993L39.4476 28.5397M39.1285 28.6993V28.6993ZM39.1285 28.6993V28.5397M39.1285 28.5397H38.969V28.3802M39.1285 28.5397L38.969 28.3802M39.1285 28.5397V28.5397ZM38.969 28.3802V28.3802ZM39.2881 28.5397V28.5397ZM39.2881 28.5397H39.4476M39.4476 28.5397V28.5397ZM39.4476 28.5397V28.6993M39.4476 28.5397V28.3802M39.4476 28.3802V28.3802ZM39.4476 28.3802H39.2881M39.4476 28.3802V28.2207M39.4476 28.3802H39.6071M39.2881 28.3802V28.3802ZM39.2881 28.3802V28.2207M39.2881 28.3802L39.4476 28.2207M39.2881 28.2207V28.2207ZM39.2881 28.2207H39.4476M39.2881 28.2207H39.1285M39.4476 28.2207V28.2207ZM39.4476 28.2207L39.6071 28.3802M39.6071 28.3802V28.3802ZM39.1285 28.2207V28.2207ZM39.1285 28.2207H38.969V28.0611M38.969 28.0611V28.0611ZM38.969 28.0611H39.1285M39.1285 28.0611V28.0611ZM39.1285 28.0611V27.9016M39.1285 27.9016V27.9016ZM39.1285 27.9016H39.2881M39.1285 27.9016V27.7421M39.2881 27.9016V27.9016ZM39.1285 27.7421V27.7421ZM39.1285 27.7421H38.969M38.969 27.7421V27.7421ZM38.969 27.7421V27.5825M38.969 27.5825V27.5825ZM38.969 27.5825H38.8095M38.8095 27.5825V27.5825ZM38.8095 27.5825V27.423M38.8095 27.423V27.423ZM38.8095 27.423H38.65M38.8095 27.423L38.65 27.5825M38.65 27.423V27.423ZM38.65 27.5825V27.5825ZM38.65 27.5825H38.4904M38.4904 27.5825V27.5825ZM38.4904 27.5825H38.3309M38.3309 27.5825V27.5825ZM38.3309 27.5825V27.423M38.3309 27.423V27.423ZM38.3309 27.423H38.1714M38.1714 27.423V27.423ZM38.1714 27.423V27.5825M38.1714 27.5825V27.5825ZM38.1714 27.5825L38.0118 27.423M38.0118 27.423V27.423ZM38.0118 27.423V27.2635M38.0118 27.2635V27.2635ZM38.0118 27.2635H37.8523M37.8523 27.2635V27.2635ZM37.8523 27.2635H37.6928M37.6928 27.2635V27.2635ZM37.6928 27.2635H37.5332M37.5332 27.2635V27.2635ZM37.5332 27.2635V27.104M37.5332 27.104V27.104ZM37.5332 27.104H37.3737M37.3737 27.104V27.104ZM37.3737 27.104H37.2142M37.2142 27.104V27.104ZM37.2142 27.104V26.9444M37.2142 26.9444V26.9444ZM37.2142 26.9444V26.7849M37.2142 26.7849V26.7849ZM37.2142 26.7849L37.3737 26.6254H37.2142M37.2142 26.7849V26.6254M37.2142 26.6254V26.6254ZM37.2142 26.6254H37.0547V26.4658M37.0547 26.4658V26.4658ZM37.0547 26.4658H36.8951M36.8951 26.4658V26.4658ZM36.8951 26.4658H36.7356M36.7356 26.4658V26.4658ZM36.7356 26.4658V26.6254M36.7356 26.6254V26.6254ZM36.7356 26.6254H36.5761M36.5761 26.6254V26.4658M36.5761 26.6254V26.6254ZM36.5761 26.6254H36.4165M36.5761 26.4658V26.4658ZM36.4165 26.6254V26.6254ZM36.4165 26.6254H36.257M36.257 26.6254V26.6254ZM36.257 26.6254V26.7849M36.257 26.6254H36.0975M36.257 26.7849V26.7849ZM36.0975 26.6254V26.6254ZM36.0975 26.6254H35.9379M35.9379 26.6254V26.6254ZM35.9379 26.6254H35.7784M35.7784 26.6254V26.6254ZM35.7784 26.6254V26.7849M35.7784 26.7849V26.7849ZM35.7784 26.7849V26.9444M35.7784 26.9444V26.9444ZM35.7784 26.9444H35.9379M35.9379 26.9444V26.9444ZM35.9379 26.9444V26.7849M35.9379 26.9444V27.104M35.9379 26.9444L36.0975 27.104M35.9379 26.7849V26.7849ZM35.9379 27.104V27.104ZM36.0975 27.104V27.104ZM36.0975 27.104V27.2635H36.257M36.257 27.2635V27.2635ZM36.257 27.2635V27.423M36.257 27.423V27.423ZM36.257 27.423V27.5825M36.257 27.5825V27.5825ZM36.257 27.5825L36.4165 27.7421M36.4165 27.7421V27.7421ZM36.4165 27.7421H36.5761M36.5761 27.7421V27.7421ZM36.5761 27.7421V27.9016M36.5761 27.9016V27.9016ZM36.5761 27.9016H36.7356M36.7356 27.9016V27.9016ZM36.7356 27.9016V28.0611M36.7356 28.0611V28.0611ZM36.7356 28.0611H36.8951M36.8951 28.0611V28.0611ZM36.8951 28.0611H37.0547M37.0547 28.0611V28.0611ZM37.0547 28.0611H37.2142M37.2142 28.0611V28.2207M37.2142 28.0611H37.3737V28.2207M37.2142 28.2207V28.2207ZM37.3737 28.2207V28.2207ZM37.3737 28.2207V28.3802M37.3737 28.3802V28.3802ZM37.3737 28.3802H37.5332M37.5332 28.3802V28.3802ZM37.5332 28.3802V28.5397M37.5332 28.3802H37.6928M37.6928 28.3802V28.3802ZM37.6928 28.3802V28.5397V28.6993M37.6928 28.6993V28.6993ZM37.6928 28.6993V28.8588M37.6928 28.8588V28.8588ZM37.6928 28.8588V29.0183M37.6928 29.0183V29.0183ZM37.6928 29.0183H37.8523V29.1778M37.8523 29.1778V29.1778ZM37.8523 29.1778H37.6928M37.6928 29.1778V29.1778ZM37.6928 29.1778V29.3374M37.6928 29.3374V29.3374ZM37.6928 29.3374V29.4969M37.6928 29.4969V29.4969ZM37.6928 29.4969H37.8523M37.8523 29.4969V29.4969ZM37.8523 29.4969L37.6928 29.6564M37.6928 29.6564V29.6564ZM37.6928 29.6564V29.816M37.6928 29.816V29.816ZM37.6928 29.816V29.9755M37.6928 29.9755V29.9755ZM37.6928 29.9755H37.5332M37.5332 29.9755V29.9755ZM37.5332 29.9755H37.3737M37.3737 29.9755V29.9755ZM37.3737 29.9755L37.2142 29.816M37.2142 29.816V29.816ZM37.2142 29.816H37.0547M37.0547 29.816V29.816ZM37.0547 29.816H36.8951M36.8951 29.816V29.816ZM36.8951 29.816V29.6564H36.7356M36.7356 29.6564V29.6564ZM36.7356 29.6564H36.5761M36.5761 29.6564V29.6564ZM36.5761 29.6564V29.4969M36.5761 29.4969V29.4969ZM36.5761 29.4969H36.4165H36.257M36.257 29.4969V29.4969ZM36.257 29.4969L36.0975 29.3374M36.0975 29.3374V29.3374ZM36.0975 29.3374H35.9379M35.9379 29.3374V29.3374ZM35.9379 29.3374H35.7784M35.7784 29.3374V29.3374ZM35.7784 29.3374H35.6189M35.6189 29.3374V29.3374ZM35.6189 29.3374H35.4594M35.4594 29.3374V29.3374ZM35.4594 29.3374H35.2998M35.2998 29.3374V29.3374ZM35.2998 29.3374H35.1403M35.1403 29.3374V29.3374ZM35.1403 29.3374H34.9808M34.9808 29.3374V29.3374ZM34.9808 29.3374L34.8212 29.1778M34.8212 29.1778V29.1778ZM34.8212 29.1778H34.6617M34.6617 29.1778V29.1778ZM34.6617 29.1778V29.0183M34.6617 29.0183V29.0183ZM34.6617 29.0183V28.8588H34.5022M34.5022 28.8588V28.8588ZM34.5022 28.8588L34.3426 28.6993M34.3426 28.6993V28.6993ZM34.3426 28.6993H34.1831V28.5397M34.1831 28.5397V28.5397ZM34.1831 28.5397H34.0236V28.3802M34.0236 28.3802V28.3802ZM34.0236 28.3802L33.8641 28.2207M33.8641 28.2207V28.2207ZM33.8641 28.2207L33.7045 28.0611M33.7045 28.0611V28.0611ZM33.7045 28.0611H33.545M33.545 28.0611V28.0611ZM33.545 28.0611V27.9016M33.545 28.0611H33.3855L33.545 27.9016M33.545 27.9016V27.9016ZM33.545 27.9016H33.3855M33.3855 27.9016V27.9016ZM33.3855 27.9016V27.7421M33.3855 27.7421V27.7421ZM33.3855 27.7421V27.5825M33.3855 27.5825V27.5825ZM33.3855 27.5825V27.423M33.3855 27.423V27.423ZM33.3855 27.423H33.545M33.545 27.423V27.423ZM33.545 27.423V27.2635M33.545 27.2635V27.2635ZM33.545 27.2635V27.104M33.545 27.104V27.104ZM33.545 27.104V26.9444M33.545 26.9444V26.9444ZM33.545 26.9444H33.7045M33.7045 26.9444V26.9444ZM33.7045 26.9444H33.8641M33.8641 26.9444V26.9444ZM33.8641 26.9444H34.0236M34.0236 26.9444V26.9444ZM34.0236 26.9444H34.1831V26.7849M34.1831 26.7849V26.7849ZM34.1831 26.7849V26.6254M34.1831 26.6254V26.6254ZM34.1831 26.6254V26.4658M34.1831 26.4658V26.4658ZM34.1831 26.4658V26.3063V26.1468M34.1831 26.1468V26.1468ZM34.1831 26.1468H34.3426M34.3426 26.1468V26.1468ZM34.3426 26.1468L34.1831 25.9872M34.1831 25.9872V25.9872ZM34.1831 25.9872V25.8277M34.1831 25.8277V25.8277ZM34.1831 25.8277H34.3426M34.3426 25.8277V25.8277ZM34.3426 25.8277V25.6682M34.3426 25.6682V25.6682ZM34.3426 25.6682H34.5022M34.5022 25.6682V25.6682ZM34.5022 25.6682H34.6617V25.5087M34.6617 25.5087V25.5087ZM34.6617 25.5087V25.3491M34.6617 25.3491V25.3491ZM34.6617 25.3491V25.1896H34.5022V25.0301M34.5022 25.0301V25.0301ZM34.5022 25.0301H34.6617M34.6617 25.0301V25.0301ZM34.6617 25.0301H34.8212M34.8212 25.0301V25.0301ZM34.8212 25.0301H34.9808M34.8212 25.0301V24.8705M34.8212 24.8705V24.8705ZM34.8212 24.8705H34.6617M34.6617 24.8705V24.8705ZM34.6617 24.8705V24.711H34.5022M34.5022 24.711V24.711ZM34.5022 24.711H34.3426M34.5022 24.711V24.5515M34.3426 24.711V24.711ZM34.5022 24.5515V24.5515ZM34.5022 24.5515H34.3426V24.3919M34.3426 24.3919V24.3919ZM34.3426 24.3919V24.2324M34.3426 24.2324V24.2324ZM34.3426 24.2324V24.0729M34.3426 24.0729V24.0729ZM34.3426 24.0729V23.9134M34.3426 23.9134V23.9134ZM34.3426 23.9134V23.7538M34.3426 23.7538V23.7538ZM34.3426 23.7538V23.5943H34.1831M34.1831 23.5943V23.5943ZM34.1831 23.5943V23.4348M34.1831 23.4348V23.4348ZM34.1831 23.4348H34.0236M34.1831 23.4348L34.0236 23.2752M34.1831 23.4348V23.2752M34.0236 23.4348V23.4348ZM34.0236 23.4348V23.2752M34.0236 23.2752V23.2752ZM34.0236 23.2752H34.1831M34.0236 23.2752V23.1157M34.1831 23.2752V23.2752ZM34.0236 23.1157V23.1157ZM34.0236 23.1157H33.8641M33.8641 23.1157V23.1157ZM33.8641 23.1157V22.9562M33.8641 22.9562V22.9562ZM33.8641 22.9562H33.7045M33.7045 22.9562V22.9562ZM33.7045 22.9562V22.7966M33.7045 22.7966V22.7966ZM33.7045 22.7966H33.545V22.6371M33.545 22.6371V22.6371ZM33.545 22.6371H33.3855M33.3855 22.6371V22.6371ZM33.3855 22.6371V22.4776M33.3855 22.4776V22.4776ZM33.3855 22.4776H33.2259M33.2259 22.4776V22.4776ZM33.2259 22.4776H33.0664M33.0664 22.4776V22.4776ZM33.0664 22.4776V22.3181M33.0664 22.3181V22.3181ZM33.0664 22.3181H33.2259M33.0664 22.3181V22.1585M33.0664 22.1585V22.1585ZM33.0664 22.1585H32.9069M32.9069 22.1585V22.1585ZM32.9069 22.1585V21.999M32.9069 21.999V21.999ZM32.9069 21.999H32.7473M32.7473 21.999V21.999ZM32.7473 21.999H32.5878M32.5878 21.999V21.999ZM32.5878 21.999V21.8395M32.5878 21.8395V21.8395ZM32.5878 21.8395H32.4283M32.4283 21.8395V21.8395ZM32.4283 21.8395H32.2688M32.2688 21.8395V21.8395ZM32.2688 21.8395V21.6799M32.2688 21.6799V21.6799ZM32.2688 21.6799V21.5204M32.2688 21.5204V21.5204ZM32.2688 21.5204H32.1092M32.1092 21.5204V21.5204ZM32.1092 21.5204L31.9497 21.3609M31.9497 21.3609V21.3609ZM31.9497 21.3609H31.7902V21.2013M31.7902 21.2013V21.2013ZM31.7902 21.2013H31.6306M31.6306 21.2013V21.2013ZM31.6306 21.2013V21.0418H31.4711M31.4711 21.0418V21.0418ZM31.4711 21.0418L31.3116 20.8823M31.3116 20.8823V20.8823ZM31.3116 20.8823H31.152M31.152 20.8823V20.8823ZM31.152 20.8823V20.7228H30.9925M30.9925 20.7228V20.7228ZM30.9925 20.7228H30.833M30.833 20.7228V20.7228ZM30.833 20.7228L30.6735 20.5632H30.5139M30.5139 20.5632V20.5632ZM30.5139 20.5632H30.3544M30.3544 20.5632V20.5632ZM30.3544 20.5632L30.0353 20.4037M30.0353 20.4037V20.4037ZM30.0353 20.4037L29.8758 20.2442M29.8758 20.2442V20.2442ZM29.8758 20.2442H29.7163M29.7163 20.2442V20.2442ZM29.7163 20.2442H29.5567M29.5567 20.2442V20.2442ZM29.5567 20.2442V20.4037M29.5567 20.2442H29.3972M29.3972 20.2442V20.2442ZM29.3972 20.2442V20.0846M29.3972 20.0846V20.0846ZM29.3972 20.0846H29.2377M29.2377 20.0846V20.0846ZM29.2377 20.0846H29.0782M29.2377 20.0846V19.9251M29.0782 20.0846V20.0846ZM29.2377 19.9251V19.9251ZM29.2377 19.9251V19.7656M29.2377 19.7656V19.7656ZM29.2377 19.7656V19.6061M29.2377 19.7656H29.0782V19.6061M29.2377 19.6061V19.6061ZM29.0782 19.6061V19.6061ZM29.0782 19.6061H28.9186M29.0782 19.6061L28.9186 19.4465M29.0782 19.6061V19.4465M28.9186 19.6061L28.7591 19.4465M28.9186 19.6061V19.4465M28.7591 19.4465V19.4465ZM28.7591 19.4465H28.5996M28.7591 19.4465H28.9186M28.7591 19.4465V19.287M28.5996 19.4465V19.4465ZM28.5996 19.4465V19.287M28.5996 19.4465H28.44V19.287M28.9186 19.4465V19.4465ZM28.9186 19.4465H29.0782M29.0782 19.4465V19.4465ZM28.7591 19.287V19.287ZM28.5996 19.287V19.287ZM28.5996 19.287H28.44M28.44 19.287V19.1275M28.44 19.287V19.287ZM28.44 19.287H28.2805M28.44 19.1275V19.1275ZM28.2805 19.287V19.287ZM28.2805 19.287V19.1275M28.2805 19.287H28.121M28.2805 19.1275V19.1275ZM28.121 19.287V19.287ZM28.121 19.287V19.1275M28.121 19.287H27.9614M28.121 19.1275V19.1275ZM28.121 19.1275H27.9614V19.287M28.121 19.1275L27.9614 19.287M27.9614 19.287L27.8019 19.1275H27.6424M27.6424 19.1275V19.1275ZM27.6424 19.1275H27.4829M27.4829 19.1275V19.1275ZM27.4829 19.1275H27.3233M27.3233 19.1275V19.1275ZM27.3233 19.1275L27.1638 18.9679M27.1638 18.9679V18.9679ZM27.1638 18.9679H27.0043M27.0043 18.9679V18.9679ZM27.0043 18.9679H26.8447M26.8447 18.9679V18.9679ZM26.8447 18.9679H26.6852L26.5257 18.8084H26.2066M26.2066 18.8084V18.8084ZM26.2066 18.8084H26.0471M26.0471 18.8084V18.8084ZM26.0471 18.8084H25.8876M25.8876 18.8084V18.8084ZM25.8876 18.8084H25.728M25.728 18.8084V18.8084ZM25.728 18.8084V18.9679M25.728 18.9679V18.9679ZM25.728 18.9679L25.5685 18.8084M25.5685 18.8084V18.8084ZM25.5685 18.8084V18.6489H25.409M25.409 18.6489V18.6489ZM25.409 18.6489H25.2494V18.4893M25.2494 18.4893V18.4893ZM25.2494 18.4893H25.0899M25.0899 18.4893V18.4893ZM25.0899 18.4893V18.3298M25.0899 18.3298V18.3298ZM25.0899 18.3298H24.9304M24.9304 18.3298V18.3298ZM24.9304 18.3298H24.7708V18.1703M24.7708 18.1703V18.1703ZM24.7708 18.1703V18.0108M24.7708 18.0108V18.0108ZM24.7708 18.0108L24.6113 17.8512M24.6113 17.8512V17.8512ZM24.6113 17.8512H24.4518M24.4518 17.8512V17.8512ZM24.4518 17.8512V17.6917M24.4518 17.6917V17.6917ZM24.4518 17.6917V17.5322M24.4518 17.5322V17.5322ZM24.4518 17.5322H24.2923M24.2923 17.5322V17.5322ZM24.2923 17.5322L24.4518 17.3726H24.2923M24.2923 17.3726V17.3726ZM24.2923 17.3726V17.2131M24.2923 17.2131V17.2131ZM24.2923 17.2131V17.0536H24.4518M24.4518 17.0536V17.0536ZM24.4518 17.0536V16.894M24.4518 16.894V16.894ZM24.4518 16.894H24.6113M24.6113 16.894V16.894ZM24.6113 16.894V16.7345M24.6113 16.7345V16.7345ZM24.6113 16.7345H24.7708M24.7708 16.7345V16.7345ZM24.7708 16.7345V16.575M24.7708 16.575V16.575ZM24.7708 16.575V16.4155M24.7708 16.4155V16.4155ZM24.7708 16.4155H24.6113M24.6113 16.4155V16.4155ZM24.6113 16.4155V16.2559M24.6113 16.2559V16.2559ZM24.6113 16.2559V16.0964H24.4518V15.9369M24.4518 15.9369V15.9369ZM24.4518 15.9369L24.2923 15.7773M24.2923 15.7773V15.7773ZM24.2923 15.7773V15.6178H24.1327M24.1327 15.6178V15.6178ZM24.1327 15.6178V15.4583M24.1327 15.4583V15.4583ZM24.1327 15.4583H23.9732M23.9732 15.4583V15.4583ZM23.9732 15.4583V15.2987H23.8137M23.8137 15.2987V15.2987ZM23.8137 15.2987V15.1392M23.8137 15.1392V15.1392ZM23.8137 15.1392V14.9797M23.8137 14.9797V14.9797ZM23.8137 14.9797H23.9732M23.9732 14.9797V14.9797ZM23.9732 14.9797V14.8202M23.9732 14.9797L23.8137 14.8202M23.9732 14.8202V14.8202ZM23.8137 14.8202V14.8202ZM23.8137 14.8202H23.6541M23.6541 14.8202V14.8202ZM23.6541 14.8202L23.8137 14.6606H23.6541M23.6541 14.6606V14.6606ZM23.6541 14.6606V14.5011M23.6541 14.5011V14.5011ZM23.6541 14.5011L23.4946 14.3416M23.4946 14.3416H23.3351M23.4946 14.3416V14.3416ZM23.3351 14.3416V14.3416ZM23.3351 14.3416H23.1755M23.3351 14.3416V14.182M23.1755 14.3416V14.3416ZM23.1755 14.3416H23.016M23.016 14.3416V14.3416ZM23.016 14.3416H22.8565M23.016 14.3416V14.182M22.8565 14.3416V14.5011H22.697M22.8565 14.3416H22.697M22.8565 14.3416V14.3416ZM22.8565 14.3416V14.182M22.697 14.5011V14.5011ZM22.697 14.5011V14.3416M22.697 14.3416V14.3416ZM22.697 14.3416V14.182M23.3351 14.182V14.182ZM23.016 14.182V14.182ZM23.016 14.182H23.1755M23.016 14.182H22.8565M23.1755 14.182V14.182ZM22.8565 14.182V14.182ZM22.697 14.182V14.182ZM22.697 14.182H22.5374M22.5374 14.182V14.182ZM22.5374 14.182H22.3779M22.3779 14.182V14.182ZM22.3779 14.182V14.0225M22.3779 14.0225V14.0225ZM22.3779 14.0225H22.2184M22.2184 14.0225V14.0225ZM22.2184 14.0225V13.863M22.2184 13.863V13.863ZM22.2184 13.863H22.0588M22.0588 13.863V13.863ZM22.0588 13.863H21.8993M22.0588 13.863V13.7034M21.8993 13.863V13.863ZM21.8993 13.863V13.7034M22.0588 13.7034V13.7034ZM22.0588 13.7034H21.8993M21.8993 13.7034V13.7034ZM21.8993 13.7034H21.7398M21.7398 13.7034V13.7034ZM21.7398 13.7034V13.5439M21.7398 13.5439V13.5439ZM21.7398 13.5439H21.5802M21.7398 13.5439V13.3844M21.5802 13.5439V13.5439ZM21.5802 13.5439H21.4207M21.5802 13.5439L21.7398 13.3844M21.5802 13.5439V13.3844M21.4207 13.5439V13.5439ZM21.7398 13.3844V13.3844ZM21.5802 13.3844V13.3844ZM21.5802 13.3844H21.4207M21.4207 13.3844V13.3844ZM21.4207 13.3844V13.2249M21.4207 13.2249V13.2249ZM21.4207 13.2249H21.2612M21.2612 13.2249V13.2249ZM21.2612 13.2249H21.1017M21.1017 13.2249V13.2249ZM21.1017 13.2249V13.0653M21.1017 13.0653V13.0653ZM21.1017 13.0653V12.9058H20.9421M20.9421 12.9058V12.9058ZM20.9421 12.9058H20.7826M20.7826 12.9058V12.9058ZM20.7826 12.9058V12.7463M20.7826 12.7463V12.7463ZM20.7826 12.7463L20.6231 12.9058M20.6231 12.9058V12.9058ZM20.6231 12.9058H20.4635M20.4635 12.9058V12.9058ZM20.4635 12.9058V12.7463M20.4635 12.7463V12.7463ZM20.4635 12.7463V12.5867M20.4635 12.5867V12.5867ZM20.4635 12.5867V12.4272M20.4635 12.5867H20.304M20.4635 12.4272V12.4272ZM20.304 12.5867V12.5867ZM20.304 12.5867V12.4272M20.304 12.4272V12.4272ZM20.304 12.4272H20.1445M20.1445 12.4272V12.4272ZM20.1445 12.4272H19.9849V12.5867M19.9849 12.5867V12.5867ZM19.9849 12.5867H19.8254M19.8254 12.5867V12.5867ZM19.8254 12.5867H19.6659M19.6659 12.5867V12.5867ZM19.6659 12.5867H19.5064M19.5064 12.5867V12.5867ZM19.5064 12.5867V12.4272M19.5064 12.4272V12.4272ZM19.5064 12.4272H19.3468M19.3468 12.4272V12.4272ZM19.3468 12.4272H19.1873M19.1873 12.4272V12.4272ZM19.1873 12.4272H19.0278M19.0278 12.4272V12.4272ZM19.0278 12.4272V12.2677M19.0278 12.2677V12.2677ZM19.0278 12.2677V12.1081M19.0278 12.1081V12.1081ZM19.0278 12.1081H18.8682M19.0278 12.1081V11.9486M18.8682 12.1081V12.1081ZM18.8682 12.1081V11.9486M18.8682 12.1081V12.2677M19.0278 11.9486V11.9486ZM19.0278 11.9486L18.8682 11.7891M18.8682 11.7891V11.7891ZM18.8682 11.7891L18.7087 11.6296M18.8682 11.7891H18.7087M18.8682 11.7891V11.9486M18.7087 11.6296V11.6296ZM18.7087 11.6296H18.5492M18.7087 11.6296V11.7891M18.5492 11.6296V11.6296ZM18.5492 11.6296H18.3896M18.3896 11.6296V11.47M18.3896 11.6296V11.6296ZM18.3896 11.47V11.47ZM18.3896 11.47H18.5492M18.3896 11.47V11.3105M18.5492 11.47V11.47ZM18.5492 11.47V11.3105M18.5492 11.3105V11.3105ZM18.5492 11.3105H18.3896M18.3896 11.3105V11.3105ZM18.3896 11.3105V11.151M18.3896 11.3105H18.2301V11.151M18.3896 11.151V11.151ZM18.3896 11.151H18.2301M18.2301 11.151V11.151ZM18.2301 11.151V10.9914M18.2301 10.9914V10.9914ZM18.2301 10.9914H18.0706M18.0706 10.9914V10.9914ZM18.0706 10.9914H17.9111M17.9111 10.9914V10.9914ZM17.9111 10.9914L17.7515 11.151M17.9111 10.9914V11.151M17.7515 11.151V11.151ZM17.7515 11.151V10.9914M17.7515 11.151H17.9111M17.7515 10.9914V10.9914ZM17.9111 11.151V11.151ZM18.7087 11.7891V11.7891ZM18.8682 11.9486V11.9486ZM18.8682 12.2677V12.2677ZM18.8682 12.2677V12.4272M18.8682 12.4272V12.4272ZM18.8682 12.4272V12.5867M18.8682 12.5867V12.5867ZM18.8682 12.5867V12.7463M18.8682 12.7463V12.7463ZM18.8682 12.7463V12.9058M18.8682 12.9058V12.9058ZM18.8682 12.9058V13.0653M18.8682 13.0653V13.0653ZM18.8682 13.0653V13.2249M18.8682 13.2249V13.2249ZM18.8682 13.2249H19.0278M19.0278 13.2249V13.2249ZM19.0278 13.2249V13.3844M19.0278 13.3844V13.3844ZM19.0278 13.3844H19.1873M19.1873 13.3844V13.3844ZM19.1873 13.3844H19.3468M19.3468 13.3844V13.3844ZM19.3468 13.3844V13.5439M19.3468 13.5439V13.5439ZM19.3468 13.5439H19.1873M19.3468 13.5439V13.7034M19.1873 13.5439V13.5439ZM19.3468 13.7034V13.7034ZM19.3468 13.7034V13.863M19.3468 13.863V13.863ZM19.3468 13.863H19.5064M19.3468 13.863V14.0225M19.5064 13.863V13.863ZM19.5064 13.863L19.3468 14.0225M19.5064 13.863V14.0225M19.3468 14.0225V14.0225ZM19.3468 14.0225H19.5064M19.5064 14.0225V14.0225ZM19.5064 14.0225H19.6659M19.6659 14.0225V14.0225ZM19.6659 14.0225V14.182H19.8254M19.8254 14.182V14.182ZM19.8254 14.182V14.3416H19.9849M19.9849 14.3416V14.3416ZM19.9849 14.3416H20.1445M19.9849 14.3416L20.1445 14.5011M20.1445 14.3416V14.3416ZM20.1445 14.3416V14.5011M20.1445 14.5011V14.5011ZM20.1445 14.5011H20.304M20.304 14.5011V14.5011ZM20.304 14.5011H20.4635M20.4635 14.5011V14.5011ZM20.4635 14.5011V14.3416M20.4635 14.5011H20.6231M20.4635 14.3416V14.3416ZM20.6231 14.5011V14.5011ZM20.6231 14.5011H20.7826M20.7826 14.5011V14.5011ZM20.7826 14.5011H20.9421M20.9421 14.5011V14.5011ZM20.9421 14.5011V14.6606M20.9421 14.6606V14.6606ZM20.9421 14.6606H21.1017V14.8202M21.1017 14.8202V14.8202ZM21.1017 14.8202H21.2612M21.2612 14.8202V14.8202ZM21.2612 14.8202H21.4207M21.4207 14.8202V14.8202ZM21.4207 14.8202H21.5802M21.5802 14.8202V14.8202ZM21.5802 14.8202H21.7398M21.7398 14.8202V14.8202ZM21.7398 14.8202H21.8993M21.7398 14.8202V14.9797M21.7398 14.9797V14.9797ZM21.7398 14.9797H21.8993M21.8993 14.9797V14.9797ZM21.8993 14.9797V15.1392M21.8993 15.1392H22.0588M21.8993 15.1392V15.1392ZM21.8993 15.1392V15.2987M22.0588 15.1392V15.1392ZM21.8993 15.2987V15.2987ZM21.8993 15.2987H21.7398M21.7398 15.2987V15.2987ZM21.7398 15.2987V15.4583H21.8993M21.8993 15.4583V15.4583ZM21.8993 15.4583V15.6178M21.8993 15.6178V15.6178ZM21.8993 15.6178H22.0588M21.8993 15.6178V15.7773M22.0588 15.6178V15.6178ZM21.8993 15.7773V15.7773ZM21.8993 15.7773V15.9369M21.8993 15.9369V15.9369ZM21.8993 15.9369H22.0588M22.0588 15.9369V15.9369ZM22.0588 15.9369V15.7773M22.0588 15.9369L22.2184 15.7773M22.0588 15.9369H22.2184M22.0588 15.9369V16.0964M22.2184 15.7773V15.7773ZM22.2184 15.7773H22.3779M22.3779 15.7773V15.7773ZM22.3779 15.7773V15.9369M22.3779 15.9369V15.9369ZM22.3779 15.9369H22.5374M22.3779 15.9369V16.0964H22.2184M22.5374 15.9369V15.9369ZM22.5374 15.9369V15.7773M22.2184 16.0964V15.9369M22.2184 16.0964V16.0964ZM22.2184 16.0964H22.0588M22.2184 16.0964L22.0588 16.2559M22.2184 15.9369V15.9369ZM22.0588 16.0964V16.0964ZM22.0588 16.2559V16.2559ZM22.0588 16.2559H21.8993M21.8993 16.2559V16.2559ZM21.8993 16.2559V16.4155M21.8993 16.4155V16.4155ZM21.8993 16.4155V16.575M21.8993 16.575V16.575ZM21.8993 16.575H21.7398M21.7398 16.575V16.575ZM21.7398 16.575H21.5802M21.5802 16.575V16.575ZM21.5802 16.575V16.7345M21.5802 16.7345V16.7345ZM21.5802 16.7345H21.7398M21.5802 16.7345V16.894M21.5802 16.894V16.894ZM21.5802 16.894H21.4207V16.7345M21.4207 16.7345V16.7345ZM21.4207 16.7345H21.2612M21.2612 16.7345V16.7345ZM21.2612 16.7345V16.575M21.2612 16.7345H21.1017M21.2612 16.575V16.575ZM21.1017 16.7345V16.7345ZM21.1017 16.7345L20.9421 16.894H21.1017V17.0536M21.1017 17.0536V17.0536ZM21.1017 17.0536H21.2612M21.2612 17.0536V17.0536ZM21.2612 17.0536L21.1017 17.2131M21.1017 17.2131V17.2131ZM21.1017 17.2131H20.9421M20.9421 17.2131V17.2131ZM20.9421 17.2131H20.7826V17.3726M20.7826 17.3726V17.3726ZM20.7826 17.3726H20.6231V17.5322M20.6231 17.5322V17.5322ZM20.6231 17.5322H20.4635M20.4635 17.5322V17.5322ZM20.4635 17.5322V17.6917M20.4635 17.6917V17.6917ZM20.4635 17.6917V17.8512M20.4635 17.8512V17.8512ZM20.4635 17.8512V18.0108M20.4635 18.0108V18.0108ZM20.4635 18.0108H20.304M20.304 18.0108V18.0108ZM20.304 18.0108V18.1703M20.304 18.1703V18.1703ZM20.304 18.1703V18.3298M20.304 18.3298V18.3298ZM20.304 18.3298H20.1445M20.1445 18.3298V18.3298ZM20.1445 18.3298V18.4893M20.1445 18.3298H19.9849M20.1445 18.4893V18.4893ZM19.9849 18.3298V18.3298ZM19.9849 18.3298H19.8254M19.8254 18.3298V18.3298ZM19.8254 18.3298V18.1703M19.8254 18.1703V18.1703ZM19.8254 18.1703V18.0108M19.8254 18.0108V18.0108ZM19.8254 18.0108V17.8512M19.8254 17.8512V17.8512ZM19.8254 17.8512H19.6659V17.6917M19.6659 17.6917V17.6917ZM19.6659 17.6917H19.5064M19.5064 17.6917V17.6917ZM19.5064 17.6917V17.5322M19.5064 17.5322V17.5322ZM19.5064 17.5322H19.3468M19.3468 17.5322V17.5322ZM19.3468 17.5322V17.3726M19.3468 17.3726V17.3726ZM19.3468 17.3726H19.1873M19.1873 17.3726V17.3726ZM19.1873 17.3726V17.2131M19.1873 17.2131V17.2131ZM19.1873 17.2131V17.0536M19.1873 17.0536V17.0536ZM19.1873 17.0536H19.0278M19.0278 17.0536V17.0536ZM19.0278 17.0536V16.894M19.0278 16.894V16.894ZM19.0278 16.894V16.7345M19.0278 16.7345V16.7345ZM19.0278 16.7345H18.8682M18.8682 16.7345V16.7345ZM18.8682 16.7345L18.7087 16.575M18.7087 16.575V16.575ZM18.7087 16.575H18.5492M18.5492 16.575V16.575ZM18.5492 16.575V16.4155M18.5492 16.4155V16.4155ZM18.5492 16.4155H18.7087M18.5492 16.4155V16.2559M18.7087 16.4155V16.4155ZM18.7087 16.4155V16.2559M18.7087 16.2559V16.2559ZM18.7087 16.2559H18.5492M18.5492 16.2559V16.2559ZM18.5492 16.2559L18.3896 16.0964M18.3896 16.0964V16.0964ZM18.3896 16.0964H18.2301M18.2301 16.0964V16.0964ZM18.2301 16.0964V15.9369M18.2301 15.9369V15.9369ZM18.2301 15.9369H18.0706M18.0706 15.9369V15.9369ZM18.0706 15.9369H17.9111M18.0706 15.9369L17.9111 15.7773M17.9111 15.9369V15.9369ZM17.9111 15.9369V15.7773M17.9111 15.7773V15.7773ZM17.9111 15.7773H17.7515M17.7515 15.7773V15.7773ZM17.7515 15.7773H17.592M17.592 15.7773V15.7773ZM17.592 15.7773V15.6178M17.592 15.6178V15.6178ZM17.592 15.6178H17.4325M17.4325 15.6178V15.6178ZM17.4325 15.6178H17.2729M17.2729 15.6178V15.6178ZM17.2729 15.6178H17.1134M17.1134 15.6178V15.6178ZM17.1134 15.6178H16.9539V15.4583H16.7943M16.7943 15.4583V15.4583ZM16.7943 15.4583V15.6178M16.7943 15.6178V15.6178ZM16.7943 15.6178H16.6348M16.6348 15.6178V15.6178ZM16.6348 15.6178H16.4753M16.4753 15.6178V15.6178ZM16.4753 15.6178V15.4583M16.4753 15.4583V15.4583ZM16.4753 15.4583H16.3158M16.3158 15.4583V15.4583ZM16.3158 15.4583V15.6178M16.3158 15.4583H16.1562M16.3158 15.6178V15.6178ZM16.1562 15.4583V15.2987M16.1562 15.4583V15.4583ZM16.1562 15.4583H15.9967M16.1562 15.2987V15.2987ZM15.9967 15.4583V15.4583ZM15.9967 15.4583H15.8372M15.8372 15.4583V15.4583ZM15.8372 15.4583V15.2987M15.8372 15.2987V15.2987ZM15.8372 15.2987H15.6776M15.6776 15.2987V15.4583M15.6776 15.2987V15.2987ZM15.6776 15.2987H15.5181M15.6776 15.4583V15.4583ZM15.5181 15.2987V15.2987ZM15.5181 15.2987H15.3586M15.3586 15.2987V15.2987ZM15.3586 15.2987H15.199M15.199 15.2987V15.2987ZM15.199 15.2987V15.1392M15.199 15.1392V15.1392ZM15.199 15.1392H15.0395M15.0395 15.1392V15.1392ZM15.0395 15.1392H14.88M14.88 15.1392V15.1392ZM14.88 15.1392H14.7205M14.88 15.1392V14.9797M14.7205 15.1392V15.1392ZM14.88 14.9797V14.9797ZM14.88 14.9797V14.8202H14.7205M14.7205 14.8202V14.8202ZM14.7205 14.8202V14.6606M14.7205 14.6606V14.6606ZM14.7205 14.6606V14.5011M14.7205 14.5011V14.5011ZM14.7205 14.5011H14.5609M14.5609 14.5011V14.5011ZM14.5609 14.5011V14.3416M14.5609 14.3416V14.3416ZM14.5609 14.3416H14.4014V14.182M14.4014 14.182V14.182ZM14.4014 14.182H14.2419V14.0225M14.2419 14.0225V14.0225ZM14.2419 14.0225H14.0823V13.863M14.0823 13.863V13.863ZM14.0823 13.863V13.7034H13.9228M13.9228 13.7034V13.7034ZM13.9228 13.7034V13.5439M13.9228 13.5439V13.5439ZM13.9228 13.5439H13.7633M13.7633 13.5439V13.5439ZM13.7633 13.5439V13.3844M13.7633 13.3844V13.3844ZM13.7633 13.3844H13.6037V13.2249M13.6037 13.2249V13.2249ZM13.6037 13.2249V13.0653M13.6037 13.0653V13.0653ZM13.6037 13.0653V12.9058M13.6037 12.9058V12.9058ZM13.6037 12.9058H13.4442V12.7463M13.4442 12.7463V12.7463ZM13.4442 12.7463V12.5867M13.4442 12.5867V12.5867ZM13.4442 12.5867H13.2847V12.4272M13.2847 12.4272V12.4272ZM13.2847 12.4272V12.2677H13.1252M13.1252 12.2677V12.2677ZM13.1252 12.2677V12.1081M13.1252 12.1081V12.1081ZM13.1252 12.1081V11.9486M13.1252 11.9486V11.9486ZM13.1252 11.9486V11.7891M13.1252 11.7891V11.7891ZM13.1252 11.7891H12.9656M12.9656 11.7891V11.7891ZM12.9656 11.7891V11.6296M12.9656 11.6296V11.6296ZM12.9656 11.6296V11.47M12.9656 11.47V11.47ZM12.9656 11.47V11.3105M12.9656 11.3105V11.3105ZM12.9656 11.3105H13.1252M13.1252 11.3105V11.3105ZM13.1252 11.3105V11.151M13.1252 11.151V11.151ZM13.1252 11.151V10.9914M13.1252 10.9914V10.9914ZM13.1252 10.9914L12.9656 10.8319M12.9656 10.8319V10.8319ZM12.9656 10.8319H12.8061M12.8061 10.8319V10.8319ZM12.8061 10.8319V10.6724M12.8061 10.6724V10.6724ZM12.8061 10.6724H12.9656M12.9656 10.6724V10.6724ZM12.9656 10.6724V10.5128M12.9656 10.5128V10.5128ZM12.9656 10.5128H13.1252M13.1252 10.5128V10.5128ZM13.1252 10.5128V10.3533M13.1252 10.3533V10.3533ZM13.1252 10.3533H13.2847M13.2847 10.3533V10.3533ZM13.2847 10.3533V10.1938M13.2847 10.3533H13.4442M13.2847 10.1938V10.1938ZM13.4442 10.3533V10.3533ZM13.4442 10.3533V10.1938M13.4442 10.1938V10.1938ZM13.4442 10.1938H13.6037M13.6037 10.1938V10.1938ZM13.6037 10.1938V10.0343M13.6037 10.0343V10.0343ZM13.6037 10.0343V9.87472M13.6037 9.87472V9.87472ZM13.6037 9.87472H13.4442M13.6037 9.87472H13.7633M13.4442 9.87472V9.87472ZM13.7633 9.87472V9.87472ZM13.7633 9.87472V9.71519M13.7633 9.71519V9.71519ZM13.7633 9.71519V9.55566M13.7633 9.55566V9.55566ZM13.7633 9.55566H13.6037M13.6037 9.55566V9.55566ZM13.6037 9.55566V9.39613M13.6037 9.55566H13.4442V9.39613M13.6037 9.39613H13.4442M13.6037 9.39613V9.39613ZM13.4442 9.39613V9.39613ZM13.4442 9.39613V9.2366M13.4442 9.2366V9.2366ZM13.4442 9.2366V9.07707M13.4442 9.07707V9.07707ZM13.4442 9.07707H13.6037M13.6037 9.07707V9.07707ZM13.6037 9.07707V8.91754M13.6037 8.91754H13.7633M13.6037 8.91754V8.91754ZM13.7633 8.91754V8.91754ZM13.7633 8.91754H13.9228V9.07707M13.9228 9.07707V9.07707ZM13.9228 9.07707L14.0823 8.91754M14.0823 8.91754V8.91754ZM14.0823 8.91754H14.2419M14.2419 8.91754V8.91754ZM14.2419 8.91754V8.75801M14.2419 8.75801V8.75801ZM14.2419 8.75801H14.4014M14.4014 8.75801V8.75801ZM14.4014 8.75801H14.5609M14.5609 8.75801V8.75801ZM14.5609 8.75801V8.59848M14.5609 8.59848V8.59848ZM14.5609 8.59848H14.4014M14.5609 8.59848H14.7205M14.4014 8.59848V8.59848ZM14.7205 8.59848V8.59848ZM14.7205 8.59848V8.43895M14.7205 8.43895V8.43895ZM14.7205 8.43895H14.88M14.88 8.43895V8.43895ZM14.88 8.43895V8.27942M14.88 8.27942V8.27942ZM14.88 8.27942H15.0395M15.0395 8.27942V8.27942ZM15.0395 8.27942V8.11989M15.0395 8.11989V8.11989ZM15.0395 8.11989H15.199M15.199 8.11989V8.11989ZM15.199 8.11989V7.96036H15.0395M15.0395 7.96036V7.96036ZM15.0395 7.96036H14.88M14.88 7.96036V7.96036ZM14.88 7.96036H14.7205M14.7205 7.96036V7.96036ZM14.7205 7.96036V8.11989M14.7205 7.96036H14.5609M14.7205 8.11989V8.11989ZM14.7205 8.11989V8.27942H14.5609M14.5609 8.27942V8.27942ZM14.5609 8.27942H14.4014M14.5609 8.27942V8.11989M14.5609 8.11989V8.11989ZM14.5609 8.11989V7.96036M14.5609 7.96036V7.96036ZM14.5609 7.96036V7.80083M14.5609 7.80083V7.80083ZM14.5609 7.80083H14.7205M14.7205 7.80083V7.80083ZM14.7205 7.80083V7.6413M14.7205 7.6413V7.6413ZM14.7205 7.6413H14.88M14.88 7.6413V7.6413ZM14.88 7.6413V7.48177M14.88 7.48177V7.48177ZM14.88 7.48177V7.32224M14.88 7.32224V7.32224ZM14.88 7.32224V7.16271M14.88 7.16271V7.16271ZM14.88 7.16271V7.00318M14.88 7.00318V7.00318ZM14.88 7.00318V6.84365M14.88 6.84365V6.84365ZM14.88 6.84365V6.68412M14.88 6.68412V6.68412ZM14.88 6.68412L14.7205 6.52459M14.7205 6.52459V6.52459ZM14.7205 6.52459V6.36506M14.7205 6.36506V6.36506ZM14.7205 6.36506H14.5609M14.5609 6.36506V6.36506ZM14.5609 6.36506H14.4014M14.4014 6.36506V6.36506ZM14.4014 6.36506V6.20553H14.2419M14.2419 6.20553V6.20553ZM14.2419 6.20553V6.36506M14.2419 6.20553H14.0823M14.0823 6.20553V6.20553ZM14.0823 6.20553H13.9228M13.9228 6.20553V6.20553ZM13.9228 6.20553V6.36506M13.9228 6.36506V6.36506ZM13.9228 6.36506H13.7633M13.7633 6.36506V6.36506ZM13.7633 6.36506V6.20553M13.7633 6.20553V6.20553ZM13.7633 6.20553H13.6037M13.6037 6.20553V6.20553ZM13.6037 6.20553H13.4442M13.4442 6.20553V6.20553ZM13.4442 6.20553V6.046M13.4442 6.046V6.046ZM13.4442 6.046H13.6037M13.6037 6.046V6.046ZM13.6037 6.046V5.88647M13.6037 5.88647V5.88647ZM13.6037 5.88647H13.4442M13.4442 5.88647V5.88647ZM13.4442 5.88647H13.2847M13.2847 5.88647V5.88647ZM13.2847 5.88647H13.1252M13.1252 5.88647V5.88647ZM13.1252 5.88647H12.9656M12.9656 5.88647V5.88647ZM12.9656 5.88647V5.72694M12.9656 5.72694V5.72694ZM12.9656 5.72694H12.8061M12.8061 5.72694V5.72694ZM12.8061 5.72694V5.56741M12.8061 5.56741V5.56741ZM12.8061 5.56741H12.6466M12.6466 5.56741V5.56741ZM12.6466 5.56741H12.487M12.487 5.56741V5.56741ZM12.487 5.56741V5.40788M12.487 5.40788V5.40788ZM12.487 5.40788H12.3275M12.3275 5.40788V5.40788ZM12.3275 5.40788H12.168M12.3275 5.40788L12.487 5.24835M12.168 5.40788V5.40788ZM12.168 5.40788L12.0084 5.56741M12.487 5.24835V5.24835ZM12.487 5.24835H12.6466M12.6466 5.24835V5.24835ZM12.6466 5.24835H12.8061M12.8061 5.24835V5.24835ZM12.8061 5.24835V5.08882M12.8061 5.08882V5.08882ZM12.8061 5.08882H12.9656M12.9656 5.08882V5.08882ZM12.9656 5.08882V4.92929M12.9656 4.92929H12.8061M12.9656 4.92929V4.92929ZM12.9656 4.92929H13.1252M12.8061 4.92929V4.92929ZM12.8061 4.92929H12.6466M12.6466 4.92929V4.92929ZM13.1252 4.92929V4.92929ZM13.1252 4.92929H13.2847M13.2847 4.92929V4.92929ZM13.2847 4.92929V5.08882M13.2847 5.08882H13.4442M13.2847 5.08882V5.08882ZM13.2847 5.08882V5.24835M13.4442 5.08882V5.08882ZM13.4442 5.08882H13.6037M13.2847 5.24835V5.24835ZM13.2847 5.24835H13.4442M13.4442 5.24835V5.24835ZM13.4442 5.24835H13.6037M13.6037 5.24835V5.24835ZM13.6037 5.24835V5.08882M13.6037 5.08882V5.08882ZM13.6037 5.08882H13.7633M13.7633 5.08882V4.92929M13.7633 5.08882V5.08882ZM13.7633 5.08882H13.9228M13.7633 4.92929V4.92929ZM13.9228 5.08882V5.08882ZM13.9228 5.08882H14.0823M14.0823 5.08882V5.08882ZM14.0823 5.08882H14.2419M14.2419 5.08882V5.08882ZM14.2419 5.08882H14.4014M14.4014 5.08882V5.08882ZM14.4014 5.08882V4.92929M14.4014 4.92929V4.92929ZM14.4014 4.92929H14.2419M14.4014 4.92929V4.76976M14.2419 4.92929V4.92929ZM14.2419 4.92929V4.76976M14.4014 4.76976V4.76976ZM14.4014 4.76976H14.5609M14.5609 4.76976V4.76976ZM14.5609 4.76976V4.61023M14.5609 4.61023V4.61023ZM14.5609 4.61023H14.4014M14.4014 4.61023V4.61023ZM14.4014 4.61023V4.4507M14.4014 4.4507V4.4507ZM14.4014 4.4507H14.2419M14.2419 4.4507V4.4507ZM14.2419 4.4507V4.29117M14.2419 4.29117V4.29117ZM14.2419 4.29117H14.0823M14.0823 4.29117V4.29117ZM14.0823 4.29117H13.9228M13.9228 4.29117V4.29117ZM13.9228 4.29117V4.13164M13.9228 4.13164V4.13164ZM13.9228 4.13164H14.0823M14.0823 4.13164V4.13164ZM14.0823 4.13164V3.97211M14.0823 3.97211V3.97211ZM14.0823 3.97211H14.2419M14.2419 3.97211V3.97211ZM14.2419 3.97211V4.13164M14.2419 4.13164V4.13164ZM14.2419 4.13164H14.4014M14.4014 4.13164V4.13164ZM14.4014 4.13164H14.5609M14.5609 4.13164V4.13164ZM14.5609 4.13164H14.7205M14.7205 4.13164V4.13164ZM14.7205 4.13164V3.97211M14.7205 3.97211V3.97211ZM14.7205 3.97211V3.81258M14.7205 3.81258V3.81258Z" stroke="#31A5E5"/>
<path d="M20.7825 14.182V14.182ZM20.7825 14.182H20.9407M20.9407 14.182V14.182Z" stroke="#31A5E5"/>
<path d="M19.5049 13.7027H19.6639M19.5049 13.7027V13.5438H19.346M19.5049 13.7027V13.7027ZM19.6639 13.7027V13.7027ZM19.6639 13.7027H19.8228V13.8616H19.6639M19.6639 13.8616V13.8616ZM19.6639 13.8616H19.5049M19.5049 13.8616V13.8616ZM19.5049 13.8616L19.346 13.7027M19.346 13.7027V13.7027ZM19.346 13.7027V13.5438M19.346 13.5438V13.5438Z" stroke="#31A5E5"/>
<path d="M19.9842 13.2246V13.2246ZM19.9842 13.2246H20.1437M19.9842 13.2246L19.8246 13.0651M19.9842 13.2246H19.8246M20.1437 13.2246V13.2246ZM20.1437 13.2246H20.3032M20.1437 13.2246V13.0651M20.3032 13.2246V13.2246ZM20.3032 13.2246V13.3842M20.3032 13.3842V13.3842ZM20.3032 13.3842H20.1437M20.1437 13.3842V13.3842ZM20.1437 13.3842H19.9842M19.9842 13.3842V13.3842ZM19.9842 13.3842V13.5437H19.8246M19.8246 13.5437V13.5437ZM19.8246 13.5437H19.6651M19.6651 13.5437V13.5437ZM19.6651 13.5437V13.3842M19.6651 13.3842V13.3842ZM19.6651 13.3842H19.5056M19.5056 13.3842V13.3842ZM19.5056 13.3842H19.346V13.2246M19.346 13.2246V13.2246ZM19.346 13.2246V13.0651M19.346 13.0651V13.0651ZM19.346 13.0651L19.5056 12.9056M19.5056 12.9056V12.9056ZM19.5056 12.9056H19.6651M19.6651 12.9056V12.9056ZM19.6651 12.9056V13.0651M19.6651 13.0651H19.8246M19.6651 13.0651L19.8246 13.2246M19.6651 13.0651V13.2246M19.6651 13.0651V13.0651ZM19.8246 13.0651V13.0651ZM19.8246 13.0651H19.9842M19.9842 13.0651V13.0651ZM19.9842 13.0651H20.1437M20.1437 13.0651V13.0651ZM19.8246 13.2246V13.2246ZM19.8246 13.2246H19.6651M19.6651 13.2246V13.2246Z" stroke="#31A5E5"/>
<path d="M20.6219 14.3409H20.463M20.6219 14.3409V14.182H20.463M20.6219 14.3409V14.3409ZM20.6219 14.3409H20.7808M20.463 14.3409V14.3409ZM20.463 14.3409H20.3041M20.463 14.3409V14.182M20.463 14.182V14.182ZM20.7808 14.3409V14.3409Z" stroke="#31A5E5"/>
<path d="M21.2603 14.3409H21.1014M21.2603 14.3409V14.182M21.2603 14.3409H21.4193M21.2603 14.3409V14.3409ZM21.1014 14.3409V14.3409ZM21.1014 14.3409V14.182M21.1014 14.182V14.182ZM21.1014 14.182H21.2603M21.2603 14.182V14.182ZM21.4193 14.3409V14.3409ZM21.4193 14.3409H21.5782M21.5782 14.3409V14.3409Z" stroke="#31A5E5"/>
<path d="M20.4622 12.7448V12.7448ZM20.4622 12.7448H20.3041M20.4622 12.7448V12.5867M20.3041 12.7448V12.7448ZM20.3041 12.7448V12.5867M20.3041 12.5867V12.5867ZM20.3041 12.5867H20.4622M20.4622 12.5867V12.5867Z" stroke="#31A5E5"/>
<path d="M34 3.6C34.5683 3.6 35.1134 3.81071 35.5152 4.18579C35.9171 4.56086 36.1429 5.06957 36.1429 5.6C36.1429 5.86264 36.0874 6.12272 35.9797 6.36537C35.8721 6.60802 35.7142 6.8285 35.5152 7.01421C35.3162 7.19993 35.08 7.34725 34.82 7.44776C34.5601 7.54827 34.2814 7.6 34 7.6C33.4317 7.6 32.8866 7.38929 32.4848 7.01421C32.0829 6.63914 31.8571 6.13043 31.8571 5.6C31.8571 5.06957 32.0829 4.56086 32.4848 4.18579C32.8866 3.81071 33.4317 3.6 34 3.6ZM34 0C35.5913 0 37.1174 0.589998 38.2426 1.6402C39.3679 2.69041 40 4.11479 40 5.6C40 9.8 34 16 34 16C34 16 28 9.8 28 5.6C28 4.11479 28.6321 2.69041 29.7574 1.6402C30.8826 0.589998 32.4087 0 34 0ZM34 1.6C32.8634 1.6 31.7733 2.02143 30.9695 2.77157C30.1658 3.52172 29.7143 4.53913 29.7143 5.6C29.7143 6.4 29.7143 8 34 13.368C38.2857 8 38.2857 6.4 38.2857 5.6C38.2857 4.53913 37.8342 3.52172 37.0305 2.77157C36.2267 2.02143 35.1366 1.6 34 1.6Z" fill="white"/>
</svg>
