<svg width="2207" height="118" viewBox="0 0 2207 118" fill="none" xmlns="http://www.w3.org/2000/svg">
<path d="M57.7148 46.6086C57.7005 46.6403 57.7434 46.7946 57.8054 46.9443C58.0058 47.416 58.0869 47.9105 58.0583 48.5002C58.0058 49.5707 57.5907 50.4099 56.6937 51.2672C56.2023 51.739 55.7156 52.0928 54.394 52.932C52.9913 53.8256 52.6668 54.0569 52.142 54.5332C51.288 55.3134 50.8538 56.0528 50.7154 56.9646C50.62 57.6133 50.8251 58.3164 51.3166 59.0195C51.7174 59.591 52.1468 59.9766 52.4903 60.0719C52.7479 60.1399 52.7527 60.0356 52.5046 59.5729C52.2804 59.1556 52.2756 59.1419 52.2804 58.7382C52.2851 57.8582 52.6478 57.1007 53.435 56.3023C53.9408 55.7897 54.5467 55.3407 55.8588 54.506C57.7243 53.313 58.3684 52.7913 58.9219 52.0021C59.4229 51.2944 59.6567 50.5641 59.6567 49.7068C59.6614 48.5501 59.2368 47.5476 58.483 46.9533C58.106 46.6494 57.7577 46.4952 57.7148 46.6086Z" fill="white"/>
<path d="M61.4843 50.5683C61.3555 50.6863 61.3364 50.7725 61.4128 50.845C61.532 50.9584 61.6609 51.6298 61.6847 52.2467C61.7229 53.2764 61.4986 54.1791 60.9595 55.1634C60.573 55.8711 60.22 56.3066 59.4327 57.055C58.6502 57.8035 58.2304 58.121 56.8324 59.0282C54.7712 60.3709 53.9887 61.0695 53.4878 62.0448C53.2397 62.5301 53.1538 62.8567 53.1251 63.4328C53.0822 64.2267 53.2778 64.898 53.7597 65.6374C54.0842 66.1409 54.8619 66.8667 55.5203 67.2795C56.069 67.6288 57.9775 68.5541 58.1492 68.5541C58.2017 68.5541 58.2876 68.5269 58.3353 68.4906C58.4164 68.4362 58.4212 68.3863 58.3878 67.9282C58.2876 66.3178 58.8888 64.7665 60.0482 63.6732C60.5444 63.206 60.9547 62.9339 62.1141 62.326C63.1065 61.7998 63.3308 61.6637 63.8079 61.3054C65.3347 60.1487 65.9168 58.2163 65.4158 55.9936C65.1105 54.6418 64.285 53.0632 63.2879 51.8974C62.7392 51.2624 61.8326 50.4549 61.6704 50.4549C61.6322 50.4549 61.5464 50.5048 61.4843 50.5683Z" fill="white"/>
<path d="M36.0773 65.0663C32.2317 65.4292 28.8776 67.6202 27.2315 70.8454C26.4108 72.4466 26.0435 74.0388 26.0435 75.9485C26.0435 76.9646 26.1198 77.6541 26.325 78.5341C27.2935 82.662 30.6811 85.8147 35.0038 86.6039C36.6737 86.9124 38.7349 86.8262 40.3858 86.3817C41.4593 86.0959 42.6664 85.5697 43.5109 85.0299C43.5586 84.9981 43.6159 84.3223 43.7352 82.2991C43.8258 80.8158 43.8926 79.6001 43.8878 79.5956C43.8831 79.5865 43.7161 79.7045 43.5205 79.8542C42.5137 80.6253 41.0728 81.401 40.0375 81.7231C37.3894 82.5577 34.9036 82.1631 33.1764 80.6435C32.7947 80.3078 32.2413 79.6137 31.9884 79.1465C30.9769 77.2776 30.953 74.5378 31.9359 72.6825C32.2747 72.0475 32.5848 71.6437 33.1669 71.0949C33.9875 70.3192 34.7605 69.9064 35.8865 69.6388C36.2968 69.5435 36.4447 69.5299 37.3894 69.5299C38.3818 69.5299 38.4677 69.539 38.9592 69.6569C40.319 69.9835 41.4211 70.5823 42.7189 71.6982L43.2294 72.1382L43.258 71.9431C43.3057 71.6165 43.759 67.1847 43.759 67.0532C43.759 66.9488 43.7018 66.8944 43.3916 66.7084C42.0366 65.8919 40.5337 65.3657 38.8924 65.1298C38.2816 65.0437 36.6976 65.0074 36.0773 65.0663Z" fill="white"/>
<path d="M46.3686 66.5901C46.3495 66.7625 46.3352 71.3531 46.3352 76.7965V86.6989H48.9117H51.4881V81.3235C51.4881 78.366 51.4977 75.9482 51.512 75.9482C51.5263 75.9482 51.6265 75.9981 51.7315 76.0616C52.3469 76.4336 53.5875 76.9461 54.4129 77.173C55.7775 77.5449 56.5743 77.6447 58.144 77.6447C59.4752 77.6447 60 77.5948 61.0783 77.3725C62.1757 77.1412 63.588 76.6105 64.4611 76.107C64.6138 76.0208 64.7521 75.9482 64.7712 75.9482C64.7855 75.9482 64.7998 78.4159 64.7998 81.4369V86.9257H67.3763H69.9528V76.8872C69.9528 71.3712 69.9385 66.7761 69.9241 66.6809L69.8907 66.513H67.4002H64.9096L64.881 67.1345C64.8142 68.6949 64.275 69.9151 63.2015 70.9358C62.3761 71.7205 61.1689 72.3284 59.9666 72.5642C58.9408 72.7684 57.3615 72.7774 56.3834 72.596C55.0141 72.3329 53.9071 71.7976 52.9767 70.9403C52.1084 70.1419 51.6551 69.4025 51.3641 68.3048C51.2639 67.9419 51.2353 67.697 51.2162 67.0664L51.1875 66.2862H48.7924H46.3972L46.3686 66.5901Z" fill="white"/>
<path d="M82.3878 41.3478H86.8947V43.8696C83.9794 58.1477 81.8421 72.688 81.8421 87.2637V91.7826H77.2392M82.3878 41.3478C83.6004 33.7423 85.0152 26.167 86.632 18.6219C86.8072 17.8015 86.8947 16.971 86.8947 16.1304L11.1053 16.1304C11.1053 16.971 11.1928 17.8015 11.368 18.6219C12.9848 26.167 14.3996 33.7423 15.6122 41.3478L82.3878 41.3478ZM77.2392 91.7826C76.9405 98.4426 76.7906 105.108 76.7895 111.775V117H21.2105V111.775C21.2105 105.104 21.0606 98.44 20.7608 91.7826M77.2392 91.7826H20.7608M20.7608 91.7826H16.1579V87.2637C16.1579 72.688 14.0206 58.1477 11.1053 43.8696V41.3478H15.6072M1 16.1304L1 13.6087L3.96084 12.131C8.53454 9.84616 12.0128 5.84275 13.6316 1L84.3684 1C85.9872 5.84275 89.4655 9.84616 94.0392 12.131L97 13.6087V16.1304L1 16.1304Z" stroke="white" stroke-width="2"/>
<path d="M945.715 46.6086C945.7 46.6403 945.743 46.7946 945.805 46.9443C946.006 47.416 946.087 47.9105 946.058 48.5002C946.006 49.5707 945.591 50.4099 944.694 51.2672C944.202 51.739 943.716 52.0928 942.394 52.932C940.991 53.8256 940.667 54.0569 940.142 54.5332C939.288 55.3134 938.854 56.0528 938.715 56.9646C938.62 57.6133 938.825 58.3164 939.317 59.0195C939.717 59.591 940.147 59.9766 940.49 60.0719C940.748 60.1399 940.753 60.0356 940.505 59.5729C940.28 59.1556 940.276 59.1419 940.28 58.7382C940.285 57.8582 940.648 57.1007 941.435 56.3023C941.941 55.7897 942.547 55.3407 943.859 54.506C945.724 53.313 946.368 52.7913 946.922 52.0021C947.423 51.2944 947.657 50.5641 947.657 49.7068C947.661 48.5501 947.237 47.5476 946.483 46.9533C946.106 46.6494 945.758 46.4952 945.715 46.6086Z" fill="white"/>
<path d="M949.484 50.5683C949.356 50.6863 949.336 50.7725 949.413 50.845C949.532 50.9584 949.661 51.6298 949.685 52.2467C949.723 53.2764 949.499 54.1791 948.959 55.1634C948.573 55.8711 948.22 56.3066 947.433 57.055C946.65 57.8035 946.23 58.121 944.832 59.0282C942.771 60.3709 941.989 61.0695 941.488 62.0448C941.24 62.5301 941.154 62.8567 941.125 63.4328C941.082 64.2267 941.278 64.898 941.76 65.6374C942.084 66.1409 942.862 66.8667 943.52 67.2795C944.069 67.6288 945.977 68.5541 946.149 68.5541C946.202 68.5541 946.288 68.5269 946.335 68.4906C946.416 68.4362 946.421 68.3863 946.388 67.9282C946.288 66.3178 946.889 64.7665 948.048 63.6732C948.544 63.206 948.955 62.9339 950.114 62.326C951.107 61.7998 951.331 61.6637 951.808 61.3054C953.335 60.1487 953.917 58.2163 953.416 55.9936C953.11 54.6418 952.285 53.0632 951.288 51.8974C950.739 51.2624 949.833 50.4549 949.67 50.4549C949.632 50.4549 949.546 50.5048 949.484 50.5683Z" fill="white"/>
<path d="M924.077 65.0663C920.232 65.4292 916.878 67.6202 915.231 70.8454C914.411 72.4466 914.043 74.0388 914.043 75.9485C914.043 76.9646 914.12 77.6541 914.325 78.5341C915.294 82.662 918.681 85.8147 923.004 86.6039C924.674 86.9124 926.735 86.8262 928.386 86.3817C929.459 86.0959 930.666 85.5697 931.511 85.0299C931.559 84.9981 931.616 84.3223 931.735 82.2991C931.826 80.8158 931.893 79.6001 931.888 79.5956C931.883 79.5865 931.716 79.7045 931.52 79.8542C930.514 80.6253 929.073 81.401 928.037 81.7231C925.389 82.5577 922.904 82.1631 921.176 80.6435C920.795 80.3078 920.241 79.6137 919.988 79.1465C918.977 77.2776 918.953 74.5378 919.936 72.6825C920.275 72.0475 920.585 71.6437 921.167 71.0949C921.988 70.3192 922.76 69.9064 923.886 69.6388C924.297 69.5435 924.445 69.5299 925.389 69.5299C926.382 69.5299 926.468 69.539 926.959 69.6569C928.319 69.9835 929.421 70.5823 930.719 71.6982L931.229 72.1382L931.258 71.9431C931.306 71.6165 931.759 67.1847 931.759 67.0532C931.759 66.9488 931.702 66.8944 931.392 66.7084C930.037 65.8919 928.534 65.3657 926.892 65.1298C926.282 65.0437 924.698 65.0074 924.077 65.0663Z" fill="white"/>
<path d="M934.369 66.5901C934.35 66.7625 934.335 71.3531 934.335 76.7965V86.6989H936.912H939.488V81.3235C939.488 78.366 939.498 75.9482 939.512 75.9482C939.526 75.9482 939.626 75.9981 939.731 76.0616C940.347 76.4336 941.587 76.9461 942.413 77.173C943.777 77.5449 944.574 77.6447 946.144 77.6447C947.475 77.6447 948 77.5948 949.078 77.3725C950.176 77.1412 951.588 76.6105 952.461 76.107C952.614 76.0208 952.752 75.9482 952.771 75.9482C952.786 75.9482 952.8 78.4159 952.8 81.4369V86.9257H955.376H957.953V76.8872C957.953 71.3712 957.938 66.7761 957.924 66.6809L957.891 66.513H955.4H952.91L952.881 67.1345C952.814 68.6949 952.275 69.9151 951.201 70.9358C950.376 71.7205 949.169 72.3284 947.967 72.5642C946.941 72.7684 945.362 72.7774 944.383 72.596C943.014 72.3329 941.907 71.7976 940.977 70.9403C940.108 70.1419 939.655 69.4025 939.364 68.3048C939.264 67.9419 939.235 67.697 939.216 67.0664L939.188 66.2862H936.792H934.397L934.369 66.5901Z" fill="white"/>
<path d="M970.388 41.3478H974.895V43.8696C971.979 58.1477 969.842 72.688 969.842 87.2637V91.7826H965.239M970.388 41.3478C971.6 33.7423 973.015 26.167 974.632 18.6219C974.807 17.8015 974.895 16.971 974.895 16.1304L899.105 16.1304C899.105 16.971 899.193 17.8015 899.368 18.6219C900.985 26.167 902.4 33.7423 903.612 41.3478L970.388 41.3478ZM965.239 91.7826C964.941 98.4426 964.791 105.108 964.789 111.775V117H909.211V111.775C909.211 105.104 909.061 98.44 908.761 91.7826M965.239 91.7826H908.761M908.761 91.7826H904.158V87.2637C904.158 72.688 902.021 58.1477 899.105 43.8696V41.3478H903.607M889 16.1304V13.6087L891.961 12.131C896.535 9.84616 900.013 5.84275 901.632 1L972.368 1C973.987 5.84275 977.465 9.84616 982.039 12.131L985 13.6087V16.1304L889 16.1304Z" stroke="white" stroke-width="2"/>
<path d="M501.715 46.6086C501.7 46.6403 501.743 46.7946 501.805 46.9443C502.006 47.416 502.087 47.9105 502.058 48.5002C502.006 49.5707 501.591 50.4099 500.694 51.2672C500.202 51.739 499.716 52.0928 498.394 52.932C496.991 53.8256 496.667 54.0569 496.142 54.5332C495.288 55.3134 494.854 56.0528 494.715 56.9646C494.62 57.6133 494.825 58.3164 495.317 59.0195C495.717 59.591 496.147 59.9766 496.49 60.0719C496.748 60.1399 496.753 60.0356 496.505 59.5729C496.28 59.1556 496.276 59.1419 496.28 58.7382C496.285 57.8582 496.648 57.1007 497.435 56.3023C497.941 55.7897 498.547 55.3407 499.859 54.506C501.724 53.313 502.368 52.7913 502.922 52.0021C503.423 51.2944 503.657 50.5641 503.657 49.7068C503.661 48.5501 503.237 47.5476 502.483 46.9533C502.106 46.6494 501.758 46.4952 501.715 46.6086Z" fill="white"/>
<path d="M505.484 50.5683C505.356 50.6863 505.336 50.7725 505.413 50.845C505.532 50.9584 505.661 51.6298 505.685 52.2467C505.723 53.2764 505.499 54.1791 504.959 55.1634C504.573 55.8711 504.22 56.3066 503.433 57.055C502.65 57.8035 502.23 58.121 500.832 59.0282C498.771 60.3709 497.989 61.0695 497.488 62.0448C497.24 62.5301 497.154 62.8567 497.125 63.4328C497.082 64.2267 497.278 64.898 497.76 65.6374C498.084 66.1409 498.862 66.8667 499.52 67.2795C500.069 67.6288 501.977 68.5541 502.149 68.5541C502.202 68.5541 502.288 68.5269 502.335 68.4906C502.416 68.4362 502.421 68.3863 502.388 67.9282C502.288 66.3178 502.889 64.7665 504.048 63.6732C504.544 63.206 504.955 62.9339 506.114 62.326C507.107 61.7998 507.331 61.6637 507.808 61.3054C509.335 60.1487 509.917 58.2163 509.416 55.9936C509.11 54.6418 508.285 53.0632 507.288 51.8974C506.739 51.2624 505.833 50.4549 505.67 50.4549C505.632 50.4549 505.546 50.5048 505.484 50.5683Z" fill="white"/>
<path d="M480.077 65.0663C476.232 65.4292 472.878 67.6202 471.231 70.8454C470.411 72.4466 470.043 74.0388 470.043 75.9485C470.043 76.9646 470.12 77.6541 470.325 78.5341C471.294 82.662 474.681 85.8147 479.004 86.6039C480.674 86.9124 482.735 86.8262 484.386 86.3817C485.459 86.0959 486.666 85.5697 487.511 85.0299C487.559 84.9981 487.616 84.3223 487.735 82.2991C487.826 80.8158 487.893 79.6001 487.888 79.5956C487.883 79.5865 487.716 79.7045 487.52 79.8542C486.514 80.6253 485.073 81.401 484.037 81.7231C481.389 82.5577 478.904 82.1631 477.176 80.6435C476.795 80.3078 476.241 79.6137 475.988 79.1465C474.977 77.2776 474.953 74.5378 475.936 72.6825C476.275 72.0475 476.585 71.6437 477.167 71.0949C477.988 70.3192 478.76 69.9064 479.886 69.6388C480.297 69.5435 480.445 69.5299 481.389 69.5299C482.382 69.5299 482.468 69.539 482.959 69.6569C484.319 69.9835 485.421 70.5823 486.719 71.6982L487.229 72.1382L487.258 71.9431C487.306 71.6165 487.759 67.1847 487.759 67.0532C487.759 66.9488 487.702 66.8944 487.392 66.7084C486.037 65.8919 484.534 65.3657 482.892 65.1298C482.282 65.0437 480.698 65.0074 480.077 65.0663Z" fill="white"/>
<path d="M490.369 66.5901C490.35 66.7625 490.335 71.3531 490.335 76.7965V86.6989H492.912H495.488V81.3235C495.488 78.366 495.498 75.9482 495.512 75.9482C495.526 75.9482 495.626 75.9981 495.731 76.0616C496.347 76.4336 497.587 76.9461 498.413 77.173C499.777 77.5449 500.574 77.6447 502.144 77.6447C503.475 77.6447 504 77.5948 505.078 77.3725C506.176 77.1412 507.588 76.6105 508.461 76.107C508.614 76.0208 508.752 75.9482 508.771 75.9482C508.786 75.9482 508.8 78.4159 508.8 81.4369V86.9257H511.376H513.953V76.8872C513.953 71.3712 513.938 66.7761 513.924 66.6809L513.891 66.513H511.4H508.91L508.881 67.1345C508.814 68.6949 508.275 69.9151 507.201 70.9358C506.376 71.7205 505.169 72.3284 503.967 72.5642C502.941 72.7684 501.362 72.7774 500.383 72.596C499.014 72.3329 497.907 71.7976 496.977 70.9403C496.108 70.1419 495.655 69.4025 495.364 68.3048C495.264 67.9419 495.235 67.697 495.216 67.0664L495.188 66.2862H492.792H490.397L490.369 66.5901Z" fill="white"/>
<path d="M526.388 41.3478H530.895V43.8696C527.979 58.1477 525.842 72.688 525.842 87.2637V91.7826H521.239M526.388 41.3478C527.6 33.7423 529.015 26.167 530.632 18.6219C530.807 17.8015 530.895 16.971 530.895 16.1304L455.105 16.1304C455.105 16.971 455.193 17.8015 455.368 18.6219C456.985 26.167 458.4 33.7423 459.612 41.3478L526.388 41.3478ZM521.239 91.7826C520.941 98.4426 520.791 105.108 520.789 111.775V117H465.211V111.775C465.211 105.104 465.061 98.44 464.761 91.7826M521.239 91.7826H464.761M464.761 91.7826H460.158V87.2637C460.158 72.688 458.021 58.1477 455.105 43.8696V41.3478H459.607M445 16.1304V13.6087L447.961 12.131C452.535 9.84616 456.013 5.84275 457.632 1L528.368 1C529.987 5.84275 533.465 9.84616 538.039 12.131L541 13.6087V16.1304L445 16.1304Z" stroke="white" stroke-width="2"/>
<path d="M1389.71 46.6086C1389.7 46.6403 1389.74 46.7946 1389.81 46.9443C1390.01 47.416 1390.09 47.9105 1390.06 48.5002C1390.01 49.5707 1389.59 50.4099 1388.69 51.2672C1388.2 51.739 1387.72 52.0928 1386.39 52.932C1384.99 53.8256 1384.67 54.0569 1384.14 54.5332C1383.29 55.3134 1382.85 56.0528 1382.72 56.9646C1382.62 57.6133 1382.83 58.3164 1383.32 59.0195C1383.72 59.591 1384.15 59.9766 1384.49 60.0719C1384.75 60.1399 1384.75 60.0356 1384.5 59.5729C1384.28 59.1556 1384.28 59.1419 1384.28 58.7382C1384.29 57.8582 1384.65 57.1007 1385.44 56.3023C1385.94 55.7897 1386.55 55.3407 1387.86 54.506C1389.72 53.313 1390.37 52.7913 1390.92 52.0021C1391.42 51.2944 1391.66 50.5641 1391.66 49.7068C1391.66 48.5501 1391.24 47.5476 1390.48 46.9533C1390.11 46.6494 1389.76 46.4952 1389.71 46.6086Z" fill="white"/>
<path d="M1393.48 50.5683C1393.36 50.6863 1393.34 50.7725 1393.41 50.845C1393.53 50.9584 1393.66 51.6298 1393.68 52.2467C1393.72 53.2764 1393.5 54.1791 1392.96 55.1634C1392.57 55.8711 1392.22 56.3066 1391.43 57.055C1390.65 57.8035 1390.23 58.121 1388.83 59.0282C1386.77 60.3709 1385.99 61.0695 1385.49 62.0448C1385.24 62.5301 1385.15 62.8567 1385.13 63.4328C1385.08 64.2267 1385.28 64.898 1385.76 65.6374C1386.08 66.1409 1386.86 66.8667 1387.52 67.2795C1388.07 67.6288 1389.98 68.5541 1390.15 68.5541C1390.2 68.5541 1390.29 68.5269 1390.34 68.4906C1390.42 68.4362 1390.42 68.3863 1390.39 67.9282C1390.29 66.3178 1390.89 64.7665 1392.05 63.6732C1392.54 63.206 1392.95 62.9339 1394.11 62.326C1395.11 61.7998 1395.33 61.6637 1395.81 61.3054C1397.33 60.1487 1397.92 58.2163 1397.42 55.9936C1397.11 54.6418 1396.29 53.0632 1395.29 51.8974C1394.74 51.2624 1393.83 50.4549 1393.67 50.4549C1393.63 50.4549 1393.55 50.5048 1393.48 50.5683Z" fill="white"/>
<path d="M1368.08 65.0663C1364.23 65.4292 1360.88 67.6202 1359.23 70.8454C1358.41 72.4466 1358.04 74.0388 1358.04 75.9485C1358.04 76.9646 1358.12 77.6541 1358.32 78.5341C1359.29 82.662 1362.68 85.8147 1367 86.6039C1368.67 86.9124 1370.73 86.8262 1372.39 86.3817C1373.46 86.0959 1374.67 85.5697 1375.51 85.0299C1375.56 84.9981 1375.62 84.3223 1375.74 82.2991C1375.83 80.8158 1375.89 79.6001 1375.89 79.5956C1375.88 79.5865 1375.72 79.7045 1375.52 79.8542C1374.51 80.6253 1373.07 81.401 1372.04 81.7231C1369.39 82.5577 1366.9 82.1631 1365.18 80.6435C1364.79 80.3078 1364.24 79.6137 1363.99 79.1465C1362.98 77.2776 1362.95 74.5378 1363.94 72.6825C1364.27 72.0475 1364.58 71.6437 1365.17 71.0949C1365.99 70.3192 1366.76 69.9064 1367.89 69.6388C1368.3 69.5435 1368.44 69.5299 1369.39 69.5299C1370.38 69.5299 1370.47 69.539 1370.96 69.6569C1372.32 69.9835 1373.42 70.5823 1374.72 71.6982L1375.23 72.1382L1375.26 71.9431C1375.31 71.6165 1375.76 67.1847 1375.76 67.0532C1375.76 66.9488 1375.7 66.8944 1375.39 66.7084C1374.04 65.8919 1372.53 65.3657 1370.89 65.1298C1370.28 65.0437 1368.7 65.0074 1368.08 65.0663Z" fill="white"/>
<path d="M1378.37 66.5901C1378.35 66.7625 1378.34 71.3531 1378.34 76.7965V86.6989H1380.91H1383.49V81.3235C1383.49 78.366 1383.5 75.9482 1383.51 75.9482C1383.53 75.9482 1383.63 75.9981 1383.73 76.0616C1384.35 76.4336 1385.59 76.9461 1386.41 77.173C1387.78 77.5449 1388.57 77.6447 1390.14 77.6447C1391.48 77.6447 1392 77.5948 1393.08 77.3725C1394.18 77.1412 1395.59 76.6105 1396.46 76.107C1396.61 76.0208 1396.75 75.9482 1396.77 75.9482C1396.79 75.9482 1396.8 78.4159 1396.8 81.4369V86.9257H1399.38H1401.95V76.8872C1401.95 71.3712 1401.94 66.7761 1401.92 66.6809L1401.89 66.513H1399.4H1396.91L1396.88 67.1345C1396.81 68.6949 1396.28 69.9151 1395.2 70.9358C1394.38 71.7205 1393.17 72.3284 1391.97 72.5642C1390.94 72.7684 1389.36 72.7774 1388.38 72.596C1387.01 72.3329 1385.91 71.7976 1384.98 70.9403C1384.11 70.1419 1383.66 69.4025 1383.36 68.3048C1383.26 67.9419 1383.24 67.697 1383.22 67.0664L1383.19 66.2862H1380.79H1378.4L1378.37 66.5901Z" fill="white"/>
<path d="M1414.39 41.3478H1418.89V43.8696C1415.98 58.1477 1413.84 72.688 1413.84 87.2637V91.7826H1409.24M1414.39 41.3478C1415.6 33.7423 1417.02 26.167 1418.63 18.6219C1418.81 17.8015 1418.89 16.971 1418.89 16.1304L1343.11 16.1304C1343.11 16.971 1343.19 17.8015 1343.37 18.6219C1344.98 26.167 1346.4 33.7423 1347.61 41.3478L1414.39 41.3478ZM1409.24 91.7826C1408.94 98.4426 1408.79 105.108 1408.79 111.775V117H1353.21V111.775C1353.21 105.104 1353.06 98.44 1352.76 91.7826M1409.24 91.7826H1352.76M1352.76 91.7826H1348.16V87.2637C1348.16 72.688 1346.02 58.1477 1343.11 43.8696V41.3478H1347.61M1333 16.1304V13.6087L1335.96 12.131C1340.53 9.84616 1344.01 5.84275 1345.63 1L1416.37 1C1417.99 5.84275 1421.47 9.84616 1426.04 12.131L1429 13.6087V16.1304L1333 16.1304Z" stroke="white" stroke-width="2"/>
<path d="M1833.71 46.6086C1833.7 46.6403 1833.74 46.7946 1833.81 46.9443C1834.01 47.416 1834.09 47.9105 1834.06 48.5002C1834.01 49.5707 1833.59 50.4099 1832.69 51.2672C1832.2 51.739 1831.72 52.0928 1830.39 52.932C1828.99 53.8256 1828.67 54.0569 1828.14 54.5332C1827.29 55.3134 1826.85 56.0528 1826.72 56.9646C1826.62 57.6133 1826.83 58.3164 1827.32 59.0195C1827.72 59.591 1828.15 59.9766 1828.49 60.0719C1828.75 60.1399 1828.75 60.0356 1828.5 59.5729C1828.28 59.1556 1828.28 59.1419 1828.28 58.7382C1828.29 57.8582 1828.65 57.1007 1829.44 56.3023C1829.94 55.7897 1830.55 55.3407 1831.86 54.506C1833.72 53.313 1834.37 52.7913 1834.92 52.0021C1835.42 51.2944 1835.66 50.5641 1835.66 49.7068C1835.66 48.5501 1835.24 47.5476 1834.48 46.9533C1834.11 46.6494 1833.76 46.4952 1833.71 46.6086Z" fill="white"/>
<path d="M1837.48 50.5683C1837.36 50.6863 1837.34 50.7725 1837.41 50.845C1837.53 50.9584 1837.66 51.6298 1837.68 52.2467C1837.72 53.2764 1837.5 54.1791 1836.96 55.1634C1836.57 55.8711 1836.22 56.3066 1835.43 57.055C1834.65 57.8035 1834.23 58.121 1832.83 59.0282C1830.77 60.3709 1829.99 61.0695 1829.49 62.0448C1829.24 62.5301 1829.15 62.8567 1829.13 63.4328C1829.08 64.2267 1829.28 64.898 1829.76 65.6374C1830.08 66.1409 1830.86 66.8667 1831.52 67.2795C1832.07 67.6288 1833.98 68.5541 1834.15 68.5541C1834.2 68.5541 1834.29 68.5269 1834.34 68.4906C1834.42 68.4362 1834.42 68.3863 1834.39 67.9282C1834.29 66.3178 1834.89 64.7665 1836.05 63.6732C1836.54 63.206 1836.95 62.9339 1838.11 62.326C1839.11 61.7998 1839.33 61.6637 1839.81 61.3054C1841.33 60.1487 1841.92 58.2163 1841.42 55.9936C1841.11 54.6418 1840.29 53.0632 1839.29 51.8974C1838.74 51.2624 1837.83 50.4549 1837.67 50.4549C1837.63 50.4549 1837.55 50.5048 1837.48 50.5683Z" fill="white"/>
<path d="M1812.08 65.0663C1808.23 65.4292 1804.88 67.6202 1803.23 70.8454C1802.41 72.4466 1802.04 74.0388 1802.04 75.9485C1802.04 76.9646 1802.12 77.6541 1802.32 78.5341C1803.29 82.662 1806.68 85.8147 1811 86.6039C1812.67 86.9124 1814.73 86.8262 1816.39 86.3817C1817.46 86.0959 1818.67 85.5697 1819.51 85.0299C1819.56 84.9981 1819.62 84.3223 1819.74 82.2991C1819.83 80.8158 1819.89 79.6001 1819.89 79.5956C1819.88 79.5865 1819.72 79.7045 1819.52 79.8542C1818.51 80.6253 1817.07 81.401 1816.04 81.7231C1813.39 82.5577 1810.9 82.1631 1809.18 80.6435C1808.79 80.3078 1808.24 79.6137 1807.99 79.1465C1806.98 77.2776 1806.95 74.5378 1807.94 72.6825C1808.27 72.0475 1808.58 71.6437 1809.17 71.0949C1809.99 70.3192 1810.76 69.9064 1811.89 69.6388C1812.3 69.5435 1812.44 69.5299 1813.39 69.5299C1814.38 69.5299 1814.47 69.539 1814.96 69.6569C1816.32 69.9835 1817.42 70.5823 1818.72 71.6982L1819.23 72.1382L1819.26 71.9431C1819.31 71.6165 1819.76 67.1847 1819.76 67.0532C1819.76 66.9488 1819.7 66.8944 1819.39 66.7084C1818.04 65.8919 1816.53 65.3657 1814.89 65.1298C1814.28 65.0437 1812.7 65.0074 1812.08 65.0663Z" fill="white"/>
<path d="M1822.37 66.5901C1822.35 66.7625 1822.34 71.3531 1822.34 76.7965V86.6989H1824.91H1827.49V81.3235C1827.49 78.366 1827.5 75.9482 1827.51 75.9482C1827.53 75.9482 1827.63 75.9981 1827.73 76.0616C1828.35 76.4336 1829.59 76.9461 1830.41 77.173C1831.78 77.5449 1832.57 77.6447 1834.14 77.6447C1835.48 77.6447 1836 77.5948 1837.08 77.3725C1838.18 77.1412 1839.59 76.6105 1840.46 76.107C1840.61 76.0208 1840.75 75.9482 1840.77 75.9482C1840.79 75.9482 1840.8 78.4159 1840.8 81.4369V86.9257H1843.38H1845.95V76.8872C1845.95 71.3712 1845.94 66.7761 1845.92 66.6809L1845.89 66.513H1843.4H1840.91L1840.88 67.1345C1840.81 68.6949 1840.28 69.9151 1839.2 70.9358C1838.38 71.7205 1837.17 72.3284 1835.97 72.5642C1834.94 72.7684 1833.36 72.7774 1832.38 72.596C1831.01 72.3329 1829.91 71.7976 1828.98 70.9403C1828.11 70.1419 1827.66 69.4025 1827.36 68.3048C1827.26 67.9419 1827.24 67.697 1827.22 67.0664L1827.19 66.2862H1824.79H1822.4L1822.37 66.5901Z" fill="white"/>
<path d="M1858.39 41.3478H1862.89V43.8696C1859.98 58.1477 1857.84 72.688 1857.84 87.2637V91.7826H1853.24M1858.39 41.3478C1859.6 33.7423 1861.02 26.167 1862.63 18.6219C1862.81 17.8015 1862.89 16.971 1862.89 16.1304L1787.11 16.1304C1787.11 16.971 1787.19 17.8015 1787.37 18.6219C1788.98 26.167 1790.4 33.7423 1791.61 41.3478L1858.39 41.3478ZM1853.24 91.7826C1852.94 98.4426 1852.79 105.108 1852.79 111.775V117H1797.21V111.775C1797.21 105.104 1797.06 98.44 1796.76 91.7826M1853.24 91.7826H1796.76M1796.76 91.7826H1792.16V87.2637C1792.16 72.688 1790.02 58.1477 1787.11 43.8696V41.3478H1791.61M1777 16.1304V13.6087L1779.96 12.131C1784.53 9.84616 1788.01 5.84275 1789.63 1L1860.37 1C1861.99 5.84275 1865.47 9.84616 1870.04 12.131L1873 13.6087V16.1304L1777 16.1304Z" stroke="white" stroke-width="2"/>
<path d="M279.715 46.6086C279.7 46.6403 279.743 46.7946 279.805 46.9443C280.006 47.416 280.087 47.9105 280.058 48.5002C280.006 49.5707 279.591 50.4099 278.694 51.2672C278.202 51.739 277.716 52.0928 276.394 52.932C274.991 53.8256 274.667 54.0569 274.142 54.5332C273.288 55.3134 272.854 56.0528 272.715 56.9646C272.62 57.6133 272.825 58.3164 273.317 59.0195C273.717 59.591 274.147 59.9766 274.49 60.0719C274.748 60.1399 274.753 60.0356 274.505 59.5729C274.28 59.1556 274.276 59.1419 274.28 58.7382C274.285 57.8582 274.648 57.1007 275.435 56.3023C275.941 55.7897 276.547 55.3407 277.859 54.506C279.724 53.313 280.368 52.7913 280.922 52.0021C281.423 51.2944 281.657 50.5641 281.657 49.7068C281.661 48.5501 281.237 47.5476 280.483 46.9533C280.106 46.6494 279.758 46.4952 279.715 46.6086Z" fill="white"/>
<path d="M283.484 50.5683C283.356 50.6863 283.336 50.7725 283.413 50.845C283.532 50.9584 283.661 51.6298 283.685 52.2467C283.723 53.2764 283.499 54.1791 282.959 55.1634C282.573 55.8711 282.22 56.3066 281.433 57.055C280.65 57.8035 280.23 58.121 278.832 59.0282C276.771 60.3709 275.989 61.0695 275.488 62.0448C275.24 62.5301 275.154 62.8567 275.125 63.4328C275.082 64.2267 275.278 64.898 275.76 65.6374C276.084 66.1409 276.862 66.8667 277.52 67.2795C278.069 67.6288 279.977 68.5541 280.149 68.5541C280.202 68.5541 280.288 68.5269 280.335 68.4906C280.416 68.4362 280.421 68.3863 280.388 67.9282C280.288 66.3178 280.889 64.7665 282.048 63.6732C282.544 63.206 282.955 62.9339 284.114 62.326C285.107 61.7998 285.331 61.6637 285.808 61.3054C287.335 60.1487 287.917 58.2163 287.416 55.9936C287.11 54.6418 286.285 53.0632 285.288 51.8974C284.739 51.2624 283.833 50.4549 283.67 50.4549C283.632 50.4549 283.546 50.5048 283.484 50.5683Z" fill="white"/>
<path d="M258.077 65.0663C254.232 65.4292 250.878 67.6202 249.231 70.8454C248.411 72.4466 248.043 74.0388 248.043 75.9485C248.043 76.9646 248.12 77.6541 248.325 78.5341C249.294 82.662 252.681 85.8147 257.004 86.6039C258.674 86.9124 260.735 86.8262 262.386 86.3817C263.459 86.0959 264.666 85.5697 265.511 85.0299C265.559 84.9981 265.616 84.3223 265.735 82.2991C265.826 80.8158 265.893 79.6001 265.888 79.5956C265.883 79.5865 265.716 79.7045 265.52 79.8542C264.514 80.6253 263.073 81.401 262.037 81.7231C259.389 82.5577 256.904 82.1631 255.176 80.6435C254.795 80.3078 254.241 79.6137 253.988 79.1465C252.977 77.2776 252.953 74.5378 253.936 72.6825C254.275 72.0475 254.585 71.6437 255.167 71.0949C255.988 70.3192 256.76 69.9064 257.886 69.6388C258.297 69.5435 258.445 69.5299 259.389 69.5299C260.382 69.5299 260.468 69.539 260.959 69.6569C262.319 69.9835 263.421 70.5823 264.719 71.6982L265.229 72.1382L265.258 71.9431C265.306 71.6165 265.759 67.1847 265.759 67.0532C265.759 66.9488 265.702 66.8944 265.392 66.7084C264.037 65.8919 262.534 65.3657 260.892 65.1298C260.282 65.0437 258.698 65.0074 258.077 65.0663Z" fill="white"/>
<path d="M268.369 66.5901C268.35 66.7625 268.335 71.3531 268.335 76.7965V86.6989H270.912H273.488V81.3235C273.488 78.366 273.498 75.9482 273.512 75.9482C273.526 75.9482 273.626 75.9981 273.731 76.0616C274.347 76.4336 275.587 76.9461 276.413 77.173C277.777 77.5449 278.574 77.6447 280.144 77.6447C281.475 77.6447 282 77.5948 283.078 77.3725C284.176 77.1412 285.588 76.6105 286.461 76.107C286.614 76.0208 286.752 75.9482 286.771 75.9482C286.786 75.9482 286.8 78.4159 286.8 81.4369V86.9257H289.376H291.953V76.8872C291.953 71.3712 291.938 66.7761 291.924 66.6809L291.891 66.513H289.4H286.91L286.881 67.1345C286.814 68.6949 286.275 69.9151 285.201 70.9358C284.376 71.7205 283.169 72.3284 281.967 72.5642C280.941 72.7684 279.362 72.7774 278.383 72.596C277.014 72.3329 275.907 71.7976 274.977 70.9403C274.108 70.1419 273.655 69.4025 273.364 68.3048C273.264 67.9419 273.235 67.697 273.216 67.0664L273.188 66.2862H270.792H268.397L268.369 66.5901Z" fill="white"/>
<path d="M304.388 41.3478H308.895V43.8696C305.979 58.1477 303.842 72.688 303.842 87.2637V91.7826H299.239M304.388 41.3478C305.6 33.7423 307.015 26.167 308.632 18.6219C308.807 17.8015 308.895 16.971 308.895 16.1304L233.105 16.1304C233.105 16.971 233.193 17.8015 233.368 18.6219C234.985 26.167 236.4 33.7423 237.612 41.3478L304.388 41.3478ZM299.239 91.7826C298.941 98.4426 298.791 105.108 298.789 111.775V117H243.211V111.775C243.211 105.104 243.061 98.44 242.761 91.7826M299.239 91.7826H242.761M242.761 91.7826H238.158V87.2637C238.158 72.688 236.021 58.1477 233.105 43.8696V41.3478H237.607M223 16.1304V13.6087L225.961 12.131C230.535 9.84616 234.013 5.84275 235.632 1L306.368 1C307.987 5.84275 311.465 9.84616 316.039 12.131L319 13.6087V16.1304L223 16.1304Z" stroke="white" stroke-width="2"/>
<path d="M1167.71 46.6086C1167.7 46.6403 1167.74 46.7946 1167.81 46.9443C1168.01 47.416 1168.09 47.9105 1168.06 48.5002C1168.01 49.5707 1167.59 50.4099 1166.69 51.2672C1166.2 51.739 1165.72 52.0928 1164.39 52.932C1162.99 53.8256 1162.67 54.0569 1162.14 54.5332C1161.29 55.3134 1160.85 56.0528 1160.72 56.9646C1160.62 57.6133 1160.83 58.3164 1161.32 59.0195C1161.72 59.591 1162.15 59.9766 1162.49 60.0719C1162.75 60.1399 1162.75 60.0356 1162.5 59.5729C1162.28 59.1556 1162.28 59.1419 1162.28 58.7382C1162.29 57.8582 1162.65 57.1007 1163.44 56.3023C1163.94 55.7897 1164.55 55.3407 1165.86 54.506C1167.72 53.313 1168.37 52.7913 1168.92 52.0021C1169.42 51.2944 1169.66 50.5641 1169.66 49.7068C1169.66 48.5501 1169.24 47.5476 1168.48 46.9533C1168.11 46.6494 1167.76 46.4952 1167.71 46.6086Z" fill="white"/>
<path d="M1171.48 50.5683C1171.36 50.6863 1171.34 50.7725 1171.41 50.845C1171.53 50.9584 1171.66 51.6298 1171.68 52.2467C1171.72 53.2764 1171.5 54.1791 1170.96 55.1634C1170.57 55.8711 1170.22 56.3066 1169.43 57.055C1168.65 57.8035 1168.23 58.121 1166.83 59.0282C1164.77 60.3709 1163.99 61.0695 1163.49 62.0448C1163.24 62.5301 1163.15 62.8567 1163.13 63.4328C1163.08 64.2267 1163.28 64.898 1163.76 65.6374C1164.08 66.1409 1164.86 66.8667 1165.52 67.2795C1166.07 67.6288 1167.98 68.5541 1168.15 68.5541C1168.2 68.5541 1168.29 68.5269 1168.34 68.4906C1168.42 68.4362 1168.42 68.3863 1168.39 67.9282C1168.29 66.3178 1168.89 64.7665 1170.05 63.6732C1170.54 63.206 1170.95 62.9339 1172.11 62.326C1173.11 61.7998 1173.33 61.6637 1173.81 61.3054C1175.33 60.1487 1175.92 58.2163 1175.42 55.9936C1175.11 54.6418 1174.29 53.0632 1173.29 51.8974C1172.74 51.2624 1171.83 50.4549 1171.67 50.4549C1171.63 50.4549 1171.55 50.5048 1171.48 50.5683Z" fill="white"/>
<path d="M1146.08 65.0663C1142.23 65.4292 1138.88 67.6202 1137.23 70.8454C1136.41 72.4466 1136.04 74.0388 1136.04 75.9485C1136.04 76.9646 1136.12 77.6541 1136.32 78.5341C1137.29 82.662 1140.68 85.8147 1145 86.6039C1146.67 86.9124 1148.73 86.8262 1150.39 86.3817C1151.46 86.0959 1152.67 85.5697 1153.51 85.0299C1153.56 84.9981 1153.62 84.3223 1153.74 82.2991C1153.83 80.8158 1153.89 79.6001 1153.89 79.5956C1153.88 79.5865 1153.72 79.7045 1153.52 79.8542C1152.51 80.6253 1151.07 81.401 1150.04 81.7231C1147.39 82.5577 1144.9 82.1631 1143.18 80.6435C1142.79 80.3078 1142.24 79.6137 1141.99 79.1465C1140.98 77.2776 1140.95 74.5378 1141.94 72.6825C1142.27 72.0475 1142.58 71.6437 1143.17 71.0949C1143.99 70.3192 1144.76 69.9064 1145.89 69.6388C1146.3 69.5435 1146.44 69.5299 1147.39 69.5299C1148.38 69.5299 1148.47 69.539 1148.96 69.6569C1150.32 69.9835 1151.42 70.5823 1152.72 71.6982L1153.23 72.1382L1153.26 71.9431C1153.31 71.6165 1153.76 67.1847 1153.76 67.0532C1153.76 66.9488 1153.7 66.8944 1153.39 66.7084C1152.04 65.8919 1150.53 65.3657 1148.89 65.1298C1148.28 65.0437 1146.7 65.0074 1146.08 65.0663Z" fill="white"/>
<path d="M1156.37 66.5901C1156.35 66.7625 1156.34 71.3531 1156.34 76.7965V86.6989H1158.91H1161.49V81.3235C1161.49 78.366 1161.5 75.9482 1161.51 75.9482C1161.53 75.9482 1161.63 75.9981 1161.73 76.0616C1162.35 76.4336 1163.59 76.9461 1164.41 77.173C1165.78 77.5449 1166.57 77.6447 1168.14 77.6447C1169.48 77.6447 1170 77.5948 1171.08 77.3725C1172.18 77.1412 1173.59 76.6105 1174.46 76.107C1174.61 76.0208 1174.75 75.9482 1174.77 75.9482C1174.79 75.9482 1174.8 78.4159 1174.8 81.4369V86.9257H1177.38H1179.95V76.8872C1179.95 71.3712 1179.94 66.7761 1179.92 66.6809L1179.89 66.513H1177.4H1174.91L1174.88 67.1345C1174.81 68.6949 1174.28 69.9151 1173.2 70.9358C1172.38 71.7205 1171.17 72.3284 1169.97 72.5642C1168.94 72.7684 1167.36 72.7774 1166.38 72.596C1165.01 72.3329 1163.91 71.7976 1162.98 70.9403C1162.11 70.1419 1161.66 69.4025 1161.36 68.3048C1161.26 67.9419 1161.24 67.697 1161.22 67.0664L1161.19 66.2862H1158.79H1156.4L1156.37 66.5901Z" fill="white"/>
<path d="M1192.39 41.3478H1196.89V43.8696C1193.98 58.1477 1191.84 72.688 1191.84 87.2637V91.7826H1187.24M1192.39 41.3478C1193.6 33.7423 1195.02 26.167 1196.63 18.6219C1196.81 17.8015 1196.89 16.971 1196.89 16.1304L1121.11 16.1304C1121.11 16.971 1121.19 17.8015 1121.37 18.6219C1122.98 26.167 1124.4 33.7423 1125.61 41.3478L1192.39 41.3478ZM1187.24 91.7826C1186.94 98.4426 1186.79 105.108 1186.79 111.775V117H1131.21V111.775C1131.21 105.104 1131.06 98.44 1130.76 91.7826M1187.24 91.7826H1130.76M1130.76 91.7826H1126.16V87.2637C1126.16 72.688 1124.02 58.1477 1121.11 43.8696V41.3478H1125.61M1111 16.1304V13.6087L1113.96 12.131C1118.53 9.84616 1122.01 5.84275 1123.63 1L1194.37 1C1195.99 5.84275 1199.47 9.84616 1204.04 12.131L1207 13.6087V16.1304L1111 16.1304Z" stroke="white" stroke-width="2"/>
<path d="M723.715 46.6086C723.7 46.6403 723.743 46.7946 723.805 46.9443C724.006 47.416 724.087 47.9105 724.058 48.5002C724.006 49.5707 723.591 50.4099 722.694 51.2672C722.202 51.739 721.716 52.0928 720.394 52.932C718.991 53.8256 718.667 54.0569 718.142 54.5332C717.288 55.3134 716.854 56.0528 716.715 56.9646C716.62 57.6133 716.825 58.3164 717.317 59.0195C717.717 59.591 718.147 59.9766 718.49 60.0719C718.748 60.1399 718.753 60.0356 718.505 59.5729C718.28 59.1556 718.276 59.1419 718.28 58.7382C718.285 57.8582 718.648 57.1007 719.435 56.3023C719.941 55.7897 720.547 55.3407 721.859 54.506C723.724 53.313 724.368 52.7913 724.922 52.0021C725.423 51.2944 725.657 50.5641 725.657 49.7068C725.661 48.5501 725.237 47.5476 724.483 46.9533C724.106 46.6494 723.758 46.4952 723.715 46.6086Z" fill="white"/>
<path d="M727.484 50.5683C727.356 50.6863 727.336 50.7725 727.413 50.845C727.532 50.9584 727.661 51.6298 727.685 52.2467C727.723 53.2764 727.499 54.1791 726.959 55.1634C726.573 55.8711 726.22 56.3066 725.433 57.055C724.65 57.8035 724.23 58.121 722.832 59.0282C720.771 60.3709 719.989 61.0695 719.488 62.0448C719.24 62.5301 719.154 62.8567 719.125 63.4328C719.082 64.2267 719.278 64.898 719.76 65.6374C720.084 66.1409 720.862 66.8667 721.52 67.2795C722.069 67.6288 723.977 68.5541 724.149 68.5541C724.202 68.5541 724.288 68.5269 724.335 68.4906C724.416 68.4362 724.421 68.3863 724.388 67.9282C724.288 66.3178 724.889 64.7665 726.048 63.6732C726.544 63.206 726.955 62.9339 728.114 62.326C729.107 61.7998 729.331 61.6637 729.808 61.3054C731.335 60.1487 731.917 58.2163 731.416 55.9936C731.11 54.6418 730.285 53.0632 729.288 51.8974C728.739 51.2624 727.833 50.4549 727.67 50.4549C727.632 50.4549 727.546 50.5048 727.484 50.5683Z" fill="white"/>
<path d="M702.077 65.0663C698.232 65.4292 694.878 67.6202 693.231 70.8454C692.411 72.4466 692.043 74.0388 692.043 75.9485C692.043 76.9646 692.12 77.6541 692.325 78.5341C693.294 82.662 696.681 85.8147 701.004 86.6039C702.674 86.9124 704.735 86.8262 706.386 86.3817C707.459 86.0959 708.666 85.5697 709.511 85.0299C709.559 84.9981 709.616 84.3223 709.735 82.2991C709.826 80.8158 709.893 79.6001 709.888 79.5956C709.883 79.5865 709.716 79.7045 709.52 79.8542C708.514 80.6253 707.073 81.401 706.037 81.7231C703.389 82.5577 700.904 82.1631 699.176 80.6435C698.795 80.3078 698.241 79.6137 697.988 79.1465C696.977 77.2776 696.953 74.5378 697.936 72.6825C698.275 72.0475 698.585 71.6437 699.167 71.0949C699.988 70.3192 700.76 69.9064 701.886 69.6388C702.297 69.5435 702.445 69.5299 703.389 69.5299C704.382 69.5299 704.468 69.539 704.959 69.6569C706.319 69.9835 707.421 70.5823 708.719 71.6982L709.229 72.1382L709.258 71.9431C709.306 71.6165 709.759 67.1847 709.759 67.0532C709.759 66.9488 709.702 66.8944 709.392 66.7084C708.037 65.8919 706.534 65.3657 704.892 65.1298C704.282 65.0437 702.698 65.0074 702.077 65.0663Z" fill="white"/>
<path d="M712.369 66.5901C712.35 66.7625 712.335 71.3531 712.335 76.7965V86.6989H714.912H717.488V81.3235C717.488 78.366 717.498 75.9482 717.512 75.9482C717.526 75.9482 717.626 75.9981 717.731 76.0616C718.347 76.4336 719.587 76.9461 720.413 77.173C721.777 77.5449 722.574 77.6447 724.144 77.6447C725.475 77.6447 726 77.5948 727.078 77.3725C728.176 77.1412 729.588 76.6105 730.461 76.107C730.614 76.0208 730.752 75.9482 730.771 75.9482C730.786 75.9482 730.8 78.4159 730.8 81.4369V86.9257H733.376H735.953V76.8872C735.953 71.3712 735.938 66.7761 735.924 66.6809L735.891 66.513H733.4H730.91L730.881 67.1345C730.814 68.6949 730.275 69.9151 729.201 70.9358C728.376 71.7205 727.169 72.3284 725.967 72.5642C724.941 72.7684 723.362 72.7774 722.383 72.596C721.014 72.3329 719.907 71.7976 718.977 70.9403C718.108 70.1419 717.655 69.4025 717.364 68.3048C717.264 67.9419 717.235 67.697 717.216 67.0664L717.188 66.2862H714.792H712.397L712.369 66.5901Z" fill="white"/>
<path d="M748.388 41.3478H752.895V43.8696C749.979 58.1477 747.842 72.688 747.842 87.2637V91.7826H743.239M748.388 41.3478C749.6 33.7423 751.015 26.167 752.632 18.6219C752.807 17.8015 752.895 16.971 752.895 16.1304L677.105 16.1304C677.105 16.971 677.193 17.8015 677.368 18.6219C678.985 26.167 680.4 33.7423 681.612 41.3478L748.388 41.3478ZM743.239 91.7826C742.941 98.4426 742.791 105.108 742.789 111.775V117H687.211V111.775C687.211 105.104 687.061 98.44 686.761 91.7826M743.239 91.7826H686.761M686.761 91.7826H682.158V87.2637C682.158 72.688 680.021 58.1477 677.105 43.8696V41.3478H681.607M667 16.1304V13.6087L669.961 12.131C674.535 9.84616 678.013 5.84275 679.632 1L750.368 1C751.987 5.84275 755.465 9.84616 760.039 12.131L763 13.6087V16.1304L667 16.1304Z" stroke="white" stroke-width="2"/>
<path d="M1611.71 46.6086C1611.7 46.6403 1611.74 46.7946 1611.81 46.9443C1612.01 47.416 1612.09 47.9105 1612.06 48.5002C1612.01 49.5707 1611.59 50.4099 1610.69 51.2672C1610.2 51.739 1609.72 52.0928 1608.39 52.932C1606.99 53.8256 1606.67 54.0569 1606.14 54.5332C1605.29 55.3134 1604.85 56.0528 1604.72 56.9646C1604.62 57.6133 1604.83 58.3164 1605.32 59.0195C1605.72 59.591 1606.15 59.9766 1606.49 60.0719C1606.75 60.1399 1606.75 60.0356 1606.5 59.5729C1606.28 59.1556 1606.28 59.1419 1606.28 58.7382C1606.29 57.8582 1606.65 57.1007 1607.44 56.3023C1607.94 55.7897 1608.55 55.3407 1609.86 54.506C1611.72 53.313 1612.37 52.7913 1612.92 52.0021C1613.42 51.2944 1613.66 50.5641 1613.66 49.7068C1613.66 48.5501 1613.24 47.5476 1612.48 46.9533C1612.11 46.6494 1611.76 46.4952 1611.71 46.6086Z" fill="white"/>
<path d="M1615.48 50.5683C1615.36 50.6863 1615.34 50.7725 1615.41 50.845C1615.53 50.9584 1615.66 51.6298 1615.68 52.2467C1615.72 53.2764 1615.5 54.1791 1614.96 55.1634C1614.57 55.8711 1614.22 56.3066 1613.43 57.055C1612.65 57.8035 1612.23 58.121 1610.83 59.0282C1608.77 60.3709 1607.99 61.0695 1607.49 62.0448C1607.24 62.5301 1607.15 62.8567 1607.13 63.4328C1607.08 64.2267 1607.28 64.898 1607.76 65.6374C1608.08 66.1409 1608.86 66.8667 1609.52 67.2795C1610.07 67.6288 1611.98 68.5541 1612.15 68.5541C1612.2 68.5541 1612.29 68.5269 1612.34 68.4906C1612.42 68.4362 1612.42 68.3863 1612.39 67.9282C1612.29 66.3178 1612.89 64.7665 1614.05 63.6732C1614.54 63.206 1614.95 62.9339 1616.11 62.326C1617.11 61.7998 1617.33 61.6637 1617.81 61.3054C1619.33 60.1487 1619.92 58.2163 1619.42 55.9936C1619.11 54.6418 1618.29 53.0632 1617.29 51.8974C1616.74 51.2624 1615.83 50.4549 1615.67 50.4549C1615.63 50.4549 1615.55 50.5048 1615.48 50.5683Z" fill="white"/>
<path d="M1590.08 65.0663C1586.23 65.4292 1582.88 67.6202 1581.23 70.8454C1580.41 72.4466 1580.04 74.0388 1580.04 75.9485C1580.04 76.9646 1580.12 77.6541 1580.32 78.5341C1581.29 82.662 1584.68 85.8147 1589 86.6039C1590.67 86.9124 1592.73 86.8262 1594.39 86.3817C1595.46 86.0959 1596.67 85.5697 1597.51 85.0299C1597.56 84.9981 1597.62 84.3223 1597.74 82.2991C1597.83 80.8158 1597.89 79.6001 1597.89 79.5956C1597.88 79.5865 1597.72 79.7045 1597.52 79.8542C1596.51 80.6253 1595.07 81.401 1594.04 81.7231C1591.39 82.5577 1588.9 82.1631 1587.18 80.6435C1586.79 80.3078 1586.24 79.6137 1585.99 79.1465C1584.98 77.2776 1584.95 74.5378 1585.94 72.6825C1586.27 72.0475 1586.58 71.6437 1587.17 71.0949C1587.99 70.3192 1588.76 69.9064 1589.89 69.6388C1590.3 69.5435 1590.44 69.5299 1591.39 69.5299C1592.38 69.5299 1592.47 69.539 1592.96 69.6569C1594.32 69.9835 1595.42 70.5823 1596.72 71.6982L1597.23 72.1382L1597.26 71.9431C1597.31 71.6165 1597.76 67.1847 1597.76 67.0532C1597.76 66.9488 1597.7 66.8944 1597.39 66.7084C1596.04 65.8919 1594.53 65.3657 1592.89 65.1298C1592.28 65.0437 1590.7 65.0074 1590.08 65.0663Z" fill="white"/>
<path d="M1600.37 66.5901C1600.35 66.7625 1600.34 71.3531 1600.34 76.7965V86.6989H1602.91H1605.49V81.3235C1605.49 78.366 1605.5 75.9482 1605.51 75.9482C1605.53 75.9482 1605.63 75.9981 1605.73 76.0616C1606.35 76.4336 1607.59 76.9461 1608.41 77.173C1609.78 77.5449 1610.57 77.6447 1612.14 77.6447C1613.48 77.6447 1614 77.5948 1615.08 77.3725C1616.18 77.1412 1617.59 76.6105 1618.46 76.107C1618.61 76.0208 1618.75 75.9482 1618.77 75.9482C1618.79 75.9482 1618.8 78.4159 1618.8 81.4369V86.9257H1621.38H1623.95V76.8872C1623.95 71.3712 1623.94 66.7761 1623.92 66.6809L1623.89 66.513H1621.4H1618.91L1618.88 67.1345C1618.81 68.6949 1618.28 69.9151 1617.2 70.9358C1616.38 71.7205 1615.17 72.3284 1613.97 72.5642C1612.94 72.7684 1611.36 72.7774 1610.38 72.596C1609.01 72.3329 1607.91 71.7976 1606.98 70.9403C1606.11 70.1419 1605.66 69.4025 1605.36 68.3048C1605.26 67.9419 1605.24 67.697 1605.22 67.0664L1605.19 66.2862H1602.79H1600.4L1600.37 66.5901Z" fill="white"/>
<path d="M1636.39 41.3478H1640.89V43.8696C1637.98 58.1477 1635.84 72.688 1635.84 87.2637V91.7826H1631.24M1636.39 41.3478C1637.6 33.7423 1639.02 26.167 1640.63 18.6219C1640.81 17.8015 1640.89 16.971 1640.89 16.1304L1565.11 16.1304C1565.11 16.971 1565.19 17.8015 1565.37 18.6219C1566.98 26.167 1568.4 33.7423 1569.61 41.3478L1636.39 41.3478ZM1631.24 91.7826C1630.94 98.4426 1630.79 105.108 1630.79 111.775V117H1575.21V111.775C1575.21 105.104 1575.06 98.44 1574.76 91.7826M1631.24 91.7826H1574.76M1574.76 91.7826H1570.16V87.2637C1570.16 72.688 1568.02 58.1477 1565.11 43.8696V41.3478H1569.61M1555 16.1304V13.6087L1557.96 12.131C1562.53 9.84616 1566.01 5.84275 1567.63 1L1638.37 1C1639.99 5.84275 1643.47 9.84616 1648.04 12.131L1651 13.6087V16.1304L1555 16.1304Z" stroke="white" stroke-width="2"/>
<path d="M2055.71 46.6086C2055.7 46.6403 2055.74 46.7946 2055.81 46.9443C2056.01 47.416 2056.09 47.9105 2056.06 48.5002C2056.01 49.5707 2055.59 50.4099 2054.69 51.2672C2054.2 51.739 2053.72 52.0928 2052.39 52.932C2050.99 53.8256 2050.67 54.0569 2050.14 54.5332C2049.29 55.3134 2048.85 56.0528 2048.72 56.9646C2048.62 57.6133 2048.83 58.3164 2049.32 59.0195C2049.72 59.591 2050.15 59.9766 2050.49 60.0719C2050.75 60.1399 2050.75 60.0356 2050.5 59.5729C2050.28 59.1556 2050.28 59.1419 2050.28 58.7382C2050.29 57.8582 2050.65 57.1007 2051.44 56.3023C2051.94 55.7897 2052.55 55.3407 2053.86 54.506C2055.72 53.313 2056.37 52.7913 2056.92 52.0021C2057.42 51.2944 2057.66 50.5641 2057.66 49.7068C2057.66 48.5501 2057.24 47.5476 2056.48 46.9533C2056.11 46.6494 2055.76 46.4952 2055.71 46.6086Z" fill="white"/>
<path d="M2059.48 50.5683C2059.36 50.6863 2059.34 50.7725 2059.41 50.845C2059.53 50.9584 2059.66 51.6298 2059.68 52.2467C2059.72 53.2764 2059.5 54.1791 2058.96 55.1634C2058.57 55.8711 2058.22 56.3066 2057.43 57.055C2056.65 57.8035 2056.23 58.121 2054.83 59.0282C2052.77 60.3709 2051.99 61.0695 2051.49 62.0448C2051.24 62.5301 2051.15 62.8567 2051.13 63.4328C2051.08 64.2267 2051.28 64.898 2051.76 65.6374C2052.08 66.1409 2052.86 66.8667 2053.52 67.2795C2054.07 67.6288 2055.98 68.5541 2056.15 68.5541C2056.2 68.5541 2056.29 68.5269 2056.34 68.4906C2056.42 68.4362 2056.42 68.3863 2056.39 67.9282C2056.29 66.3178 2056.89 64.7665 2058.05 63.6732C2058.54 63.206 2058.95 62.9339 2060.11 62.326C2061.11 61.7998 2061.33 61.6637 2061.81 61.3054C2063.33 60.1487 2063.92 58.2163 2063.42 55.9936C2063.11 54.6418 2062.29 53.0632 2061.29 51.8974C2060.74 51.2624 2059.83 50.4549 2059.67 50.4549C2059.63 50.4549 2059.55 50.5048 2059.48 50.5683Z" fill="white"/>
<path d="M2034.08 65.0663C2030.23 65.4292 2026.88 67.6202 2025.23 70.8454C2024.41 72.4466 2024.04 74.0388 2024.04 75.9485C2024.04 76.9646 2024.12 77.6541 2024.32 78.5341C2025.29 82.662 2028.68 85.8147 2033 86.6039C2034.67 86.9124 2036.73 86.8262 2038.39 86.3817C2039.46 86.0959 2040.67 85.5697 2041.51 85.0299C2041.56 84.9981 2041.62 84.3223 2041.74 82.2991C2041.83 80.8158 2041.89 79.6001 2041.89 79.5956C2041.88 79.5865 2041.72 79.7045 2041.52 79.8542C2040.51 80.6253 2039.07 81.401 2038.04 81.7231C2035.39 82.5577 2032.9 82.1631 2031.18 80.6435C2030.79 80.3078 2030.24 79.6137 2029.99 79.1465C2028.98 77.2776 2028.95 74.5378 2029.94 72.6825C2030.27 72.0475 2030.58 71.6437 2031.17 71.0949C2031.99 70.3192 2032.76 69.9064 2033.89 69.6388C2034.3 69.5435 2034.44 69.5299 2035.39 69.5299C2036.38 69.5299 2036.47 69.539 2036.96 69.6569C2038.32 69.9835 2039.42 70.5823 2040.72 71.6982L2041.23 72.1382L2041.26 71.9431C2041.31 71.6165 2041.76 67.1847 2041.76 67.0532C2041.76 66.9488 2041.7 66.8944 2041.39 66.7084C2040.04 65.8919 2038.53 65.3657 2036.89 65.1298C2036.28 65.0437 2034.7 65.0074 2034.08 65.0663Z" fill="white"/>
<path d="M2044.37 66.5901C2044.35 66.7625 2044.34 71.3531 2044.34 76.7965V86.6989H2046.91H2049.49V81.3235C2049.49 78.366 2049.5 75.9482 2049.51 75.9482C2049.53 75.9482 2049.63 75.9981 2049.73 76.0616C2050.35 76.4336 2051.59 76.9461 2052.41 77.173C2053.78 77.5449 2054.57 77.6447 2056.14 77.6447C2057.48 77.6447 2058 77.5948 2059.08 77.3725C2060.18 77.1412 2061.59 76.6105 2062.46 76.107C2062.61 76.0208 2062.75 75.9482 2062.77 75.9482C2062.79 75.9482 2062.8 78.4159 2062.8 81.4369V86.9257H2065.38H2067.95V76.8872C2067.95 71.3712 2067.94 66.7761 2067.92 66.6809L2067.89 66.513H2065.4H2062.91L2062.88 67.1345C2062.81 68.6949 2062.28 69.9151 2061.2 70.9358C2060.38 71.7205 2059.17 72.3284 2057.97 72.5642C2056.94 72.7684 2055.36 72.7774 2054.38 72.596C2053.01 72.3329 2051.91 71.7976 2050.98 70.9403C2050.11 70.1419 2049.66 69.4025 2049.36 68.3048C2049.26 67.9419 2049.24 67.697 2049.22 67.0664L2049.19 66.2862H2046.79H2044.4L2044.37 66.5901Z" fill="white"/>
<path d="M2080.39 41.3478H2084.89V43.8696C2081.98 58.1477 2079.84 72.688 2079.84 87.2637V91.7826H2075.24M2080.39 41.3478C2081.6 33.7423 2083.02 26.167 2084.63 18.6219C2084.81 17.8015 2084.89 16.971 2084.89 16.1304L2009.11 16.1304C2009.11 16.971 2009.19 17.8015 2009.37 18.6219C2010.98 26.167 2012.4 33.7423 2013.61 41.3478L2080.39 41.3478ZM2075.24 91.7826C2074.94 98.4426 2074.79 105.108 2074.79 111.775V117H2019.21V111.775C2019.21 105.104 2019.06 98.44 2018.76 91.7826M2075.24 91.7826H2018.76M2018.76 91.7826H2014.16V87.2637C2014.16 72.688 2012.02 58.1477 2009.11 43.8696V41.3478H2013.61M1999 16.1304V13.6087L2001.96 12.131C2006.53 9.84616 2010.01 5.84275 2011.63 1L2082.37 1C2083.99 5.84275 2087.47 9.84616 2092.04 12.131L2095 13.6087V16.1304L1999 16.1304Z" stroke="white" stroke-width="2"/>
<path d="M168.715 71.3915C168.7 71.3597 168.743 71.2055 168.805 71.0558C169.006 70.584 169.087 70.0896 169.058 69.4999C169.006 68.4294 168.591 67.5902 167.694 66.7329C167.202 66.2611 166.716 65.9073 165.394 65.0681C163.991 64.1745 163.667 63.9431 163.142 63.4668C162.288 62.6866 161.854 61.9472 161.715 61.0355C161.62 60.3868 161.825 59.6837 162.317 58.9806C162.717 58.409 163.147 58.0235 163.49 57.9282C163.748 57.8602 163.753 57.9645 163.505 58.4272C163.28 58.8445 163.276 58.8581 163.28 59.2618C163.285 60.1418 163.648 60.8994 164.435 61.6977C164.941 62.2103 165.547 62.6594 166.859 63.4941C168.724 64.6871 169.368 65.2087 169.922 65.998C170.423 66.7056 170.657 67.436 170.657 68.2933C170.661 69.45 170.237 70.4525 169.483 71.0467C169.106 71.3506 168.758 71.5049 168.715 71.3915Z" fill="white"/>
<path d="M172.484 67.4317C172.356 67.3138 172.336 67.2276 172.413 67.155C172.532 67.0416 172.661 66.3703 172.685 65.7534C172.723 64.7236 172.499 63.821 171.959 62.8366C171.573 62.129 171.22 61.6935 170.433 60.945C169.65 60.1966 169.23 59.879 167.832 58.9718C165.771 57.6291 164.989 56.9306 164.488 55.9553C164.24 55.4699 164.154 55.1433 164.125 54.5672C164.082 53.7734 164.278 53.1021 164.76 52.3627C165.084 51.8592 165.862 51.1334 166.52 50.7206C167.069 50.3713 168.977 49.4459 169.149 49.4459C169.202 49.4459 169.288 49.4731 169.335 49.5094C169.416 49.5639 169.421 49.6138 169.388 50.0719C169.288 51.6822 169.889 53.2336 171.048 54.3268C171.544 54.794 171.955 55.0662 173.114 55.674C174.107 56.2002 174.331 56.3363 174.808 56.6947C176.335 57.8514 176.917 59.7838 176.416 62.0065C176.11 63.3583 175.285 64.9368 174.288 66.1026C173.739 66.7377 172.833 67.5451 172.67 67.5451C172.632 67.5451 172.546 67.4952 172.484 67.4317Z" fill="white"/>
<path d="M147.077 52.9337C143.232 52.5708 139.878 50.3798 138.231 47.1546C137.411 45.5534 137.043 43.9612 137.043 42.0515C137.043 41.0354 137.12 40.3459 137.325 39.4659C138.294 35.338 141.681 32.1853 146.004 31.3961C147.674 31.0876 149.735 31.1738 151.386 31.6183C152.459 31.9041 153.666 32.4303 154.511 32.9701C154.559 33.0019 154.616 33.6777 154.735 35.7009C154.826 37.1842 154.893 38.3999 154.888 38.4044C154.883 38.4135 154.716 38.2955 154.52 38.1458C153.514 37.3747 152.073 36.599 151.037 36.2769C148.389 35.4423 145.904 35.8369 144.176 37.3565C143.795 37.6922 143.241 38.3863 142.988 38.8535C141.977 40.7224 141.953 43.4622 142.936 45.3175C143.275 45.9525 143.585 46.3563 144.167 46.9051C144.988 47.6808 145.76 48.0936 146.886 48.3612C147.297 48.4565 147.445 48.4701 148.389 48.4701C149.382 48.4701 149.468 48.461 149.959 48.3431C151.319 48.0165 152.421 47.4177 153.719 46.3018L154.229 45.8618L154.258 46.0569C154.306 46.3835 154.759 50.8153 154.759 50.9468C154.759 51.0512 154.702 51.1056 154.392 51.2916C153.037 52.1081 151.534 52.6343 149.892 52.8702C149.282 52.9563 147.698 52.9926 147.077 52.9337Z" fill="white"/>
<path d="M157.369 51.4099C157.35 51.2375 157.335 46.6469 157.335 41.2035V31.3011H159.912H162.488V36.6765C162.488 39.634 162.498 42.0518 162.512 42.0518C162.526 42.0518 162.626 42.0019 162.731 41.9384C163.347 41.5664 164.587 41.0539 165.413 40.827C166.777 40.4551 167.574 40.3553 169.144 40.3553C170.475 40.3553 171 40.4052 172.078 40.6275C173.176 40.8588 174.588 41.3895 175.461 41.893C175.614 41.9792 175.752 42.0518 175.771 42.0518C175.786 42.0518 175.8 39.5841 175.8 36.5631V31.0743H178.376H180.953V41.1128C180.953 46.6288 180.938 51.2239 180.924 51.3191L180.891 51.487H178.4H175.91L175.881 50.8655C175.814 49.3051 175.275 48.0849 174.201 47.0642C173.376 46.2795 172.169 45.6716 170.967 45.4358C169.941 45.2316 168.362 45.2226 167.383 45.404C166.014 45.6671 164.907 46.2024 163.977 47.0597C163.108 47.8581 162.655 48.5975 162.364 49.6952C162.264 50.0581 162.235 50.303 162.216 50.9336L162.188 51.7138H159.792H157.397L157.369 51.4099Z" fill="white"/>
<path d="M193.388 76.6522H197.895V74.1304C194.979 59.8523 192.842 45.312 192.842 30.7363V26.2174H188.239M193.388 76.6522C194.6 84.2577 196.015 91.833 197.632 99.3781C197.807 100.198 197.895 101.029 197.895 101.87H122.105C122.105 101.029 122.193 100.198 122.368 99.3781C123.985 91.833 125.4 84.2577 126.612 76.6522H193.388ZM188.239 26.2174C187.941 19.5574 187.791 12.8917 187.789 6.22503V0.999995H132.211V6.22503C132.211 12.8959 132.061 19.56 131.761 26.2174M188.239 26.2174H131.761M131.761 26.2174H127.158V30.7363C127.158 45.312 125.021 59.8523 122.105 74.1304V76.6522H126.607M112 101.87V104.391L114.961 105.869C119.535 108.154 123.013 112.157 124.632 117H195.368C196.987 112.157 200.465 108.154 205.039 105.869L208 104.391V101.87H112Z" stroke="white" stroke-width="2"/>
<path d="M1056.71 71.3915C1056.7 71.3597 1056.74 71.2055 1056.81 71.0558C1057.01 70.584 1057.09 70.0896 1057.06 69.4999C1057.01 68.4294 1056.59 67.5902 1055.69 66.7329C1055.2 66.2611 1054.72 65.9073 1053.39 65.0681C1051.99 64.1745 1051.67 63.9431 1051.14 63.4668C1050.29 62.6866 1049.85 61.9472 1049.72 61.0355C1049.62 60.3868 1049.83 59.6837 1050.32 58.9806C1050.72 58.409 1051.15 58.0235 1051.49 57.9282C1051.75 57.8602 1051.75 57.9645 1051.5 58.4272C1051.28 58.8445 1051.28 58.8581 1051.28 59.2618C1051.29 60.1418 1051.65 60.8994 1052.44 61.6977C1052.94 62.2103 1053.55 62.6594 1054.86 63.4941C1056.72 64.6871 1057.37 65.2087 1057.92 65.998C1058.42 66.7056 1058.66 67.436 1058.66 68.2933C1058.66 69.45 1058.24 70.4525 1057.48 71.0467C1057.11 71.3506 1056.76 71.5049 1056.71 71.3915Z" fill="white"/>
<path d="M1060.48 67.4317C1060.36 67.3138 1060.34 67.2276 1060.41 67.155C1060.53 67.0416 1060.66 66.3703 1060.68 65.7534C1060.72 64.7236 1060.5 63.821 1059.96 62.8366C1059.57 62.129 1059.22 61.6935 1058.43 60.945C1057.65 60.1966 1057.23 59.879 1055.83 58.9718C1053.77 57.6291 1052.99 56.9306 1052.49 55.9553C1052.24 55.4699 1052.15 55.1433 1052.13 54.5672C1052.08 53.7734 1052.28 53.1021 1052.76 52.3627C1053.08 51.8592 1053.86 51.1334 1054.52 50.7206C1055.07 50.3713 1056.98 49.4459 1057.15 49.4459C1057.2 49.4459 1057.29 49.4731 1057.34 49.5094C1057.42 49.5639 1057.42 49.6138 1057.39 50.0719C1057.29 51.6822 1057.89 53.2336 1059.05 54.3268C1059.54 54.794 1059.95 55.0662 1061.11 55.674C1062.11 56.2002 1062.33 56.3363 1062.81 56.6947C1064.33 57.8514 1064.92 59.7838 1064.42 62.0065C1064.11 63.3583 1063.29 64.9368 1062.29 66.1026C1061.74 66.7377 1060.83 67.5451 1060.67 67.5451C1060.63 67.5451 1060.55 67.4952 1060.48 67.4317Z" fill="white"/>
<path d="M1035.08 52.9337C1031.23 52.5708 1027.88 50.3798 1026.23 47.1546C1025.41 45.5534 1025.04 43.9612 1025.04 42.0515C1025.04 41.0354 1025.12 40.3459 1025.32 39.4659C1026.29 35.338 1029.68 32.1853 1034 31.3961C1035.67 31.0876 1037.73 31.1738 1039.39 31.6183C1040.46 31.9041 1041.67 32.4303 1042.51 32.9701C1042.56 33.0019 1042.62 33.6777 1042.74 35.7009C1042.83 37.1842 1042.89 38.3999 1042.89 38.4044C1042.88 38.4135 1042.72 38.2955 1042.52 38.1458C1041.51 37.3747 1040.07 36.599 1039.04 36.2769C1036.39 35.4423 1033.9 35.8369 1032.18 37.3565C1031.79 37.6922 1031.24 38.3863 1030.99 38.8535C1029.98 40.7224 1029.95 43.4622 1030.94 45.3175C1031.27 45.9525 1031.58 46.3563 1032.17 46.9051C1032.99 47.6808 1033.76 48.0936 1034.89 48.3612C1035.3 48.4565 1035.44 48.4701 1036.39 48.4701C1037.38 48.4701 1037.47 48.461 1037.96 48.3431C1039.32 48.0165 1040.42 47.4177 1041.72 46.3018L1042.23 45.8618L1042.26 46.0569C1042.31 46.3835 1042.76 50.8153 1042.76 50.9468C1042.76 51.0512 1042.7 51.1056 1042.39 51.2916C1041.04 52.1081 1039.53 52.6343 1037.89 52.8702C1037.28 52.9563 1035.7 52.9926 1035.08 52.9337Z" fill="white"/>
<path d="M1045.37 51.4099C1045.35 51.2375 1045.34 46.6469 1045.34 41.2035V31.3011H1047.91H1050.49V36.6765C1050.49 39.634 1050.5 42.0518 1050.51 42.0518C1050.53 42.0518 1050.63 42.0019 1050.73 41.9384C1051.35 41.5664 1052.59 41.0539 1053.41 40.827C1054.78 40.4551 1055.57 40.3553 1057.14 40.3553C1058.48 40.3553 1059 40.4052 1060.08 40.6275C1061.18 40.8588 1062.59 41.3895 1063.46 41.893C1063.61 41.9792 1063.75 42.0518 1063.77 42.0518C1063.79 42.0518 1063.8 39.5841 1063.8 36.5631V31.0743H1066.38H1068.95V41.1128C1068.95 46.6288 1068.94 51.2239 1068.92 51.3191L1068.89 51.487H1066.4H1063.91L1063.88 50.8655C1063.81 49.3051 1063.28 48.0849 1062.2 47.0642C1061.38 46.2795 1060.17 45.6716 1058.97 45.4358C1057.94 45.2316 1056.36 45.2226 1055.38 45.404C1054.01 45.6671 1052.91 46.2024 1051.98 47.0597C1051.11 47.8581 1050.66 48.5975 1050.36 49.6952C1050.26 50.0581 1050.24 50.303 1050.22 50.9336L1050.19 51.7138H1047.79H1045.4L1045.37 51.4099Z" fill="white"/>
<path d="M1081.39 76.6522H1085.89V74.1304C1082.98 59.8523 1080.84 45.312 1080.84 30.7363V26.2174H1076.24M1081.39 76.6522C1082.6 84.2577 1084.02 91.833 1085.63 99.3781C1085.81 100.198 1085.89 101.029 1085.89 101.87H1010.11C1010.11 101.029 1010.19 100.198 1010.37 99.3781C1011.98 91.833 1013.4 84.2577 1014.61 76.6522H1081.39ZM1076.24 26.2174C1075.94 19.5574 1075.79 12.8917 1075.79 6.22503V0.999995H1020.21V6.22503C1020.21 12.8959 1020.06 19.56 1019.76 26.2174M1076.24 26.2174H1019.76M1019.76 26.2174H1015.16V30.7363C1015.16 45.312 1013.02 59.8523 1010.11 74.1304V76.6522H1014.61M1000 101.87V104.391L1002.96 105.869C1007.53 108.154 1011.01 112.157 1012.63 117H1083.37C1084.99 112.157 1088.47 108.154 1093.04 105.869L1096 104.391V101.87H1000Z" stroke="white" stroke-width="2"/>
<path d="M612.715 71.3915C612.7 71.3597 612.743 71.2055 612.805 71.0558C613.006 70.584 613.087 70.0896 613.058 69.4999C613.006 68.4294 612.591 67.5902 611.694 66.7329C611.202 66.2611 610.716 65.9073 609.394 65.0681C607.991 64.1745 607.667 63.9431 607.142 63.4668C606.288 62.6866 605.854 61.9472 605.715 61.0355C605.62 60.3868 605.825 59.6837 606.317 58.9806C606.717 58.409 607.147 58.0235 607.49 57.9282C607.748 57.8602 607.753 57.9645 607.505 58.4272C607.28 58.8445 607.276 58.8581 607.28 59.2618C607.285 60.1418 607.648 60.8994 608.435 61.6977C608.941 62.2103 609.547 62.6594 610.859 63.4941C612.724 64.6871 613.368 65.2087 613.922 65.998C614.423 66.7056 614.657 67.436 614.657 68.2933C614.661 69.45 614.237 70.4525 613.483 71.0467C613.106 71.3506 612.758 71.5049 612.715 71.3915Z" fill="white"/>
<path d="M616.484 67.4317C616.356 67.3138 616.336 67.2276 616.413 67.155C616.532 67.0416 616.661 66.3703 616.685 65.7534C616.723 64.7236 616.499 63.821 615.959 62.8366C615.573 62.129 615.22 61.6935 614.433 60.945C613.65 60.1966 613.23 59.879 611.832 58.9718C609.771 57.6291 608.989 56.9306 608.488 55.9553C608.24 55.4699 608.154 55.1433 608.125 54.5672C608.082 53.7734 608.278 53.1021 608.76 52.3627C609.084 51.8592 609.862 51.1334 610.52 50.7206C611.069 50.3713 612.977 49.4459 613.149 49.4459C613.202 49.4459 613.288 49.4731 613.335 49.5094C613.416 49.5639 613.421 49.6138 613.388 50.0719C613.288 51.6822 613.889 53.2336 615.048 54.3268C615.544 54.794 615.955 55.0662 617.114 55.674C618.107 56.2002 618.331 56.3363 618.808 56.6947C620.335 57.8514 620.917 59.7838 620.416 62.0065C620.11 63.3583 619.285 64.9368 618.288 66.1026C617.739 66.7377 616.833 67.5451 616.67 67.5451C616.632 67.5451 616.546 67.4952 616.484 67.4317Z" fill="white"/>
<path d="M591.077 52.9337C587.232 52.5708 583.878 50.3798 582.231 47.1546C581.411 45.5534 581.043 43.9612 581.043 42.0515C581.043 41.0354 581.12 40.3459 581.325 39.4659C582.294 35.338 585.681 32.1853 590.004 31.3961C591.674 31.0876 593.735 31.1738 595.386 31.6183C596.459 31.9041 597.666 32.4303 598.511 32.9701C598.559 33.0019 598.616 33.6777 598.735 35.7009C598.826 37.1842 598.893 38.3999 598.888 38.4044C598.883 38.4135 598.716 38.2955 598.52 38.1458C597.514 37.3747 596.073 36.599 595.037 36.2769C592.389 35.4423 589.904 35.8369 588.176 37.3565C587.795 37.6922 587.241 38.3863 586.988 38.8535C585.977 40.7224 585.953 43.4622 586.936 45.3175C587.275 45.9525 587.585 46.3563 588.167 46.9051C588.988 47.6808 589.76 48.0936 590.886 48.3612C591.297 48.4565 591.445 48.4701 592.389 48.4701C593.382 48.4701 593.468 48.461 593.959 48.3431C595.319 48.0165 596.421 47.4177 597.719 46.3018L598.229 45.8618L598.258 46.0569C598.306 46.3835 598.759 50.8153 598.759 50.9468C598.759 51.0512 598.702 51.1056 598.392 51.2916C597.037 52.1081 595.534 52.6343 593.892 52.8702C593.282 52.9563 591.698 52.9926 591.077 52.9337Z" fill="white"/>
<path d="M601.369 51.4099C601.35 51.2375 601.335 46.6469 601.335 41.2035V31.3011H603.912H606.488V36.6765C606.488 39.634 606.498 42.0518 606.512 42.0518C606.526 42.0518 606.626 42.0019 606.731 41.9384C607.347 41.5664 608.587 41.0539 609.413 40.827C610.777 40.4551 611.574 40.3553 613.144 40.3553C614.475 40.3553 615 40.4052 616.078 40.6275C617.176 40.8588 618.588 41.3895 619.461 41.893C619.614 41.9792 619.752 42.0518 619.771 42.0518C619.786 42.0518 619.8 39.5841 619.8 36.5631V31.0743H622.376H624.953V41.1128C624.953 46.6288 624.938 51.2239 624.924 51.3191L624.891 51.487H622.4H619.91L619.881 50.8655C619.814 49.3051 619.275 48.0849 618.201 47.0642C617.376 46.2795 616.169 45.6716 614.967 45.4358C613.941 45.2316 612.362 45.2226 611.383 45.404C610.014 45.6671 608.907 46.2024 607.977 47.0597C607.108 47.8581 606.655 48.5975 606.364 49.6952C606.264 50.0581 606.235 50.303 606.216 50.9336L606.188 51.7138H603.792H601.397L601.369 51.4099Z" fill="white"/>
<path d="M637.388 76.6522H641.895V74.1304C638.979 59.8523 636.842 45.312 636.842 30.7363V26.2174H632.239M637.388 76.6522C638.6 84.2577 640.015 91.833 641.632 99.3781C641.807 100.198 641.895 101.029 641.895 101.87H566.105C566.105 101.029 566.193 100.198 566.368 99.3781C567.985 91.833 569.4 84.2577 570.612 76.6522H637.388ZM632.239 26.2174C631.941 19.5574 631.791 12.8917 631.789 6.22503V0.999995H576.211V6.22503C576.211 12.8959 576.061 19.56 575.761 26.2174M632.239 26.2174H575.761M575.761 26.2174H571.158V30.7363C571.158 45.312 569.021 59.8523 566.105 74.1304V76.6522H570.607M556 101.87V104.391L558.961 105.869C563.535 108.154 567.013 112.157 568.632 117H639.368C640.987 112.157 644.465 108.154 649.039 105.869L652 104.391V101.87H556Z" stroke="white" stroke-width="2"/>
<path d="M1500.71 71.3915C1500.7 71.3597 1500.74 71.2055 1500.81 71.0558C1501.01 70.584 1501.09 70.0896 1501.06 69.4999C1501.01 68.4294 1500.59 67.5902 1499.69 66.7329C1499.2 66.2611 1498.72 65.9073 1497.39 65.0681C1495.99 64.1745 1495.67 63.9431 1495.14 63.4668C1494.29 62.6866 1493.85 61.9472 1493.72 61.0355C1493.62 60.3868 1493.83 59.6837 1494.32 58.9806C1494.72 58.409 1495.15 58.0235 1495.49 57.9282C1495.75 57.8602 1495.75 57.9645 1495.5 58.4272C1495.28 58.8445 1495.28 58.8581 1495.28 59.2618C1495.29 60.1418 1495.65 60.8994 1496.44 61.6977C1496.94 62.2103 1497.55 62.6594 1498.86 63.4941C1500.72 64.6871 1501.37 65.2087 1501.92 65.998C1502.42 66.7056 1502.66 67.436 1502.66 68.2933C1502.66 69.45 1502.24 70.4525 1501.48 71.0467C1501.11 71.3506 1500.76 71.5049 1500.71 71.3915Z" fill="white"/>
<path d="M1504.48 67.4317C1504.36 67.3138 1504.34 67.2276 1504.41 67.155C1504.53 67.0416 1504.66 66.3703 1504.68 65.7534C1504.72 64.7236 1504.5 63.821 1503.96 62.8366C1503.57 62.129 1503.22 61.6935 1502.43 60.945C1501.65 60.1966 1501.23 59.879 1499.83 58.9718C1497.77 57.6291 1496.99 56.9306 1496.49 55.9553C1496.24 55.4699 1496.15 55.1433 1496.13 54.5672C1496.08 53.7734 1496.28 53.1021 1496.76 52.3627C1497.08 51.8592 1497.86 51.1334 1498.52 50.7206C1499.07 50.3713 1500.98 49.4459 1501.15 49.4459C1501.2 49.4459 1501.29 49.4731 1501.34 49.5094C1501.42 49.5639 1501.42 49.6138 1501.39 50.0719C1501.29 51.6822 1501.89 53.2336 1503.05 54.3268C1503.54 54.794 1503.95 55.0662 1505.11 55.674C1506.11 56.2002 1506.33 56.3363 1506.81 56.6947C1508.33 57.8514 1508.92 59.7838 1508.42 62.0065C1508.11 63.3583 1507.29 64.9368 1506.29 66.1026C1505.74 66.7377 1504.83 67.5451 1504.67 67.5451C1504.63 67.5451 1504.55 67.4952 1504.48 67.4317Z" fill="white"/>
<path d="M1479.08 52.9337C1475.23 52.5708 1471.88 50.3798 1470.23 47.1546C1469.41 45.5534 1469.04 43.9612 1469.04 42.0515C1469.04 41.0354 1469.12 40.3459 1469.32 39.4659C1470.29 35.338 1473.68 32.1853 1478 31.3961C1479.67 31.0876 1481.73 31.1738 1483.39 31.6183C1484.46 31.9041 1485.67 32.4303 1486.51 32.9701C1486.56 33.0019 1486.62 33.6777 1486.74 35.7009C1486.83 37.1842 1486.89 38.3999 1486.89 38.4044C1486.88 38.4135 1486.72 38.2955 1486.52 38.1458C1485.51 37.3747 1484.07 36.599 1483.04 36.2769C1480.39 35.4423 1477.9 35.8369 1476.18 37.3565C1475.79 37.6922 1475.24 38.3863 1474.99 38.8535C1473.98 40.7224 1473.95 43.4622 1474.94 45.3175C1475.27 45.9525 1475.58 46.3563 1476.17 46.9051C1476.99 47.6808 1477.76 48.0936 1478.89 48.3612C1479.3 48.4565 1479.44 48.4701 1480.39 48.4701C1481.38 48.4701 1481.47 48.461 1481.96 48.3431C1483.32 48.0165 1484.42 47.4177 1485.72 46.3018L1486.23 45.8618L1486.26 46.0569C1486.31 46.3835 1486.76 50.8153 1486.76 50.9468C1486.76 51.0512 1486.7 51.1056 1486.39 51.2916C1485.04 52.1081 1483.53 52.6343 1481.89 52.8702C1481.28 52.9563 1479.7 52.9926 1479.08 52.9337Z" fill="white"/>
<path d="M1489.37 51.4099C1489.35 51.2375 1489.34 46.6469 1489.34 41.2035V31.3011H1491.91H1494.49V36.6765C1494.49 39.634 1494.5 42.0518 1494.51 42.0518C1494.53 42.0518 1494.63 42.0019 1494.73 41.9384C1495.35 41.5664 1496.59 41.0539 1497.41 40.827C1498.78 40.4551 1499.57 40.3553 1501.14 40.3553C1502.48 40.3553 1503 40.4052 1504.08 40.6275C1505.18 40.8588 1506.59 41.3895 1507.46 41.893C1507.61 41.9792 1507.75 42.0518 1507.77 42.0518C1507.79 42.0518 1507.8 39.5841 1507.8 36.5631V31.0743H1510.38H1512.95V41.1128C1512.95 46.6288 1512.94 51.2239 1512.92 51.3191L1512.89 51.487H1510.4H1507.91L1507.88 50.8655C1507.81 49.3051 1507.28 48.0849 1506.2 47.0642C1505.38 46.2795 1504.17 45.6716 1502.97 45.4358C1501.94 45.2316 1500.36 45.2226 1499.38 45.404C1498.01 45.6671 1496.91 46.2024 1495.98 47.0597C1495.11 47.8581 1494.66 48.5975 1494.36 49.6952C1494.26 50.0581 1494.24 50.303 1494.22 50.9336L1494.19 51.7138H1491.79H1489.4L1489.37 51.4099Z" fill="white"/>
<path d="M1525.39 76.6522H1529.89V74.1304C1526.98 59.8523 1524.84 45.312 1524.84 30.7363V26.2174H1520.24M1525.39 76.6522C1526.6 84.2577 1528.02 91.833 1529.63 99.3781C1529.81 100.198 1529.89 101.029 1529.89 101.87H1454.11C1454.11 101.029 1454.19 100.198 1454.37 99.3781C1455.98 91.833 1457.4 84.2577 1458.61 76.6522H1525.39ZM1520.24 26.2174C1519.94 19.5574 1519.79 12.8917 1519.79 6.22503V0.999995H1464.21V6.22503C1464.21 12.8959 1464.06 19.56 1463.76 26.2174M1520.24 26.2174H1463.76M1463.76 26.2174H1459.16V30.7363C1459.16 45.312 1457.02 59.8523 1454.11 74.1304V76.6522H1458.61M1444 101.87V104.391L1446.96 105.869C1451.53 108.154 1455.01 112.157 1456.63 117H1527.37C1528.99 112.157 1532.47 108.154 1537.04 105.869L1540 104.391V101.87H1444Z" stroke="white" stroke-width="2"/>
<path d="M1944.71 71.3915C1944.7 71.3597 1944.74 71.2055 1944.81 71.0558C1945.01 70.584 1945.09 70.0896 1945.06 69.4999C1945.01 68.4294 1944.59 67.5902 1943.69 66.7329C1943.2 66.2611 1942.72 65.9073 1941.39 65.0681C1939.99 64.1745 1939.67 63.9431 1939.14 63.4668C1938.29 62.6866 1937.85 61.9472 1937.72 61.0355C1937.62 60.3868 1937.83 59.6837 1938.32 58.9806C1938.72 58.409 1939.15 58.0235 1939.49 57.9282C1939.75 57.8602 1939.75 57.9645 1939.5 58.4272C1939.28 58.8445 1939.28 58.8581 1939.28 59.2618C1939.29 60.1418 1939.65 60.8994 1940.44 61.6977C1940.94 62.2103 1941.55 62.6594 1942.86 63.4941C1944.72 64.6871 1945.37 65.2087 1945.92 65.998C1946.42 66.7056 1946.66 67.436 1946.66 68.2933C1946.66 69.45 1946.24 70.4525 1945.48 71.0467C1945.11 71.3506 1944.76 71.5049 1944.71 71.3915Z" fill="white"/>
<path d="M1948.48 67.4317C1948.36 67.3138 1948.34 67.2276 1948.41 67.155C1948.53 67.0416 1948.66 66.3703 1948.68 65.7534C1948.72 64.7236 1948.5 63.821 1947.96 62.8366C1947.57 62.129 1947.22 61.6935 1946.43 60.945C1945.65 60.1966 1945.23 59.879 1943.83 58.9718C1941.77 57.6291 1940.99 56.9306 1940.49 55.9553C1940.24 55.4699 1940.15 55.1433 1940.13 54.5672C1940.08 53.7734 1940.28 53.1021 1940.76 52.3627C1941.08 51.8592 1941.86 51.1334 1942.52 50.7206C1943.07 50.3713 1944.98 49.4459 1945.15 49.4459C1945.2 49.4459 1945.29 49.4731 1945.34 49.5094C1945.42 49.5639 1945.42 49.6138 1945.39 50.0719C1945.29 51.6822 1945.89 53.2336 1947.05 54.3268C1947.54 54.794 1947.95 55.0662 1949.11 55.674C1950.11 56.2002 1950.33 56.3363 1950.81 56.6947C1952.33 57.8514 1952.92 59.7838 1952.42 62.0065C1952.11 63.3583 1951.29 64.9368 1950.29 66.1026C1949.74 66.7377 1948.83 67.5451 1948.67 67.5451C1948.63 67.5451 1948.55 67.4952 1948.48 67.4317Z" fill="white"/>
<path d="M1923.08 52.9337C1919.23 52.5708 1915.88 50.3798 1914.23 47.1546C1913.41 45.5534 1913.04 43.9612 1913.04 42.0515C1913.04 41.0354 1913.12 40.3459 1913.32 39.4659C1914.29 35.338 1917.68 32.1853 1922 31.3961C1923.67 31.0876 1925.73 31.1738 1927.39 31.6183C1928.46 31.9041 1929.67 32.4303 1930.51 32.9701C1930.56 33.0019 1930.62 33.6777 1930.74 35.7009C1930.83 37.1842 1930.89 38.3999 1930.89 38.4044C1930.88 38.4135 1930.72 38.2955 1930.52 38.1458C1929.51 37.3747 1928.07 36.599 1927.04 36.2769C1924.39 35.4423 1921.9 35.8369 1920.18 37.3565C1919.79 37.6922 1919.24 38.3863 1918.99 38.8535C1917.98 40.7224 1917.95 43.4622 1918.94 45.3175C1919.27 45.9525 1919.58 46.3563 1920.17 46.9051C1920.99 47.6808 1921.76 48.0936 1922.89 48.3612C1923.3 48.4565 1923.44 48.4701 1924.39 48.4701C1925.38 48.4701 1925.47 48.461 1925.96 48.3431C1927.32 48.0165 1928.42 47.4177 1929.72 46.3018L1930.23 45.8618L1930.26 46.0569C1930.31 46.3835 1930.76 50.8153 1930.76 50.9468C1930.76 51.0512 1930.7 51.1056 1930.39 51.2916C1929.04 52.1081 1927.53 52.6343 1925.89 52.8702C1925.28 52.9563 1923.7 52.9926 1923.08 52.9337Z" fill="white"/>
<path d="M1933.37 51.4099C1933.35 51.2375 1933.34 46.6469 1933.34 41.2035V31.3011H1935.91H1938.49V36.6765C1938.49 39.634 1938.5 42.0518 1938.51 42.0518C1938.53 42.0518 1938.63 42.0019 1938.73 41.9384C1939.35 41.5664 1940.59 41.0539 1941.41 40.827C1942.78 40.4551 1943.57 40.3553 1945.14 40.3553C1946.48 40.3553 1947 40.4052 1948.08 40.6275C1949.18 40.8588 1950.59 41.3895 1951.46 41.893C1951.61 41.9792 1951.75 42.0518 1951.77 42.0518C1951.79 42.0518 1951.8 39.5841 1951.8 36.5631V31.0743H1954.38H1956.95V41.1128C1956.95 46.6288 1956.94 51.2239 1956.92 51.3191L1956.89 51.487H1954.4H1951.91L1951.88 50.8655C1951.81 49.3051 1951.28 48.0849 1950.2 47.0642C1949.38 46.2795 1948.17 45.6716 1946.97 45.4358C1945.94 45.2316 1944.36 45.2226 1943.38 45.404C1942.01 45.6671 1940.91 46.2024 1939.98 47.0597C1939.11 47.8581 1938.66 48.5975 1938.36 49.6952C1938.26 50.0581 1938.24 50.303 1938.22 50.9336L1938.19 51.7138H1935.79H1933.4L1933.37 51.4099Z" fill="white"/>
<path d="M1969.39 76.6522H1973.89V74.1304C1970.98 59.8523 1968.84 45.312 1968.84 30.7363V26.2174H1964.24M1969.39 76.6522C1970.6 84.2577 1972.02 91.833 1973.63 99.3781C1973.81 100.198 1973.89 101.029 1973.89 101.87H1898.11C1898.11 101.029 1898.19 100.198 1898.37 99.3781C1899.98 91.833 1901.4 84.2577 1902.61 76.6522H1969.39ZM1964.24 26.2174C1963.94 19.5574 1963.79 12.8917 1963.79 6.22503V0.999995H1908.21V6.22503C1908.21 12.8959 1908.06 19.56 1907.76 26.2174M1964.24 26.2174H1907.76M1907.76 26.2174H1903.16V30.7363C1903.16 45.312 1901.02 59.8523 1898.11 74.1304V76.6522H1902.61M1888 101.87V104.391L1890.96 105.869C1895.53 108.154 1899.01 112.157 1900.63 117H1971.37C1972.99 112.157 1976.47 108.154 1981.04 105.869L1984 104.391V101.87H1888Z" stroke="white" stroke-width="2"/>
<path d="M390.715 71.3915C390.7 71.3597 390.743 71.2055 390.805 71.0558C391.006 70.584 391.087 70.0896 391.058 69.4999C391.006 68.4294 390.591 67.5902 389.694 66.7329C389.202 66.2611 388.716 65.9073 387.394 65.0681C385.991 64.1745 385.667 63.9431 385.142 63.4668C384.288 62.6866 383.854 61.9472 383.715 61.0355C383.62 60.3868 383.825 59.6837 384.317 58.9806C384.717 58.409 385.147 58.0235 385.49 57.9282C385.748 57.8602 385.753 57.9645 385.505 58.4272C385.28 58.8445 385.276 58.8581 385.28 59.2618C385.285 60.1418 385.648 60.8994 386.435 61.6977C386.941 62.2103 387.547 62.6594 388.859 63.4941C390.724 64.6871 391.368 65.2087 391.922 65.998C392.423 66.7056 392.657 67.436 392.657 68.2933C392.661 69.45 392.237 70.4525 391.483 71.0467C391.106 71.3506 390.758 71.5049 390.715 71.3915Z" fill="white"/>
<path d="M394.484 67.4317C394.356 67.3138 394.336 67.2276 394.413 67.155C394.532 67.0416 394.661 66.3703 394.685 65.7534C394.723 64.7236 394.499 63.821 393.959 62.8366C393.573 62.129 393.22 61.6935 392.433 60.945C391.65 60.1966 391.23 59.879 389.832 58.9718C387.771 57.6291 386.989 56.9306 386.488 55.9553C386.24 55.4699 386.154 55.1433 386.125 54.5672C386.082 53.7734 386.278 53.1021 386.76 52.3627C387.084 51.8592 387.862 51.1334 388.52 50.7206C389.069 50.3713 390.977 49.4459 391.149 49.4459C391.202 49.4459 391.288 49.4731 391.335 49.5094C391.416 49.5639 391.421 49.6138 391.388 50.0719C391.288 51.6822 391.889 53.2336 393.048 54.3268C393.544 54.794 393.955 55.0662 395.114 55.674C396.107 56.2002 396.331 56.3363 396.808 56.6947C398.335 57.8514 398.917 59.7838 398.416 62.0065C398.11 63.3583 397.285 64.9368 396.288 66.1026C395.739 66.7377 394.833 67.5451 394.67 67.5451C394.632 67.5451 394.546 67.4952 394.484 67.4317Z" fill="white"/>
<path d="M369.077 52.9337C365.232 52.5708 361.878 50.3798 360.231 47.1546C359.411 45.5534 359.043 43.9612 359.043 42.0515C359.043 41.0354 359.12 40.3459 359.325 39.4659C360.294 35.338 363.681 32.1853 368.004 31.3961C369.674 31.0876 371.735 31.1738 373.386 31.6183C374.459 31.9041 375.666 32.4303 376.511 32.9701C376.559 33.0019 376.616 33.6777 376.735 35.7009C376.826 37.1842 376.893 38.3999 376.888 38.4044C376.883 38.4135 376.716 38.2955 376.52 38.1458C375.514 37.3747 374.073 36.599 373.037 36.2769C370.389 35.4423 367.904 35.8369 366.176 37.3565C365.795 37.6922 365.241 38.3863 364.988 38.8535C363.977 40.7224 363.953 43.4622 364.936 45.3175C365.275 45.9525 365.585 46.3563 366.167 46.9051C366.988 47.6808 367.76 48.0936 368.886 48.3612C369.297 48.4565 369.445 48.4701 370.389 48.4701C371.382 48.4701 371.468 48.461 371.959 48.3431C373.319 48.0165 374.421 47.4177 375.719 46.3018L376.229 45.8618L376.258 46.0569C376.306 46.3835 376.759 50.8153 376.759 50.9468C376.759 51.0512 376.702 51.1056 376.392 51.2916C375.037 52.1081 373.534 52.6343 371.892 52.8702C371.282 52.9563 369.698 52.9926 369.077 52.9337Z" fill="white"/>
<path d="M379.369 51.4099C379.35 51.2375 379.335 46.6469 379.335 41.2035V31.3011H381.912H384.488V36.6765C384.488 39.634 384.498 42.0518 384.512 42.0518C384.526 42.0518 384.626 42.0019 384.731 41.9384C385.347 41.5664 386.587 41.0539 387.413 40.827C388.777 40.4551 389.574 40.3553 391.144 40.3553C392.475 40.3553 393 40.4052 394.078 40.6275C395.176 40.8588 396.588 41.3895 397.461 41.893C397.614 41.9792 397.752 42.0518 397.771 42.0518C397.786 42.0518 397.8 39.5841 397.8 36.5631V31.0743H400.376H402.953V41.1128C402.953 46.6288 402.938 51.2239 402.924 51.3191L402.891 51.487H400.4H397.91L397.881 50.8655C397.814 49.3051 397.275 48.0849 396.201 47.0642C395.376 46.2795 394.169 45.6716 392.967 45.4358C391.941 45.2316 390.362 45.2226 389.383 45.404C388.014 45.6671 386.907 46.2024 385.977 47.0597C385.108 47.8581 384.655 48.5975 384.364 49.6952C384.264 50.0581 384.235 50.303 384.216 50.9336L384.188 51.7138H381.792H379.397L379.369 51.4099Z" fill="white"/>
<path d="M415.388 76.6522H419.895V74.1304C416.979 59.8523 414.842 45.312 414.842 30.7363V26.2174H410.239M415.388 76.6522C416.6 84.2577 418.015 91.833 419.632 99.3781C419.807 100.198 419.895 101.029 419.895 101.87H344.105C344.105 101.029 344.193 100.198 344.368 99.3781C345.985 91.833 347.4 84.2577 348.612 76.6522H415.388ZM410.239 26.2174C409.941 19.5574 409.791 12.8917 409.789 6.22503V0.999995H354.211V6.22503C354.211 12.8959 354.061 19.56 353.761 26.2174M410.239 26.2174H353.761M353.761 26.2174H349.158V30.7363C349.158 45.312 347.021 59.8523 344.105 74.1304V76.6522H348.607M334 101.87V104.391L336.961 105.869C341.535 108.154 345.013 112.157 346.632 117H417.368C418.987 112.157 422.465 108.154 427.039 105.869L430 104.391V101.87H334Z" stroke="white" stroke-width="2"/>
<path d="M1278.71 71.3915C1278.7 71.3597 1278.74 71.2055 1278.81 71.0558C1279.01 70.584 1279.09 70.0896 1279.06 69.4999C1279.01 68.4294 1278.59 67.5902 1277.69 66.7329C1277.2 66.2611 1276.72 65.9073 1275.39 65.0681C1273.99 64.1745 1273.67 63.9431 1273.14 63.4668C1272.29 62.6866 1271.85 61.9472 1271.72 61.0355C1271.62 60.3868 1271.83 59.6837 1272.32 58.9806C1272.72 58.409 1273.15 58.0235 1273.49 57.9282C1273.75 57.8602 1273.75 57.9645 1273.5 58.4272C1273.28 58.8445 1273.28 58.8581 1273.28 59.2618C1273.29 60.1418 1273.65 60.8994 1274.44 61.6977C1274.94 62.2103 1275.55 62.6594 1276.86 63.4941C1278.72 64.6871 1279.37 65.2087 1279.92 65.998C1280.42 66.7056 1280.66 67.436 1280.66 68.2933C1280.66 69.45 1280.24 70.4525 1279.48 71.0467C1279.11 71.3506 1278.76 71.5049 1278.71 71.3915Z" fill="white"/>
<path d="M1282.48 67.4317C1282.36 67.3138 1282.34 67.2276 1282.41 67.155C1282.53 67.0416 1282.66 66.3703 1282.68 65.7534C1282.72 64.7236 1282.5 63.821 1281.96 62.8366C1281.57 62.129 1281.22 61.6935 1280.43 60.945C1279.65 60.1966 1279.23 59.879 1277.83 58.9718C1275.77 57.6291 1274.99 56.9306 1274.49 55.9553C1274.24 55.4699 1274.15 55.1433 1274.13 54.5672C1274.08 53.7734 1274.28 53.1021 1274.76 52.3627C1275.08 51.8592 1275.86 51.1334 1276.52 50.7206C1277.07 50.3713 1278.98 49.4459 1279.15 49.4459C1279.2 49.4459 1279.29 49.4731 1279.34 49.5094C1279.42 49.5639 1279.42 49.6138 1279.39 50.0719C1279.29 51.6822 1279.89 53.2336 1281.05 54.3268C1281.54 54.794 1281.95 55.0662 1283.11 55.674C1284.11 56.2002 1284.33 56.3363 1284.81 56.6947C1286.33 57.8514 1286.92 59.7838 1286.42 62.0065C1286.11 63.3583 1285.29 64.9368 1284.29 66.1026C1283.74 66.7377 1282.83 67.5451 1282.67 67.5451C1282.63 67.5451 1282.55 67.4952 1282.48 67.4317Z" fill="white"/>
<path d="M1257.08 52.9337C1253.23 52.5708 1249.88 50.3798 1248.23 47.1546C1247.41 45.5534 1247.04 43.9612 1247.04 42.0515C1247.04 41.0354 1247.12 40.3459 1247.32 39.4659C1248.29 35.338 1251.68 32.1853 1256 31.3961C1257.67 31.0876 1259.73 31.1738 1261.39 31.6183C1262.46 31.9041 1263.67 32.4303 1264.51 32.9701C1264.56 33.0019 1264.62 33.6777 1264.74 35.7009C1264.83 37.1842 1264.89 38.3999 1264.89 38.4044C1264.88 38.4135 1264.72 38.2955 1264.52 38.1458C1263.51 37.3747 1262.07 36.599 1261.04 36.2769C1258.39 35.4423 1255.9 35.8369 1254.18 37.3565C1253.79 37.6922 1253.24 38.3863 1252.99 38.8535C1251.98 40.7224 1251.95 43.4622 1252.94 45.3175C1253.27 45.9525 1253.58 46.3563 1254.17 46.9051C1254.99 47.6808 1255.76 48.0936 1256.89 48.3612C1257.3 48.4565 1257.44 48.4701 1258.39 48.4701C1259.38 48.4701 1259.47 48.461 1259.96 48.3431C1261.32 48.0165 1262.42 47.4177 1263.72 46.3018L1264.23 45.8618L1264.26 46.0569C1264.31 46.3835 1264.76 50.8153 1264.76 50.9468C1264.76 51.0512 1264.7 51.1056 1264.39 51.2916C1263.04 52.1081 1261.53 52.6343 1259.89 52.8702C1259.28 52.9563 1257.7 52.9926 1257.08 52.9337Z" fill="white"/>
<path d="M1267.37 51.4099C1267.35 51.2375 1267.34 46.6469 1267.34 41.2035V31.3011H1269.91H1272.49V36.6765C1272.49 39.634 1272.5 42.0518 1272.51 42.0518C1272.53 42.0518 1272.63 42.0019 1272.73 41.9384C1273.35 41.5664 1274.59 41.0539 1275.41 40.827C1276.78 40.4551 1277.57 40.3553 1279.14 40.3553C1280.48 40.3553 1281 40.4052 1282.08 40.6275C1283.18 40.8588 1284.59 41.3895 1285.46 41.893C1285.61 41.9792 1285.75 42.0518 1285.77 42.0518C1285.79 42.0518 1285.8 39.5841 1285.8 36.5631V31.0743H1288.38H1290.95V41.1128C1290.95 46.6288 1290.94 51.2239 1290.92 51.3191L1290.89 51.487H1288.4H1285.91L1285.88 50.8655C1285.81 49.3051 1285.28 48.0849 1284.2 47.0642C1283.38 46.2795 1282.17 45.6716 1280.97 45.4358C1279.94 45.2316 1278.36 45.2226 1277.38 45.404C1276.01 45.6671 1274.91 46.2024 1273.98 47.0597C1273.11 47.8581 1272.66 48.5975 1272.36 49.6952C1272.26 50.0581 1272.24 50.303 1272.22 50.9336L1272.19 51.7138H1269.79H1267.4L1267.37 51.4099Z" fill="white"/>
<path d="M1303.39 76.6522H1307.89V74.1304C1304.98 59.8523 1302.84 45.312 1302.84 30.7363V26.2174H1298.24M1303.39 76.6522C1304.6 84.2577 1306.02 91.833 1307.63 99.3781C1307.81 100.198 1307.89 101.029 1307.89 101.87H1232.11C1232.11 101.029 1232.19 100.198 1232.37 99.3781C1233.98 91.833 1235.4 84.2577 1236.61 76.6522H1303.39ZM1298.24 26.2174C1297.94 19.5574 1297.79 12.8917 1297.79 6.22503V0.999995H1242.21V6.22503C1242.21 12.8959 1242.06 19.56 1241.76 26.2174M1298.24 26.2174H1241.76M1241.76 26.2174H1237.16V30.7363C1237.16 45.312 1235.02 59.8523 1232.11 74.1304V76.6522H1236.61M1222 101.87V104.391L1224.96 105.869C1229.53 108.154 1233.01 112.157 1234.63 117H1305.37C1306.99 112.157 1310.47 108.154 1315.04 105.869L1318 104.391V101.87H1222Z" stroke="white" stroke-width="2"/>
<path d="M834.715 71.3915C834.7 71.3597 834.743 71.2055 834.805 71.0558C835.006 70.584 835.087 70.0896 835.058 69.4999C835.006 68.4294 834.591 67.5902 833.694 66.7329C833.202 66.2611 832.716 65.9073 831.394 65.0681C829.991 64.1745 829.667 63.9431 829.142 63.4668C828.288 62.6866 827.854 61.9472 827.715 61.0355C827.62 60.3868 827.825 59.6837 828.317 58.9806C828.717 58.409 829.147 58.0235 829.49 57.9282C829.748 57.8602 829.753 57.9645 829.505 58.4272C829.28 58.8445 829.276 58.8581 829.28 59.2618C829.285 60.1418 829.648 60.8994 830.435 61.6977C830.941 62.2103 831.547 62.6594 832.859 63.4941C834.724 64.6871 835.368 65.2087 835.922 65.998C836.423 66.7056 836.657 67.436 836.657 68.2933C836.661 69.45 836.237 70.4525 835.483 71.0467C835.106 71.3506 834.758 71.5049 834.715 71.3915Z" fill="white"/>
<path d="M838.484 67.4317C838.356 67.3138 838.336 67.2276 838.413 67.155C838.532 67.0416 838.661 66.3703 838.685 65.7534C838.723 64.7236 838.499 63.821 837.959 62.8366C837.573 62.129 837.22 61.6935 836.433 60.945C835.65 60.1966 835.23 59.879 833.832 58.9718C831.771 57.6291 830.989 56.9306 830.488 55.9553C830.24 55.4699 830.154 55.1433 830.125 54.5672C830.082 53.7734 830.278 53.1021 830.76 52.3627C831.084 51.8592 831.862 51.1334 832.52 50.7206C833.069 50.3713 834.977 49.4459 835.149 49.4459C835.202 49.4459 835.288 49.4731 835.335 49.5094C835.416 49.5639 835.421 49.6138 835.388 50.0719C835.288 51.6822 835.889 53.2336 837.048 54.3268C837.544 54.794 837.955 55.0662 839.114 55.674C840.107 56.2002 840.331 56.3363 840.808 56.6947C842.335 57.8514 842.917 59.7838 842.416 62.0065C842.11 63.3583 841.285 64.9368 840.288 66.1026C839.739 66.7377 838.833 67.5451 838.67 67.5451C838.632 67.5451 838.546 67.4952 838.484 67.4317Z" fill="white"/>
<path d="M813.077 52.9337C809.232 52.5708 805.878 50.3798 804.231 47.1546C803.411 45.5534 803.043 43.9612 803.043 42.0515C803.043 41.0354 803.12 40.3459 803.325 39.4659C804.294 35.338 807.681 32.1853 812.004 31.3961C813.674 31.0876 815.735 31.1738 817.386 31.6183C818.459 31.9041 819.666 32.4303 820.511 32.9701C820.559 33.0019 820.616 33.6777 820.735 35.7009C820.826 37.1842 820.893 38.3999 820.888 38.4044C820.883 38.4135 820.716 38.2955 820.52 38.1458C819.514 37.3747 818.073 36.599 817.037 36.2769C814.389 35.4423 811.904 35.8369 810.176 37.3565C809.795 37.6922 809.241 38.3863 808.988 38.8535C807.977 40.7224 807.953 43.4622 808.936 45.3175C809.275 45.9525 809.585 46.3563 810.167 46.9051C810.988 47.6808 811.76 48.0936 812.886 48.3612C813.297 48.4565 813.445 48.4701 814.389 48.4701C815.382 48.4701 815.468 48.461 815.959 48.3431C817.319 48.0165 818.421 47.4177 819.719 46.3018L820.229 45.8618L820.258 46.0569C820.306 46.3835 820.759 50.8153 820.759 50.9468C820.759 51.0512 820.702 51.1056 820.392 51.2916C819.037 52.1081 817.534 52.6343 815.892 52.8702C815.282 52.9563 813.698 52.9926 813.077 52.9337Z" fill="white"/>
<path d="M823.369 51.4099C823.35 51.2375 823.335 46.6469 823.335 41.2035V31.3011H825.912H828.488V36.6765C828.488 39.634 828.498 42.0518 828.512 42.0518C828.526 42.0518 828.626 42.0019 828.731 41.9384C829.347 41.5664 830.587 41.0539 831.413 40.827C832.777 40.4551 833.574 40.3553 835.144 40.3553C836.475 40.3553 837 40.4052 838.078 40.6275C839.176 40.8588 840.588 41.3895 841.461 41.893C841.614 41.9792 841.752 42.0518 841.771 42.0518C841.786 42.0518 841.8 39.5841 841.8 36.5631V31.0743H844.376H846.953V41.1128C846.953 46.6288 846.938 51.2239 846.924 51.3191L846.891 51.487H844.4H841.91L841.881 50.8655C841.814 49.3051 841.275 48.0849 840.201 47.0642C839.376 46.2795 838.169 45.6716 836.967 45.4358C835.941 45.2316 834.362 45.2226 833.383 45.404C832.014 45.6671 830.907 46.2024 829.977 47.0597C829.108 47.8581 828.655 48.5975 828.364 49.6952C828.264 50.0581 828.235 50.303 828.216 50.9336L828.188 51.7138H825.792H823.397L823.369 51.4099Z" fill="white"/>
<path d="M859.388 76.6522H863.895V74.1304C860.979 59.8523 858.842 45.312 858.842 30.7363V26.2174H854.239M859.388 76.6522C860.6 84.2577 862.015 91.833 863.632 99.3781C863.807 100.198 863.895 101.029 863.895 101.87H788.105C788.105 101.029 788.193 100.198 788.368 99.3781C789.985 91.833 791.4 84.2577 792.612 76.6522H859.388ZM854.239 26.2174C853.941 19.5574 853.791 12.8917 853.789 6.22503V0.999995H798.211V6.22503C798.211 12.8959 798.061 19.56 797.761 26.2174M854.239 26.2174H797.761M797.761 26.2174H793.158V30.7363C793.158 45.312 791.021 59.8523 788.105 74.1304V76.6522H792.607M778 101.87V104.391L780.961 105.869C785.535 108.154 789.013 112.157 790.632 117H861.368C862.987 112.157 866.465 108.154 871.039 105.869L874 104.391V101.87H778Z" stroke="white" stroke-width="2"/>
<path d="M1722.71 71.3915C1722.7 71.3597 1722.74 71.2055 1722.81 71.0558C1723.01 70.584 1723.09 70.0896 1723.06 69.4999C1723.01 68.4294 1722.59 67.5902 1721.69 66.7329C1721.2 66.2611 1720.72 65.9073 1719.39 65.0681C1717.99 64.1745 1717.67 63.9431 1717.14 63.4668C1716.29 62.6866 1715.85 61.9472 1715.72 61.0355C1715.62 60.3868 1715.83 59.6837 1716.32 58.9806C1716.72 58.409 1717.15 58.0235 1717.49 57.9282C1717.75 57.8602 1717.75 57.9645 1717.5 58.4272C1717.28 58.8445 1717.28 58.8581 1717.28 59.2618C1717.29 60.1418 1717.65 60.8994 1718.44 61.6977C1718.94 62.2103 1719.55 62.6594 1720.86 63.4941C1722.72 64.6871 1723.37 65.2087 1723.92 65.998C1724.42 66.7056 1724.66 67.436 1724.66 68.2933C1724.66 69.45 1724.24 70.4525 1723.48 71.0467C1723.11 71.3506 1722.76 71.5049 1722.71 71.3915Z" fill="white"/>
<path d="M1726.48 67.4317C1726.36 67.3138 1726.34 67.2276 1726.41 67.155C1726.53 67.0416 1726.66 66.3703 1726.68 65.7534C1726.72 64.7236 1726.5 63.821 1725.96 62.8366C1725.57 62.129 1725.22 61.6935 1724.43 60.945C1723.65 60.1966 1723.23 59.879 1721.83 58.9718C1719.77 57.6291 1718.99 56.9306 1718.49 55.9553C1718.24 55.4699 1718.15 55.1433 1718.13 54.5672C1718.08 53.7734 1718.28 53.1021 1718.76 52.3627C1719.08 51.8592 1719.86 51.1334 1720.52 50.7206C1721.07 50.3713 1722.98 49.4459 1723.15 49.4459C1723.2 49.4459 1723.29 49.4731 1723.34 49.5094C1723.42 49.5639 1723.42 49.6138 1723.39 50.0719C1723.29 51.6822 1723.89 53.2336 1725.05 54.3268C1725.54 54.794 1725.95 55.0662 1727.11 55.674C1728.11 56.2002 1728.33 56.3363 1728.81 56.6947C1730.33 57.8514 1730.92 59.7838 1730.42 62.0065C1730.11 63.3583 1729.29 64.9368 1728.29 66.1026C1727.74 66.7377 1726.83 67.5451 1726.67 67.5451C1726.63 67.5451 1726.55 67.4952 1726.48 67.4317Z" fill="white"/>
<path d="M1701.08 52.9337C1697.23 52.5708 1693.88 50.3798 1692.23 47.1546C1691.41 45.5534 1691.04 43.9612 1691.04 42.0515C1691.04 41.0354 1691.12 40.3459 1691.32 39.4659C1692.29 35.338 1695.68 32.1853 1700 31.3961C1701.67 31.0876 1703.73 31.1738 1705.39 31.6183C1706.46 31.9041 1707.67 32.4303 1708.51 32.9701C1708.56 33.0019 1708.62 33.6777 1708.74 35.7009C1708.83 37.1842 1708.89 38.3999 1708.89 38.4044C1708.88 38.4135 1708.72 38.2955 1708.52 38.1458C1707.51 37.3747 1706.07 36.599 1705.04 36.2769C1702.39 35.4423 1699.9 35.8369 1698.18 37.3565C1697.79 37.6922 1697.24 38.3863 1696.99 38.8535C1695.98 40.7224 1695.95 43.4622 1696.94 45.3175C1697.27 45.9525 1697.58 46.3563 1698.17 46.9051C1698.99 47.6808 1699.76 48.0936 1700.89 48.3612C1701.3 48.4565 1701.44 48.4701 1702.39 48.4701C1703.38 48.4701 1703.47 48.461 1703.96 48.3431C1705.32 48.0165 1706.42 47.4177 1707.72 46.3018L1708.23 45.8618L1708.26 46.0569C1708.31 46.3835 1708.76 50.8153 1708.76 50.9468C1708.76 51.0512 1708.7 51.1056 1708.39 51.2916C1707.04 52.1081 1705.53 52.6343 1703.89 52.8702C1703.28 52.9563 1701.7 52.9926 1701.08 52.9337Z" fill="white"/>
<path d="M1711.37 51.4099C1711.35 51.2375 1711.34 46.6469 1711.34 41.2035V31.3011H1713.91H1716.49V36.6765C1716.49 39.634 1716.5 42.0518 1716.51 42.0518C1716.53 42.0518 1716.63 42.0019 1716.73 41.9384C1717.35 41.5664 1718.59 41.0539 1719.41 40.827C1720.78 40.4551 1721.57 40.3553 1723.14 40.3553C1724.48 40.3553 1725 40.4052 1726.08 40.6275C1727.18 40.8588 1728.59 41.3895 1729.46 41.893C1729.61 41.9792 1729.75 42.0518 1729.77 42.0518C1729.79 42.0518 1729.8 39.5841 1729.8 36.5631V31.0743H1732.38H1734.95V41.1128C1734.95 46.6288 1734.94 51.2239 1734.92 51.3191L1734.89 51.487H1732.4H1729.91L1729.88 50.8655C1729.81 49.3051 1729.28 48.0849 1728.2 47.0642C1727.38 46.2795 1726.17 45.6716 1724.97 45.4358C1723.94 45.2316 1722.36 45.2226 1721.38 45.404C1720.01 45.6671 1718.91 46.2024 1717.98 47.0597C1717.11 47.8581 1716.66 48.5975 1716.36 49.6952C1716.26 50.0581 1716.24 50.303 1716.22 50.9336L1716.19 51.7138H1713.79H1711.4L1711.37 51.4099Z" fill="white"/>
<path d="M1747.39 76.6522H1751.89V74.1304C1748.98 59.8523 1746.84 45.312 1746.84 30.7363V26.2174H1742.24M1747.39 76.6522C1748.6 84.2577 1750.02 91.833 1751.63 99.3781C1751.81 100.198 1751.89 101.029 1751.89 101.87H1676.11C1676.11 101.029 1676.19 100.198 1676.37 99.3781C1677.98 91.833 1679.4 84.2577 1680.61 76.6522H1747.39ZM1742.24 26.2174C1741.94 19.5574 1741.79 12.8917 1741.79 6.22503V0.999995H1686.21V6.22503C1686.21 12.8959 1686.06 19.56 1685.76 26.2174M1742.24 26.2174H1685.76M1685.76 26.2174H1681.16V30.7363C1681.16 45.312 1679.02 59.8523 1676.11 74.1304V76.6522H1680.61M1666 101.87V104.391L1668.96 105.869C1673.53 108.154 1677.01 112.157 1678.63 117H1749.37C1750.99 112.157 1754.47 108.154 1759.04 105.869L1762 104.391V101.87H1666Z" stroke="white" stroke-width="2"/>
<path d="M2166.71 71.3915C2166.7 71.3597 2166.74 71.2055 2166.81 71.0558C2167.01 70.584 2167.09 70.0896 2167.06 69.4999C2167.01 68.4294 2166.59 67.5902 2165.69 66.7329C2165.2 66.2611 2164.72 65.9073 2163.39 65.0681C2161.99 64.1745 2161.67 63.9431 2161.14 63.4668C2160.29 62.6866 2159.85 61.9472 2159.72 61.0355C2159.62 60.3868 2159.83 59.6837 2160.32 58.9806C2160.72 58.409 2161.15 58.0235 2161.49 57.9282C2161.75 57.8602 2161.75 57.9645 2161.5 58.4272C2161.28 58.8445 2161.28 58.8581 2161.28 59.2618C2161.29 60.1418 2161.65 60.8994 2162.44 61.6977C2162.94 62.2103 2163.55 62.6594 2164.86 63.4941C2166.72 64.6871 2167.37 65.2087 2167.92 65.998C2168.42 66.7056 2168.66 67.436 2168.66 68.2933C2168.66 69.45 2168.24 70.4525 2167.48 71.0467C2167.11 71.3506 2166.76 71.5049 2166.71 71.3915Z" fill="white"/>
<path d="M2170.48 67.4317C2170.36 67.3138 2170.34 67.2276 2170.41 67.155C2170.53 67.0416 2170.66 66.3703 2170.68 65.7534C2170.72 64.7236 2170.5 63.821 2169.96 62.8366C2169.57 62.129 2169.22 61.6935 2168.43 60.945C2167.65 60.1966 2167.23 59.879 2165.83 58.9718C2163.77 57.6291 2162.99 56.9306 2162.49 55.9553C2162.24 55.4699 2162.15 55.1433 2162.13 54.5672C2162.08 53.7734 2162.28 53.1021 2162.76 52.3627C2163.08 51.8592 2163.86 51.1334 2164.52 50.7206C2165.07 50.3713 2166.98 49.4459 2167.15 49.4459C2167.2 49.4459 2167.29 49.4731 2167.34 49.5094C2167.42 49.5639 2167.42 49.6138 2167.39 50.0719C2167.29 51.6822 2167.89 53.2336 2169.05 54.3268C2169.54 54.794 2169.95 55.0662 2171.11 55.674C2172.11 56.2002 2172.33 56.3363 2172.81 56.6947C2174.33 57.8514 2174.92 59.7838 2174.42 62.0065C2174.11 63.3583 2173.29 64.9368 2172.29 66.1026C2171.74 66.7377 2170.83 67.5451 2170.67 67.5451C2170.63 67.5451 2170.55 67.4952 2170.48 67.4317Z" fill="white"/>
<path d="M2145.08 52.9337C2141.23 52.5708 2137.88 50.3798 2136.23 47.1546C2135.41 45.5534 2135.04 43.9612 2135.04 42.0515C2135.04 41.0354 2135.12 40.3459 2135.32 39.4659C2136.29 35.338 2139.68 32.1853 2144 31.3961C2145.67 31.0876 2147.73 31.1738 2149.39 31.6183C2150.46 31.9041 2151.67 32.4303 2152.51 32.9701C2152.56 33.0019 2152.62 33.6777 2152.74 35.7009C2152.83 37.1842 2152.89 38.3999 2152.89 38.4044C2152.88 38.4135 2152.72 38.2955 2152.52 38.1458C2151.51 37.3747 2150.07 36.599 2149.04 36.2769C2146.39 35.4423 2143.9 35.8369 2142.18 37.3565C2141.79 37.6922 2141.24 38.3863 2140.99 38.8535C2139.98 40.7224 2139.95 43.4622 2140.94 45.3175C2141.27 45.9525 2141.58 46.3563 2142.17 46.9051C2142.99 47.6808 2143.76 48.0936 2144.89 48.3612C2145.3 48.4565 2145.44 48.4701 2146.39 48.4701C2147.38 48.4701 2147.47 48.461 2147.96 48.3431C2149.32 48.0165 2150.42 47.4177 2151.72 46.3018L2152.23 45.8618L2152.26 46.0569C2152.31 46.3835 2152.76 50.8153 2152.76 50.9468C2152.76 51.0512 2152.7 51.1056 2152.39 51.2916C2151.04 52.1081 2149.53 52.6343 2147.89 52.8702C2147.28 52.9563 2145.7 52.9926 2145.08 52.9337Z" fill="white"/>
<path d="M2155.37 51.4099C2155.35 51.2375 2155.34 46.6469 2155.34 41.2035V31.3011H2157.91H2160.49V36.6765C2160.49 39.634 2160.5 42.0518 2160.51 42.0518C2160.53 42.0518 2160.63 42.0019 2160.73 41.9384C2161.35 41.5664 2162.59 41.0539 2163.41 40.827C2164.78 40.4551 2165.57 40.3553 2167.14 40.3553C2168.48 40.3553 2169 40.4052 2170.08 40.6275C2171.18 40.8588 2172.59 41.3895 2173.46 41.893C2173.61 41.9792 2173.75 42.0518 2173.77 42.0518C2173.79 42.0518 2173.8 39.5841 2173.8 36.5631V31.0743H2176.38H2178.95V41.1128C2178.95 46.6288 2178.94 51.2239 2178.92 51.3191L2178.89 51.487H2176.4H2173.91L2173.88 50.8655C2173.81 49.3051 2173.28 48.0849 2172.2 47.0642C2171.38 46.2795 2170.17 45.6716 2168.97 45.4358C2167.94 45.2316 2166.36 45.2226 2165.38 45.404C2164.01 45.6671 2162.91 46.2024 2161.98 47.0597C2161.11 47.8581 2160.66 48.5975 2160.36 49.6952C2160.26 50.0581 2160.24 50.303 2160.22 50.9336L2160.19 51.7138H2157.79H2155.4L2155.37 51.4099Z" fill="white"/>
<path d="M2191.39 76.6522H2195.89V74.1304C2192.98 59.8523 2190.84 45.312 2190.84 30.7363V26.2174H2186.24M2191.39 76.6522C2192.6 84.2577 2194.02 91.833 2195.63 99.3781C2195.81 100.198 2195.89 101.029 2195.89 101.87H2120.11C2120.11 101.029 2120.19 100.198 2120.37 99.3781C2121.98 91.833 2123.4 84.2577 2124.61 76.6522H2191.39ZM2186.24 26.2174C2185.94 19.5574 2185.79 12.8917 2185.79 6.22503V0.999995H2130.21V6.22503C2130.21 12.8959 2130.06 19.56 2129.76 26.2174M2186.24 26.2174H2129.76M2129.76 26.2174H2125.16V30.7363C2125.16 45.312 2123.02 59.8523 2120.11 74.1304V76.6522H2124.61M2110 101.87V104.391L2112.96 105.869C2117.53 108.154 2121.01 112.157 2122.63 117H2193.37C2194.99 112.157 2198.47 108.154 2203.04 105.869L2206 104.391V101.87H2110Z" stroke="white" stroke-width="2"/>
</svg>
