<svg width="62" height="46" viewBox="0 0 62 46" fill="none" xmlns="http://www.w3.org/2000/svg">
<path d="M17.75 40.7214V40.7214ZM17.75 40.7214V40.5632M17.75 40.7214H17.5918M17.75 40.5632H17.5918V40.7214M17.75 40.5632V40.5632ZM17.5918 40.7214V40.7214Z" stroke="#31A5E5"/>
<path d="M19.3461 40.8824V40.8824ZM19.3461 40.8824V41.0414M19.3461 40.8824H19.1871M19.3461 41.0414V41.0414ZM19.3461 41.0414H19.505M19.3461 41.0414V41.2003M19.3461 41.0414H19.1871M19.505 41.0414V41.0414ZM19.505 41.0414V41.2003H19.3461M19.3461 41.2003V41.2003ZM19.1871 41.0414V41.0414ZM19.1871 41.0414V40.8824M19.1871 40.8824V40.8824Z" stroke="#31A5E5"/>
<path d="M17.1116 40.7227H17.2705M17.1116 40.7227V40.7227ZM17.2705 40.7227V40.7227ZM17.2705 40.7227H17.4295M17.2705 40.7227V40.8816M17.4295 40.7227V40.7227ZM17.4295 40.7227V40.8816M17.4295 40.8816V40.8816ZM17.4295 40.8816H17.2705M17.2705 40.8816V40.8816ZM17.2705 40.8816V41.0405M17.2705 40.8816H17.1116M17.1116 40.8816V40.8816Z" stroke="#31A5E5"/>
<path d="M17.9096 40.7227V40.8816M17.9096 40.7227H17.7507V40.8816M17.9096 40.7227V40.7227ZM17.9096 40.8816V40.8816ZM17.9096 40.8816H17.7507M17.9096 40.8816L17.7507 41.0405M17.7507 40.8816V40.8816ZM17.7507 40.8816V41.0405M17.7507 40.8816H17.5918M17.7507 41.0405V41.0405ZM17.5918 40.8816V40.8816Z" stroke="#31A5E5"/>
<path d="M17.2723 42.3169V42.3169ZM17.2723 42.3169V42.158M17.2723 42.3169V42.4758M17.2723 42.158V42.158ZM17.2723 42.158V41.9991M17.2723 41.9991V41.9991ZM17.2723 41.9991H17.4312M17.4312 41.9991V41.9991ZM17.4312 41.9991H17.5901M17.5901 41.9991V41.9991ZM17.5901 41.9991V42.158M17.5901 42.158V42.158ZM17.5901 42.158H17.749M17.749 42.158V42.158ZM17.749 42.158V42.3169M17.749 42.3169V42.3169ZM17.749 42.3169V42.4758M17.749 42.4758V42.4758ZM17.749 42.4758H17.5901M17.5901 42.4758V42.4758ZM17.5901 42.4758H17.4312M17.4312 42.4758V42.4758ZM17.4312 42.4758H17.2723M17.2723 42.4758V42.4758Z" stroke="#31A5E5"/>
<path d="M19.1871 41.5203V41.5203ZM19.1871 41.5203H19.3461M19.3461 41.5203V41.5203ZM19.3461 41.5203H19.505M19.3461 41.5203V41.6792M19.3461 41.6792V41.6792Z" stroke="#31A5E5"/>
<path d="M18.0685 41.5197H18.2274M18.0685 41.5197V41.5197ZM18.0685 41.5197H17.9096M18.0685 41.5197V41.3608M18.0685 41.5197V41.6787M18.2274 41.5197V41.5197ZM18.2274 41.5197V41.3608M18.2274 41.5197H18.3863M18.0685 41.3608V41.3608ZM18.0685 41.3608H18.2274M18.2274 41.3608V41.3608ZM18.3863 41.5197V41.5197ZM18.3863 41.5197V41.6787M18.3863 41.6787V41.6787ZM18.3863 41.6787H18.2274M18.2274 41.6787V41.6787ZM18.2274 41.6787H18.0685M18.0685 41.6787V41.6787Z" stroke="#31A5E5"/>
<path d="M18.3884 41.52V41.52ZM18.3884 41.52H18.5477M18.3884 41.52H18.2291M18.5477 41.52V41.52ZM18.5477 41.52H18.707M18.2291 41.52V41.52ZM18.2291 41.52L18.3884 41.3607M18.2291 41.52V41.3607M18.3884 41.3607V41.3607ZM18.3884 41.3607H18.2291M18.3884 41.3607L18.5477 41.2014M18.2291 41.3607V41.3607ZM18.5477 41.2014V41.2014ZM18.5477 41.2014V41.3607M18.5477 41.2014H18.707M18.5477 41.3607V41.3607ZM18.5477 41.3607H18.707M18.707 41.3607V41.2014M18.707 41.3607V41.3607ZM18.707 41.3607H18.8662M18.707 41.3607V41.52M18.707 41.2014V41.2014ZM18.8662 41.3607V41.3607ZM18.707 41.52V41.52Z" stroke="#31A5E5"/>
<path d="M16.7927 41.3603V41.3603ZM16.7927 41.3603H16.6338M16.6338 41.3603V41.3603ZM16.6338 41.3603H16.4749M16.6338 41.3603V41.2014M16.4749 41.3603V41.3603ZM16.4749 41.3603V41.5192M16.4749 41.3603L16.6338 41.2014M16.4749 41.5192V41.5192ZM16.6338 41.2014V41.2014Z" stroke="#31A5E5"/>
<path d="M19.6631 41.2014V41.2014ZM19.6631 41.2014V41.3596M19.6631 41.2014H19.5049M19.6631 41.3596V41.3596ZM19.6631 41.3596H19.5049M19.5049 41.3596V41.3596ZM19.5049 41.3596V41.2014M19.5049 41.2014V41.2014Z" stroke="#31A5E5"/>
<path d="M17.1116 41.9979V41.9979ZM17.1116 41.9979V41.839M17.1116 41.839V41.839ZM17.1116 41.839V41.6801M17.1116 41.839H17.2705M17.1116 41.6801V41.6801ZM17.1116 41.6801H17.2705M17.2705 41.6801V41.6801ZM17.2705 41.6801V41.839M17.2705 41.839V41.839Z" stroke="#31A5E5"/>
<path d="M19.1854 41.6801V41.6801ZM19.1854 41.6801H19.3443M19.1854 41.6801V41.839M19.3443 41.6801V41.6801ZM19.3443 41.6801V41.839M19.3443 41.839V41.839ZM19.3443 41.839V41.9979M19.3443 41.9979V41.9979ZM19.3443 41.9979H19.1854M19.1854 41.9979V41.9979ZM19.1854 41.9979V42.1568M19.1854 41.9979H19.0265M19.1854 42.1568V42.1568ZM19.0265 41.9979V41.9979ZM19.0265 41.9979V41.839M19.0265 41.839V41.839ZM19.0265 41.839H19.1854M19.1854 41.839V41.839Z" stroke="#31A5E5"/>
<path d="M19.6656 41.0419V41.0419ZM19.6656 41.0419V41.2001M19.6656 41.2001V41.2001ZM19.6656 41.2001H19.8237M19.8237 41.2001V41.2001Z" stroke="#31A5E5"/>
<path d="M19.3443 41.0419V41.0419ZM19.3443 41.0419V41.2008M19.3443 41.0419H19.1854M19.3443 41.2008V41.2008ZM19.3443 41.2008H19.5032M19.3443 41.2008H19.1854M19.5032 41.2008V41.2008ZM19.1854 41.2008V41.2008ZM19.1854 41.2008H19.0265M19.1854 41.2008V41.0419M19.1854 41.0419V41.0419Z" stroke="#31A5E5"/>
<path d="M19.9834 41.0419V41.0419ZM19.9834 41.0419V41.2008M19.9834 41.0419H19.8245M19.9834 41.2008H19.8245M19.9834 41.2008V41.2008ZM19.9834 41.2008V41.3597H19.8245M19.8245 41.2008V41.2008ZM19.8245 41.2008V41.3597M19.8245 41.2008H19.6656M19.8245 41.2008V41.0419M19.8245 41.3597V41.3597ZM19.6656 41.2008V41.2008ZM19.6656 41.2008V41.0419M19.6656 41.0419V41.0419ZM19.6656 41.0419H19.8245M19.8245 41.0419V41.0419Z" stroke="#31A5E5"/>
<path d="M19.0248 41.3597H18.8659M19.0248 41.3597V41.3597ZM19.0248 41.3597V41.2008M19.0248 41.3597L18.8659 41.2008M18.8659 41.3597V41.3597ZM18.8659 41.3597V41.2008M19.0248 41.2008V41.2008ZM19.0248 41.2008H18.8659M19.0248 41.2008V41.0419M18.8659 41.2008V41.2008ZM18.8659 41.2008H18.707M18.8659 41.2008V41.0419H19.0248M18.707 41.2008V41.2008ZM19.0248 41.0419V41.0419Z" stroke="#31A5E5"/>
<path d="M17.2705 40.8824V40.8824ZM17.2705 40.8824V41.0414M17.2705 40.8824H17.1116V41.0414M17.2705 41.0414V41.0414ZM17.2705 41.0414H17.1116M17.1116 41.0414V41.0414ZM17.1116 41.0414V41.2003M17.1116 41.2003V41.2003Z" stroke="#31A5E5"/>
<path d="M18.0685 40.8824V40.8824ZM18.0685 40.8824V41.0414M18.0685 40.8824H17.9096M18.0685 41.0414V41.0414ZM18.0685 41.0414V41.2003H17.9096M17.9096 41.2003V41.2003ZM17.9096 41.2003H17.7507M17.7507 41.2003V41.2003ZM17.7507 41.2003V41.0414M17.7507 41.0414V41.0414ZM17.7507 41.0414H17.9096M17.9096 41.0414V41.0414ZM17.9096 41.0414V40.8824M17.9096 40.8824V40.8824Z" stroke="#31A5E5"/>
<path d="M23.972 14.4002V14.4002ZM23.972 14.4002H23.8125M23.972 14.4002H24.1316M23.8125 14.4002V14.4002ZM23.8125 14.4002V14.2406M23.8125 14.2406V14.2406ZM23.8125 14.2406V14.0811M23.8125 14.0811V14.0811ZM23.8125 14.0811L23.972 14.2406V14.0811M23.972 14.0811V14.0811ZM23.972 14.0811H24.1316M24.1316 14.0811V14.0811ZM24.1316 14.0811H24.2911M24.1316 14.0811V13.9216H24.2911M24.2911 14.0811V14.0811ZM24.2911 13.9216V13.9216ZM24.2911 13.9216H24.4506M24.4506 13.9216V13.9216ZM24.4506 13.9216V14.0811L24.6101 13.9216M24.6101 13.9216V13.9216ZM24.6101 13.9216H24.7697M24.7697 13.9216V13.9216ZM24.7697 13.9216H24.9292M24.9292 13.9216V13.9216ZM24.9292 13.9216V14.0811M24.9292 14.0811V14.0811ZM24.9292 14.0811H24.7697M24.7697 14.0811V14.0811ZM24.7697 14.0811V14.2406M24.7697 14.2406V14.2406ZM24.7697 14.2406H24.6101M24.6101 14.2406V14.2406ZM24.6101 14.2406H24.4506M24.4506 14.2406V14.2406ZM24.4506 14.2406V14.4002M24.4506 14.4002V14.4002ZM24.4506 14.4002H24.2911M24.2911 14.4002V14.4002ZM24.2911 14.4002H24.1316M24.1316 14.4002V14.4002Z" stroke="#31A5E5"/>
<path d="M53.3242 1V1ZM53.3242 1H53.1652M53.1652 1V1ZM53.1652 1V1.15891H53.0063M53.1652 1H53.0063M53.0063 1.15891V1.15891ZM53.0063 1.15891V1M53.0063 1V1Z" stroke="#31A5E5"/>
<path d="M34.1825 10.7312V10.7312ZM34.1825 10.7312H34.023V10.5717M34.1825 10.7312H34.342M34.023 10.5717V10.5717ZM34.023 10.5717V10.4121H34.1825M34.1825 10.4121V10.4121ZM34.1825 10.4121V10.2526M34.1825 10.2526V10.2526ZM34.1825 10.2526H34.342M34.342 10.2526V10.2526ZM34.342 10.2526V10.0931H34.5016M34.5016 10.0931V10.0931ZM34.5016 10.0931V10.2526M34.5016 10.0931H34.6611M34.6611 10.0931V9.93353M34.6611 10.0931V10.0931ZM34.6611 10.0931H34.8206M34.6611 9.93353V9.93353ZM34.6611 9.93353H34.8206V10.0931M34.8206 10.0931V10.0931ZM34.8206 10.0931H34.9802M34.9802 10.0931V10.0931ZM34.9802 10.0931V10.2526M34.9802 10.2526V10.2526ZM34.9802 10.2526H34.8206M34.8206 10.2526V10.2526ZM34.8206 10.2526H34.6611M34.6611 10.2526V10.2526ZM34.6611 10.2526V10.4121M34.6611 10.4121V10.4121ZM34.6611 10.4121H34.8206L34.6611 10.5717M34.6611 10.5717V10.5717ZM34.6611 10.5717H34.5016M34.5016 10.5717V10.5717ZM34.5016 10.5717H34.342M34.342 10.5717V10.5717ZM34.342 10.5717V10.7312M34.342 10.7312V10.7312Z" stroke="#31A5E5"/>
<path d="M27.4816 12.4859V12.4859ZM27.4816 12.4859V12.3264M27.4816 12.4859H27.6411M27.4816 12.3264V12.3264ZM27.4816 12.3264V12.1669M27.4816 12.1669V12.1669ZM27.4816 12.1669H27.6411V12.0073M27.6411 12.0073H27.4816M27.6411 12.0073V12.0073ZM27.6411 12.0073L27.8007 11.8478M27.4816 12.0073V12.0073ZM27.8007 11.8478V11.8478ZM27.8007 11.8478H27.9602M27.9602 11.8478V11.8478ZM27.9602 11.8478V11.6883M27.9602 11.6883V11.6883ZM27.9602 11.6883H28.1197M28.1197 11.6883V11.6883ZM28.1197 11.6883H28.2792M28.2792 11.6883V11.6883ZM28.2792 11.6883H28.4388V11.5287M28.4388 11.5287V11.5287ZM28.4388 11.5287H28.5983M28.5983 11.5287V11.5287ZM28.5983 11.5287L28.7578 11.3692M28.7578 11.3692V11.5287M28.7578 11.3692V11.3692ZM28.7578 11.3692H28.9174M28.9174 11.3692V11.3692ZM28.9174 11.3692H29.0769M29.0769 11.3692V11.3692ZM29.0769 11.3692L29.2364 11.2097M29.2364 11.2097V11.2097ZM29.2364 11.2097H29.3959M29.3959 11.2097V11.2097ZM29.3959 11.2097V11.0502M29.3959 11.2097H29.5555M29.3959 11.0502V11.0502ZM29.5555 11.2097V11.2097ZM29.5555 11.2097V11.0502M29.5555 11.2097H29.715M29.5555 11.2097L29.715 11.3692M29.5555 11.0502V11.0502ZM29.5555 11.0502H29.715M29.715 11.0502V11.0502ZM29.715 11.0502H29.8745M29.8745 11.0502V11.0502ZM29.8745 11.0502V10.8906M29.8745 10.8906V10.8906ZM29.8745 10.8906H30.0341M30.0341 10.8906V11.0502M30.0341 10.8906V10.8906ZM30.0341 10.8906H30.1936M30.0341 11.0502V11.2097M30.0341 11.0502V11.0502ZM30.1936 10.8906V10.8906ZM30.1936 10.8906H30.3531M30.3531 10.8906V10.8906ZM30.3531 10.8906H30.5127M30.5127 10.8906V10.8906ZM30.5127 10.8906H30.6722M30.6722 10.8906V10.8906ZM30.6722 10.8906L30.8317 11.0502H30.6722M30.6722 10.8906V11.0502M30.6722 11.0502V11.0502ZM30.6722 11.0502H30.5127M30.5127 11.0502V11.0502ZM30.5127 11.0502H30.3531M30.3531 11.0502V11.0502ZM30.3531 11.0502H30.1936M30.1936 11.0502V11.0502ZM30.1936 11.0502V11.2097M30.1936 11.2097V11.2097ZM30.1936 11.2097H30.0341M30.0341 11.2097V11.2097ZM30.0341 11.2097H29.8745M29.8745 11.2097V11.2097ZM29.8745 11.2097V11.3692H29.715M29.715 11.3692V11.2097M29.715 11.3692V11.3692ZM29.715 11.3692H29.5555M29.715 11.2097V11.2097ZM29.5555 11.3692V11.3692ZM29.5555 11.3692V11.5287M29.5555 11.5287V11.5287ZM29.5555 11.5287H29.3959M29.3959 11.5287V11.5287ZM29.3959 11.5287H29.2364M29.2364 11.5287V11.5287ZM29.2364 11.5287H29.0769M29.0769 11.5287V11.5287ZM29.0769 11.5287H28.9174M28.9174 11.5287V11.6883M28.9174 11.5287V11.5287ZM28.9174 11.6883V11.6883ZM28.9174 11.6883H28.7578M28.7578 11.6883V11.6883ZM28.7578 11.6883V11.8478H28.5983M28.5983 11.8478V11.8478ZM28.5983 11.8478V12.0073M28.5983 12.0073V12.0073ZM28.5983 12.0073H28.4388M28.4388 12.0073V11.8478M28.4388 12.0073V12.0073ZM28.4388 12.0073H28.2792M28.4388 11.8478V11.8478ZM28.2792 12.0073V12.0073ZM28.2792 12.0073H28.1197M28.1197 12.0073V12.0073ZM28.1197 12.0073H27.9602M27.9602 12.0073V12.0073ZM27.9602 12.0073V12.1669M27.9602 12.1669V12.1669ZM27.9602 12.1669H27.8007M27.8007 12.1669V12.1669ZM27.8007 12.1669V12.3264M27.8007 12.3264V12.3264ZM27.8007 12.3264H27.6411M27.6411 12.3264V12.3264ZM27.6411 12.3264V12.4859M27.6411 12.4859V12.4859Z" stroke="#31A5E5"/>
<path d="M30.9912 10.8906H31.1501M30.9912 10.8906V11.0495M30.9912 10.8906V10.8906ZM31.1501 10.8906V10.8906ZM31.1501 10.8906H31.309M31.1501 10.8906V11.0495M31.309 10.8906V10.8906ZM31.309 10.8906H31.4679M31.309 10.8906V11.0495M31.4679 10.8906V10.8906ZM31.1501 11.0495V11.0495ZM31.1501 11.0495H30.9912M30.9912 11.0495V11.0495Z" stroke="#31A5E5"/>
<path d="M31.9481 10.8901V10.8901ZM31.9481 10.8901L31.7892 10.7312M31.9481 10.8901V10.7312M31.7892 10.7312V10.7312ZM31.7892 10.7312V10.8901M31.7892 10.7312H31.6303V10.8901M31.7892 10.7312H31.9481M31.7892 10.8901V10.8901ZM31.7892 10.8901H31.6303M31.6303 10.8901V10.8901ZM31.9481 10.7312V10.7312ZM31.9481 10.7312H32.107M32.107 10.7312V10.7312Z" stroke="#31A5E5"/>
<path d="M34.022 10.5717V10.731H34.1813M34.022 10.5717H33.8627M34.022 10.5717V10.5717ZM34.1813 10.731V10.731ZM34.1813 10.731V10.8903M34.1813 10.8903V10.8903ZM34.1813 10.8903H34.022M34.022 10.8903V10.8903ZM34.022 10.8903V11.0496H33.8627M33.8627 11.0496V11.0496ZM33.8627 11.0496H33.7034M33.8627 11.0496V10.8903M33.7034 11.0496V11.2088M33.7034 11.0496V11.0496ZM33.7034 11.2088V11.2088ZM33.8627 10.8903V10.8903ZM33.8627 10.8903V10.731M33.8627 10.731V10.731ZM33.8627 10.731V10.5717M33.8627 10.5717V10.5717Z" stroke="#31A5E5"/>
<path d="M2.27624 26.6842V26.8437L2.5953 27.1628L2.75483 27.3223L2.91436 27.8009L3.23342 27.9604L3.07389 28.439H2.91436M2.27624 26.6842V26.6842ZM2.27624 26.6842V26.5247V26.3651M2.27624 26.3651V26.3651ZM2.27624 26.3651V26.2056M2.27624 26.2056V26.2056ZM2.27624 26.2056H2.43577M2.43577 26.2056V26.2056ZM2.43577 26.2056V26.0461M2.43577 26.0461V26.0461ZM2.43577 26.0461H2.5953M2.5953 26.0461V26.0461ZM2.5953 26.0461H2.75483M2.75483 26.0461V26.0461ZM2.75483 26.0461V25.8865M2.75483 25.8865V25.8865ZM2.75483 25.8865V25.727M2.75483 25.727V25.727ZM2.75483 25.727L2.91436 25.5675M2.91436 25.5675V25.5675ZM2.91436 25.5675V25.4079M2.91436 25.4079V25.4079ZM2.91436 25.4079V25.2484M2.91436 25.2484V25.2484ZM2.91436 25.2484H2.75483M2.75483 25.2484V25.2484ZM2.75483 25.2484V25.0889M2.75483 25.0889V25.0889ZM2.75483 25.0889H2.5953M2.75483 25.0889V24.9294M2.5953 25.0889V25.0889ZM2.75483 24.9294V24.9294ZM2.75483 24.9294V24.7698M2.75483 24.7698V24.7698ZM2.75483 24.7698H2.91436M2.91436 24.7698V24.7698ZM2.91436 24.7698V24.6103M2.91436 24.6103V24.6103ZM2.91436 24.6103V24.4508M2.91436 24.4508V24.4508ZM2.91436 24.4508L4.66919 23.8126L5.62637 23.015V22.8555H5.7859L5.94543 22.6959L6.74308 22.2173L7.54073 21.7388L8.17885 21.1006L8.33838 20.9411M8.33838 20.9411V20.9411ZM8.33838 20.9411H8.49791M8.49791 20.9411V20.9411ZM8.49791 20.9411H8.65744M8.65744 20.9411V20.9411ZM8.65744 20.9411V20.7816M8.65744 20.7816V20.7816ZM8.65744 20.7816V20.622H8.81697H8.9765L9.29556 20.1435L9.45509 19.9839L10.4123 19.1863L10.7313 19.0267M10.7313 19.0267V19.0267ZM10.7313 19.0267L10.8909 18.8672V18.7077M10.8909 18.7077V18.7077ZM10.8909 18.7077V18.5482M10.8909 18.5482V18.5482ZM10.8909 18.5482V18.3886M10.8909 18.3886V18.3886ZM10.8909 18.3886H11.0504M11.0504 18.3886V18.3886ZM11.0504 18.3886H11.2099M11.2099 18.3886V18.3886ZM11.2099 18.3886H11.3694M11.3694 18.3886V18.3886ZM11.3694 18.3886V18.2291M11.3694 18.2291V18.2291ZM11.3694 18.2291H11.529M11.529 18.2291V18.2291ZM11.529 18.2291V18.3886M11.529 18.2291H11.6885M11.529 18.3886V18.3886ZM11.6885 18.2291V18.2291ZM11.6885 18.2291V18.0696M11.6885 18.0696V18.0696ZM11.6885 18.0696V17.91M11.6885 17.91V17.91ZM11.6885 17.91H11.848M11.848 17.91V17.91ZM11.848 17.91H12.0076V18.0696H12.1671M12.1671 18.0696V18.0696ZM12.1671 18.0696V18.2291H12.3266M12.3266 18.2291V18.2291ZM12.3266 18.2291H12.4862V18.3886M12.4862 18.3886V18.3886ZM12.4862 18.3886H12.6457M12.6457 18.3886V18.3886ZM12.6457 18.3886H12.8052M12.8052 18.3886V18.3886ZM12.8052 18.3886V18.2291M12.8052 18.2291V18.2291ZM12.8052 18.2291H12.9647M12.9647 18.2291V18.2291ZM12.9647 18.2291V18.0696M12.9647 18.0696V18.0696ZM12.9647 18.0696H13.1243M12.9647 18.0696V17.91M13.1243 18.0696V18.0696ZM12.9647 17.91V17.91ZM12.9647 17.91H13.1243M13.1243 17.91V17.91ZM13.1243 17.91H13.2838V17.7505M13.2838 17.7505V17.7505ZM13.2838 17.7505L13.4433 17.591M13.4433 17.591V17.591ZM13.4433 17.591H13.6029M13.6029 17.591V17.591ZM13.6029 17.591V17.4314M13.6029 17.4314V17.4314ZM13.6029 17.4314V17.2719M13.6029 17.2719V17.2719ZM13.6029 17.2719H13.7624M13.7624 17.2719V17.2719ZM13.7624 17.2719H13.9219M13.9219 17.2719V17.2719ZM13.9219 17.2719H14.0815M14.0815 17.2719V17.2719ZM14.0815 17.2719H14.241M14.241 17.2719V17.2719ZM14.241 17.2719V17.1124M14.241 17.1124V17.1124ZM14.241 17.1124H14.4005M14.4005 17.1124V17.1124ZM14.4005 17.1124H14.56M14.56 17.1124V17.1124ZM14.56 17.1124V16.9529H14.7196M14.7196 16.9529V16.9529ZM14.7196 16.9529V16.7933M14.7196 16.7933V16.7933ZM14.7196 16.7933H14.56M14.56 16.7933V16.7933ZM14.56 16.7933H14.4005M14.4005 16.7933V16.7933ZM14.4005 16.7933V16.6338M14.4005 16.6338V16.6338ZM14.4005 16.6338V16.4743H14.56M14.56 16.4743V16.4743ZM14.56 16.4743H14.7196M14.7196 16.4743V16.4743ZM14.7196 16.4743H14.8791M14.8791 16.4743V16.4743ZM14.8791 16.4743H15.0386M15.0386 16.4743V16.4743ZM15.0386 16.4743H15.1982V16.3147M15.1982 16.3147V16.3147ZM15.1982 16.3147H15.3577M15.3577 16.3147V16.3147ZM15.3577 16.3147H15.5172M15.5172 16.3147V16.3147ZM15.5172 16.3147V16.1552H15.6768M15.6768 16.1552V16.1552ZM15.6768 16.1552H15.8363H15.9958M15.9958 16.1552V16.1552ZM15.9958 16.1552H16.1553H16.3149M16.3149 16.1552V16.1552ZM16.3149 16.1552H16.4744M16.4744 16.1552V16.1552ZM16.4744 16.1552L16.6339 15.9957M16.6339 15.9957V15.9957ZM16.6339 15.9957H16.7935M16.7935 15.9957V15.9957ZM16.7935 15.9957L16.953 16.1552H17.1125H17.2721V16.3147M17.2721 16.3147V16.3147ZM17.2721 16.3147H17.4316M17.4316 16.3147V16.3147ZM17.4316 16.3147V16.1552M17.4316 16.1552V16.1552ZM17.4316 16.1552L17.5911 15.9957M17.5911 15.9957V15.9957ZM17.5911 15.9957H17.7506M17.5911 15.9957V16.1552M17.7506 15.9957V15.9957ZM17.7506 15.9957V15.8361M17.7506 15.9957L17.9102 15.8361M17.7506 15.9957H17.9102V15.8361M17.7506 15.8361V15.8361ZM17.9102 15.8361V15.8361ZM17.5911 16.1552V16.1552ZM17.5911 16.1552V16.3147H17.7506V16.4743M17.7506 16.4743V16.4743ZM17.7506 16.4743L17.9102 16.6338L18.0697 16.7933H18.2292L18.3888 16.9529V17.1124H18.5483V17.2719M18.5483 17.2719H18.7078M18.5483 17.2719V17.2719ZM18.7078 17.2719V17.2719ZM18.7078 17.2719V17.4314M18.7078 17.2719H18.8674M18.7078 17.4314V17.4314ZM18.7078 17.4314H18.8674M18.8674 17.4314V17.4314ZM18.8674 17.2719V17.2719ZM18.8674 17.2719H19.0269M19.0269 17.2719V17.2719ZM19.0269 17.2719H19.1864M19.1864 17.2719V17.2719ZM19.1864 17.2719H19.3459M19.3459 17.2719V17.4314M19.3459 17.2719V17.2719ZM19.3459 17.2719H19.5055V17.1124M19.3459 17.4314H19.1864M19.3459 17.4314V17.4314ZM19.5055 17.1124V17.1124ZM19.5055 17.1124V16.9529M19.5055 16.9529V16.9529ZM19.5055 16.9529H19.665M19.665 16.9529V16.9529ZM19.665 16.9529H19.8245M19.8245 16.9529V16.9529ZM19.8245 16.9529H19.9841M19.9841 16.9529V16.9529ZM19.9841 16.9529V16.7933M19.9841 16.7933V16.7933ZM19.9841 16.7933V16.6338M19.9841 16.6338V16.6338ZM19.9841 16.6338H20.1436V16.7933M20.1436 16.7933V16.7933ZM20.1436 16.7933H20.3031M20.3031 16.7933V16.7933ZM20.3031 16.7933H20.4627M20.4627 16.7933V16.7933ZM20.4627 16.7933H20.6222M20.6222 16.7933V16.7933ZM20.6222 16.7933L20.7817 16.9529M20.7817 16.9529V16.9529ZM20.7817 16.9529H20.9412M20.9412 16.9529V16.9529ZM20.9412 16.9529H21.1008L21.2603 17.1124M21.2603 17.1124V17.1124ZM21.2603 17.1124H21.5794M21.5794 17.1124V17.1124ZM21.5794 17.1124H21.7389L21.8984 17.2719M21.8984 17.2719V17.2719ZM21.8984 17.2719H22.058M22.058 17.2719V17.2719ZM22.058 17.2719H22.2175M22.2175 17.2719V17.2719ZM22.2175 17.2719H22.377H22.5365M22.5365 17.2719V17.2719ZM22.5365 17.2719H22.6961M22.6961 17.2719V17.2719ZM22.6961 17.2719H22.8556M22.8556 17.2719V17.2719ZM22.8556 17.2719L23.0151 17.4314M23.0151 17.4314V17.4314ZM23.0151 17.4314H23.1747M23.1747 17.4314V17.4314ZM23.1747 17.4314H23.3342M23.3342 17.4314V17.4314ZM23.3342 17.4314H23.4937M23.4937 17.4314V17.4314ZM23.4937 17.4314H23.6533M23.6533 17.4314V17.4314ZM23.6533 17.4314H23.8128L23.9723 17.591M23.9723 17.591V17.591ZM23.9723 17.591H24.1318M24.1318 17.591V17.591ZM24.1318 17.591H24.2914M24.2914 17.591V17.591ZM24.2914 17.591H24.4509H24.6104M24.6104 17.591V17.591ZM24.6104 17.591H24.77M24.77 17.591V17.591ZM24.77 17.591H24.9295M24.9295 17.591V17.591ZM24.9295 17.591H25.089M25.089 17.591V17.591ZM25.089 17.591L25.2486 17.4314M25.2486 17.4314V17.4314ZM25.2486 17.4314H25.4081M25.4081 17.4314V17.4314ZM25.4081 17.4314H25.5676M25.5676 17.4314V17.4314ZM25.5676 17.4314V17.2719M25.5676 17.2719V17.2719ZM25.5676 17.2719H25.7271M25.7271 17.2719V17.2719ZM25.7271 17.2719V17.1124M25.7271 17.1124V17.1124ZM25.7271 17.1124H25.8867M25.8867 17.1124V17.1124ZM25.8867 17.1124V17.2719M25.8867 17.1124L26.0462 17.2719M25.8867 17.1124H26.0462V17.2719M25.8867 17.2719V17.2719ZM25.8867 17.2719H26.0462M26.0462 17.2719V17.2719ZM26.0462 17.2719H26.2057H26.3653H26.5248M26.5248 17.2719V17.2719ZM26.5248 17.2719H26.6843H26.8439M26.8439 17.2719V17.2719ZM26.8439 17.2719H27.0034M27.0034 17.2719V17.2719ZM27.0034 17.2719H27.1629M27.1629 17.2719V17.2719ZM27.1629 17.2719H27.3224H27.482V17.1124H27.6415H27.801H27.9606H28.1201M28.1201 17.1124V17.1124ZM28.1201 17.1124H28.2796M28.2796 17.1124V17.1124ZM28.2796 17.1124L28.4392 16.9529M28.4392 16.9529V16.9529ZM28.4392 16.9529H28.5987M28.5987 16.9529V16.9529ZM28.5987 16.9529V17.1124M28.5987 17.1124V17.1124ZM28.5987 17.1124H28.7582M28.7582 17.1124V17.1124ZM28.7582 17.1124L28.9177 17.2719M28.9177 17.2719V17.2719ZM28.9177 17.2719H29.0773H29.2368V17.4314M29.2368 17.4314V17.4314ZM29.2368 17.4314H29.3963M29.3963 17.4314V17.4314ZM29.3963 17.4314V17.2719M29.3963 17.2719V17.2719ZM29.3963 17.2719H29.5559M29.5559 17.2719V17.2719ZM29.5559 17.2719L29.7154 17.4314M29.7154 17.4314V17.4314ZM29.7154 17.4314L29.8749 17.2719M29.8749 17.2719V17.2719ZM29.8749 17.2719H30.0345M30.0345 17.2719V17.2719ZM30.0345 17.2719V17.1124M30.0345 17.1124V17.1124ZM30.0345 17.1124H30.3535M30.3535 17.1124V17.1124ZM30.3535 17.1124H30.513M30.513 17.1124V17.1124ZM30.513 17.1124V16.9529M30.513 16.9529V16.9529ZM30.513 16.9529H30.6726M30.6726 16.9529V16.9529ZM30.6726 16.9529V16.7933H30.8321M30.8321 16.7933V16.7933ZM30.8321 16.7933V16.6338H30.9916M30.9916 16.6338V16.6338ZM30.9916 16.6338V16.4743M30.9916 16.4743V16.4743ZM30.9916 16.4743H31.1512M31.1512 16.4743V16.4743ZM31.1512 16.4743H31.3107M31.3107 16.4743V16.4743ZM31.3107 16.4743V16.3147M31.3107 16.3147V16.3147ZM31.3107 16.3147H31.4702M31.4702 16.3147V16.3147ZM31.4702 16.3147H31.6298M31.6298 16.3147V16.3147ZM31.6298 16.3147H31.7893M31.7893 16.3147V16.3147ZM31.7893 16.3147V16.1552H31.9488M31.9488 16.1552V16.1552ZM31.9488 16.1552H32.1083M32.1083 16.1552V16.1552ZM32.1083 16.1552H32.2679M32.2679 16.1552V16.1552ZM32.2679 16.1552H32.4274M32.4274 16.1552V16.1552ZM32.4274 16.1552H32.5869M32.5869 16.1552V16.1552ZM32.5869 16.1552H32.7465M32.7465 16.1552V16.1552ZM32.7465 16.1552H32.906M32.906 16.1552V16.1552ZM32.906 16.1552H33.0655M33.0655 16.1552V16.1552ZM33.0655 16.1552H33.2251M33.2251 16.1552V16.1552ZM33.2251 16.1552H33.3846M33.3846 16.1552V16.1552ZM33.3846 16.1552L33.5441 15.9957M33.5441 15.9957V15.9957ZM33.5441 15.9957H33.7036M33.7036 15.9957V15.9957ZM33.7036 15.9957L33.8632 15.8361M33.8632 15.8361V15.8361ZM33.8632 15.8361L34.0227 15.6766M34.0227 15.6766V15.6766ZM34.0227 15.6766V15.5171M34.0227 15.5171V15.5171ZM34.0227 15.5171L34.1822 15.3576M34.1822 15.3576V15.3576ZM34.1822 15.3576V15.198H34.0227M34.0227 15.198V15.198ZM34.0227 15.198V15.0385M34.0227 15.0385V15.0385ZM34.0227 15.0385H33.8632M33.8632 15.0385V15.0385ZM33.8632 15.0385H33.7036M33.8632 15.0385L33.7036 14.879M33.8632 15.0385H34.3418M33.7036 15.0385V15.0385ZM33.7036 15.0385H33.5441M33.5441 15.0385V15.0385ZM33.5441 15.0385H33.3846M33.5441 15.0385V15.198M33.5441 15.0385L33.3846 15.198V15.0385M33.3846 15.0385V15.0385ZM33.3846 15.0385H33.2251M33.5441 15.198V15.198ZM33.2251 15.0385V15.0385ZM33.2251 15.0385V14.879M33.2251 14.879H33.0655M33.2251 14.879V14.879ZM33.2251 14.879H33.5441M33.0655 14.879V14.879ZM33.5441 14.879V14.879ZM33.5441 14.879H33.7036M33.7036 14.879V14.879ZM34.3418 15.0385V15.0385ZM34.3418 15.0385H34.5013H34.6608M34.6608 15.0385V15.0385ZM34.6608 15.0385L34.9799 15.198M34.9799 15.198V15.198ZM34.9799 15.198L35.2989 15.3576M35.2989 15.3576V15.3576ZM35.2989 15.3576H35.4585M35.4585 15.3576V15.3576ZM35.4585 15.3576H35.618M35.618 15.3576V15.3576ZM35.618 15.3576H35.7775M35.7775 15.3576V15.3576ZM35.7775 15.3576L35.9371 15.5171M35.9371 15.5171V15.5171ZM35.9371 15.5171H36.0966M36.0966 15.5171V15.5171ZM36.0966 15.5171H36.2561M36.2561 15.5171V15.5171ZM36.2561 15.5171V15.6766M36.2561 15.6766V15.6766ZM36.2561 15.6766H36.4157M36.4157 15.6766V15.6766ZM36.4157 15.6766V15.8361H36.5752M36.5752 15.8361V15.8361ZM36.5752 15.8361H36.7347V15.9957M36.7347 15.9957V15.9957ZM36.7347 15.9957H36.8942M36.8942 15.9957V15.9957ZM36.8942 15.9957L37.0538 16.1552M37.0538 16.1552V16.1552ZM37.0538 16.1552H37.2133L37.3728 16.3147H37.5324M37.5324 16.3147V16.3147ZM37.5324 16.3147L37.6919 16.4743H37.8514M37.8514 16.4743V16.4743ZM37.8514 16.4743H38.011M38.011 16.4743V16.4743ZM38.011 16.4743H38.1705L38.33 16.6338M38.33 16.6338V16.6338ZM38.33 16.6338H38.4895M38.4895 16.6338V16.6338ZM38.4895 16.6338L38.6491 16.4743M38.6491 16.4743V16.4743ZM38.6491 16.4743H38.8086M38.8086 16.4743V16.4743ZM38.8086 16.4743H38.9681M38.9681 16.4743V16.4743ZM38.9681 16.4743V16.3147H39.1277H39.2872H39.7658H40.2444M40.2444 16.3147V16.3147ZM40.2444 16.3147H40.4039M40.4039 16.3147V16.3147ZM40.4039 16.3147H40.5634M40.5634 16.3147V16.3147ZM40.5634 16.3147H40.8825V16.1552M40.8825 16.1552V16.1552ZM40.8825 16.1552H41.042H41.2016V15.9957M41.2016 15.9957V15.9957ZM41.2016 15.9957H41.3611V15.8361M41.3611 15.8361V15.8361ZM41.3611 15.8361H41.5206M41.5206 15.8361V15.8361ZM41.5206 15.8361L41.6801 15.6766M41.6801 15.6766V15.6766ZM41.6801 15.6766L41.8397 15.5171M41.8397 15.5171V15.5171ZM41.8397 15.5171H41.9992M41.9992 15.5171V15.5171ZM41.9992 15.5171V15.3576H42.1587M42.1587 15.3576V15.3576ZM42.1587 15.3576H42.3183M42.3183 15.3576V15.3576ZM42.3183 15.3576H42.4778H42.6373M42.6373 15.3576V15.3576ZM42.6373 15.3576H42.7969M42.7969 15.3576V15.3576ZM42.7969 15.3576H42.9564M42.9564 15.3576V15.3576ZM42.9564 15.3576H43.1159V15.5171H43.2754M43.2754 15.5171V15.5171ZM43.2754 15.5171H43.435M43.435 15.5171V15.5171ZM43.435 15.5171H43.5945M43.5945 15.5171V15.5171ZM43.5945 15.5171V15.6766M43.5945 15.6766V15.6766ZM43.5945 15.6766H43.754M43.754 15.6766V15.6766ZM43.754 15.6766H43.9136M43.9136 15.6766V15.6766ZM43.9136 15.6766V15.8361H44.0731H44.2326L44.5517 15.9957M44.5517 15.9957V15.9957ZM44.5517 15.9957L44.8707 16.1552H45.0303H45.1898V16.3147H45.3493H45.5089M45.5089 16.3147V16.3147ZM45.5089 16.3147H45.6684M45.6684 16.3147V16.3147ZM45.6684 16.3147L45.8279 16.4743M45.8279 16.4743V16.4743ZM45.8279 16.4743H45.9875H46.147M46.147 16.4743V16.4743ZM46.147 16.4743H46.3065M46.3065 16.4743V16.4743ZM46.3065 16.4743L46.466 16.6338H46.6256H46.7851M46.7851 16.6338V16.6338ZM46.7851 16.6338H47.1042L47.4232 16.7933H47.5828H47.7423L48.0613 16.9529H48.2209H48.5399M48.5399 16.9529V16.9529ZM48.5399 16.9529H48.6995H48.859H49.0185H49.1781H49.3376M49.3376 16.9529V16.9529ZM49.3376 16.9529H49.4971M49.4971 16.9529V16.9529ZM49.4971 16.9529L49.6566 17.1124M49.6566 17.1124V17.1124ZM49.6566 17.1124L49.8162 17.2719M49.8162 17.2719V17.2719ZM49.8162 17.2719H49.9757M49.9757 17.2719V17.2719ZM49.9757 17.2719V17.4314L50.1352 17.591H50.2948M50.2948 17.591V17.591ZM50.2948 17.591L50.7734 18.0696L50.9329 18.2291H51.0924L51.2519 18.3886L51.571 18.7077L51.8901 18.8672L52.2091 19.3458H52.3687M52.3687 19.3458V19.3458ZM52.3687 19.3458V19.5053M52.3687 19.5053V19.5053ZM52.3687 19.5053H52.5282M52.5282 19.5053V19.5053ZM52.5282 19.5053V19.6649M52.5282 19.6649V19.6649ZM52.5282 19.6649H52.6877V19.8244M52.6877 19.8244V19.8244ZM52.6877 19.8244L52.8472 19.9839M52.8472 19.9839V19.9839ZM52.8472 19.9839H53.0068M53.0068 19.9839V19.9839ZM53.0068 19.9839V20.1435H53.1663M53.1663 20.1435V20.1435ZM53.1663 20.1435L53.3258 20.303M53.3258 20.303V20.303ZM53.3258 20.303L53.4854 20.4625M53.4854 20.4625V20.4625ZM53.4854 20.4625H53.6449V20.622H53.8044L53.964 20.7816M53.964 20.7816V20.7816ZM53.964 20.7816H54.1235V20.9411M53.964 20.7816V20.9411M53.964 20.7816H53.8044M54.1235 20.9411H54.283M54.1235 20.9411V20.9411ZM54.1235 20.9411H53.964M54.283 20.9411V20.9411ZM54.283 20.9411L54.4425 21.1006M54.283 20.9411V21.1006M54.4425 21.1006V21.1006ZM54.4425 21.1006H54.6021H54.7616M54.4425 21.1006L54.6021 21.2602M54.4425 21.1006H54.283M54.7616 21.1006V21.1006ZM54.7616 21.1006H54.9211V21.2602H55.0807M55.0807 21.2602V21.2602ZM55.0807 21.2602V21.4197M55.0807 21.2602H55.2402M55.0807 21.4197H54.9211M55.0807 21.4197V21.5792M55.0807 21.4197V21.4197ZM55.0807 21.4197L55.2402 21.2602M54.9211 21.4197V21.4197ZM54.9211 21.4197H54.7616M54.7616 21.4197V21.4197ZM54.7616 21.4197L54.6021 21.2602M54.6021 21.2602V21.2602ZM54.283 21.1006V21.1006ZM53.964 20.9411V20.9411ZM53.8044 20.7816V20.7816ZM53.8044 20.7816H53.6449M53.6449 20.7816V20.7816ZM53.6449 20.7816H53.4854M53.4854 20.7816V20.7816ZM53.4854 20.7816H53.3258M53.3258 20.7816V20.7816ZM53.3258 20.7816H53.1663M53.1663 20.7816V20.7816ZM53.1663 20.7816V20.622M53.1663 20.622V20.622ZM53.1663 20.622V20.4625M53.1663 20.4625V20.4625ZM53.1663 20.4625V20.303H53.0068M53.0068 20.303V20.303ZM53.0068 20.303H52.8472V20.1435M52.8472 20.1435V20.1435ZM52.8472 20.1435H52.6877M52.6877 20.1435V20.1435ZM52.6877 20.1435H52.5282M52.5282 20.1435V20.1435ZM52.5282 20.1435H52.3687V19.9839M52.3687 19.9839V19.9839ZM52.3687 19.9839H52.2091M52.2091 19.9839V19.9839ZM52.2091 19.9839H52.0496M52.0496 19.9839V19.9839ZM52.0496 19.9839V19.8244M52.0496 19.9839H51.8901M52.0496 19.9839V20.1435M52.0496 19.8244V19.8244ZM52.0496 20.1435V20.1435ZM52.0496 20.1435H51.8901M51.8901 20.1435V20.1435ZM51.8901 20.1435V20.303M51.8901 20.303V20.303ZM51.8901 20.303H51.7305M51.7305 20.303V20.303ZM51.7305 20.303H51.571M51.571 20.303V20.303ZM51.571 20.303V20.4625M51.571 20.4625V20.4625ZM51.571 20.4625H51.4115M51.4115 20.4625V20.4625ZM51.4115 20.4625V20.622M51.4115 20.622V20.622ZM51.4115 20.622L51.571 20.7816M51.571 20.7816V20.7816ZM51.571 20.7816L51.4115 20.9411M51.4115 20.9411V20.9411ZM51.4115 20.9411H51.2519M51.4115 20.9411L51.2519 20.7816M51.2519 20.9411V20.9411ZM51.2519 20.9411V20.7816M51.2519 20.9411H51.0924M51.2519 20.9411V21.1006M51.2519 20.7816V20.7816ZM51.2519 21.1006V21.1006ZM51.2519 21.1006H51.4115M51.2519 21.1006H51.0924M51.4115 21.1006V21.1006ZM51.0924 21.1006V21.1006ZM51.0924 21.1006V21.2602H51.2519M51.2519 21.2602V21.2602ZM51.2519 21.2602V21.4197M51.2519 21.4197V21.4197ZM51.2519 21.4197V21.5792H51.4115M51.4115 21.5792V21.5792ZM51.4115 21.5792V21.7388M51.4115 21.7388V21.7388ZM51.4115 21.7388H51.571M51.571 21.7388V21.7388ZM51.571 21.7388H51.7305M51.7305 21.7388V21.7388ZM51.7305 21.7388V21.8983M51.7305 21.8983V21.8983ZM51.7305 21.8983H51.8901M51.8901 21.8983V21.7388M51.8901 21.8983H52.0496M51.8901 21.8983V21.8983ZM51.8901 21.7388V21.7388ZM51.8901 21.7388H52.0496V21.8983M52.0496 21.8983V21.8983ZM52.0496 21.8983H52.2091M52.2091 21.8983V21.8983ZM52.2091 21.8983V21.7388M52.2091 21.7388V21.7388ZM52.2091 21.7388V21.5792H52.0496M52.0496 21.5792V21.5792ZM52.0496 21.5792V21.4197M52.0496 21.4197V21.4197ZM52.0496 21.4197V21.2602M52.0496 21.2602V21.2602ZM52.0496 21.2602H52.2091M52.2091 21.2602V21.2602ZM52.2091 21.2602H52.3687M52.2091 21.2602V21.1006H52.3687M52.3687 21.2602V21.2602ZM52.3687 21.2602V21.4197M52.3687 21.2602V21.1006M52.3687 21.4197V21.4197ZM52.3687 21.1006V21.1006ZM52.3687 21.1006H52.5282M52.5282 21.1006V21.1006ZM52.5282 21.1006V21.2602H52.6877M52.6877 21.2602V21.2602ZM52.6877 21.2602H52.8472M52.8472 21.2602V21.2602ZM52.8472 21.2602H53.0068M53.0068 21.2602V21.2602ZM53.0068 21.2602V21.4197M53.0068 21.4197V21.4197ZM53.0068 21.4197H53.1663M53.1663 21.4197V21.4197ZM53.1663 21.4197V21.5792H53.3258M53.3258 21.5792V21.5792ZM53.3258 21.5792H53.4854M53.4854 21.5792V21.5792ZM53.4854 21.5792V21.7388M53.4854 21.7388V21.7388ZM53.4854 21.7388H53.6449M53.6449 21.7388V21.7388ZM53.6449 21.7388V21.8983M53.6449 21.8983V21.8983ZM53.6449 21.8983H53.8044M53.8044 21.8983V21.8983ZM53.8044 21.8983H53.964M53.964 21.8983V21.8983ZM53.964 21.8983V22.0578H54.1235M54.1235 22.0578V22.0578ZM54.1235 22.0578H54.283V22.2173M54.283 22.2173V22.2173ZM54.283 22.2173H54.4425M54.4425 22.2173V22.2173ZM54.4425 22.2173V22.3769M54.4425 22.3769V22.3769ZM54.4425 22.3769H54.283M54.4425 22.3769V22.5364M54.4425 22.3769H54.6021M54.283 22.3769V22.3769ZM54.283 22.3769H54.1235V22.5364M54.1235 22.5364V22.5364ZM54.1235 22.5364H54.283M54.283 22.5364V22.5364ZM54.283 22.5364H54.4425M54.4425 22.5364V22.5364ZM54.6021 22.3769V22.3769ZM54.6021 22.3769V22.5364H54.7616M54.7616 22.5364V22.5364ZM54.7616 22.5364V22.6959M54.7616 22.6959V22.6959ZM54.7616 22.6959L54.6021 22.8555M54.6021 22.8555V22.8555ZM54.6021 22.8555V23.015H54.7616M54.7616 23.015V23.015ZM54.7616 23.015V23.1745M54.7616 23.015H54.9211V23.1745M54.7616 23.1745V23.1745ZM54.7616 23.1745H54.6021M54.7616 23.1745V23.3341M54.7616 23.1745H54.9211M54.6021 23.1745V23.1745ZM54.7616 23.3341V23.3341ZM54.9211 23.1745V23.1745ZM54.9211 23.1745H55.0807M55.0807 23.1745V23.1745ZM55.0807 23.1745H55.2402M55.2402 23.1745V23.1745ZM55.2402 23.1745V23.015M55.2402 23.015V23.015ZM55.2402 23.015V22.8555M55.2402 22.8555V22.8555ZM55.2402 22.8555H55.3997M55.3997 22.8555V22.8555ZM55.3997 22.8555V22.6959M55.3997 22.6959V22.6959ZM55.3997 22.6959H55.5593M55.5593 22.6959V22.6959ZM55.5593 22.6959H55.7188M55.7188 22.6959V22.6959ZM55.7188 22.6959V22.5364M55.7188 22.5364V22.5364ZM55.7188 22.5364H55.8783M55.8783 22.5364V22.5364ZM55.8783 22.5364V22.3769M55.8783 22.3769V22.3769ZM55.8783 22.3769V22.2173M55.8783 22.2173V22.2173ZM55.8783 22.2173H56.0378M56.0378 22.2173V22.2173ZM56.0378 22.2173V22.0578M56.0378 22.0578V22.0578ZM56.0378 22.0578H55.8783M56.0378 22.0578V21.8983M55.8783 22.0578V22.0578ZM55.8783 22.0578V21.8983M56.0378 21.8983V21.8983ZM55.8783 21.8983V21.8983ZM55.8783 21.8983V21.7388M55.8783 21.8983H55.7188M55.8783 21.7388L55.7188 21.8983M55.8783 21.7388L55.7188 21.5792M55.8783 21.7388H56.0378H56.1974V21.8983H56.3569M55.7188 21.8983V21.8983ZM55.7188 21.8983V22.0578M55.7188 21.8983L55.5593 21.7388M55.7188 22.0578V22.0578ZM55.5593 21.7388V21.7388ZM55.5593 21.7388V21.8983M55.5593 21.7388H55.3997M55.5593 21.8983V21.8983ZM55.3997 21.7388V21.7388ZM55.3997 21.7388V21.5792H55.2402M55.2402 21.5792V21.5792ZM55.2402 21.5792H55.0807M55.0807 21.5792V21.5792ZM55.2402 21.2602V21.2602ZM55.2402 21.2602H55.3997V21.4197H55.5593M55.5593 21.4197V21.4197ZM55.5593 21.4197V21.5792H55.7188M55.7188 21.5792V21.5792ZM56.3569 21.8983V21.8983ZM56.3569 21.8983H56.5164M56.5164 21.8983V21.8983ZM56.5164 21.8983L56.676 22.0578H56.8355M56.8355 22.0578V22.0578ZM56.8355 22.0578H56.995M56.995 22.0578V22.0578ZM56.995 22.0578L57.1546 22.2173M57.1546 22.2173V22.2173ZM57.1546 22.2173H57.3141H57.4736M57.4736 22.2173V22.2173ZM57.4736 22.2173H57.6331V22.3769M57.6331 22.3769V22.3769ZM57.6331 22.3769H57.7927M57.7927 22.3769V22.3769ZM57.7927 22.3769H57.9522M57.9522 22.3769V22.3769ZM57.9522 22.3769L58.1117 22.5364M58.1117 22.5364V22.5364ZM58.1117 22.5364H58.2713M58.2713 22.5364V22.5364ZM58.2713 22.5364L58.4308 22.6959M58.4308 22.6959V22.6959ZM58.4308 22.6959V22.8555H58.5903V23.015M58.5903 23.015V23.015ZM58.5903 23.015H58.7499V23.1745M58.7499 23.1745V23.1745ZM58.7499 23.1745V23.3341V23.4936L58.9094 23.6531M58.9094 23.6531V23.6531ZM58.9094 23.6531V23.8126V23.9722H59.0689M59.0689 23.9722V23.9722ZM59.0689 23.9722V24.1317M59.0689 24.1317V24.1317ZM59.0689 24.1317V24.2912H59.2284M59.2284 24.2912V24.2912ZM59.2284 24.2912V24.4508H59.388V24.6103H59.5475H59.707V24.7698H59.8666M59.8666 24.7698V24.7698ZM59.8666 24.7698L60.0261 24.9294M60.0261 24.9294V24.9294ZM60.0261 24.9294H60.1856M60.1856 24.9294V24.9294ZM60.1856 24.9294H60.3452L60.5047 25.0889M60.5047 25.0889V25.0889ZM60.5047 25.0889H60.6642M60.6642 25.0889V25.0889ZM60.6642 25.0889H60.8237M60.6642 25.0889V25.2484M60.8237 25.0889V25.0889ZM60.6642 25.2484V25.2484ZM60.6642 25.2484H60.5047M60.5047 25.2484V25.2484ZM60.5047 25.2484H60.3452M60.3452 25.2484V25.2484ZM60.3452 25.2484V25.0889H60.1856M60.1856 25.0889V25.0889ZM60.1856 25.0889L60.0261 25.2484M60.0261 25.2484V25.2484ZM60.0261 25.2484H59.8666M59.8666 25.2484V25.2484ZM59.8666 25.2484H59.707M59.707 25.2484V25.2484ZM59.707 25.2484H59.5475M59.5475 25.2484V25.2484ZM59.5475 25.2484H59.388M59.388 25.2484V25.2484ZM59.388 25.2484L59.5475 25.0889M59.5475 25.0889V25.0889ZM59.5475 25.0889H59.388M59.388 25.0889V25.0889ZM59.388 25.0889H59.2284M59.2284 25.0889V25.0889ZM59.2284 25.0889H59.0689M59.0689 25.0889V25.0889ZM59.0689 25.0889H58.9094M58.9094 25.0889V25.0889ZM58.9094 25.0889H58.7499M58.7499 25.0889V25.0889ZM58.7499 25.0889V25.2484M58.7499 25.0889H58.5903M58.7499 25.2484V25.2484ZM58.5903 25.0889V25.0889ZM58.5903 25.0889V24.9294M58.5903 24.9294V24.9294ZM58.5903 24.9294H58.4308M58.4308 24.9294V24.9294ZM58.4308 24.9294H58.2713M58.2713 24.9294V24.9294ZM58.2713 24.9294V24.7698M58.2713 24.9294V25.0889M58.2713 25.0889V25.0889ZM58.2713 25.0889H58.1117M58.1117 25.0889V25.0889ZM58.1117 25.0889V25.2484M58.1117 25.2484V25.2484ZM58.1117 25.2484H57.9522M57.9522 25.2484V25.2484ZM57.9522 25.2484H57.7927M57.7927 25.2484V25.2484ZM57.7927 25.2484L57.6331 25.4079M57.6331 25.4079V25.4079ZM57.6331 25.4079V25.2484M57.6331 25.2484V25.2484ZM57.6331 25.2484H57.4736M57.4736 25.2484V25.2484ZM57.4736 25.2484V25.0889M57.4736 25.0889V25.0889ZM57.4736 25.0889H57.3141M57.3141 25.0889V25.0889ZM57.3141 25.0889H57.1546M57.1546 25.0889V25.0889ZM57.1546 25.0889V25.2484M57.1546 25.2484V25.2484ZM57.1546 25.2484H56.995M57.1546 25.2484V25.4079M56.995 25.2484V25.2484ZM56.995 25.2484V25.4079M57.1546 25.4079V25.4079ZM57.1546 25.4079H56.995M56.995 25.4079V25.4079ZM56.995 25.4079H56.8355M56.995 25.4079V25.5675M56.8355 25.4079V25.4079ZM56.995 25.5675V25.5675ZM56.995 25.5675V25.727M56.995 25.5675H56.8355M56.995 25.727V25.727ZM56.995 25.727H56.8355M56.8355 25.5675V25.5675ZM56.8355 25.5675V25.727M56.8355 25.727V25.727ZM56.8355 25.727H56.676M56.676 25.727V25.727ZM56.676 25.727V25.8865M56.676 25.8865V25.8865ZM56.676 25.8865V26.0461M56.676 25.8865L56.5164 26.0461M56.676 26.0461V26.0461ZM56.5164 26.0461V26.0461ZM56.5164 26.0461L56.3569 25.8865M56.3569 25.8865V25.8865ZM56.3569 25.8865V26.0461M56.3569 26.0461V26.0461ZM56.3569 26.0461V26.2056M56.3569 26.2056V26.2056ZM56.3569 26.2056H56.1974M56.1974 26.2056V26.2056ZM56.1974 26.2056V26.3651M56.1974 26.3651V26.3651ZM56.1974 26.3651H56.0378M56.0378 26.3651V26.3651ZM56.0378 26.3651H55.8783M55.8783 26.3651V26.3651ZM55.8783 26.3651H55.7188M55.7188 26.3651V26.3651ZM55.7188 26.3651H55.5593M55.5593 26.3651V26.5247M55.5593 26.3651V26.3651ZM55.5593 26.3651H55.3997M55.5593 26.5247V26.5247ZM55.3997 26.3651V26.3651ZM55.3997 26.3651V26.5247M55.3997 26.5247V26.5247ZM55.3997 26.5247H55.2402M55.3997 26.5247V26.6842M55.2402 26.5247V26.5247ZM55.2402 26.5247V26.6842M55.2402 26.6842V26.6842ZM55.2402 26.6842V26.8437M55.3997 26.6842V26.6842ZM55.3997 26.6842V26.8437M55.3997 26.8437V26.8437ZM55.3997 26.8437H55.2402M55.2402 26.8437V26.8437ZM55.2402 26.8437H55.0807M55.0807 26.8437V26.8437ZM55.0807 26.8437V26.6842M55.0807 26.8437V27.0032M55.0807 26.8437H54.9211M55.0807 26.6842V26.6842ZM55.0807 27.0032V27.0032ZM54.9211 26.8437V26.8437ZM54.9211 26.8437V27.0032M54.9211 27.0032V27.0032ZM54.9211 27.0032H54.7616M54.7616 27.0032V27.0032ZM54.7616 27.0032H54.6021M54.6021 27.0032V27.0032ZM54.6021 27.0032V26.8437M54.6021 27.0032V27.1628H54.4425M54.6021 26.8437V26.8437ZM54.4425 27.1628V27.1628ZM54.4425 27.1628H54.283M54.283 27.1628V27.1628ZM54.283 27.1628H54.1235M54.1235 27.1628V27.1628ZM54.1235 27.1628V27.3223M54.1235 27.3223V27.3223ZM54.1235 27.3223H53.964M53.964 27.3223V27.3223ZM53.964 27.3223H53.8044V27.4818M53.8044 27.4818V27.4818ZM53.8044 27.4818H53.6449M53.6449 27.4818V27.4818ZM53.6449 27.4818H53.4854M53.4854 27.4818V27.4818ZM53.4854 27.4818V27.3223M53.4854 27.3223V27.3223ZM53.4854 27.3223L53.3258 27.4818M53.3258 27.4818V27.4818ZM53.3258 27.4818V27.3223H53.1663M53.1663 27.3223V27.3223ZM53.1663 27.3223H53.0068V27.4818M53.0068 27.4818V27.4818ZM53.0068 27.4818H53.1663M53.0068 27.4818L53.1663 27.6414M53.0068 27.4818L52.8472 27.6414M53.1663 27.4818V27.4818ZM53.1663 27.4818L53.3258 27.6414M53.3258 27.6414V27.6414ZM53.3258 27.6414H53.1663M53.1663 27.6414V27.6414ZM52.8472 27.6414V27.6414ZM52.8472 27.6414H52.6877M52.6877 27.6414V27.6414ZM52.6877 27.6414H52.5282M52.5282 27.6414V27.6414ZM52.5282 27.6414V27.4818M52.5282 27.4818V27.4818ZM52.5282 27.4818L52.3687 27.6414M52.3687 27.6414V27.6414ZM52.3687 27.6414H52.2091M52.2091 27.6414V27.6414ZM52.2091 27.6414H52.0496M52.0496 27.6414V27.6414ZM52.0496 27.6414V27.4818M52.0496 27.4818V27.4818ZM52.0496 27.4818V27.3223M52.0496 27.4818H51.8901M52.0496 27.3223V27.3223ZM51.8901 27.4818V27.4818ZM51.8901 27.4818H51.7305M51.7305 27.4818V27.4818ZM51.7305 27.4818V27.3223M51.7305 27.3223V27.3223ZM51.7305 27.3223L51.571 27.1628M51.571 27.1628V27.1628ZM51.571 27.1628H51.4115M51.4115 27.1628V27.1628ZM51.4115 27.1628V27.3223M51.4115 27.3223V27.3223ZM51.4115 27.3223V27.4818L51.571 27.6414V27.8009M51.571 27.8009V27.8009ZM51.571 27.8009H51.4115M51.4115 27.8009V27.8009ZM51.4115 27.8009H51.2519M51.2519 27.8009V27.8009ZM51.2519 27.8009H51.0924V27.9604M51.0924 27.9604V27.9604ZM51.0924 27.9604H50.9329M50.9329 27.9604V27.9604ZM50.9329 27.9604H50.7734M50.7734 27.9604V27.9604ZM50.7734 27.9604H50.6138M50.6138 27.9604V27.9604ZM50.6138 27.9604L50.4543 27.8009M50.4543 27.8009V27.8009ZM50.4543 27.8009H50.2948M50.2948 27.8009V27.8009ZM50.2948 27.8009V27.6414M50.2948 27.6414V27.6414ZM50.2948 27.6414V27.4818M50.2948 27.4818V27.4818ZM50.2948 27.4818L50.1352 27.6414M50.1352 27.6414V27.6414ZM50.1352 27.6414H49.9757M49.9757 27.6414V27.6414ZM49.9757 27.6414V27.8009H49.8162M49.8162 27.8009V27.8009ZM49.8162 27.8009V27.9604H49.9757V28.12M49.9757 28.12V28.12ZM49.9757 28.12V28.2795M49.9757 28.2795V28.2795ZM49.9757 28.2795V28.439M49.9757 28.439V28.439ZM49.9757 28.439H49.8162M49.8162 28.439V28.439ZM49.8162 28.439H49.6566M49.6566 28.439V28.439ZM49.6566 28.439V28.2795H49.4971M49.4971 28.2795V28.2795ZM49.4971 28.2795H49.3376V28.439M49.3376 28.439V28.439ZM49.3376 28.439H49.1781V28.2795M49.1781 28.2795V28.2795ZM49.1781 28.2795V28.12M49.1781 28.12V28.12ZM49.1781 28.12H49.0185M49.0185 28.12V27.9604M49.0185 28.12V28.12ZM49.0185 28.12H48.859M49.0185 27.9604V27.9604ZM48.859 28.12V28.12ZM48.859 28.12V28.2795M48.859 28.2795V28.2795ZM48.859 28.2795H48.6995V28.439M48.6995 28.439V28.439ZM48.6995 28.439L48.5399 28.5985M48.5399 28.5985V28.5985ZM48.5399 28.5985V28.7581M48.5399 28.7581V28.7581ZM48.5399 28.7581H48.3804M48.3804 28.7581V28.7581ZM48.3804 28.7581H48.2209M48.2209 28.7581V28.7581ZM48.2209 28.7581H48.0613M48.0613 28.7581V28.7581ZM48.0613 28.7581V28.9176M48.0613 28.9176V28.9176ZM48.0613 28.9176H47.9018H47.7423M47.7423 28.9176V28.9176ZM47.7423 28.9176H47.5828V28.7581M47.5828 28.7581V28.7581ZM47.5828 28.7581H47.4232M47.4232 28.7581V28.7581ZM47.4232 28.7581H47.2637V28.5985M47.2637 28.5985V28.5985ZM47.2637 28.5985H47.4232M47.2637 28.5985H47.1042M47.4232 28.5985V28.5985ZM47.1042 28.5985V28.5985ZM47.1042 28.5985H46.9446M46.9446 28.5985V28.5985ZM46.9446 28.5985V28.439M46.9446 28.439V28.439ZM46.9446 28.439H46.7851M46.7851 28.439V28.439ZM46.7851 28.439V28.5985M46.7851 28.5985V28.5985ZM46.7851 28.5985L46.6256 28.439M46.6256 28.439V28.439ZM46.6256 28.439H46.466M46.466 28.439V28.439ZM46.466 28.439V28.2795M46.466 28.2795V28.2795ZM46.466 28.2795H46.3065V28.439M46.3065 28.439V28.439ZM46.3065 28.439H46.147M46.147 28.439V28.439ZM46.147 28.439L45.9875 28.2795M45.9875 28.2795V28.2795ZM45.9875 28.2795H46.147M45.9875 28.2795V28.12M45.9875 28.2795H45.8279V28.439M45.9875 28.12V28.12ZM45.8279 28.439V28.439ZM45.8279 28.439H45.6684M45.8279 28.439L45.6684 28.2795M45.6684 28.439V28.439ZM45.6684 28.2795V28.2795ZM45.6684 28.2795V28.12M45.6684 28.12V28.12ZM45.6684 28.12H45.5089M45.5089 28.12V28.12ZM45.5089 28.12V27.9604M45.5089 27.9604V27.9604ZM45.5089 27.9604H45.3493M45.3493 27.9604V27.9604ZM45.3493 27.9604V27.8009M45.3493 27.8009V27.8009ZM45.3493 27.8009V27.6414M45.3493 27.6414V27.6414ZM45.3493 27.6414H45.1898M45.3493 27.6414V27.4818M45.1898 27.6414V27.8009M45.1898 27.6414V27.6414ZM45.1898 27.6414H45.0303V27.4818H45.1898M45.1898 27.6414V27.4818M45.1898 27.4818V27.4818ZM45.3493 27.4818V27.4818ZM45.3493 27.4818L45.1898 27.3223M45.1898 27.3223V27.3223ZM45.1898 27.3223H45.0303M45.0303 27.3223V27.3223ZM45.0303 27.3223V27.1628H44.8707M44.8707 27.1628V27.1628ZM44.8707 27.1628V27.0032M44.8707 27.0032V27.0032ZM44.8707 27.0032V26.8437M44.8707 26.8437V26.8437ZM44.8707 26.8437L44.7112 27.0032V26.8437M44.7112 26.8437V26.8437ZM44.7112 26.8437H44.5517M44.5517 26.8437V26.8437ZM44.5517 26.8437H44.3922M44.3922 26.8437V26.8437ZM44.3922 26.8437V27.0032M44.3922 27.0032V27.0032ZM44.3922 27.0032H44.2326M44.2326 27.0032V27.0032ZM44.2326 27.0032H44.0731M44.0731 27.0032V27.0032ZM44.0731 27.0032H43.9136M43.9136 27.0032V27.0032ZM43.9136 27.0032H43.754V27.1628M43.754 27.1628V27.1628ZM43.754 27.1628L43.5945 27.3223M43.5945 27.3223V27.3223ZM43.5945 27.3223V27.4818M43.5945 27.4818V27.4818ZM43.5945 27.4818H43.435M43.435 27.4818V27.4818ZM43.435 27.4818V27.6414M43.435 27.6414V27.6414ZM43.435 27.6414H43.2754M43.2754 27.6414V27.6414ZM43.2754 27.6414H43.1159M43.1159 27.6414V27.6414ZM43.1159 27.6414L42.9564 27.8009M42.9564 27.8009V27.8009ZM42.9564 27.8009V27.9604H42.7969M42.7969 27.9604V27.9604ZM42.7969 27.9604L42.6373 28.12M42.6373 28.12V28.12ZM42.6373 28.12V28.2795M42.6373 28.2795V28.2795ZM42.6373 28.2795V28.439M42.6373 28.439V28.439ZM42.6373 28.439H42.4778M42.4778 28.439V28.439ZM42.4778 28.439H42.3183L42.4778 28.5985M42.4778 28.5985H42.3183M42.4778 28.5985V28.5985ZM42.4778 28.5985H42.6373V28.7581M42.6373 28.7581V28.7581ZM42.6373 28.7581V28.9176M42.6373 28.9176V28.9176ZM42.6373 28.9176H42.4778V29.0771M42.4778 29.0771V29.0771ZM42.4778 29.0771H42.6373M42.6373 29.0771V29.0771ZM42.6373 29.0771V29.2367M42.6373 29.2367V29.2367ZM42.6373 29.2367H42.4778M42.4778 29.2367V29.2367ZM42.4778 29.2367V29.3962M42.4778 29.3962V29.3962ZM42.4778 29.3962H42.3183M42.3183 29.3962V29.3962ZM42.3183 29.3962V29.5557H42.1587M42.1587 29.5557V29.5557ZM42.1587 29.5557H41.9992M41.9992 29.5557V29.5557ZM41.9992 29.5557H41.8397M41.8397 29.5557V29.5557ZM41.8397 29.5557V29.3962M41.8397 29.3962V29.3962ZM41.8397 29.3962H41.6801M41.6801 29.3962V29.2367M41.6801 29.3962H41.5206M41.6801 29.2367V29.2367ZM41.5206 29.3962V29.3962ZM41.5206 29.3962H41.3611M41.5206 29.3962V29.5557M41.3611 29.3962V29.3962ZM41.5206 29.5557V29.5557ZM41.5206 29.5557V29.7153M41.5206 29.7153V29.7153ZM41.5206 29.7153V29.8748M41.5206 29.8748V29.8748ZM41.5206 29.8748V30.0343M41.5206 30.0343V30.0343ZM41.5206 30.0343V30.1938M41.5206 30.1938V30.1938ZM41.5206 30.1938H41.3611V30.3534M41.3611 30.3534V30.3534ZM41.3611 30.3534H41.2016M41.2016 30.3534V30.3534ZM41.2016 30.3534H41.042V30.5129M41.042 30.5129H41.2016M41.042 30.5129V30.6724M41.2016 30.5129V30.5129ZM41.042 30.6724V30.6724ZM41.042 30.6724H41.2016V30.832M41.2016 30.832V30.832ZM41.2016 30.832H41.042M41.042 30.832V30.832ZM41.042 30.832V30.9915M41.042 30.9915V30.9915ZM41.042 30.9915H40.8825V31.151M40.8825 31.151V31.151ZM40.8825 31.151V31.3106M40.8825 31.3106V31.3106ZM40.8825 31.3106H40.723M40.723 31.3106V31.3106ZM40.723 31.3106V31.4701M40.723 31.4701V31.4701ZM40.723 31.4701H40.8825M40.8825 31.4701V31.4701ZM40.8825 31.4701H41.042M41.042 31.4701V31.4701ZM41.042 31.4701V31.6296M41.042 31.6296V31.6296ZM41.042 31.6296V31.7891M41.042 31.7891V31.7891ZM41.042 31.7891H41.2016M41.2016 31.7891V31.7891ZM41.2016 31.7891V31.9487M41.2016 31.9487V31.9487ZM41.2016 31.9487H41.3611V32.1082M41.3611 32.1082V32.1082ZM41.3611 32.1082V32.2677M41.3611 32.2677V32.2677ZM41.3611 32.2677H41.2016V32.4273M41.2016 32.4273V32.4273ZM41.2016 32.4273V32.5868H41.042M41.042 32.5868V32.5868ZM41.042 32.5868H40.8825M40.8825 32.5868V32.5868ZM40.8825 32.5868H40.723M40.723 32.5868V32.5868ZM40.723 32.5868H40.5634M40.5634 32.5868V32.5868ZM40.5634 32.5868H40.4039M40.4039 32.5868V32.5868ZM40.4039 32.5868V32.4273H40.2444M40.2444 32.4273V32.4273ZM40.2444 32.4273V32.5868M40.2444 32.4273H40.0848V32.5868M40.0848 32.5868V32.5868ZM40.0848 32.5868H39.9253M39.9253 32.5868V32.5868ZM39.9253 32.5868H39.7658M39.7658 32.5868V32.5868ZM39.7658 32.5868H39.6063M39.6063 32.5868V32.5868ZM39.6063 32.5868V32.7463M39.6063 32.7463V32.7463ZM39.6063 32.7463H39.4467M39.4467 32.7463V32.7463ZM39.4467 32.7463V32.9059M39.4467 32.9059V32.9059ZM39.4467 32.9059H39.2872M39.2872 32.9059V32.9059ZM39.2872 32.9059H39.1277M39.2872 32.9059V33.0654M39.1277 32.9059V32.9059ZM39.2872 33.0654V33.0654ZM39.2872 33.0654V33.2249M39.2872 33.2249V33.2249ZM39.2872 33.2249L39.1277 33.3844M39.1277 33.3844V33.3844ZM39.1277 33.3844V33.544M39.1277 33.544V33.544ZM39.1277 33.544H38.9681M38.9681 33.544V33.544ZM38.9681 33.544V33.7035M38.9681 33.7035H39.1277M38.9681 33.7035V33.7035ZM38.9681 33.7035V33.863M39.1277 33.7035V33.7035ZM38.9681 33.863V33.863ZM38.9681 33.863H38.8086M38.8086 33.863V33.863ZM38.8086 33.863V34.0226M38.8086 34.0226V34.0226ZM38.8086 34.0226H38.6491M38.6491 34.0226V34.0226ZM38.6491 34.0226H38.4895M38.4895 34.0226V34.0226ZM38.4895 34.0226V33.863M38.4895 34.0226V34.1821H38.33M38.4895 33.863V33.863ZM38.33 34.1821V34.1821ZM38.33 34.1821H38.1705M38.1705 34.1821V34.1821ZM38.1705 34.1821V34.3416M38.1705 34.1821H38.011M38.1705 34.3416V34.3416ZM38.011 34.1821V34.1821ZM38.011 34.1821V34.3416M38.011 34.3416V34.3416ZM38.011 34.3416V34.5012M38.011 34.5012V34.5012ZM38.011 34.5012H37.8514M37.8514 34.5012V34.5012ZM37.8514 34.5012V34.6607M37.8514 34.6607V34.6607ZM37.8514 34.6607H37.6919M37.6919 34.6607V34.6607ZM37.6919 34.6607L37.5324 34.5012M37.5324 34.5012V34.5012ZM37.5324 34.5012H37.3728M37.3728 34.5012V34.5012ZM37.3728 34.5012V34.6607M37.3728 34.6607V34.6607ZM37.3728 34.6607H37.2133M37.2133 34.6607V34.6607ZM37.2133 34.6607L37.0538 34.8202M37.0538 34.8202V34.8202ZM37.0538 34.8202H36.8942M36.8942 34.8202V34.8202ZM36.8942 34.8202V34.9797M36.8942 34.9797V34.9797ZM36.8942 34.9797H36.7347M36.7347 34.9797V34.9797ZM36.7347 34.9797H36.5752M36.5752 34.9797V34.9797ZM36.5752 34.9797H36.4157M36.5752 34.9797L36.4157 35.1393M36.4157 34.9797V34.9797ZM36.4157 35.1393V35.1393ZM36.4157 35.1393V35.2988M36.4157 35.2988V35.2988ZM36.4157 35.2988H36.2561V35.1393M36.2561 35.1393V35.1393ZM36.2561 35.1393H36.0966M36.0966 35.1393V35.1393ZM36.0966 35.1393H35.9371V35.2988M35.9371 35.2988V35.2988ZM35.9371 35.2988H35.7775M35.7775 35.2988V35.2988ZM35.7775 35.2988L35.618 35.4583M35.618 35.4583V35.4583ZM35.618 35.4583V35.6179M35.618 35.6179V35.6179ZM35.618 35.6179V35.7774M35.618 35.7774V35.7774ZM35.618 35.7774V35.9369M35.618 35.9369V35.9369ZM35.618 35.9369V36.0965M35.618 36.0965V36.0965ZM35.618 36.0965V36.256M35.618 36.256V36.256ZM35.618 36.256L35.7775 36.4155M35.7775 36.4155V36.4155ZM35.7775 36.4155V36.575M35.7775 36.575V36.575ZM35.7775 36.575V36.7346H35.618M35.618 36.7346V36.7346ZM35.618 36.7346V36.575M35.618 36.575V36.575ZM35.618 36.575H35.4585M35.4585 36.575V36.575ZM35.4585 36.575H35.2989M35.2989 36.575V36.575ZM35.2989 36.575H35.1394M35.1394 36.575V36.575ZM35.1394 36.575H34.9799M34.9799 36.575V36.575ZM34.9799 36.575V36.4155M34.9799 36.4155V36.4155ZM34.9799 36.4155L34.8204 36.256M34.8204 36.256V36.256ZM34.8204 36.256V36.0965M34.8204 36.0965V36.0965ZM34.8204 36.0965V35.9369M34.8204 35.9369V35.9369ZM34.8204 35.9369H34.6608M34.6608 35.9369V35.9369ZM34.6608 35.9369V35.7774M34.6608 35.7774V35.7774ZM34.6608 35.7774H34.5013M34.5013 35.7774V35.7774ZM34.5013 35.7774H34.3418M34.3418 35.7774V35.7774ZM34.3418 35.7774V35.9369M34.3418 35.9369V35.9369ZM34.3418 35.9369V36.0965M34.3418 35.9369L34.1822 36.0965V35.9369M34.3418 36.0965V36.0965ZM34.1822 35.9369V35.9369ZM34.1822 35.9369H34.0227M34.0227 35.9369V35.9369ZM34.0227 35.9369L34.1822 35.7774M34.1822 35.7774H34.0227M34.1822 35.7774V35.7774ZM34.0227 35.7774V35.7774ZM34.0227 35.7774V35.6179M34.0227 35.7774H33.8632V35.6179M33.8632 35.6179V35.6179ZM33.8632 35.6179H33.7036M33.7036 35.6179V35.6179ZM33.7036 35.6179H33.5441V35.4583M33.5441 35.4583V35.4583ZM33.5441 35.4583H33.3846M33.3846 35.4583V35.4583ZM33.3846 35.4583V35.2988H33.2251M33.2251 35.2988V35.2988ZM33.2251 35.2988V35.1393M33.2251 35.1393V35.1393ZM33.2251 35.1393H33.0655M33.0655 35.1393V35.1393ZM33.0655 35.1393H32.906M32.906 35.1393V35.1393ZM32.906 35.1393L33.2251 34.5012M33.2251 34.5012V34.5012ZM33.2251 34.5012V34.3416M33.2251 34.3416V34.3416ZM33.2251 34.3416H32.906M32.906 34.3416V34.3416ZM32.906 34.3416H32.5869M32.5869 34.3416V34.3416ZM32.5869 34.3416V34.5012H32.4274M32.4274 34.5012V34.3416M32.4274 34.5012V34.5012ZM32.4274 34.5012H32.2679M32.2679 34.5012V34.5012ZM32.2679 34.5012H32.1083V34.6607M32.1083 34.6607V34.6607ZM32.1083 34.6607H31.9488M31.9488 34.6607V34.5012M31.9488 34.6607V34.6607ZM31.9488 34.6607H31.7893M31.7893 34.6607V34.6607ZM31.7893 34.6607V34.8202M31.7893 34.8202V34.8202ZM31.7893 34.8202V34.9797M31.7893 34.9797V34.9797ZM31.7893 34.9797H31.9488M31.9488 34.9797V34.9797ZM31.9488 34.9797V35.1393M31.9488 35.1393V35.1393ZM31.9488 35.1393H31.7893M31.7893 35.1393V35.1393ZM31.7893 35.1393L31.6298 35.2988M31.6298 35.2988V35.2988ZM31.6298 35.2988H31.4702M31.4702 35.2988V35.2988ZM31.4702 35.2988V35.1393M31.4702 35.2988V35.4583M31.4702 35.1393V35.1393ZM31.4702 35.4583V35.4583ZM31.4702 35.4583H31.3107M31.4702 35.4583L31.3107 35.6179M31.3107 35.6179V35.6179ZM31.3107 35.6179H31.4702M31.3107 35.6179V35.7774M31.3107 35.6179H31.1512V35.7774M31.1512 35.7774V35.7774ZM31.1512 35.7774V35.9369M31.1512 35.9369V35.9369ZM31.1512 35.9369H30.9916V36.0965M30.9916 36.0965V36.0965ZM30.9916 36.0965H30.8321M30.8321 36.0965V36.0965ZM30.8321 36.0965V36.256M30.8321 36.256V36.256ZM30.8321 36.256H30.6726M30.6726 36.256V36.256ZM30.6726 36.256H30.513L30.6726 36.4155M30.6726 36.4155V36.4155ZM30.6726 36.4155H30.513M30.513 36.4155V36.4155ZM30.513 36.4155V36.575M30.513 36.575V36.575ZM30.513 36.575H30.3535M30.3535 36.575V36.575ZM30.3535 36.575V36.7346M30.3535 36.7346V36.7346ZM30.3535 36.7346H30.513L30.3535 36.8941M30.3535 36.8941V36.8941ZM30.3535 36.8941V37.0536M30.3535 37.0536V37.0536ZM30.3535 37.0536H30.194M30.194 37.0536V37.0536ZM30.194 37.0536V37.2132L30.0345 37.3727M30.0345 37.3727V37.3727ZM30.0345 37.3727H29.8749M29.8749 37.3727V37.3727ZM29.8749 37.3727H29.7154M29.7154 37.3727V37.3727ZM29.7154 37.3727H29.5559M29.5559 37.3727V37.3727ZM29.5559 37.3727H29.3963M29.3963 37.3727V37.3727ZM29.3963 37.3727V37.5322M29.3963 37.3727L29.2368 37.5322M29.3963 37.5322V37.5322ZM29.2368 37.5322V37.5322ZM29.2368 37.5322V37.3727M29.2368 37.3727V37.3727ZM29.2368 37.3727H29.0773M29.0773 37.3727V37.3727ZM29.0773 37.3727H28.9177V37.2132M28.9177 37.2132V37.2132ZM28.9177 37.2132H28.7582M28.7582 37.2132V37.2132ZM28.7582 37.2132V37.3727M28.7582 37.3727V37.3727ZM28.7582 37.3727H28.5987M28.5987 37.3727V37.3727ZM28.5987 37.3727V37.2132M28.5987 37.3727H28.4392M28.5987 37.2132V37.2132ZM28.4392 37.3727V37.3727ZM28.4392 37.3727V37.2132M28.4392 37.3727H28.2796V37.2132M28.4392 37.2132V37.2132ZM28.2796 37.2132V37.2132ZM28.2796 37.2132H28.1201V37.0536M28.1201 37.0536V37.0536ZM28.1201 37.0536H27.9606M27.9606 37.0536V37.0536ZM27.9606 37.0536H27.801M27.801 37.0536V37.0536ZM27.801 37.0536V37.2132H27.6415M27.6415 37.2132V37.2132ZM27.6415 37.2132H27.482M27.482 37.2132V37.2132ZM27.482 37.2132H27.3224M27.3224 37.2132V37.2132ZM27.3224 37.2132H27.1629M27.1629 37.2132V37.2132ZM27.1629 37.2132H27.0034M27.0034 37.2132V37.2132ZM27.0034 37.2132V37.3727L26.8439 37.2132M26.8439 37.2132V37.2132ZM26.8439 37.2132H26.3653L26.0462 37.3727H25.8867M25.8867 37.3727V37.3727ZM25.8867 37.3727V37.5322M25.8867 37.5322V37.5322ZM25.8867 37.5322V37.6918M25.8867 37.6918V37.6918ZM25.8867 37.6918V37.8513M25.8867 37.8513V37.8513ZM25.8867 37.8513V38.0108M25.8867 38.0108V38.0108ZM25.8867 38.0108V38.1703L25.7271 38.4894H25.8867H26.0462V38.6489L25.8867 39.2871M25.8867 39.2871V39.2871ZM25.8867 39.2871H26.0462V39.4466L26.2057 39.7656V40.0847L26.3653 40.4038V40.5633M26.3653 40.5633V40.5633ZM26.3653 40.5633V40.7228M26.3653 40.7228V40.7228ZM26.3653 40.7228H26.2057M26.2057 40.7228V40.7228ZM26.2057 40.7228V40.8824M26.2057 40.8824V40.8824ZM26.2057 40.8824H26.0462V41.0419M26.0462 41.0419V41.0419ZM26.0462 41.0419H26.2057M26.2057 41.0419V41.0419ZM26.2057 41.0419V41.2014M26.2057 41.2014V41.2014ZM26.2057 41.2014H26.3653M26.3653 41.2014V41.2014ZM26.3653 41.2014L26.5248 41.3609M26.5248 41.3609V41.3609ZM26.5248 41.3609H26.3653L26.5248 41.8395M26.5248 41.8395V41.8395ZM26.5248 41.8395V41.9991M26.5248 41.9991V41.9991ZM26.5248 41.9991H26.3653M26.3653 41.9991V41.9991ZM26.3653 41.9991L26.2057 42.1586L26.0462 42.3181L25.7271 42.1586V41.9991M25.7271 41.9991V41.9991ZM25.7271 41.9991H25.5676M25.5676 41.9991V41.9991ZM25.5676 41.9991H25.4081M25.4081 41.9991V41.9991ZM25.4081 41.9991V41.8395M25.4081 41.8395V41.8395ZM25.4081 41.8395H25.2486M25.2486 41.8395V41.8395ZM25.2486 41.8395V41.9991M25.2486 41.9991V41.9991ZM25.2486 41.9991H25.089M25.089 41.9991V41.9991ZM25.089 41.9991H24.9295M24.9295 41.9991V41.9991ZM24.9295 41.9991V42.1586M24.9295 42.1586H24.77M24.9295 42.1586V42.1586ZM24.77 42.1586V42.1586ZM24.77 42.1586V42.3181M24.77 42.3181V42.3181ZM24.77 42.3181H24.6104M24.6104 42.3181V42.3181ZM24.6104 42.3181H24.4509M24.4509 42.3181V42.3181ZM24.4509 42.3181V42.4777M24.4509 42.4777V42.4777ZM24.4509 42.4777H24.6104M24.6104 42.4777V42.4777ZM24.6104 42.4777L24.4509 42.6372M24.4509 42.6372V42.6372ZM24.4509 42.6372V42.7967M24.4509 42.7967V42.7967ZM24.4509 42.7967V42.9562M24.4509 42.9562V42.9562ZM24.4509 42.9562V43.1158H24.2914M24.2914 43.1158V43.1158ZM24.2914 43.1158V43.2753M24.2914 43.2753V43.2753ZM24.2914 43.2753H24.4509M24.4509 43.2753V43.2753ZM24.4509 43.2753V43.4348M24.4509 43.4348V43.4348ZM24.4509 43.4348V43.5944M24.4509 43.5944V43.5944ZM24.4509 43.5944H24.2914V43.7539M24.2914 43.7539V43.7539ZM24.2914 43.7539V43.9134M24.2914 43.9134V43.9134ZM24.2914 43.9134H24.4509M24.4509 43.9134V43.9134ZM24.4509 43.9134V44.073M24.4509 44.073V44.073ZM24.4509 44.073L24.2914 44.2325M24.2914 44.2325V44.2325ZM24.2914 44.2325H24.1318M24.1318 44.2325V44.2325ZM24.1318 44.2325V44.392M24.1318 44.392V44.392ZM24.1318 44.392V44.5515M24.1318 44.5515V44.5515ZM24.1318 44.5515H23.9723V44.7111M23.9723 44.7111V44.7111ZM23.9723 44.7111H23.8128M23.8128 44.7111V44.7111ZM23.8128 44.7111H23.6533M23.6533 44.7111V44.7111ZM23.6533 44.7111V44.8706M23.6533 44.8706V44.8706ZM23.6533 44.8706H23.4937M23.4937 44.8706V44.8706ZM23.4937 44.8706V45.0301M23.4937 44.8706H23.3342M23.4937 45.0301V45.0301ZM23.4937 45.0301H23.3342M23.3342 44.8706V44.8706ZM23.3342 44.8706V45.0301M23.3342 45.0301V45.0301ZM23.3342 45.0301H23.1747M23.1747 45.0301V45.0301ZM23.1747 45.0301V45.1897M23.1747 45.0301H23.0151M23.1747 45.1897V45.1897ZM23.0151 45.0301V45.0301ZM23.0151 45.0301V44.8706L20.6222 45.0301M20.6222 45.0301V45.0301ZM20.6222 45.0301H20.7817M20.7817 45.0301V45.0301ZM20.7817 45.0301V44.8706M20.7817 44.8706V44.8706ZM20.7817 44.8706V44.7111M20.7817 44.7111H20.9412M20.7817 44.7111V44.7111ZM20.7817 44.7111H20.6222M20.9412 44.7111V44.7111ZM20.6222 44.7111V44.7111ZM20.6222 44.7111L20.4627 44.5515M20.4627 44.5515V44.5515ZM20.4627 44.5515H20.3031V44.392L20.1436 44.2325M20.1436 44.2325V44.2325ZM20.1436 44.2325V44.073H20.3031M20.3031 44.073V44.073ZM20.3031 44.073L20.1436 43.9134M20.1436 43.9134V43.9134ZM20.1436 43.9134H19.9841M19.9841 43.9134V43.9134ZM19.9841 43.9134V43.7539L19.8245 43.9134M19.8245 43.9134V43.9134ZM19.8245 43.9134V43.7539M19.8245 43.7539V43.7539ZM19.8245 43.7539H19.665M19.665 43.7539V43.7539ZM19.665 43.7539V43.9134M19.665 43.7539H19.5055M19.665 43.9134V43.9134ZM19.5055 43.7539V43.9134M19.5055 43.7539V43.7539ZM19.5055 43.7539V43.5944M19.5055 43.9134V43.9134ZM19.5055 43.5944V43.5944ZM19.5055 43.5944V43.4348M19.5055 43.4348V43.4348ZM19.5055 43.4348V43.2753M19.5055 43.2753V43.2753ZM19.5055 43.2753V43.1158L19.3459 42.9562M19.3459 42.9562V42.9562ZM19.3459 42.9562V42.7967M19.3459 42.7967H19.1864M19.3459 42.7967V42.7967ZM19.3459 42.7967V42.6372M19.3459 42.7967H19.5055M19.1864 42.7967V42.7967ZM19.3459 42.6372V42.6372ZM19.3459 42.6372L19.5055 42.4777M19.3459 42.6372V42.4777M19.3459 42.6372H19.1864M19.5055 42.7967V42.7967ZM19.5055 42.7967V42.9562M19.5055 42.7967V42.6372M19.5055 42.9562V42.9562ZM19.5055 42.6372V42.6372ZM19.5055 42.6372V42.4777M19.5055 42.4777V42.4777ZM19.3459 42.4777V42.4777ZM19.3459 42.4777H19.1864M19.3459 42.4777L19.1864 42.6372M19.1864 42.4777V42.4777ZM19.1864 42.4777V42.6372M19.1864 42.4777H19.0269M19.1864 42.6372V42.6372ZM19.0269 42.4777V42.4777ZM19.0269 42.4777V42.3181M19.0269 42.3181V42.3181ZM19.0269 42.3181H19.1864M19.0269 42.3181H18.8674M19.1864 42.3181V42.3181ZM19.1864 42.3181V42.1586M18.8674 42.3181V42.3181ZM18.8674 42.3181H18.7078M18.7078 42.3181V42.3181ZM18.7078 42.3181V42.1586M18.7078 42.1586V42.1586ZM18.7078 42.1586L18.8674 41.9991M18.8674 41.9991V41.9991ZM18.8674 41.9991H19.0269M18.8674 41.9991L19.0269 42.1586M19.0269 41.9991V41.9991ZM19.0269 41.9991V42.1586M19.0269 42.1586V42.1586ZM19.0269 42.1586H18.8674M19.0269 42.1586H19.1864M19.1864 42.1586V42.1586ZM19.1864 42.1586H19.3459M19.3459 42.1586V42.1586ZM19.3459 42.1586V41.9991M19.3459 42.1586H19.5055M19.3459 41.9991V41.9991ZM19.3459 41.9991L19.5055 42.1586M19.3459 41.9991H19.5055M19.5055 42.1586V42.1586ZM19.5055 42.1586V41.9991M19.5055 41.9991V41.9991ZM19.5055 41.9991V41.8395M19.5055 41.8395V41.8395ZM19.5055 41.8395H19.3459M19.5055 41.8395H19.665M19.5055 41.8395V41.68M19.3459 41.8395V41.8395ZM19.3459 41.8395V41.68M19.665 41.8395V41.8395ZM19.665 41.8395V41.68M19.5055 41.68H19.665M19.5055 41.68V41.68ZM19.5055 41.68H19.3459M19.5055 41.68V41.5205M19.5055 41.68L19.3459 41.5205M19.665 41.68V41.68ZM19.665 41.68L19.5055 41.5205M19.665 41.68H19.8245M19.665 41.68V41.5205M19.3459 41.68V41.68ZM19.3459 41.68V41.5205M19.5055 41.5205V41.5205ZM19.5055 41.5205H19.665M19.5055 41.5205H19.3459M19.5055 41.5205V41.3609M19.8245 41.68V41.68ZM19.8245 41.68V41.8395M19.8245 41.68V41.5205M19.8245 41.8395V41.8395ZM19.8245 41.5205V41.5205ZM19.665 41.5205V41.5205ZM19.665 41.5205V41.3609M19.3459 41.5205V41.5205ZM19.5055 41.3609V41.3609ZM19.665 41.3609V41.3609ZM19.665 41.3609H19.8245M19.8245 41.3609V41.3609ZM19.8245 41.3609H19.9841M19.9841 41.3609V41.3609ZM19.9841 41.3609V41.2014M19.9841 41.2014V41.2014ZM19.9841 41.2014V41.0419M19.9841 41.2014L20.1436 41.0419M19.9841 41.0419V41.0419ZM19.9841 41.0419H20.1436M19.9841 41.0419V40.8824M19.9841 41.0419H19.8245V40.8824M20.1436 41.0419V41.0419ZM19.9841 40.8824V40.8824ZM19.9841 40.8824H19.8245M19.8245 40.8824V40.8824ZM19.8245 40.8824H19.665M19.665 40.8824V40.8824ZM19.665 40.8824V40.7228M19.665 40.8824H19.5055M19.665 40.7228V40.7228ZM19.665 40.7228H19.5055M19.5055 40.8824V40.8824ZM19.5055 40.8824V40.7228M19.5055 40.8824V41.0419M19.5055 40.8824H19.3459M19.5055 40.7228V40.7228ZM19.5055 41.0419V41.0419ZM19.5055 41.0419H19.665M19.3459 40.8824V40.8824ZM19.3459 40.8824H19.1864M19.1864 40.8824V40.8824ZM19.1864 40.8824L19.3459 40.7228M19.1864 40.8824V40.7228M19.1864 40.8824H19.0269M19.3459 40.7228V40.7228ZM19.3459 40.7228H19.1864M19.1864 40.7228V40.7228ZM19.0269 40.8824V40.7228M19.0269 40.8824V40.8824ZM19.0269 40.8824H18.8674M19.0269 40.8824L18.8674 41.0419M19.0269 40.8824V41.0419M19.0269 40.7228V40.7228ZM18.8674 40.8824V40.8824ZM18.8674 40.8824V41.0419M18.8674 41.0419V41.0419ZM18.8674 41.0419H19.0269M18.8674 41.0419V41.2014M19.0269 41.0419V41.0419ZM18.8674 41.2014V41.2014ZM18.8674 41.2014H18.7078M18.7078 41.2014V41.2014ZM18.7078 41.2014V41.3609M18.7078 41.2014V41.0419M18.7078 41.2014H18.5483M18.7078 41.0419V41.0419ZM18.5483 41.2014V41.0419M18.5483 41.2014V41.3609M18.5483 41.2014V41.2014ZM18.5483 41.2014H18.3888M18.5483 41.0419V41.0419ZM18.5483 41.3609V41.3609ZM18.3888 41.2014V41.2014ZM18.3888 41.2014V41.3609M18.3888 41.2014V41.0419M18.3888 41.2014H18.2292M18.3888 41.3609V41.3609ZM18.3888 41.0419V41.0419ZM18.2292 41.2014V41.2014ZM18.2292 41.2014H18.0697M18.2292 41.2014V41.3609M18.0697 41.2014V41.2014ZM18.0697 41.2014V41.3609M18.0697 41.2014H17.9102M18.0697 41.2014V41.0419M18.2292 41.3609H18.0697M18.2292 41.3609V41.3609ZM18.0697 41.3609V41.3609ZM18.0697 41.3609H17.9102M17.9102 41.3609V41.3609ZM17.9102 41.3609V41.5205M17.9102 41.3609V41.2014M17.9102 41.5205V41.5205ZM17.9102 41.5205H18.0697M18.0697 41.5205V41.5205ZM18.0697 41.5205V41.68M18.0697 41.68V41.68ZM18.0697 41.68V41.8395M18.0697 41.8395V41.8395ZM18.0697 41.8395V41.9991M18.0697 41.8395H17.9102M18.0697 41.9991V41.9991ZM18.0697 41.9991H17.9102V41.8395M17.9102 41.8395V41.8395ZM17.9102 41.8395H17.7506M17.7506 41.8395V41.8395ZM17.7506 41.8395V41.9991M17.7506 41.8395H17.5911M17.5911 41.8395V41.8395ZM17.5911 41.8395H17.4316M17.4316 41.8395V41.8395ZM17.4316 41.8395V41.68M17.4316 41.68V41.68ZM17.4316 41.68H17.2721M17.2721 41.68V41.68ZM17.2721 41.68V41.5205M17.2721 41.5205V41.5205ZM17.2721 41.5205H17.4316M17.4316 41.5205V41.5205ZM17.4316 41.5205L17.2721 41.3609M17.2721 41.3609V41.3609ZM17.2721 41.3609H17.4316M17.4316 41.3609V41.3609ZM17.4316 41.3609V41.2014M17.4316 41.3609H17.5911M17.5911 41.3609V41.2014M17.5911 41.3609V41.3609ZM17.5911 41.3609H17.7506M17.5911 41.2014V41.2014ZM17.7506 41.3609V41.3609ZM17.7506 41.3609V41.2014H17.9102M17.9102 41.2014V41.2014ZM18.0697 41.0419V41.0419ZM18.0697 41.0419V40.8824M18.0697 40.8824V40.8824ZM18.0697 40.8824H17.9102M18.0697 40.8824V40.7228M17.9102 40.8824V40.7228M17.9102 40.8824V40.8824ZM18.0697 40.7228V40.7228ZM18.0697 40.7228H17.9102M17.9102 40.7228V40.7228ZM17.9102 40.7228H17.7506M17.9102 40.7228L17.7506 40.5633M17.7506 40.7228V40.7228ZM17.7506 40.7228V40.5633M17.7506 40.7228L17.9102 40.5633H17.7506M17.7506 40.5633V40.5633ZM17.7506 40.5633L17.9102 40.4038M17.9102 40.4038V40.4038ZM17.9102 40.4038H18.0697M17.9102 40.4038V40.2442M17.9102 40.4038H17.7506M18.0697 40.4038V40.4038ZM18.0697 40.4038H18.2292M18.0697 40.4038V40.2442M18.2292 40.4038V40.4038ZM18.0697 40.2442V40.2442ZM17.7506 40.4038V40.4038ZM17.7506 40.4038H17.5911M17.5911 40.4038V40.4038ZM17.5911 40.4038V40.2442M17.5911 40.4038H17.4316M17.5911 40.2442V40.2442ZM17.5911 40.2442H17.4316M17.4316 40.2442V40.2442ZM17.4316 40.2442V40.4038M17.4316 40.2442H17.2721M17.4316 40.4038V40.4038ZM17.4316 40.4038H17.2721M17.2721 40.2442V40.2442ZM17.2721 40.2442V40.0847M17.2721 40.2442V40.4038M17.2721 40.0847V40.0847ZM17.2721 40.0847H17.1125M17.2721 40.4038V40.4038ZM17.2721 40.4038V40.5633M17.2721 40.4038H17.1125M17.2721 40.5633V40.5633ZM17.2721 40.5633H17.4316M17.2721 40.5633H17.1125M17.2721 40.5633V40.7228M17.4316 40.5633V40.5633ZM17.1125 40.5633V40.5633ZM17.1125 40.5633V40.7228M17.1125 40.5633H16.953M17.1125 40.4038V40.4038ZM17.1125 40.4038V40.2442M17.1125 40.2442V40.2442ZM17.1125 40.2442H16.953M16.953 40.2442V40.2442ZM17.2721 40.7228V40.7228ZM17.2721 40.7228H17.1125M17.1125 40.7228V40.7228ZM17.1125 40.7228H16.953M17.1125 40.7228V40.8824M16.953 40.5633V40.5633ZM16.953 40.7228V40.7228ZM17.1125 40.8824V40.8824ZM17.1125 40.8824H17.2721M17.1125 40.8824L16.953 41.0419M17.1125 40.8824V41.0419M17.2721 40.8824V40.8824ZM16.953 41.0419V41.2014M16.953 41.0419V41.0419ZM16.953 41.0419V40.8824M16.953 41.0419H16.7935M17.1125 41.0419V41.0419ZM17.1125 41.0419V41.2014M17.1125 41.2014V41.2014ZM17.1125 41.2014V41.3609M17.1125 41.3609V41.3609ZM17.1125 41.3609H16.953M16.953 41.3609V41.2014M16.953 41.3609V41.3609ZM16.953 41.3609H16.7935M16.953 41.2014V41.2014ZM16.953 40.8824V40.8824ZM16.7935 41.3609V41.3609ZM16.7935 41.3609V41.2014M16.7935 41.2014V41.2014ZM16.7935 41.2014H16.6339M16.6339 41.2014V41.2014ZM16.6339 41.2014V41.3609M16.6339 41.2014H16.4744M16.6339 41.3609V41.3609ZM16.4744 41.2014V41.2014ZM16.4744 41.2014V41.0419M16.4744 41.2014V41.3609M16.4744 41.0419V41.0419ZM16.4744 41.3609V41.3609ZM16.4744 41.3609H16.3149M16.3149 41.3609V41.3609ZM16.3149 41.3609V41.2014M16.3149 41.2014V41.2014ZM16.3149 41.2014H16.1553M16.1553 41.2014V41.2014ZM16.1553 41.2014H15.9958M15.9958 41.2014V41.2014ZM15.9958 41.2014V41.0419M15.9958 41.0419V41.0419ZM15.9958 41.0419H15.8363M15.8363 41.0419V41.0419ZM15.8363 41.0419V40.8824M15.8363 40.8824V40.8824ZM15.8363 40.8824H15.9958M15.9958 40.8824V40.8824ZM15.9958 40.8824L16.1553 40.7228M16.1553 40.7228V40.7228ZM16.1553 40.7228H16.3149M16.3149 40.7228V40.7228ZM16.3149 40.7228V40.5633M16.3149 40.5633V40.5633ZM16.3149 40.5633H16.4744M16.4744 40.5633V40.5633ZM16.4744 40.5633V40.7228M16.4744 40.5633H16.6339M16.4744 40.7228V40.7228ZM16.6339 40.5633V40.5633ZM16.6339 40.5633H16.7935V40.4038M16.7935 40.4038V40.4038ZM16.7935 40.4038V40.2442M16.7935 40.2442V40.2442ZM16.7935 40.2442L16.6339 40.0847M16.6339 40.0847V40.0847ZM16.6339 40.0847L16.7935 39.9252M16.7935 39.9252V39.9252ZM16.7935 39.9252H16.6339M16.6339 39.9252V39.9252ZM16.6339 39.9252H16.4744M16.4744 39.9252V39.9252ZM16.4744 39.9252L16.3149 39.7656V39.9252M16.3149 39.9252V39.9252ZM16.3149 39.9252H16.1553M16.1553 39.9252V39.9252ZM16.1553 39.9252V39.7656M16.1553 39.7656V39.7656ZM16.1553 39.7656H15.9958M16.1553 39.7656V39.6061M15.9958 39.7656V39.7656ZM16.1553 39.6061V39.6061ZM16.1553 39.6061V39.4466M16.1553 39.4466V39.4466ZM16.1553 39.4466V39.2871M16.1553 39.2871V39.2871ZM16.1553 39.2871V39.1275M16.1553 39.1275V39.1275ZM16.1553 39.1275H16.3149M16.3149 39.1275V39.1275ZM16.3149 39.1275V38.968M16.3149 38.968H16.4744M16.3149 38.968V38.8085H16.4744M16.4744 38.968V38.968ZM16.4744 38.8085V38.8085ZM16.4744 38.8085V38.6489M16.4744 38.6489V38.6489ZM16.4744 38.6489V38.4894M16.4744 38.4894V38.4894ZM16.4744 38.4894H16.3149M16.3149 38.4894V38.4894ZM16.3149 38.4894L16.4744 38.3299M16.4744 38.3299H16.3149M16.4744 38.3299V38.3299ZM16.4744 38.3299V38.1703M16.4744 38.1703V38.1703ZM16.4744 38.1703V38.0108M16.4744 38.0108V38.0108ZM16.4744 38.0108H16.6339M16.6339 38.0108V38.0108ZM16.6339 38.0108V37.8513M16.6339 37.8513V37.8513ZM16.6339 37.8513V37.6918M16.6339 37.6918V37.6918ZM16.6339 37.6918V37.5322M16.6339 37.5322V37.5322ZM16.6339 37.5322V37.3727M16.6339 37.3727V37.3727ZM16.6339 37.3727H16.7935M16.7935 37.3727V37.3727ZM16.7935 37.3727V37.2132M16.7935 37.2132V37.2132ZM16.7935 37.2132V37.0536M16.7935 37.0536V37.0536ZM16.7935 37.0536V36.8941M16.7935 36.8941V36.8941ZM16.7935 36.8941H16.6339M16.6339 36.8941V36.8941ZM16.6339 36.8941V36.7346M16.6339 36.7346V36.7346ZM16.6339 36.7346H16.4744M16.4744 36.7346V36.7346ZM16.4744 36.7346V36.575M16.4744 36.575V36.575ZM16.4744 36.575V36.4155M16.4744 36.4155V36.4155ZM16.4744 36.4155H16.3149M16.3149 36.4155V36.4155ZM16.3149 36.4155V36.256M16.3149 36.256V36.256ZM16.3149 36.256H16.1553M16.1553 36.256V36.256ZM16.1553 36.256H15.9958M15.9958 36.256V36.256ZM15.9958 36.256V36.0965M15.9958 36.0965V36.0965ZM15.9958 36.0965V35.9369M15.9958 35.9369V35.9369ZM15.9958 35.9369L15.8363 35.7774L15.6768 35.9369H15.5172V36.0965M15.5172 36.0965V36.0965ZM15.5172 36.0965H15.3577M15.3577 36.0965V36.0965ZM15.3577 36.0965H15.1982M15.1982 36.0965V36.0965ZM15.1982 36.0965H15.0386M15.0386 36.0965V36.0965ZM15.0386 36.0965H14.8791M14.8791 36.0965V36.0965ZM14.8791 36.0965H14.7196M14.8791 36.0965V36.256H14.7196M14.7196 36.0965V36.0965ZM14.7196 36.0965V36.256M14.7196 36.0965H14.56M14.7196 36.256V36.256ZM14.56 36.0965V36.0965ZM14.56 36.0965H14.4005M14.4005 36.0965V36.0965ZM14.4005 36.0965H14.241M14.241 36.0965V36.0965ZM14.241 36.0965V36.256M14.241 36.256V36.256ZM14.241 36.256H14.0815M14.0815 36.256V36.256ZM14.0815 36.256H13.9219M13.9219 36.256V36.256ZM13.9219 36.256V36.4155M13.9219 36.256V36.0965M13.9219 36.4155V36.4155ZM13.9219 36.0965V36.0965ZM13.9219 36.0965H13.7624M13.7624 36.0965V36.0965ZM13.7624 36.0965V35.9369M13.7624 35.9369V35.9369ZM13.7624 35.9369H13.6029M13.6029 35.9369V35.9369ZM13.6029 35.9369V35.7774M13.6029 35.7774V35.7774ZM13.6029 35.7774V35.6179H13.4433M13.4433 35.6179V35.6179ZM13.4433 35.6179V35.4583M13.4433 35.4583V35.4583ZM13.4433 35.4583V35.2988H13.2838M13.2838 35.2988V35.2988ZM13.2838 35.2988V35.1393H12.9647M12.9647 35.1393V35.1393ZM12.9647 35.1393H12.8052M12.8052 35.1393V35.1393ZM12.8052 35.1393H12.6457M12.6457 35.1393V35.1393ZM12.6457 35.1393H12.4862M12.4862 35.1393V35.2988M12.4862 35.1393V35.1393ZM12.4862 35.2988V35.2988ZM12.4862 35.2988H12.3266M12.3266 35.2988V35.2988ZM12.3266 35.2988V35.1393M12.3266 35.1393V35.1393ZM12.3266 35.1393H12.1671M12.1671 35.1393V35.1393ZM12.1671 35.1393H12.0076M12.0076 35.1393V35.1393ZM12.0076 35.1393H11.848M11.848 35.1393V35.1393ZM11.848 35.1393H11.6885M11.848 35.1393V35.2988M11.6885 35.1393V35.1393ZM11.848 35.2988V35.2988ZM11.848 35.2988V35.4583M11.848 35.4583V35.4583ZM11.848 35.4583H12.0076L11.848 35.6179M11.848 35.6179V35.6179ZM11.848 35.6179H11.529M11.529 35.6179V35.6179ZM11.529 35.6179V35.7774M11.529 35.7774V35.7774ZM11.529 35.7774V35.9369M11.529 35.9369V35.9369ZM11.529 35.9369H11.3694M11.3694 35.9369V35.9369ZM11.3694 35.9369H11.2099M11.2099 35.9369V35.9369ZM11.2099 35.9369H11.0504M11.0504 35.9369V35.9369ZM11.0504 35.9369V36.0965M11.0504 36.0965V36.0965ZM11.0504 36.0965H10.8909M10.8909 36.0965V36.0965ZM10.8909 36.0965H10.7313M10.7313 36.0965V36.0965ZM10.7313 36.0965V36.256M10.7313 36.256V36.256ZM10.7313 36.256H10.5718M10.5718 36.256V36.4155M10.5718 36.256H10.4123M10.5718 36.4155V36.4155ZM10.4123 36.256V36.256ZM10.4123 36.256H10.2527M10.2527 36.256V36.256ZM10.2527 36.256H10.0932M10.0932 36.256V36.256ZM10.0932 36.256H9.93368M9.93368 36.256V36.256ZM9.93368 36.256L9.77415 36.4155M9.77415 36.4155V36.4155ZM9.77415 36.4155H9.61462M9.61462 36.4155V36.4155ZM9.61462 36.4155V36.575M9.61462 36.575V36.575ZM9.61462 36.575H9.45509M9.45509 36.575V36.575ZM9.45509 36.575V36.4155M9.45509 36.4155V36.4155ZM9.45509 36.4155H9.29556M9.29556 36.4155V36.4155ZM9.29556 36.4155V36.256M9.29556 36.256V36.256ZM9.29556 36.256V36.0965M9.29556 36.0965V36.0965ZM9.29556 36.0965H9.13603V35.9369M9.13603 35.9369V35.9369ZM9.13603 35.9369V35.7774M9.13603 35.7774V35.7774ZM9.13603 35.7774V35.6179M9.13603 35.6179V35.6179ZM9.13603 35.6179H9.29556M9.29556 35.6179V35.6179ZM9.29556 35.6179V35.4583M9.29556 35.4583V35.4583ZM9.29556 35.4583L9.13603 35.2988M9.13603 35.2988V35.2988ZM9.13603 35.2988H8.9765M8.9765 35.2988V35.2988ZM8.9765 35.2988V35.1393M8.9765 35.2988H8.81697M8.81697 35.2988V35.2988ZM8.81697 35.2988H8.65744M8.65744 35.2988V35.2988ZM8.65744 35.2988H8.49791M8.49791 35.2988V35.2988ZM8.49791 35.2988V35.1393M8.49791 35.1393V35.1393ZM8.49791 35.1393V34.9797M8.49791 34.9797V34.9797ZM8.49791 34.9797H8.33838M8.33838 34.9797V34.9797ZM8.33838 34.9797H8.17885M8.17885 34.9797V34.9797ZM8.17885 34.9797H8.01932V34.8202M8.01932 34.8202V34.8202ZM8.01932 34.8202H7.85979M7.85979 34.8202V34.9797M7.85979 34.8202V34.8202ZM7.85979 34.8202H7.70026M7.85979 34.9797V34.9797ZM7.70026 34.8202V34.8202ZM7.70026 34.8202V34.9797M7.70026 34.9797V34.9797ZM7.70026 34.9797H7.54073M7.54073 34.9797V34.9797ZM7.54073 34.9797V34.8202M7.54073 34.8202V34.8202ZM7.54073 34.8202H7.3812M7.54073 34.8202V34.6607H7.3812M7.3812 34.8202V34.8202ZM7.3812 34.6607V34.6607ZM7.3812 34.6607H7.22167M7.22167 34.6607V34.6607ZM7.22167 34.6607L6.90261 33.7035L6.42402 33.3844L6.26449 33.7035M6.26449 33.7035V33.7035ZM6.26449 33.7035V33.863M6.26449 33.863V33.863ZM6.26449 33.863V34.0226M6.26449 34.0226V34.0226ZM6.26449 34.0226H6.10496M6.10496 34.0226V34.0226ZM6.10496 34.0226V33.863H5.94543M5.94543 33.863V33.863ZM5.94543 33.863V33.7035M5.94543 33.7035V33.7035ZM5.94543 33.7035V33.544M5.94543 33.544V33.544ZM5.94543 33.544H5.7859M5.7859 33.544V33.544ZM5.7859 33.544V33.3844M5.7859 33.3844V33.3844ZM5.7859 33.3844V33.2249H5.62637M5.62637 33.2249V33.2249ZM5.62637 33.2249H5.46684M5.46684 33.2249V33.2249ZM5.46684 33.2249H5.30731L5.46684 33.0654H5.30731M5.30731 33.0654V33.0654ZM5.30731 33.0654H5.14778M5.14778 33.0654V33.0654ZM5.14778 33.0654H4.98825M4.98825 33.0654V33.0654ZM4.98825 33.0654H4.82872M4.82872 33.0654V33.0654ZM4.82872 33.0654V32.9059M4.82872 32.9059V32.9059ZM4.82872 32.9059H4.66919M4.66919 32.9059V32.9059ZM4.66919 32.9059V32.7463M4.66919 32.7463V32.7463ZM4.66919 32.7463V32.5868M4.66919 32.5868V32.5868ZM4.66919 32.5868H4.50966M4.50966 32.5868V32.5868ZM4.50966 32.5868V32.4273M4.50966 32.4273V32.4273ZM4.50966 32.4273H4.35013M4.35013 32.4273V32.4273ZM4.35013 32.4273H4.1906M4.1906 32.4273V32.4273ZM4.1906 32.4273V32.2677M4.1906 32.2677V32.2677ZM4.1906 32.2677V32.1082M4.1906 32.1082V32.1082ZM4.1906 32.1082V31.9487M4.1906 31.9487V31.9487ZM4.1906 31.9487H4.03107M4.03107 31.9487V31.9487ZM4.03107 31.9487V31.7891M4.03107 31.7891V31.7891ZM4.03107 31.7891H3.87154M3.87154 31.7891V31.7891ZM3.87154 31.7891H3.71201M3.71201 31.7891V31.7891ZM3.71201 31.7891V31.6296M3.71201 31.6296V31.6296ZM3.71201 31.6296H3.55248M3.71201 31.6296V31.4701M3.55248 31.6296V31.6296ZM3.71201 31.4701V31.4701ZM3.71201 31.4701V31.3106M3.71201 31.3106V31.3106ZM3.71201 31.3106H3.55248M3.55248 31.3106V31.3106ZM3.55248 31.3106V31.151M3.55248 31.151V31.151ZM3.55248 31.151H3.39295V30.9915M3.39295 30.9915V30.9915ZM3.39295 30.9915L2.75483 31.4701M2.75483 31.4701V31.4701ZM2.75483 31.4701H2.5953M2.5953 31.4701V31.4701ZM2.5953 31.4701H2.43577M2.43577 31.4701V31.4701ZM2.43577 31.4701V31.3106M2.43577 31.3106V31.3106ZM2.43577 31.3106V31.151M2.43577 31.151V31.151ZM2.43577 31.151H2.27624M2.27624 31.151V31.151ZM2.27624 31.151H2.11671M2.11671 31.151V31.151ZM2.11671 31.151H1.95718H1.79765L1.63812 30.9915M1.63812 30.9915V30.9915ZM1.63812 30.9915H1.47859M1.47859 30.9915V30.9915ZM1.47859 30.9915H1.31906V30.832M1.31906 30.832V30.832ZM1.31906 30.832L1.15953 30.6724M1.15953 30.6724V30.6724ZM1.15953 30.6724L1 30.832M1 30.832V30.832ZM1 30.832V30.6724M1 30.6724V30.6724ZM1 30.6724V30.5129M1 30.5129V30.5129ZM1 30.5129V30.3534M1 30.3534V30.3534ZM1 30.3534H1.15953M1.15953 30.3534V30.3534ZM1.15953 30.3534H1.31906M1.31906 30.3534V30.3534ZM1.31906 30.3534V30.1938M1.31906 30.1938V30.1938ZM1.31906 30.1938H1.47859M1.47859 30.1938V30.1938ZM1.47859 30.1938V30.0343M1.47859 30.0343V30.0343ZM1.47859 30.0343H1.63812M1.63812 30.0343V30.0343ZM1.63812 30.0343V29.8748M1.63812 29.8748V29.8748ZM1.63812 29.8748V29.7153H1.79765M1.79765 29.7153V29.7153ZM1.79765 29.7153H1.95718V29.5557M1.95718 29.5557V29.5557ZM1.95718 29.5557V29.3962M1.95718 29.3962V29.3962ZM1.95718 29.3962H2.11671M2.11671 29.3962V29.3962ZM2.11671 29.3962V29.2367M2.11671 29.2367V29.2367ZM2.11671 29.2367H2.43577M2.43577 29.2367V29.2367ZM2.43577 29.2367L2.5953 29.3962M2.5953 29.3962V29.3962ZM2.5953 29.3962H2.75483M2.75483 29.3962V29.3962ZM2.75483 29.3962H2.91436M2.91436 29.3962V29.3962ZM2.91436 29.3962V29.2367M2.91436 29.2367V29.2367ZM2.91436 29.2367V29.0771M2.91436 29.0771V29.0771ZM2.91436 29.0771H3.07389M2.91436 29.0771V28.9176M3.07389 29.0771V29.0771ZM2.91436 28.9176V28.9176ZM2.91436 28.9176H3.07389M3.07389 28.9176V28.9176ZM3.07389 28.9176V28.7581M3.07389 28.7581V28.7581ZM3.07389 28.7581H2.91436M2.91436 28.7581V28.7581ZM2.91436 28.7581V28.5985M2.91436 28.5985V28.5985ZM2.91436 28.5985V28.439M2.91436 28.439V28.439Z" stroke="#31A5E5"/>
<path d="M51.8895 20.4624V20.3029H51.7299M51.8895 20.4624V20.4624ZM51.8895 20.4624H52.049M51.8895 20.4624V20.6219M51.8895 20.4624H51.7299M52.049 20.4624V20.4624ZM52.049 20.4624V20.6219M52.049 20.6219V20.6219ZM52.049 20.6219V20.7814M52.049 20.7814V20.7814ZM52.049 20.7814V20.941M52.049 20.941H52.2085M52.049 20.941V21.1005M52.049 20.941H51.8895M52.2085 20.941V20.941ZM52.2085 20.941L52.049 21.1005M52.049 21.1005V21.1005ZM51.8895 20.941V20.941ZM51.8895 20.941V20.7814M51.8895 20.7814V20.7814ZM51.8895 20.7814V20.6219M51.8895 20.6219V20.6219ZM51.7299 20.4624V20.4624ZM51.7299 20.4624V20.3029M51.7299 20.3029V20.3029Z" stroke="#31A5E5"/>
<path d="M28.7567 15.3577V15.3577ZM28.7567 15.3577V15.5159M28.7567 15.3577H28.5985M28.7567 15.5159V15.5159ZM28.7567 15.5159H28.5985M28.5985 15.5159V15.5159ZM28.5985 15.5159V15.3577M28.5985 15.3577V15.3577Z" stroke="#31A5E5"/>
<path d="M23 14.6C23.5683 14.6 24.1134 14.8107 24.5152 15.1858C24.9171 15.5609 25.1429 16.0696 25.1429 16.6C25.1429 16.8626 25.0874 17.1227 24.9797 17.3654C24.8721 17.608 24.7142 17.8285 24.5152 18.0142C24.3162 18.1999 24.08 18.3472 23.82 18.4478C23.5601 18.5483 23.2814 18.6 23 18.6C22.4317 18.6 21.8866 18.3893 21.4848 18.0142C21.0829 17.6391 20.8571 17.1304 20.8571 16.6C20.8571 16.0696 21.0829 15.5609 21.4848 15.1858C21.8866 14.8107 22.4317 14.6 23 14.6ZM23 11C24.5913 11 26.1174 11.59 27.2426 12.6402C28.3679 13.6904 29 15.1148 29 16.6C29 20.8 23 27 23 27C23 27 17 20.8 17 16.6C17 15.1148 17.6321 13.6904 18.7574 12.6402C19.8826 11.59 21.4087 11 23 11ZM23 12.6C21.8634 12.6 20.7733 13.0214 19.9695 13.7716C19.1658 14.5217 18.7143 15.5391 18.7143 16.6C18.7143 17.4 18.7143 19 23 24.368C27.2857 19 27.2857 17.4 27.2857 16.6C27.2857 15.5391 26.8342 14.5217 26.0305 13.7716C25.2267 13.0214 24.1366 12.6 23 12.6Z" fill="white"/>
</svg>
