<svg width="79" height="93" viewBox="0 0 79 93" fill="none" xmlns="http://www.w3.org/2000/svg">
<path d="M53.369 91.9747V91.9747ZM53.369 91.9747H53.5272M53.369 91.9747V92.1329H53.5272M53.5272 91.9747V91.9747ZM53.5272 91.9747V92.1329M53.5272 92.1329V92.1329Z" stroke="#31A5E5"/>
<path d="M53.6861 91.6559V91.6559ZM53.6861 91.6559H53.5279M53.5279 91.6559V91.6559Z" stroke="#31A5E5"/>
<path d="M27.2052 21.3032H27.3647M27.2052 21.3032V21.3032ZM27.3647 21.3032L27.2052 21.1436H27.3647M27.3647 21.3032V21.4627M27.3647 21.3032V21.3032ZM27.3647 21.1436V21.1436ZM27.3647 21.1436V20.9841M27.3647 20.9841V20.9841ZM27.3647 20.9841V20.8246M27.3647 20.8246V20.8246ZM27.3647 20.8246H27.5243M27.5243 20.8246V20.8246ZM27.5243 20.8246V20.665M27.5243 20.665V20.665ZM27.5243 20.665H27.6838M27.6838 20.665V20.665ZM27.6838 20.665V20.8246M27.6838 20.8246V20.8246ZM27.6838 20.8246V20.9841M27.6838 20.9841H27.8433M27.6838 20.9841V20.9841ZM27.6838 20.9841V21.1436M27.8433 20.9841V20.9841ZM27.6838 21.1436H27.8433M27.6838 21.1436V21.1436ZM27.6838 21.1436V21.3032M27.8433 21.1436V21.1436ZM27.6838 21.3032V21.3032ZM27.6838 21.3032V21.4627M27.6838 21.4627V21.4627ZM27.6838 21.4627V21.6222M27.6838 21.6222V21.6222ZM27.6838 21.6222H27.5243M27.5243 21.6222V21.6222ZM27.5243 21.6222H27.3647M27.3647 21.6222V21.6222ZM27.3647 21.6222V21.4627M27.3647 21.4627V21.4627Z" stroke="#31A5E5"/>
<path d="M22.1008 12.8473V12.8473ZM22.1008 12.8473V12.6884H22.2597M22.1008 12.8473H22.2597M22.1008 12.8473V13.0062M22.2597 12.6884V12.6884ZM22.2597 12.6884V12.8473M22.2597 12.8473V12.8473ZM22.2597 12.8473V13.0062M22.2597 13.0062V13.0062ZM22.1008 13.0062V13.0062Z" stroke="#31A5E5"/>
<path d="M22.2609 7.2644L22.4191 7.42257H22.2609M22.2609 7.2644V7.42257M22.2609 7.2644V7.2644ZM22.2609 7.42257V7.42257Z" stroke="#31A5E5"/>
<path d="M21.463 2.79761V2.79761ZM21.463 2.79761V2.95714M21.463 2.95714L21.9416 3.43573M21.463 2.95714V3.11667M21.463 2.95714V2.95714ZM21.463 2.95714H21.3035M21.9416 3.43573V3.43573ZM21.9416 3.43573L22.1011 3.59526M22.1011 3.59526V3.59526ZM22.1011 3.59526H21.9416M21.9416 3.59526V3.59526ZM21.9416 3.59526V3.75479M21.9416 3.75479V3.75479ZM21.9416 3.75479V3.91432M21.9416 3.91432H21.7821M21.9416 3.91432V3.91432ZM21.9416 3.91432V4.07385M21.7821 3.91432V3.91432ZM21.7821 3.91432V4.07385M21.7821 3.91432H21.6225M21.9416 4.07385V4.07385ZM21.9416 4.07385H21.7821M21.7821 4.07385V4.07385ZM21.7821 4.07385H21.6225M21.7821 4.07385V4.23338H21.6225V4.07385M21.6225 3.91432V4.07385M21.6225 3.91432V3.91432ZM21.6225 3.91432H21.463M21.6225 4.07385V4.07385ZM21.463 3.91432V3.91432ZM21.463 3.91432V3.75479M21.463 3.75479V3.75479ZM21.463 3.75479H21.6225M21.6225 3.75479V3.75479ZM21.6225 3.75479V3.59526M21.6225 3.59526V3.59526ZM21.6225 3.59526V3.43573M21.6225 3.43573V3.43573ZM21.6225 3.43573L21.463 3.2762M21.463 3.2762H21.6225M21.463 3.2762L21.6225 3.11667V3.2762M21.463 3.2762V3.2762ZM21.463 3.2762V3.11667M21.6225 3.2762V3.2762ZM21.463 3.11667V3.11667ZM21.463 3.11667H21.3035V2.95714M21.3035 2.95714V2.95714Z" stroke="#31A5E5"/>
<path d="M2.47839 47.7845V47.7845ZM2.47839 47.7845H2.63767M2.63767 47.7845V47.6252M2.63767 47.7845H2.79695M2.63767 47.7845V47.7845ZM2.63767 47.6252V47.6252ZM2.63767 47.6252H2.79695M2.79695 47.6252V47.6252ZM2.79695 47.6252V47.7845M2.79695 47.7845V47.7845ZM2.79695 47.7845H2.95624M2.95624 47.7845V47.7845ZM2.95624 47.7845V47.6252M2.95624 47.7845L3.11552 47.6252H2.95624M2.95624 47.6252V47.6252Z" stroke="#31A5E5"/>
<path d="M3.43585 51.1339V51.1339ZM3.43585 51.1339V50.9757M3.43585 51.1339L3.59402 50.9757M3.43585 50.9757V50.9757ZM3.43585 50.9757H3.59402M3.59402 50.9757V50.9757Z" stroke="#31A5E5"/>
<path d="M7.42389 48.5816V48.4227M7.42389 48.5816H7.5828M7.42389 48.5816V48.5816ZM7.42389 48.4227V48.4227ZM7.42389 48.4227H7.5828M7.5828 48.4227V48.4227ZM7.5828 48.4227V48.2638M7.5828 48.4227H7.74171M7.5828 48.4227V48.5816M7.74171 48.4227V48.4227ZM7.5828 48.5816V48.5816Z" stroke="#31A5E5"/>
<path d="M2.15948 50.9757V50.9757ZM2.15948 50.9757V50.8161M2.15948 50.9757H2.31901M2.15948 50.8161V50.8161ZM2.15948 50.8161H2.31901M2.31901 50.8161V50.8161ZM2.31901 50.8161V50.6566M2.31901 50.8161H2.47854M2.31901 50.6566V50.6566ZM2.47854 50.8161V50.8161ZM2.47854 50.8161V50.6566M2.47854 50.6566V50.6566ZM2.47854 50.6566H2.63807M2.63807 50.6566V50.6566ZM2.63807 50.6566H2.7976M2.7976 50.6566V50.6566ZM2.7976 50.6566L2.95713 50.4971M2.95713 50.4971V50.4971ZM2.95713 50.4971V50.6566M2.95713 50.6566V50.6566ZM2.95713 50.6566H3.11666M3.11666 50.6566V50.6566ZM3.11666 50.6566V50.8161M3.11666 50.8161V50.8161ZM3.11666 50.8161H3.27619M3.27619 50.8161V50.8161ZM3.27619 50.8161V50.9757M3.27619 50.9757V50.9757ZM3.27619 50.9757V51.1352M3.27619 51.1352V51.1352ZM3.27619 51.1352H3.11666M3.11666 51.1352V51.1352ZM3.11666 51.1352H2.95713M2.95713 51.1352V51.1352ZM2.95713 51.1352V51.2947H2.7976M2.7976 51.2947V51.2947ZM2.7976 51.2947H2.63807M2.63807 51.2947V51.2947ZM2.63807 51.2947V51.1352H2.47854M2.47854 51.1352V51.1352ZM2.47854 51.1352H2.31901M2.31901 51.1352V51.1352ZM2.31901 51.1352V50.9757M2.31901 50.9757V50.9757Z" stroke="#31A5E5"/>
<path d="M71.555 65.6511V65.6511ZM71.555 65.6511V65.4929M71.555 65.6511H71.7132M71.555 65.4929V65.4929ZM71.555 65.4929H71.7132M71.7132 65.4929V65.4929ZM71.7132 65.4929V65.6511M71.7132 65.6511V65.6511Z" stroke="#31A5E5"/>
<path d="M73.6288 64.5346V64.6935M73.6288 64.5346V64.5346ZM73.6288 64.5346H73.7877M73.6288 64.6935V64.6935ZM73.7877 64.5346V64.5346ZM73.7877 64.5346V64.3757M73.7877 64.3757V64.3757ZM73.7877 64.3757H73.9466M73.9466 64.3757V64.3757ZM73.9466 64.3757V64.2168M73.9466 64.2168V64.2168ZM73.9466 64.2168H74.1055M74.1055 64.2168V64.2168Z" stroke="#31A5E5"/>
<path d="M54.1662 91.3369V91.3369ZM54.1662 91.3369V91.4962L54.0069 91.3369M54.1662 91.3369H54.0069M54.1662 91.3369H54.3255M54.0069 91.3369V91.3369ZM54.3255 91.3369V91.3369ZM54.3255 91.3369H54.4847M54.4847 91.3369V91.3369ZM54.4847 91.3369L54.644 91.4962H54.4847M54.4847 91.3369V91.4962M54.4847 91.4962V91.4962Z" stroke="#31A5E5"/>
<path d="M53.5274 91.3369V91.3369ZM53.5274 91.3369H53.3684M53.3684 91.3369V91.3369ZM53.3684 91.3369V91.4958M53.3684 91.3369H53.2095M53.3684 91.4958V91.4958ZM53.2095 91.3369V91.3369Z" stroke="#31A5E5"/>
<path d="M62.9405 71.8741H62.7809M62.9405 71.8741V71.8741ZM62.9405 71.8741L63.1 71.7146M62.9405 71.8741L63.4191 71.555M62.7809 71.8741V71.8741ZM63.1 71.7146V71.7146ZM63.1 71.7146H63.2595M63.2595 71.7146V71.7146ZM63.2595 71.7146V71.555M63.2595 71.555V71.555ZM63.2595 71.555H63.4191M63.4191 71.555V71.555ZM63.4191 71.555V71.3955M63.4191 71.555H63.5786V71.3955M63.4191 71.3955V71.3955ZM63.4191 71.3955H63.5786M63.5786 71.3955V71.3955Z" stroke="#31A5E5"/>
<path d="M70.2786 67.2477V67.2477ZM70.2786 67.2477H70.4368M70.4368 67.2477V67.2477Z" stroke="#31A5E5"/>
<path d="M69.0028 68.6835H69.1623M69.0028 68.6835V68.6835ZM69.1623 68.6835V68.6835ZM69.1623 68.6835V68.524M69.1623 68.6835V68.843M69.1623 68.524V68.524ZM69.1623 68.524H69.3219M69.3219 68.524V68.524ZM69.3219 68.524H69.4814M69.3219 68.524V68.3645M69.3219 68.524L69.1623 68.3645M69.4814 68.524V68.524ZM69.4814 68.524H69.6409M69.4814 68.524L69.6409 68.3645M69.4814 68.524L69.3219 68.3645M69.4814 68.524V68.6835M69.6409 68.524V68.3645M69.6409 68.524V68.524ZM69.6409 68.3645V68.3645ZM69.6409 68.3645L69.8005 68.2049M69.3219 68.3645V68.3645ZM69.1623 68.3645V68.3645ZM69.1623 68.3645V68.2049M69.1623 68.2049V68.2049ZM69.1623 68.2049H69.0028M69.0028 68.2049V68.2049ZM69.0028 68.2049V68.0454M69.0028 68.0454V68.0454ZM69.0028 68.0454V67.8859M69.0028 67.8859V67.8859ZM69.0028 67.8859H69.1623M69.1623 67.8859V67.8859ZM69.1623 67.8859V68.0454M69.1623 68.0454V68.0454ZM69.1623 68.0454H69.3219M69.3219 68.0454V68.0454ZM69.3219 68.0454V68.2049M69.3219 68.0454H69.4814M69.3219 68.2049V68.2049ZM69.4814 68.0454V68.0454ZM69.4814 68.0454L69.3219 67.8859M69.4814 68.0454V67.8859M69.4814 68.0454H69.6409M69.4814 68.0454V68.2049M69.3219 67.8859V67.8859ZM69.3219 67.8859H69.4814M69.4814 67.8859V67.8859ZM69.6409 68.0454V68.0454ZM69.6409 68.0454V68.2049M69.6409 68.0454V67.8859M69.6409 68.0454H69.8005M69.4814 68.2049V68.2049ZM69.4814 68.2049H69.6409M69.6409 68.2049V68.2049ZM69.6409 67.8859V67.8859ZM69.8005 68.0454V68.0454ZM69.8005 68.0454V68.2049M69.8005 68.2049V68.2049ZM69.4814 68.6835V68.6835ZM69.4814 68.6835L69.3219 68.843M69.3219 68.843V68.843ZM69.3219 68.843H69.1623M69.1623 68.843V68.843Z" stroke="#31A5E5"/>
<path d="M68.3644 68.3645V68.3645ZM68.3644 68.3645V68.2049M68.3644 68.3645H68.2048M68.3644 68.2049V68.2049ZM68.3644 68.2049H68.5239M68.5239 68.2049V68.2049ZM68.5239 68.2049H68.6834M68.6834 68.2049V68.2049ZM68.6834 68.2049V68.0454M68.6834 68.2049H68.843M68.6834 68.0454V68.0454ZM68.843 68.2049V68.2049ZM68.843 68.2049V68.0454M68.843 68.2049H69.0025M68.843 68.0454V68.0454ZM69.0025 68.2049V68.2049ZM69.0025 68.2049V68.3645M69.0025 68.3645V68.3645ZM69.0025 68.3645V68.524M69.0025 68.524V68.524ZM69.0025 68.524H69.162M69.0025 68.524V68.6835M69.0025 68.524H68.843M69.162 68.524V68.524ZM69.0025 68.6835V68.6835ZM68.843 68.524V68.524ZM68.843 68.524H68.6834V68.6835H68.5239M68.5239 68.6835V68.6835ZM68.5239 68.6835H68.3644V68.8431M68.3644 68.8431V68.8431ZM68.3644 68.8431L68.2048 69.0026M68.2048 69.0026V68.8431M68.2048 69.0026V69.0026ZM68.2048 68.8431V68.8431ZM68.2048 68.8431V68.6835M68.2048 68.6835V68.6835ZM68.2048 68.6835V68.524M68.2048 68.524V68.524ZM68.2048 68.524V68.3645M68.2048 68.3645V68.3645Z" stroke="#31A5E5"/>
<path d="M69.9598 67.0881V67.0881ZM69.9598 67.0881H69.8003M69.9598 67.0881H70.1193M69.8003 67.0881V67.0881ZM69.8003 67.0881V66.9286M69.8003 66.9286V66.9286ZM69.8003 66.9286H69.6407M69.6407 66.9286V66.9286ZM69.6407 66.9286V66.769M69.6407 66.769V66.769ZM69.6407 66.769H69.8003M69.8003 66.769V66.769ZM69.8003 66.769V66.6095M69.8003 66.769H69.9598M69.8003 66.6095V66.6095ZM69.8003 66.6095H69.9598M69.9598 66.6095V66.6095ZM69.9598 66.6095V66.769M69.9598 66.6095L70.1193 66.769M69.9598 66.769V66.769ZM69.9598 66.769V66.9286M69.9598 66.9286V66.9286ZM69.9598 66.9286H70.1193M69.9598 66.9286L70.1193 67.0881M70.1193 66.769V66.769ZM70.1193 66.769V66.6095M70.1193 66.769H70.2789M70.1193 66.769V66.9286M70.1193 66.6095V66.6095ZM70.1193 66.6095H70.2789M70.2789 66.6095V66.6095ZM70.2789 66.6095H70.4384M70.4384 66.6095V66.6095ZM70.4384 66.6095V66.769M70.4384 66.769V66.769ZM70.4384 66.769H70.2789M70.2789 66.769V66.769ZM70.1193 66.9286V66.9286ZM70.1193 67.0881V67.0881Z" stroke="#31A5E5"/>
<path d="M70.9167 66.7691V66.7691ZM70.9167 66.7691V66.9286M70.9167 66.7691V66.6096M70.9167 66.7691H70.7572M70.9167 66.9286V66.9286ZM70.9167 66.9286H71.0763V67.0882H70.9167M70.9167 67.0882V67.0882ZM70.9167 67.0882H70.7572M70.7572 67.0882V67.0882ZM70.7572 67.0882V66.9286M70.7572 66.9286V66.9286ZM70.7572 66.9286V66.7691M70.7572 66.9286H70.5977M70.7572 66.7691V66.7691ZM70.7572 66.7691H70.5977M70.7572 66.7691V66.6096H70.9167M70.5977 66.7691V66.7691ZM70.5977 66.7691V66.9286M70.5977 66.7691L70.4382 66.6096M70.5977 66.7691V66.6096M70.5977 66.9286V66.9286ZM70.5977 66.9286L70.4382 67.0882M70.4382 67.0882V67.0882ZM70.4382 67.0882H70.2786M70.4382 67.0882V66.9286M70.2786 67.0882V67.0882ZM70.4382 66.9286V66.9286ZM70.4382 66.9286V66.7691M70.4382 66.7691V66.7691ZM70.4382 66.7691V66.6096M70.4382 66.6096V66.6096ZM70.4382 66.6096H70.5977M70.5977 66.6096V66.6096ZM70.5977 66.6096V66.4501M70.5977 66.4501V66.4501ZM70.5977 66.4501H70.7572M70.7572 66.4501V66.4501ZM70.7572 66.4501V66.2905M70.7572 66.2905V66.2905ZM70.7572 66.2905H70.5977M70.7572 66.2905H70.9167M70.5977 66.2905V66.2905ZM70.9167 66.2905V66.2905ZM70.9167 66.2905H71.0763M70.9167 66.2905L71.0763 66.4501M71.0763 66.2905V66.2905ZM71.0763 66.2905V66.4501M71.0763 66.4501V66.4501ZM71.0763 66.4501H71.2358M71.0763 66.4501L71.2358 66.6096M71.0763 66.4501V66.6096M71.0763 66.4501H70.9167M71.2358 66.4501V66.4501ZM71.2358 66.4501V66.2905M71.2358 66.4501H71.3953M71.2358 66.2905V66.2905ZM71.3953 66.4501V66.4501ZM71.3953 66.4501H71.5549M71.5549 66.4501V66.4501ZM71.5549 66.4501L71.3953 66.6096M71.3953 66.6096V66.6096ZM71.3953 66.6096H71.2358M71.2358 66.6096V66.6096ZM71.2358 66.6096V66.7691M71.2358 66.7691V66.7691ZM71.2358 66.7691H71.3953M71.2358 66.7691H71.0763M71.3953 66.7691V66.7691ZM71.0763 66.7691V66.7691ZM71.0763 66.6096V66.6096ZM70.9167 66.4501V66.4501ZM70.9167 66.4501V66.6096M70.9167 66.6096V66.6096Z" stroke="#31A5E5"/>
<path d="M72.5122 65.6519V65.6519ZM72.5122 65.6519H72.6715M72.5122 65.6519V65.8112M72.6715 65.6519V65.6519ZM72.6715 65.6519V65.4927M72.6715 65.6519V65.8112H72.5122M72.6715 65.4927V65.4927ZM72.6715 65.4927H72.8308M72.8308 65.4927V65.4927ZM72.8308 65.4927V65.3334M72.8308 65.3334V65.3334ZM72.5122 65.8112V65.8112ZM72.5122 65.8112V65.9705M72.5122 65.8112H72.353V65.9705M72.5122 65.9705V65.9705ZM72.5122 65.9705H72.353M72.353 65.9705V65.9705Z" stroke="#31A5E5"/>
<path d="M2.63812 44.2754V44.2754ZM2.63812 44.2754L2.79765 44.1159M2.63812 44.2754V44.435M2.63812 44.2754H2.79765M2.79765 44.1159V44.1159ZM2.79765 44.1159V43.9564M2.79765 43.9564V43.9564ZM2.79765 43.9564H2.95718M2.95718 43.9564V43.9564ZM2.95718 43.9564V43.7969M2.95718 43.7969V43.7969ZM2.95718 43.7969V43.6373M2.95718 43.6373V43.6373ZM2.95718 43.6373H3.11671M3.11671 43.6373V43.6373ZM3.11671 43.6373V43.4778M3.11671 43.4778V43.4778ZM3.11671 43.4778H3.27624M3.11671 43.4778V43.3183M3.11671 43.3183V43.3183ZM3.11671 43.3183H3.27624M3.27624 43.3183V43.3183ZM3.27624 43.3183H3.43577M3.43577 43.3183V43.3183ZM3.43577 43.3183V43.1587M3.43577 43.1587V43.1587ZM3.43577 43.1587H3.5953M3.5953 43.1587V43.1587ZM3.5953 43.1587V42.9992M3.5953 42.9992V42.9992ZM3.5953 42.9992V42.8397M3.5953 42.8397V42.8397ZM3.5953 42.8397V42.6801M3.5953 42.6801V42.6801ZM3.5953 42.6801V42.5206M3.5953 42.5206V42.5206ZM3.5953 42.5206L3.43577 42.3611M3.43577 42.3611V42.3611ZM3.43577 42.3611V42.2016M3.43577 42.2016V42.2016ZM3.43577 42.2016V42.042M3.43577 42.042V42.042ZM3.43577 42.042H3.5953M3.5953 42.042V42.042ZM3.5953 42.042V41.8825M3.5953 41.8825V41.8825ZM3.5953 41.8825H3.75483M3.75483 41.8825V41.8825ZM3.75483 41.8825V41.723M3.75483 41.723V41.723ZM3.75483 41.723V41.5634M3.75483 41.5634V41.5634ZM3.75483 41.5634V41.4039M3.75483 41.4039V41.4039ZM3.75483 41.4039V41.2444M3.75483 41.2444V41.2444ZM3.75483 41.2444L3.91436 41.0848M3.91436 41.0848V41.0848ZM3.91436 41.0848V40.9253M3.91436 40.9253V40.9253ZM3.91436 40.9253H4.07389M4.07389 40.9253V40.9253ZM4.07389 40.9253V40.7658M4.07389 40.7658V40.7658ZM4.07389 40.7658H4.23342M4.23342 40.7658V40.7658ZM4.23342 40.7658V40.6063M4.23342 40.6063V40.6063ZM4.23342 40.6063H4.39295M4.39295 40.6063V40.6063ZM4.39295 40.6063V40.4467L4.55248 40.6063M4.55248 40.6063V40.4467M4.55248 40.6063V40.6063ZM4.55248 40.4467V40.4467ZM4.55248 40.4467H4.71201M4.71201 40.4467V40.4467ZM4.71201 40.4467H4.87154M4.87154 40.4467V40.4467ZM4.87154 40.4467H5.03107M5.03107 40.4467V40.4467ZM5.03107 40.4467H5.1906V40.2872M5.1906 40.2872V40.2872ZM5.1906 40.2872H5.35013M5.35013 40.2872V40.2872ZM5.35013 40.2872V40.1277M5.35013 40.1277V40.1277ZM5.35013 40.1277V39.9681M5.35013 39.9681V39.9681ZM5.35013 39.9681H5.50966M5.50966 39.9681V39.8086M5.50966 39.9681V39.9681ZM5.50966 39.8086V39.8086ZM5.50966 39.8086H5.66919M5.66919 39.8086V39.8086ZM5.66919 39.8086V39.6491M5.66919 39.6491V39.6491ZM5.66919 39.6491H5.50966M5.50966 39.6491V39.6491ZM5.50966 39.6491V39.4895M5.50966 39.4895H5.66919M5.50966 39.4895V39.4895ZM5.50966 39.4895L5.66919 39.33M5.66919 39.33H5.50966M5.66919 39.33V39.33ZM5.66919 39.33V39.1705M5.66919 39.1705V39.1705ZM5.66919 39.1705H5.82872M5.82872 39.1705V39.1705ZM5.82872 39.1705V39.011M5.82872 39.011V39.011ZM5.82872 39.011H5.98825M5.98825 39.011V39.011ZM5.98825 39.011H6.14778M6.14778 39.011V39.011ZM6.14778 39.011V38.8514M6.14778 38.8514V38.8514ZM6.14778 38.8514H6.30731M6.30731 38.8514V38.8514ZM6.30731 38.8514V38.6919M6.30731 38.8514H6.46684M6.30731 38.6919V38.6919ZM6.46684 38.8514V38.6919M6.46684 38.8514V38.8514ZM6.46684 38.6919V38.6919ZM6.46684 38.6919H6.62637M6.62637 38.6919V38.6919ZM6.62637 38.6919V38.5324M6.62637 38.5324V38.5324ZM6.62637 38.5324H6.46684M6.62637 38.5324V38.3728M6.46684 38.5324V38.5324ZM6.62637 38.3728V38.3728ZM6.62637 38.3728H6.7859M6.7859 38.3728V38.3728ZM6.7859 38.3728V38.2133M6.7859 38.2133V38.2133ZM6.7859 38.2133H6.94543M6.94543 38.2133V38.2133ZM6.94543 38.2133V38.0538M6.94543 38.0538V38.0538ZM6.94543 38.0538V37.8942M6.94543 37.8942V37.8942ZM6.94543 37.8942V37.7347M6.94543 37.7347V37.7347ZM6.94543 37.7347H7.10496M7.10496 37.7347V37.7347ZM7.10496 37.7347V37.5752M7.10496 37.5752V37.5752ZM7.10496 37.5752H7.26449V37.4157M7.26449 37.4157V37.4157ZM7.26449 37.4157V37.2561M7.26449 37.2561V37.2561ZM7.26449 37.2561V37.0966M7.26449 37.0966V37.0966ZM7.26449 37.0966V36.9371M7.26449 36.9371V36.9371ZM7.26449 36.9371V36.7775M7.26449 36.7775V36.7775ZM7.26449 36.7775V36.618M7.26449 36.618V36.618ZM7.26449 36.618L7.42402 36.4585M7.42402 36.4585V36.4585ZM7.42402 36.4585V36.2989M7.42402 36.2989V36.2989ZM7.42402 36.2989V36.1394M7.42402 36.1394V36.1394ZM7.42402 36.1394H7.58355M7.58355 36.1394V36.1394ZM7.58355 36.1394V35.9799M7.58355 35.9799V35.9799ZM7.58355 35.9799V35.8204M7.58355 35.8204V35.8204ZM7.58355 35.8204H7.74308M7.74308 35.8204V35.8204ZM7.74308 35.8204L8.06214 35.9799V35.8204L8.22167 35.5013V35.3418M8.22167 35.3418V35.3418ZM8.22167 35.3418H8.3812M8.3812 35.3418V35.3418ZM8.3812 35.3418H8.54073M8.54073 35.3418V35.3418ZM8.54073 35.3418V35.1822H8.70026M8.70026 35.1822V35.1822ZM8.70026 35.1822H8.85979M8.85979 35.1822V35.1822ZM8.85979 35.1822V35.0227M8.85979 35.0227V35.0227ZM8.85979 35.0227H9.01932M9.01932 35.0227V35.0227ZM9.01932 35.0227V34.8632M9.01932 34.8632V34.8632ZM9.01932 34.8632H9.17885M9.17885 34.8632V34.8632ZM9.17885 34.8632H9.33838M9.33838 34.8632V34.8632ZM9.33838 34.8632H9.49791M9.49791 34.8632V34.8632ZM9.49791 34.8632V34.7036M9.49791 34.7036V34.7036ZM9.49791 34.7036H9.65744M9.65744 34.7036V34.7036ZM9.65744 34.7036H9.81697M9.81697 34.7036V34.7036ZM9.81697 34.7036H9.9765H10.136M10.136 34.7036V34.7036ZM10.136 34.7036H10.2956M10.2956 34.7036V34.7036ZM10.2956 34.7036L10.4551 34.5441M10.4551 34.5441V34.5441ZM10.4551 34.5441V34.3846M10.4551 34.3846V34.3846ZM10.4551 34.3846H10.6146M10.6146 34.3846V34.3846ZM10.6146 34.3846V34.2251M10.6146 34.2251V34.2251ZM10.6146 34.2251V34.0655M10.6146 34.0655V34.0655ZM10.6146 34.0655V33.906M10.6146 33.906V33.906ZM10.6146 33.906L10.4551 33.7465M10.4551 33.7465V33.7465ZM10.4551 33.7465V33.5869M10.4551 33.5869V33.5869ZM10.4551 33.5869H10.2956M10.2956 33.5869V33.5869ZM10.2956 33.5869V33.4274M10.2956 33.4274V33.4274ZM10.2956 33.4274H10.136M10.136 33.4274V33.4274ZM10.136 33.4274L10.2956 33.2679V33.1083M10.2956 33.1083V33.1083ZM10.2956 33.1083V32.9488M10.2956 32.9488V32.9488ZM10.2956 32.9488V32.7893M10.2956 32.7893V32.7893ZM10.2956 32.7893H10.4551M10.4551 32.7893V32.7893ZM10.4551 32.7893V32.6298M10.4551 32.6298V32.6298ZM10.4551 32.6298H10.6146M10.6146 32.6298V32.6298ZM10.6146 32.6298V32.4702M10.6146 32.4702V32.4702ZM10.6146 32.4702H10.7741M10.7741 32.4702V32.4702ZM10.7741 32.4702L10.9337 31.8321L11.0932 31.513H11.2527H11.4123L11.7313 31.3535L12.0504 30.5559L12.2099 30.3963M12.2099 30.3963V30.3963ZM12.2099 30.3963V29.5987M12.2099 29.5987V29.5987ZM12.2099 29.5987V27.5248L12.0504 27.3653M12.0504 27.3653V27.3653ZM12.0504 27.3653V27.2057V27.0462V26.7271M12.0504 26.7271V26.7271ZM12.0504 26.7271L11.8909 26.4081M11.8909 26.4081V26.4081ZM11.8909 26.4081L11.7313 25.1318L11.5718 24.4937V24.3342V24.1747V23.8556L11.4123 23.6961V23.5365M11.4123 23.5365V23.5365ZM11.4123 23.5365V23.377M11.4123 23.377V23.377ZM11.4123 23.377V23.2175M11.4123 23.2175V23.2175ZM11.4123 23.2175L11.5718 23.058M11.5718 23.058V23.058ZM11.5718 23.058V22.8984M11.5718 22.8984V22.8984ZM11.5718 22.8984H11.7313M11.7313 22.8984V22.8984ZM11.7313 22.8984V22.7389M11.7313 22.7389V22.7389ZM11.7313 22.7389V22.5794L11.5718 22.4198V22.2603M11.5718 22.2603V22.2603ZM11.5718 22.2603H11.4123M11.4123 22.2603V22.2603ZM11.4123 22.2603L11.2527 21.9412V21.6222V21.4627L11.0932 21.6222V21.7817H10.9337L10.7741 21.6222L10.6146 21.4627V21.3031L10.2956 20.9841L10.136 20.665M10.136 20.665V20.665ZM10.136 20.665V20.5055V20.0269M10.136 20.0269V20.0269ZM10.136 20.0269V19.8674M10.136 19.8674V19.8674ZM10.136 19.8674V19.7078L9.9765 19.5483V19.3888M9.9765 19.3888V19.3888ZM9.9765 19.3888L9.81697 19.2292M9.81697 19.2292V19.2292ZM9.81697 19.2292L9.65744 19.0697V18.9102H9.49791M9.49791 18.9102V18.9102ZM9.49791 18.9102L9.33838 18.7506V18.9102H9.17885H9.01932H8.85979L8.70026 18.5911V18.4316L8.3812 18.2721M8.3812 18.2721V18.2721ZM8.3812 18.2721L8.22167 17.7935V17.6339V17.4744M8.22167 17.4744V17.4744ZM8.22167 17.4744V17.3149L8.06214 17.1553M8.06214 17.1553V17.1553ZM8.06214 17.1553V16.9958V16.6768V16.5172M8.06214 16.5172V16.5172ZM8.06214 16.5172L7.90261 16.3577L7.74308 16.1982H7.58355H7.42402H7.26449V16.0386M7.26449 16.0386V16.0386ZM7.26449 16.0386L7.10496 15.8791M7.10496 15.8791V15.8791ZM7.10496 15.8791H6.94543M6.94543 15.8791V15.8791ZM6.94543 15.8791V15.4005V15.0815V14.9219L6.7859 14.6029V14.4433V14.2838M6.7859 14.2838V14.2838ZM6.7859 14.2838L6.62637 14.1243H6.46684V13.8052V13.6457M6.46684 13.6457V13.6457ZM6.46684 13.6457H6.62637V13.4862V13.3266L6.46684 13.1671L6.30731 13.0076V12.848M6.30731 12.848V12.848ZM6.30731 12.848H6.46684H6.62637L6.7859 12.6885H6.94543V12.3694V12.0504V11.7313M6.94543 11.7313V11.7313ZM6.94543 11.7313L7.10496 11.0932H6.94543L6.62637 10.9337H6.46684V10.7741M6.46684 10.7741V10.7741ZM6.46684 10.7741L6.30731 10.6146H6.14778M6.14778 10.6146V10.6146ZM6.14778 10.6146H5.98825M5.98825 10.6146V10.6146ZM5.98825 10.6146H5.82872H5.66919M5.66919 10.6146V10.6146ZM5.66919 10.6146V10.7741H5.50966M5.50966 10.7741V10.7741ZM5.50966 10.7741V10.6146H5.35013M5.35013 10.6146V10.6146ZM5.35013 10.6146V10.4551H5.1906M5.1906 10.4551V10.4551ZM5.1906 10.4551V10.2956H5.03107V10.136H4.87154M4.87154 10.136V10.136ZM4.87154 10.136H4.71201M4.71201 10.136V10.136ZM4.71201 10.136H4.55248M4.55248 10.136V10.136ZM4.55248 10.136H4.39295M4.39295 10.136L4.23342 10.2956M4.39295 10.136H4.23342V10.2956M4.39295 10.136V9.9765M4.23342 10.2956V10.2956ZM4.39295 9.9765V9.9765ZM4.39295 9.9765H4.23342M4.23342 9.9765V9.9765ZM4.23342 9.9765H4.07389M4.07389 9.9765V9.9765ZM4.07389 9.9765V9.81697M4.07389 9.81697V9.81697ZM4.07389 9.81697H4.23342M4.23342 9.81697V9.81697ZM4.23342 9.81697L4.39295 9.65744H4.71201V9.33838V9.17885H4.55248H4.23342M4.23342 9.17885V9.17885ZM4.23342 9.17885H4.07389M4.07389 9.17885V9.17885ZM4.07389 9.17885H3.91436H3.75483M3.75483 9.17885V9.17885ZM3.75483 9.17885H3.5953V9.33838M3.5953 9.33838V9.33838ZM3.5953 9.33838H3.43577M3.43577 9.33838V9.33838ZM3.43577 9.33838V9.17885V9.01932H3.75483M3.75483 9.01932V9.01932ZM3.75483 9.01932V8.70026L3.91436 8.3812M3.91436 8.3812V8.3812ZM3.91436 8.3812L3.5953 8.22167L3.43577 7.90261H3.11671V7.74308H3.27624L3.43577 7.58355M3.43577 7.58355V7.58355ZM3.43577 7.58355V7.42402V7.10496H3.27624M3.27624 7.10496V7.10496ZM3.27624 7.10496L3.11671 6.7859L3.27624 6.62637L3.11671 6.30731L2.47859 5.66919L3.11671 5.35013L3.27624 5.1906M3.27624 5.1906V5.1906ZM3.27624 5.1906V5.03107H3.43577M3.43577 5.03107V5.03107ZM3.43577 5.03107L3.5953 4.87154M3.5953 4.87154V4.87154ZM3.5953 4.87154V4.71201H3.75483M3.75483 4.71201V4.71201ZM3.75483 4.71201L3.91436 4.55248M3.91436 4.55248V4.55248ZM3.91436 4.55248V4.39295H4.07389M4.07389 4.39295V4.39295ZM4.07389 4.39295L4.23342 4.23342M4.23342 4.23342V4.23342ZM4.23342 4.23342V4.07389H4.39295M4.39295 4.07389V4.07389ZM4.39295 4.07389L4.55248 3.91436M4.55248 3.91436V3.91436ZM4.55248 3.91436V3.75483H4.71201M4.71201 3.75483V3.75483ZM4.71201 3.75483L4.87154 3.5953M4.87154 3.5953V3.5953ZM4.87154 3.5953V3.43577H5.03107M5.03107 3.43577V3.43577ZM5.03107 3.43577L5.1906 3.27624M5.1906 3.27624V3.27624ZM5.1906 3.27624V3.11671H5.35013M5.35013 3.11671V3.11671ZM5.35013 3.11671L5.50966 2.95718M5.50966 2.95718V2.95718ZM5.50966 2.95718V2.79765H5.66919M5.66919 2.79765V2.79765ZM5.66919 2.79765L5.82872 2.63812M5.82872 2.63812V2.63812ZM5.82872 2.63812V2.47859H5.98825M5.98825 2.47859V2.47859ZM5.98825 2.47859L6.14778 2.31906M6.14778 2.31906V2.31906ZM6.14778 2.31906V2.15953H6.30731M6.30731 2.15953V2.15953ZM6.30731 2.15953H6.46684M6.46684 2.15953V2.15953ZM6.46684 2.15953H6.62637M6.62637 2.15953V2.15953ZM6.62637 2.15953H6.7859M6.7859 2.15953V2.15953ZM6.7859 2.15953H6.94543M6.94543 2.15953V2.15953ZM6.94543 2.15953H7.10496M7.10496 2.15953V2.15953ZM7.10496 2.15953H7.26449M7.26449 2.15953V2.15953ZM7.26449 2.15953H7.42402H7.58355M7.58355 2.15953V2.15953ZM7.58355 2.15953H7.74308H7.90261M7.90261 2.15953V2.15953ZM7.90261 2.15953H8.06214M8.06214 2.15953V2.15953ZM8.06214 2.15953H8.22167M8.22167 2.15953V2.15953ZM8.22167 2.15953H8.3812H8.54073M8.54073 2.15953V2.15953ZM8.54073 2.15953H8.70026H8.85979M8.85979 2.15953V2.15953ZM8.85979 2.15953H9.01932M9.01932 2.15953V2.15953ZM9.01932 2.15953H9.17885M9.17885 2.15953V2.15953ZM9.17885 2.15953H9.33838M9.33838 2.15953V2.15953ZM9.33838 2.15953H9.49791M9.49791 2.15953V2.15953ZM9.49791 2.15953H9.65744M9.65744 2.15953V2.15953ZM9.65744 2.15953H9.81697M9.81697 2.15953V2.15953ZM9.81697 2.15953H9.9765M9.9765 2.15953V2.15953ZM9.9765 2.15953H10.136M10.136 2.15953V2.15953ZM10.136 2.15953H10.2956H10.4551M10.4551 2.15953V2.15953ZM10.4551 2.15953H10.6146M10.6146 2.15953V2.15953ZM10.6146 2.15953H10.7741M10.7741 2.15953V2.15953ZM10.7741 2.15953H10.9337M10.9337 2.15953V2.15953ZM10.9337 2.15953L11.0932 2V2.15953M11.0932 2.15953V2.15953ZM11.0932 2.15953H11.2527V2H11.4123V2.15953M11.4123 2.15953V2.15953ZM11.4123 2.15953L11.5718 2M11.5718 2V2ZM11.5718 2H11.7313V2.15953L11.8909 2M11.8909 2V2ZM11.8909 2H12.0504M12.0504 2V2ZM12.0504 2H12.2099M12.2099 2V2ZM12.2099 2H12.3694M12.3694 2V2ZM12.3694 2H12.529M12.529 2V2ZM12.529 2H12.6885M12.6885 2V2ZM12.6885 2H12.848M12.848 2V2ZM12.848 2H13.0076M13.0076 2V2ZM13.0076 2H13.1671H13.3266M13.3266 2V2ZM13.3266 2H13.4862H13.6457M13.6457 2V2ZM13.6457 2H13.8052M13.8052 2V2ZM13.8052 2H13.9647M13.9647 2V2ZM13.9647 2H14.1243M14.1243 2V2ZM14.1243 2H14.2838M14.2838 2V2ZM14.2838 2H14.4433H14.6029M14.6029 2V2ZM14.6029 2H14.7624M14.7624 2V2ZM14.7624 2H14.9219M14.9219 2V2ZM14.9219 2H15.0815M15.0815 2V2ZM15.0815 2H15.241M15.241 2V2ZM15.241 2H15.4005M15.4005 2V2ZM15.4005 2H15.56M15.56 2V2ZM15.56 2H15.7196M15.7196 2V2ZM15.7196 2H15.8791M15.8791 2V2ZM15.8791 2H16.0386H16.1982M16.1982 2V2ZM16.1982 2H16.3577H16.5172M16.5172 2V2ZM16.5172 2H16.6768H16.8363M16.8363 2V2ZM16.8363 2H16.9958H17.1553M17.1553 2V2ZM17.1553 2H18.1125M18.1125 2V2ZM18.1125 2H18.2721M18.2721 2V2ZM18.2721 2H18.4316H18.5911M18.5911 2V2ZM18.5911 2H18.7506H18.9102M18.9102 2V2ZM18.9102 2H19.0697H19.2292M19.2292 2V2ZM19.2292 2H19.3888M19.3888 2V2ZM19.3888 2H19.5483M19.5483 2V2ZM19.5483 2H19.7078M19.7078 2V2ZM19.7078 2H19.8674M19.8674 2V2ZM19.8674 2H20.0269M20.0269 2V2ZM20.0269 2H20.1864M20.1864 2V2ZM20.1864 2H20.3459M20.3459 2V2ZM20.3459 2H20.5055M20.5055 2V2ZM20.5055 2H20.665H20.8245M20.8245 2V2ZM20.8245 2H20.9841H21.1436M21.1436 2V2ZM21.1436 2H21.3031M21.3031 2V2ZM21.3031 2V2.47859M21.3031 2.47859H21.4627M21.3031 2.47859V2.63812M21.4627 2.47859V2.47859ZM21.3031 2.63812V2.63812ZM21.3031 2.63812V2.79765M21.3031 2.79765V2.79765ZM21.3031 2.79765V2.95718M21.3031 2.95718V2.95718ZM21.3031 2.95718L21.1436 3.11671H21.3031V3.27624M21.3031 3.27624V3.27624ZM21.3031 3.27624V3.43577M21.3031 3.43577V3.43577ZM21.3031 3.43577V3.5953M21.3031 3.5953V3.5953ZM21.3031 3.5953L21.1436 3.75483M21.1436 3.75483V3.75483ZM21.1436 3.75483V3.91436M21.1436 3.91436V3.91436ZM21.1436 3.91436V4.07389M21.1436 4.07389V4.07389ZM21.1436 4.07389V4.23342M21.1436 4.23342V4.23342ZM21.1436 4.23342H20.9841V4.39295M20.9841 4.39295H21.1436M20.9841 4.39295V4.39295ZM20.9841 4.39295V4.55248M21.1436 4.39295V4.39295ZM20.9841 4.55248V4.55248ZM20.9841 4.55248V4.71201M20.9841 4.71201V4.71201ZM20.9841 4.71201V4.87154M20.9841 4.87154V4.87154ZM20.9841 4.87154V5.03107M20.9841 5.03107V5.03107ZM20.9841 5.03107V5.1906M20.9841 5.1906V5.1906ZM20.9841 5.1906L21.1436 5.35013M21.1436 5.35013V5.35013ZM21.1436 5.35013V5.50966M21.1436 5.50966V5.50966ZM21.1436 5.50966V5.66919M21.1436 5.66919V5.66919ZM21.1436 5.66919V5.82872M21.1436 5.82872V5.82872ZM21.1436 5.82872V5.98825M21.1436 5.98825V5.98825ZM21.1436 5.98825V6.14778M21.1436 6.14778V6.14778ZM21.1436 6.14778V6.30731M21.1436 6.30731V6.30731ZM21.1436 6.30731V6.46684M21.1436 6.46684V6.46684ZM21.1436 6.46684V6.62637M21.1436 6.62637V6.62637ZM21.1436 6.62637V6.7859M21.1436 6.7859V6.7859ZM21.1436 6.7859L20.9841 6.94543M20.9841 6.94543V6.94543ZM20.9841 6.94543V7.10496M20.9841 7.10496V7.10496ZM20.9841 7.10496L20.8245 7.26449M20.8245 7.26449V7.26449ZM20.8245 7.26449V7.42402M20.8245 7.42402V7.42402ZM20.8245 7.42402L20.665 7.58355M20.665 7.58355V7.58355ZM20.665 7.58355V7.74308M20.665 7.74308V7.74308ZM20.665 7.74308V7.90261H20.5055M20.5055 7.90261V7.90261ZM20.5055 7.90261V8.06214M20.5055 8.06214V8.06214ZM20.5055 8.06214V8.22167M20.5055 8.22167V8.22167ZM20.5055 8.22167V8.3812M20.5055 8.3812V8.3812ZM20.5055 8.3812L20.3459 8.54073M20.3459 8.54073V8.54073ZM20.3459 8.54073V8.70026M20.3459 8.70026V8.70026ZM20.3459 8.70026V8.85979M20.3459 8.85979V8.85979ZM20.3459 8.85979V9.01932M20.3459 9.01932V9.01932ZM20.3459 9.01932H20.5055M20.5055 9.01932V9.01932ZM20.5055 9.01932V9.17885M20.5055 9.17885V9.17885ZM20.5055 9.17885V9.33838M20.5055 9.33838V9.33838ZM20.5055 9.33838V9.49791M20.5055 9.49791V9.49791ZM20.5055 9.49791V9.65744M20.5055 9.65744V9.65744ZM20.5055 9.65744V9.81697M20.5055 9.81697V9.81697ZM20.5055 9.81697V9.9765M20.5055 9.9765V9.9765ZM20.5055 9.9765H20.3459M20.5055 9.9765V10.136H20.3459M20.3459 10.136V10.136ZM20.3459 10.136V10.2956M20.3459 10.2956V10.2956ZM20.3459 10.2956V10.4551M20.3459 10.4551V10.4551ZM20.3459 10.4551H20.1864V10.7741M20.1864 10.7741V10.7741ZM20.1864 10.7741V10.9337M20.1864 10.9337V10.9337ZM20.1864 10.9337V11.0932M20.1864 11.0932V11.0932ZM20.1864 11.0932H20.3459M20.1864 11.0932V11.2527M20.1864 11.2527V11.2527ZM20.1864 11.2527V11.4123V11.5718M20.1864 11.5718V11.5718ZM20.1864 11.5718V11.7313M20.1864 11.7313V11.7313ZM20.1864 11.7313L20.3459 11.8909M20.3459 11.8909V11.8909ZM20.3459 11.8909H20.5055M20.5055 11.8909V11.8909ZM20.5055 11.8909V12.0504M20.5055 12.0504V12.0504ZM20.5055 12.0504H20.665M20.665 12.0504V12.0504ZM20.665 12.0504V12.2099M20.665 12.2099V12.2099ZM20.665 12.2099H20.8245M20.8245 12.2099V12.2099ZM20.8245 12.2099V12.3694H20.9841M20.9841 12.3694V12.3694ZM20.9841 12.3694V12.529M20.9841 12.3694H21.1436M20.9841 12.3694V12.2099M20.9841 12.529V12.529ZM20.9841 12.529V12.6885M20.9841 12.6885V12.6885ZM20.9841 12.6885H20.8245M20.8245 12.6885V12.6885ZM20.8245 12.6885V12.848M20.8245 12.848V12.848ZM20.8245 12.848H20.9841M20.9841 12.848V12.848ZM20.9841 12.848H21.1436M21.1436 12.848V12.848ZM21.1436 12.848V12.6885M21.1436 12.6885V12.6885ZM21.1436 12.6885V12.529M21.1436 12.529V12.529ZM21.1436 12.529V12.3694M21.1436 12.3694V12.3694ZM21.1436 12.3694V12.2099M21.1436 12.3694H21.3031V12.529V12.6885M20.9841 12.2099V12.2099ZM20.9841 12.2099H21.1436M21.1436 12.2099V12.2099ZM21.3031 12.6885V12.6885ZM21.3031 12.6885V12.848M21.3031 12.848V12.848ZM21.3031 12.848V13.0076M21.3031 13.0076V13.0076ZM21.3031 13.0076V13.1671M21.3031 13.1671V13.1671ZM21.3031 13.1671V13.3266M21.3031 13.3266V13.3266ZM21.3031 13.3266H21.1436V13.4862M21.1436 13.4862V13.4862ZM21.1436 13.4862V13.6457M21.1436 13.6457V13.6457ZM21.1436 13.6457V13.8052M21.1436 13.8052V13.8052ZM21.1436 13.8052H21.3031M21.3031 13.8052V13.8052ZM21.3031 13.8052V13.9647M21.3031 13.9647V13.9647ZM21.3031 13.9647V14.1243M21.3031 14.1243V14.1243ZM21.3031 14.1243V14.2838M21.3031 14.2838V14.2838ZM21.3031 14.2838V14.4433M21.3031 14.4433V14.4433ZM21.3031 14.4433H21.4627M21.4627 14.4433V14.4433ZM21.4627 14.4433H21.6222M21.6222 14.4433V14.4433ZM21.6222 14.4433H21.7817V14.6029M21.7817 14.6029V14.6029ZM21.7817 14.6029L21.9412 14.7624M21.9412 14.7624V14.7624ZM21.9412 14.7624V14.9219V15.0815M21.9412 15.0815V15.0815ZM21.9412 15.0815L22.1008 15.241M22.1008 15.241V15.241ZM22.1008 15.241H22.2603M22.2603 15.241V15.241ZM22.2603 15.241L22.4198 15.4005M22.4198 15.4005V15.4005ZM22.4198 15.4005H22.5794M22.5794 15.4005V15.4005ZM22.5794 15.4005H22.7389M22.7389 15.4005V15.4005ZM22.7389 15.4005V15.56M22.7389 15.56V15.56ZM22.7389 15.56H22.8984M22.8984 15.56V15.56ZM22.8984 15.56H23.058M23.058 15.56V15.56ZM23.058 15.56H23.2175M23.2175 15.56V15.56ZM23.2175 15.56V15.4005M23.2175 15.56V15.7196M23.2175 15.4005V15.4005ZM23.2175 15.7196V15.7196ZM23.2175 15.7196V15.8791M23.2175 15.8791V15.8791ZM23.2175 15.8791V16.0386M23.2175 16.0386V16.0386ZM23.2175 16.0386H23.058M23.058 16.0386V16.0386ZM23.058 16.0386L23.2175 16.1982M23.2175 16.1982H23.058M23.2175 16.1982V16.1982ZM23.2175 16.1982V16.3577M23.058 16.1982V16.1982ZM23.2175 16.3577V16.3577ZM23.2175 16.3577V16.5172M23.2175 16.5172V16.5172ZM23.2175 16.5172V16.6768M23.2175 16.6768V16.6768ZM23.2175 16.6768H23.377M23.377 16.6768V16.6768ZM23.377 16.6768V16.8363M23.377 16.8363V16.8363ZM23.377 16.8363V16.9958M23.377 16.9958V16.9958ZM23.377 16.9958H23.2175M23.2175 16.9958V16.9958ZM23.2175 16.9958V17.1553M23.2175 17.1553V17.1553ZM23.2175 17.1553H23.058M23.2175 17.1553L23.058 17.3149M23.058 17.1553V17.1553ZM23.058 17.3149V17.3149ZM23.058 17.3149V17.4744M23.058 17.4744V17.4744ZM23.058 17.4744V17.6339M23.058 17.6339V17.6339ZM23.058 17.6339V17.7935M23.058 17.7935V17.7935ZM23.058 17.7935H23.2175M23.2175 17.7935V17.7935ZM23.2175 17.7935V17.6339M23.2175 17.7935V17.953M23.2175 17.6339V17.6339ZM23.2175 17.953V17.953ZM23.2175 17.953H23.377M23.377 17.953V17.953ZM23.377 17.953V17.7935H23.5365M23.5365 17.7935V17.7935ZM23.5365 17.7935V17.953M23.5365 17.953V17.953ZM23.5365 17.953H23.6961M23.6961 17.953V17.953ZM23.6961 17.953H23.8556M23.8556 17.953V17.953ZM23.8556 17.953H24.0151M24.0151 17.953V17.953ZM24.0151 17.953H24.1747M24.1747 17.953V18.1125M24.1747 17.953H24.3342M24.1747 17.953V17.953ZM24.1747 18.1125V18.1125ZM24.1747 18.1125H24.3342M24.3342 18.1125V18.1125ZM24.3342 18.1125V17.953M24.3342 18.1125V18.2721M24.3342 17.953V17.953ZM24.3342 18.2721V18.2721ZM24.3342 18.2721V18.4316M24.3342 18.4316V18.4316ZM24.3342 18.4316H24.4937V18.5911M24.4937 18.5911V18.5911ZM24.4937 18.5911L24.6533 18.7506H24.8128M24.8128 18.7506V18.7506ZM24.8128 18.7506H24.9723M24.9723 18.7506V18.7506ZM24.9723 18.7506V18.9102M24.9723 18.9102V18.9102ZM24.9723 18.9102H25.1318M25.1318 18.9102V18.9102ZM25.1318 18.9102H25.2914M25.2914 18.9102V18.9102ZM25.2914 18.9102V19.0697H25.4509M25.4509 19.0697V19.0697ZM25.4509 19.0697V19.2292H25.6104M25.6104 19.2292V19.2292ZM25.6104 19.2292V19.3888M25.6104 19.3888V19.3888ZM25.6104 19.3888V19.5483L25.77 19.7078L25.9295 19.8674V20.1864V20.3459H26.089V20.665H25.9295L26.089 20.8245M26.089 20.8245V20.8245ZM26.089 20.8245V21.1436V21.3031H26.2486H26.4081V21.4627M26.4081 21.4627V21.4627ZM26.4081 21.4627V21.6222L26.8867 21.9412M26.8867 21.9412V21.9412ZM26.8867 21.9412V22.1008M26.8867 22.1008V22.1008ZM26.8867 22.1008V22.2603M26.8867 22.2603V22.2603ZM26.8867 22.2603V22.4198M26.8867 22.4198V22.4198ZM26.8867 22.4198V22.5794M26.8867 22.5794V22.5794ZM26.8867 22.5794V22.7389M26.8867 22.7389V22.7389ZM26.8867 22.7389V22.8984M26.8867 22.8984V22.8984ZM26.8867 22.8984V23.058M26.8867 23.058V23.058ZM26.8867 23.058H27.0462M27.0462 23.058V23.058ZM27.0462 23.058V23.2175M27.0462 23.2175V23.2175ZM27.0462 23.2175V23.377M27.0462 23.377V23.377ZM27.0462 23.377H27.2057M27.2057 23.377V23.377ZM27.2057 23.377H27.3653M27.3653 23.377V23.377ZM27.3653 23.377V23.2175M27.3653 23.2175V23.2175ZM27.3653 23.2175H27.5248M27.5248 23.2175V23.2175ZM27.5248 23.2175H27.6843M27.6843 23.2175V23.2175ZM27.6843 23.2175V23.377M27.6843 23.2175L27.8439 23.377M27.6843 23.2175H27.8439M27.6843 23.377V23.377ZM27.6843 23.377H27.8439M27.8439 23.377V23.377ZM27.8439 23.377V23.2175M27.8439 23.377H28.0034M27.8439 23.2175V23.2175ZM28.0034 23.377V23.377ZM28.0034 23.377V23.2175M28.0034 23.2175V23.2175ZM28.0034 23.2175V23.058M28.0034 23.2175H28.1629M28.1629 23.2175V23.2175ZM28.1629 23.2175V23.058M28.1629 23.058V23.058ZM28.1629 23.058L28.3224 22.8984L28.482 22.7389M28.482 22.7389V22.7389ZM28.482 22.7389V22.8984M28.482 22.7389L28.6415 22.5794M28.6415 22.5794H28.482M28.6415 22.5794V22.5794ZM28.6415 22.5794V22.4198M28.6415 22.4198V22.4198ZM28.6415 22.4198H28.482M28.482 22.4198V22.4198ZM28.482 22.4198V22.2603M28.482 22.2603V22.2603ZM28.482 22.2603V22.1008M28.482 22.1008V22.1008ZM28.482 22.1008V21.9412M28.482 21.9412V21.9412ZM28.482 21.9412V21.7817M28.482 21.7817V21.7817ZM28.482 21.7817L28.6415 21.6222M28.6415 21.6222V21.6222ZM28.6415 21.6222L28.482 21.4627M28.482 21.4627V21.4627ZM28.482 21.4627H28.6415M28.6415 21.4627V21.4627ZM28.6415 21.4627V21.3031H28.482M28.482 21.3031V21.3031ZM28.482 21.3031V21.1436M28.482 21.1436V21.1436ZM28.482 21.1436V20.9841M28.482 20.9841V20.9841ZM28.482 20.9841V20.8245M28.482 20.8245V20.8245ZM28.482 20.8245V20.665M28.482 20.665V20.665ZM28.482 20.665V20.5055M28.482 20.5055V20.5055ZM28.482 20.5055H28.3224L28.482 20.3459M28.482 20.3459V20.3459ZM28.482 20.3459H28.6415M28.6415 20.3459V20.3459ZM28.6415 20.3459V20.1864M28.6415 20.1864V20.1864ZM28.6415 20.1864V20.0269M28.6415 20.0269V20.0269ZM28.6415 20.0269H28.482L28.6415 19.8674M28.6415 19.8674V19.8674ZM28.6415 19.8674V19.7078H28.482L28.6415 19.5483H28.482M28.482 19.5483V19.5483ZM28.482 19.5483V19.3888M28.482 19.3888V19.3888ZM28.482 19.3888V19.2292M28.482 19.2292V19.2292ZM28.482 19.2292H28.6415M28.6415 19.2292V19.2292ZM28.6415 19.2292V19.0697M28.6415 19.0697V19.0697ZM28.6415 19.0697H28.482M28.482 19.0697V19.0697ZM28.482 19.0697V18.9102M28.482 18.9102V18.9102ZM28.482 18.9102V18.7506M28.482 18.7506V18.7506ZM28.482 18.7506H28.3224M28.3224 18.7506V18.7506ZM28.3224 18.7506L28.1629 18.5911H28.0034L27.8439 18.7506H27.6843M27.6843 18.7506V18.7506ZM27.6843 18.7506H27.5248V18.5911L27.3653 18.7506V18.5911M27.3653 18.5911V18.5911ZM27.3653 18.5911H27.2057M27.2057 18.5911V18.5911ZM27.2057 18.5911H27.0462M27.0462 18.5911V18.5911ZM27.0462 18.5911L26.8867 18.7506V18.5911V18.4316H26.7271M26.7271 18.4316V18.4316ZM26.7271 18.4316L26.5676 18.2721M26.5676 18.2721V18.2721ZM26.5676 18.2721H26.4081M26.4081 18.2721V18.2721ZM26.4081 18.2721V18.1125M26.4081 18.1125V18.1125ZM26.4081 18.1125H26.2486V17.953M26.2486 17.953V17.953ZM26.2486 17.953H26.089M26.089 17.953V17.953ZM26.089 17.953V17.7935M26.089 17.7935V17.7935ZM26.089 17.7935H25.9295M25.9295 17.7935V17.7935ZM25.9295 17.7935V17.6339H25.77M25.77 17.6339V17.6339ZM25.77 17.6339V17.4744M25.77 17.4744V17.4744ZM25.77 17.4744H25.6104V17.3149M25.6104 17.3149V17.3149ZM25.6104 17.3149H25.77M25.77 17.3149V17.3149ZM25.77 17.3149V17.1553M25.77 17.1553V17.1553ZM25.77 17.1553H25.6104M25.6104 17.1553V17.1553ZM25.6104 17.1553V16.9958M25.6104 16.9958V16.9958ZM25.6104 16.9958V16.8363M25.6104 16.8363V16.8363ZM25.6104 16.8363L25.4509 16.6768M25.6104 16.8363V16.6768M25.4509 16.6768V16.6768ZM25.4509 16.6768H25.6104M25.6104 16.6768V16.6768ZM25.6104 16.6768V16.5172H25.4509M25.4509 16.5172V16.5172ZM25.4509 16.5172V16.3577M25.4509 16.3577V16.3577ZM25.4509 16.3577H25.2914V16.1982M25.2914 16.1982V16.1982ZM25.2914 16.1982L25.1318 15.8791H24.9723V15.7196M24.9723 15.7196V15.7196ZM24.9723 15.7196H24.8128V15.8791M24.8128 15.8791V15.8791ZM24.8128 15.8791L24.6533 15.7196V15.56M24.6533 15.56V15.56ZM24.6533 15.56V15.4005M24.6533 15.4005V15.4005ZM24.6533 15.4005V15.241M24.6533 15.241V15.241ZM24.6533 15.241V15.0815H24.4937M24.4937 15.0815V15.0815ZM24.4937 15.0815V14.9219M24.4937 14.9219V14.9219ZM24.4937 14.9219H24.3342M24.3342 14.9219V14.9219ZM24.3342 14.9219V14.7624M24.3342 14.7624V14.7624ZM24.3342 14.7624H24.1747M24.1747 14.7624V14.7624ZM24.1747 14.7624V14.6029M24.1747 14.6029V14.6029ZM24.1747 14.6029H24.0151M24.0151 14.6029V14.6029ZM24.0151 14.6029L23.8556 14.4433M23.8556 14.4433V14.4433ZM23.8556 14.4433H24.0151M24.0151 14.4433V14.4433ZM24.0151 14.4433V14.2838M24.0151 14.2838V14.2838ZM24.0151 14.2838H24.1747M24.1747 14.2838V14.2838ZM24.1747 14.2838H24.3342M24.1747 14.2838V14.1243M24.3342 14.2838V14.2838ZM24.1747 14.1243V14.1243ZM24.1747 14.1243H24.3342V13.9647M24.3342 13.9647V13.9647ZM24.3342 13.9647V13.8052M24.3342 13.8052V13.8052ZM24.3342 13.8052H24.1747M24.1747 13.8052V13.8052ZM24.1747 13.8052V13.6457M24.1747 13.6457V13.6457ZM24.1747 13.6457H24.0151M24.0151 13.6457V13.6457ZM24.0151 13.6457V13.4862M24.0151 13.4862V13.4862ZM24.0151 13.4862V13.3266M24.0151 13.3266V13.3266ZM24.0151 13.3266V13.1671M24.0151 13.1671V13.1671ZM24.0151 13.1671H23.8556V13.0076M23.8556 13.0076V13.0076ZM23.8556 13.0076H24.0151M24.0151 13.0076V13.0076ZM24.0151 13.0076L23.8556 12.848M23.8556 12.848V12.848ZM23.8556 12.848V12.6885M23.8556 12.6885V12.6885ZM23.8556 12.6885V12.529M23.8556 12.529V12.529ZM23.8556 12.529H23.6961L23.8556 12.3694M23.8556 12.3694V12.3694ZM23.8556 12.3694V12.2099M23.8556 12.2099V12.2099ZM23.8556 12.2099V12.0504M23.8556 12.0504V12.0504ZM23.8556 12.0504V11.8909M23.8556 11.8909V11.8909ZM23.8556 11.8909V11.7313M23.8556 11.7313V11.7313ZM23.8556 11.7313V11.5718M23.8556 11.5718V11.5718ZM23.8556 11.5718H24.0151M24.0151 11.5718V11.5718ZM24.0151 11.5718L23.8556 11.4123M23.8556 11.4123V11.4123ZM23.8556 11.4123H24.0151M23.8556 11.4123V11.2527M24.0151 11.4123V11.4123ZM23.8556 11.2527V11.2527ZM23.8556 11.2527H24.0151M23.8556 11.2527V11.0932M23.8556 11.0932V11.0932ZM23.8556 11.0932H24.0151M24.0151 11.0932V11.0932ZM24.0151 11.0932H24.1747M24.1747 11.0932V11.0932ZM24.1747 11.0932V10.9337M24.1747 11.0932H24.3342M24.1747 10.9337V10.9337ZM24.1747 10.9337H24.3342M24.1747 10.9337V10.7741M24.3342 11.0932V11.0932ZM24.3342 11.0932V10.9337M24.3342 10.9337V10.9337ZM24.1747 10.7741V10.7741ZM24.1747 10.7741H24.3342M24.3342 10.7741V10.7741ZM24.3342 10.7741V10.6146M24.3342 10.6146V10.6146ZM24.3342 10.6146H24.4937M24.4937 10.6146V10.6146ZM24.4937 10.6146V10.4551M24.4937 10.4551V10.4551ZM24.4937 10.4551H24.6533M24.6533 10.4551V10.4551ZM24.6533 10.4551V10.2956M24.6533 10.2956V10.2956ZM24.6533 10.2956H24.4937M24.4937 10.2956V10.2956ZM24.4937 10.2956V10.136M24.4937 10.136V10.136ZM24.4937 10.136H24.3342M24.3342 10.136V10.136ZM24.3342 10.136V9.9765M24.3342 9.9765V9.9765ZM24.3342 9.9765H24.1747M24.3342 9.9765V9.81697M24.1747 9.9765V9.9765ZM24.3342 9.81697V9.81697ZM24.3342 9.81697H24.1747M24.1747 9.81697V9.81697ZM24.1747 9.81697V9.65744M24.1747 9.65744V9.65744ZM24.1747 9.65744V9.49791M24.1747 9.49791V9.49791ZM24.1747 9.49791H24.0151L24.1747 9.33838M24.1747 9.33838V9.33838ZM24.1747 9.33838L24.0151 9.17885M24.0151 9.17885V9.17885ZM24.0151 9.17885V9.01932M24.0151 9.01932V9.01932ZM24.0151 9.01932H23.8556M23.8556 9.01932V9.01932ZM23.8556 9.01932V8.85979M23.8556 8.85979V8.85979ZM23.8556 8.85979V8.70026H23.6961M23.6961 8.70026V8.70026ZM23.6961 8.70026V8.54073M23.6961 8.54073V8.54073ZM23.6961 8.54073H23.5365M23.6961 8.54073V8.3812M23.5365 8.54073V8.54073ZM23.5365 8.54073H23.377M23.377 8.54073V8.54073ZM23.6961 8.3812V8.3812ZM23.6961 8.3812H23.8556M23.8556 8.3812V8.3812ZM23.8556 8.3812V8.22167M23.8556 8.22167V8.22167ZM23.8556 8.22167V8.06214M23.8556 8.06214V8.06214ZM23.8556 8.06214V7.90261M23.8556 7.90261V7.90261ZM23.8556 7.90261V7.74308M23.8556 7.74308V7.74308ZM23.8556 7.74308H24.0151M24.0151 7.74308V7.74308ZM24.0151 7.74308V7.58355M24.0151 7.58355V7.58355ZM24.0151 7.58355V7.42402M24.0151 7.42402V7.42402ZM24.0151 7.42402V7.26449M24.0151 7.26449H23.8556M24.0151 7.26449V7.26449ZM24.0151 7.26449V7.10496M23.8556 7.26449V7.26449ZM24.0151 7.10496V7.10496ZM24.0151 7.10496L24.1747 6.94543M24.1747 6.94543V6.94543ZM24.1747 6.94543V6.7859M24.1747 6.7859V6.7859ZM24.1747 6.7859V6.62637M24.1747 6.62637V6.62637ZM24.1747 6.62637V6.46684M24.1747 6.46684V6.46684ZM24.1747 6.46684V6.30731M24.1747 6.30731V6.30731ZM24.1747 6.30731H24.0151M24.0151 6.30731V6.30731ZM24.0151 6.30731V6.14778M24.0151 6.14778V6.14778ZM24.0151 6.14778H23.8556M23.8556 6.14778V6.14778ZM23.8556 6.14778V5.98825M23.8556 5.98825V5.98825ZM23.8556 5.98825H24.0151M23.8556 5.98825V5.82872H24.0151M24.0151 5.98825V5.98825ZM24.0151 5.82872V5.82872ZM24.0151 5.82872V5.66919M24.0151 5.66919V5.66919ZM24.0151 5.66919V5.50966M24.0151 5.50966V5.50966ZM24.0151 5.50966V5.35013M24.0151 5.35013V5.35013ZM24.0151 5.35013V5.1906M24.0151 5.1906V5.1906ZM24.0151 5.1906H23.8556M23.8556 5.1906V5.1906ZM23.8556 5.1906V5.03107M23.8556 5.03107V5.03107ZM23.8556 5.03107H23.6961M23.6961 5.03107V5.03107ZM23.6961 5.03107V4.87154M23.6961 4.87154V4.87154ZM23.6961 4.87154V4.71201M23.6961 4.71201V4.71201ZM23.6961 4.71201V4.55248H23.8556M23.8556 4.55248V4.55248ZM23.8556 4.55248V4.39295M23.8556 4.39295V4.39295ZM23.8556 4.39295H24.0151M23.8556 4.39295V4.23342M24.0151 4.39295V4.39295ZM23.8556 4.23342V4.23342ZM23.8556 4.23342V4.07389M23.8556 4.07389V4.07389ZM23.8556 4.07389L24.0151 3.91436M24.0151 3.91436V3.91436ZM24.0151 3.91436V3.75483M24.0151 3.75483V3.75483ZM24.0151 3.75483H23.8556M23.8556 3.75483V3.75483ZM23.8556 3.75483V3.5953H24.0151H24.1747H24.3342M24.3342 3.5953V3.5953ZM24.3342 3.5953L25.2914 3.75483H25.6104H25.77H26.2486H26.4081H26.8867H27.0462L27.8439 3.5953H28.0034L28.1629 3.75483H28.3224H28.6415H28.801H29.2796H29.5987H29.9177L30.2368 3.91436H30.5559L30.8749 4.07389H31.0345M31.0345 4.07389V4.07389ZM31.0345 4.07389V4.23342H31.194M31.194 4.23342V4.23342ZM31.194 4.23342H31.3535M31.3535 4.23342V4.23342ZM31.3535 4.23342L31.513 4.39295M31.513 4.39295V4.39295ZM31.513 4.39295H31.6726M31.6726 4.39295V4.39295ZM31.6726 4.39295H31.8321M31.8321 4.39295V4.23342M31.8321 4.39295V4.39295ZM31.8321 4.39295H31.9916M31.9916 4.39295V4.39295ZM31.9916 4.39295V4.55248M31.9916 4.55248V4.55248ZM31.9916 4.55248H32.1512V4.71201M32.1512 4.71201V4.71201ZM32.1512 4.71201H32.3107M32.3107 4.71201V4.71201ZM32.3107 4.71201H32.4702V4.87154L32.6298 5.03107V5.1906M32.6298 5.1906V5.1906ZM32.6298 5.1906H32.7893M32.7893 5.1906V5.1906ZM32.7893 5.1906L32.9488 5.35013L33.5869 5.66919L33.906 5.82872V5.98825L34.3846 6.14778L34.5441 6.30731M34.5441 6.30731V6.30731ZM34.5441 6.30731L34.7036 6.46684L35.3418 6.94543H35.5013M35.5013 6.94543V6.94543ZM35.5013 6.94543L35.6608 7.10496H35.8204L36.2989 7.42402L36.7775 7.90261L37.0966 8.06214L37.4157 8.22167L37.5752 8.3812H37.7347V8.54073M37.7347 8.54073V8.54073ZM37.7347 8.54073L38.0538 8.70026L38.2133 8.85979H38.3728L38.5324 9.01932L38.6919 9.17885H38.8514L39.011 9.33838L39.1705 9.49791H39.33L39.4895 9.65744H39.6491L39.8086 9.81697L39.9681 9.9765L40.1277 10.136H40.2872M40.2872 10.136V10.136ZM40.2872 10.136L40.4467 10.2956H40.6063L40.7658 10.4551H40.9253V10.6146H41.0848M41.0848 10.6146V10.6146ZM41.0848 10.6146L41.2444 10.7741M41.2444 10.7741V10.7741ZM41.2444 10.7741V10.9337H41.4039M41.4039 10.9337V10.9337ZM41.4039 10.9337V11.0932M41.4039 11.0932V11.0932ZM41.4039 11.0932H41.5634M41.5634 11.0932V11.0932ZM41.5634 11.0932L41.723 11.2527M41.723 11.2527V11.2527ZM41.723 11.2527L41.8825 11.4123L42.2016 11.5718V11.7313H42.3611M42.3611 11.7313V11.7313ZM42.3611 11.7313H42.5206M42.5206 11.7313V11.7313ZM42.5206 11.7313H42.6801L42.8397 11.5718M42.8397 11.5718V11.5718ZM42.8397 11.5718L43.1587 11.7313H43.3183H43.6373H43.7969H44.1159H44.5945H44.754M44.754 11.7313V11.7313ZM44.754 11.7313H45.0731L45.3922 11.8909L45.7112 11.7313L45.8707 11.5718H46.0303M46.0303 11.5718V11.5718ZM46.0303 11.5718V11.4123M46.0303 11.4123V11.4123ZM46.0303 11.4123L46.1898 11.2527L46.3493 11.4123M46.3493 11.4123V11.4123ZM46.3493 11.4123V11.5718H46.5089V11.7313M46.5089 11.7313V11.7313ZM46.5089 11.7313H46.6684M46.6684 11.7313V11.7313ZM46.6684 11.7313H46.8279H46.9874M46.9874 11.7313V11.7313ZM46.9874 11.7313V11.8909L47.147 11.7313V11.8909H47.466M47.466 11.8909V11.8909ZM47.466 11.8909L47.6256 11.7313V11.5718M47.6256 11.5718V11.5718ZM47.6256 11.5718L47.7851 11.7313L47.9446 12.0504M47.9446 12.0504V12.0504ZM47.9446 12.0504V12.2099H48.4232M48.4232 12.2099V12.2099ZM48.4232 12.2099L48.7423 12.3694L49.2209 12.529H49.3804L49.6995 12.6885H49.859M49.859 12.6885V12.6885ZM49.859 12.6885H50.0185H50.3376V12.529M50.3376 12.529V12.529ZM50.3376 12.529H50.4971M50.4971 12.529V12.529ZM50.4971 12.529H50.6566M50.6566 12.529V12.529ZM50.6566 12.529V12.6885M50.6566 12.529L50.8162 12.6885M50.8162 12.6885V12.6885ZM50.8162 12.6885V12.529H50.9757M50.9757 12.529V12.529ZM50.9757 12.529H51.1352M51.1352 12.529V12.529ZM51.1352 12.529V12.6885L51.2948 12.529M51.2948 12.529V12.529ZM51.2948 12.529H51.4543M51.4543 12.529V12.529ZM51.4543 12.529V12.3694M51.4543 12.3694V12.3694ZM51.4543 12.3694L51.6138 12.529M51.6138 12.529V12.529ZM51.6138 12.529L51.7733 12.6885M51.7733 12.6885V12.6885ZM51.7733 12.6885H51.9329M51.9329 12.6885V12.6885ZM51.9329 12.6885H52.0924M52.0924 12.6885V12.6885ZM52.0924 12.6885V12.848M52.0924 12.848V12.848ZM52.0924 12.848H52.2519M52.2519 12.848V12.848ZM52.2519 12.848H52.4115M52.4115 12.848V12.848ZM52.4115 12.848L52.571 13.0076M52.571 13.0076V13.0076ZM52.571 13.0076H52.7305M52.7305 13.0076V13.0076ZM52.7305 13.0076H52.8901M52.8901 13.0076V13.0076ZM52.8901 13.0076H53.0496M53.0496 13.0076V13.0076ZM53.0496 13.0076H53.2091M53.2091 13.0076V13.0076ZM53.2091 13.0076V13.1671M53.2091 13.1671V13.1671ZM53.2091 13.1671L53.3686 13.0076M53.3686 13.0076V13.0076ZM53.3686 13.0076H53.5282M53.5282 13.0076V13.0076ZM53.5282 13.0076H53.6877M53.6877 13.0076V13.0076ZM53.6877 13.0076V12.848M53.6877 12.848V12.848ZM53.6877 12.848H53.8472M53.8472 12.848V12.848ZM53.8472 12.848V13.0076M53.8472 13.0076V13.0076ZM53.8472 13.0076V13.1671M53.8472 13.1671V13.1671ZM53.8472 13.1671H54.0068H54.1663M54.1663 13.1671V13.1671ZM54.1663 13.1671H54.3258H54.4854M54.4854 13.1671V13.1671ZM54.4854 13.1671H54.6449M54.6449 13.1671V13.1671ZM54.6449 13.1671H54.8044M54.8044 13.1671V13.1671ZM54.8044 13.1671V13.3266M54.8044 13.1671L54.9639 13.3266V13.1671L55.1235 13.3266V13.1671M55.1235 13.1671V13.1671ZM55.1235 13.1671H55.283M55.283 13.1671V13.1671ZM55.283 13.1671H55.4425M55.4425 13.1671V13.1671ZM55.4425 13.1671V13.3266L55.6021 13.6457M55.6021 13.6457V13.6457ZM55.6021 13.6457L55.7616 13.8052M55.7616 13.8052V13.8052ZM55.7616 13.8052H55.9211M55.9211 13.8052V13.8052ZM55.9211 13.8052H56.0807M56.0807 13.8052V13.8052ZM56.0807 13.8052V13.6457L56.2402 13.3266V13.0076H56.3997L56.5592 12.848M56.5592 12.848V12.848ZM56.5592 12.848L56.7188 12.529H56.8783M56.8783 12.529V12.529ZM56.8783 12.529L57.1974 12.2099L57.3569 11.8909L57.676 11.7313L57.8355 11.4123H57.995V11.2527M57.995 11.2527V11.2527ZM57.995 11.2527H58.1545V10.9337H58.3141L58.9522 9.49791V9.33838L59.1117 9.17885L60.5475 8.54073L61.3451 8.06214H61.5047V7.90261L61.9833 7.74308L62.1428 7.58355H62.3023H62.6214L63.419 7.10496L63.8976 6.94543H64.0572L64.2167 6.7859H64.3762L65.6525 6.14778L66.6096 5.82872L66.7692 5.66919H66.9287M66.9287 5.66919V5.66919ZM66.9287 5.66919H67.0882H67.2478V5.50966H67.4073L67.5668 5.35013V5.1906H67.7263M67.7263 5.1906V5.35013M67.7263 5.1906L67.8859 5.35013M67.8859 5.35013V5.35013ZM67.8859 5.35013L68.0454 5.50966L68.2049 5.66919H68.3645H68.524M68.524 5.66919V5.66919ZM68.524 5.66919V5.82872H68.6835L68.8431 5.98825M68.8431 5.98825V5.98825ZM68.8431 5.98825V6.14778M68.8431 6.14778V6.14778ZM68.8431 6.14778L69.0026 6.30731V6.46684M69.0026 6.46684V6.46684ZM69.0026 6.46684L69.1621 6.62637H69.4812L69.6407 6.7859M69.6407 6.7859V6.7859ZM69.6407 6.7859V6.94543H69.8002M69.8002 6.94543V6.94543ZM69.8002 6.94543H69.9598V7.10496L70.1193 7.26449M70.1193 7.26449V7.26449ZM70.1193 7.26449H70.2788M70.2788 7.26449V7.26449ZM70.2788 7.26449V7.42402M70.2788 7.42402V7.42402ZM70.2788 7.42402L70.4384 7.58355H70.5979V7.74308M70.5979 7.74308V7.74308ZM70.5979 7.74308L70.7574 7.90261L70.9169 8.06214M70.9169 8.06214V8.06214ZM70.9169 8.06214H71.0765V8.22167M71.0765 8.22167V8.22167ZM71.0765 8.22167H71.236M71.236 8.22167V8.22167ZM71.236 8.22167V8.3812H71.3955H71.5551V8.54073H71.7146M71.7146 8.54073V8.54073ZM71.7146 8.54073H71.8741M71.8741 8.54073V8.54073ZM71.8741 8.54073L72.0337 8.3812V8.54073L72.1932 8.3812M72.1932 8.3812V8.3812ZM72.1932 8.3812H72.3527H72.5122M72.5122 8.3812V8.3812ZM72.5122 8.3812V8.54073H72.6718H72.8313H72.9908M72.9908 8.54073V8.54073ZM72.9908 8.54073H73.1504M73.1504 8.54073V8.54073ZM73.1504 8.54073H73.3099V8.3812M73.3099 8.3812V8.3812ZM73.3099 8.3812H73.4694M73.4694 8.3812V8.3812ZM73.4694 8.3812H73.629M73.629 8.3812V8.3812ZM73.629 8.3812H73.7885L73.948 8.54073M73.948 8.54073V8.54073ZM73.948 8.54073H74.1075M74.1075 8.54073V8.54073ZM74.1075 8.54073V8.3812H74.2671M74.2671 8.3812V8.3812ZM74.2671 8.3812H74.4266M74.4266 8.3812V8.3812ZM74.4266 8.3812H74.5861M74.5861 8.3812V8.3812ZM74.5861 8.3812H74.7457M74.7457 8.3812V8.3812ZM74.7457 8.3812H74.9052V8.22167H75.2243M75.2243 8.22167V8.22167ZM75.2243 8.22167L75.3838 8.3812V8.22167H75.5433M75.5433 8.22167V8.22167ZM75.5433 8.22167H75.7028M75.7028 8.22167V8.22167ZM75.7028 8.22167H75.8624H76.0219M76.0219 8.22167V8.22167ZM76.0219 8.22167L76.1814 8.3812H76.341M76.341 8.3812V8.3812ZM76.341 8.3812L76.5005 8.22167M76.5005 8.22167V8.22167ZM76.5005 8.22167H76.8196V8.06214M76.8196 8.06214V8.06214ZM76.8196 8.06214H76.9791M76.9791 8.06214V8.06214ZM76.9791 8.06214L77.1386 8.22167M77.1386 8.22167V8.22167ZM77.1386 8.22167H77.2981H77.4577M77.4577 8.22167V8.22167ZM77.4577 8.22167H77.6172M77.6172 8.22167V8.22167ZM77.6172 8.22167V8.3812M77.6172 8.3812V8.3812ZM77.6172 8.3812H77.7767M77.7767 8.3812V8.3812ZM77.7767 8.3812V8.54073M77.7767 8.3812H77.9363M77.7767 8.54073V8.54073ZM77.9363 8.3812V8.3812ZM77.9363 8.3812V8.54073M77.9363 8.3812L78.0958 8.54073M77.9363 8.54073V8.54073ZM78.0958 8.54073V8.54073ZM78.0958 8.54073V8.3812M78.0958 8.3812V8.3812ZM78.0958 8.3812H78.2553M78.2553 8.3812V8.3812ZM78.2553 8.3812H78.4149M78.4149 8.3812V8.3812ZM78.4149 8.3812V8.22167M78.4149 8.3812L78.5744 8.22167M78.4149 8.3812L78.2553 8.54073V8.70026M78.4149 8.22167V8.22167ZM78.4149 8.22167H78.5744M78.5744 8.22167V8.22167ZM78.2553 8.70026V8.70026ZM78.2553 8.70026H78.0958V8.85979V9.01932L77.9363 9.17885L76.8196 10.7741L75.3838 12.529L74.2671 14.1243L72.9908 16.0386L72.8313 16.1982M72.8313 16.1982V16.1982ZM72.8313 16.1982L71.3955 17.7935L69.8002 19.2292V24.3342V25.6104V34.7036V37.5752V41.5634V42.042M69.8002 42.042V42.042ZM69.8002 42.042V42.2016M69.8002 42.2016V42.2016ZM69.8002 42.2016V42.3611V42.5206V44.754V48.4232V54.4854L70.9169 56.0807L72.5122 58.1545L73.948 60.0689L75.2243 61.8237V62.4619M75.2243 62.4619V62.4619ZM75.2243 62.4619V62.6214M75.2243 62.6214V62.6214ZM75.2243 62.6214H75.0647M75.0647 62.6214V62.6214ZM75.0647 62.6214V62.7809H74.9052M74.9052 62.7809V62.7809ZM74.9052 62.7809V62.9404M74.9052 62.9404V62.9404ZM74.9052 62.9404H74.7457M74.7457 62.9404V62.9404ZM74.7457 62.9404V63.1M74.7457 63.1V63.1ZM74.7457 63.1V63.2595H74.5861M74.5861 63.2595V63.2595ZM74.5861 63.2595L74.4266 63.419M74.4266 63.419V63.419ZM74.4266 63.419V63.5786H74.2671M74.2671 63.5786V63.5786ZM74.2671 63.5786V63.7381M74.2671 63.7381V63.7381ZM74.2671 63.7381H74.1075M74.1075 63.7381V63.7381ZM74.1075 63.7381V63.8976M74.1075 63.8976V63.8976ZM74.1075 63.8976H73.948M73.948 63.8976V63.8976ZM73.948 63.8976V64.0572M73.948 64.0572V64.0572ZM73.948 64.0572L73.7885 64.2167M73.7885 64.2167V64.2167ZM73.7885 64.2167H73.629V64.3762M73.629 64.3762V64.3762ZM73.629 64.3762H73.4694M73.629 64.3762V64.5357M73.4694 64.3762V64.3762ZM73.4694 64.3762L73.629 64.5357M73.629 64.5357V64.5357ZM73.629 64.5357H73.4694M73.4694 64.5357V64.5357ZM73.4694 64.5357V64.6953M73.4694 64.6953V64.6953ZM73.4694 64.6953H73.3099M73.3099 64.6953V64.6953ZM73.3099 64.6953V64.8548M73.3099 64.8548V64.8548ZM73.3099 64.8548H73.4694M73.3099 64.8548V65.0143M73.3099 64.8548H73.1504M73.4694 64.8548V64.8548ZM73.3099 65.0143V65.0143ZM73.1504 64.8548V64.8548ZM73.1504 64.8548V65.0143M73.1504 65.0143V65.0143ZM73.1504 65.0143L72.9908 65.1739M72.9908 65.1739V65.1739ZM72.9908 65.1739V65.3334M72.9908 65.3334V65.3334ZM72.9908 65.3334H72.8313M72.8313 65.3334V65.3334ZM72.8313 65.3334V65.4929M72.8313 65.4929V65.4929ZM72.8313 65.4929H72.6718M72.6718 65.4929V65.4929ZM72.6718 65.4929H72.5122V65.3334M72.5122 65.3334V65.3334ZM72.5122 65.3334H72.6718M72.5122 65.3334V65.1739M72.6718 65.3334V65.3334ZM72.6718 65.3334V65.1739M72.6718 65.1739H72.5122M72.6718 65.1739V65.1739ZM72.5122 65.1739V65.1739ZM72.5122 65.1739V65.0143M72.5122 65.1739H72.3527M72.3527 65.1739V65.1739ZM72.3527 65.1739V65.3334M72.3527 65.3334V65.3334ZM72.3527 65.3334H72.1932M72.1932 65.3334V65.3334ZM72.1932 65.3334V65.1739M72.1932 65.1739V65.1739ZM72.1932 65.1739V65.0143M72.1932 65.0143V65.0143ZM72.1932 65.0143H72.3527M72.1932 65.0143V64.8548M72.3527 65.0143V65.0143ZM72.3527 65.0143V64.8548M72.3527 64.8548V64.8548ZM72.1932 64.8548V64.8548ZM72.1932 64.8548H72.0337M72.0337 64.8548V64.8548ZM72.0337 64.8548V65.0143M72.0337 64.8548V64.6953M72.0337 64.6953V64.6953ZM72.0337 64.6953H71.8741M71.8741 64.6953V64.6953ZM71.8741 64.6953V64.8548M71.8741 64.8548V64.8548ZM71.8741 64.8548H71.7146M71.7146 64.8548V64.8548ZM71.7146 64.8548V65.0143M71.7146 65.0143V65.0143ZM71.7146 65.0143H71.5551M71.5551 65.0143V65.0143ZM71.5551 65.0143V65.1739M71.5551 65.1739V65.1739ZM71.5551 65.1739H71.3955M71.3955 65.1739V65.1739ZM71.3955 65.1739V65.3334M71.3955 65.3334V65.3334ZM71.3955 65.3334H71.5551M71.3955 65.3334V65.4929M71.3955 65.3334H71.236M71.5551 65.3334V65.3334ZM71.5551 65.3334H71.7146M71.5551 65.3334V65.4929M71.7146 65.3334V65.3334ZM71.5551 65.4929V65.4929ZM71.5551 65.4929H71.3955M71.3955 65.4929V65.4929ZM71.236 65.3334V65.3334ZM71.236 65.3334L71.0765 65.4929M71.0765 65.4929V65.3334M71.0765 65.4929V65.4929ZM71.0765 65.3334V65.3334ZM71.0765 65.3334L70.9169 65.4929M70.9169 65.4929V65.3334M70.9169 65.4929V65.4929ZM70.9169 65.4929H70.7574M70.9169 65.3334V65.3334ZM70.7574 65.4929V65.4929ZM70.7574 65.4929H70.5979M70.5979 65.4929V65.4929ZM70.5979 65.4929V65.6525M70.5979 65.6525V65.6525ZM70.5979 65.6525V65.812M70.5979 65.812V65.812ZM70.5979 65.812H70.4384M70.4384 65.812V65.812ZM70.4384 65.812H70.2788V65.9715M70.2788 65.9715V65.9715ZM70.2788 65.9715H70.4384M70.2788 65.9715V66.131M70.2788 66.131V66.131ZM70.2788 66.131H70.1193M70.1193 66.131V66.131ZM70.1193 66.131V66.2906M70.1193 66.2906V66.2906ZM70.1193 66.2906H69.9598V66.131M69.9598 66.131V66.131ZM69.9598 66.131H69.8002M69.8002 66.131V66.131ZM69.8002 66.131V65.9715M69.8002 65.9715V65.9715ZM69.8002 65.9715V65.812M69.8002 65.812V65.812ZM69.8002 65.812V65.6525M69.8002 65.6525V65.6525ZM69.8002 65.6525V65.4929M69.8002 65.4929V65.4929ZM69.8002 65.4929V65.3334M69.8002 65.3334V65.3334ZM69.8002 65.3334V65.1739M69.8002 65.1739V65.1739ZM69.8002 65.1739H69.9598V65.0143M69.9598 65.0143V65.0143ZM69.9598 65.0143H70.1193M69.9598 65.0143L70.1193 64.8548H69.9598M70.1193 65.0143V65.0143ZM69.9598 64.8548V64.8548ZM69.9598 64.8548H69.8002V65.0143M69.8002 65.0143V65.0143ZM69.8002 65.0143H69.6407M69.6407 65.0143V65.0143ZM69.6407 65.0143V65.1739M69.6407 65.1739V65.1739ZM69.6407 65.1739V65.3334M69.6407 65.3334V65.3334ZM69.6407 65.3334V65.4929M69.6407 65.4929V65.4929ZM69.6407 65.4929V65.6525M69.6407 65.6525V65.6525ZM69.6407 65.6525V65.812H69.4812M69.4812 65.812V65.812ZM69.4812 65.812V65.9715M69.4812 65.9715V65.9715ZM69.4812 65.9715V66.131M69.4812 66.131V66.131ZM69.4812 66.131H69.6407M69.4812 66.131V66.2906M69.6407 66.131V66.131ZM69.6407 66.131L69.4812 66.2906M69.4812 66.2906V66.2906ZM69.4812 66.2906H69.6407L69.4812 66.4501M69.4812 66.2906V66.4501M69.4812 66.4501V66.4501ZM69.4812 66.4501H69.3216M69.3216 66.4501V66.4501ZM69.3216 66.4501V66.2906M69.3216 66.2906V66.2906ZM69.3216 66.2906V66.131M69.3216 66.131V66.131ZM69.3216 66.131H69.1621M69.1621 66.131V66.131ZM69.1621 66.131V65.9715M69.1621 65.9715V65.9715ZM69.1621 65.9715H69.3216M69.3216 65.9715V65.9715ZM69.3216 65.9715V65.812M69.3216 65.812V65.812ZM69.3216 65.812H69.1621M69.1621 65.812V65.812ZM69.1621 65.812V65.6525M69.1621 65.6525V65.6525ZM69.1621 65.6525H69.0026M69.0026 65.6525V65.6525ZM69.0026 65.6525H68.8431M68.8431 65.6525V65.6525ZM68.8431 65.6525H68.6835M68.6835 65.6525V65.6525ZM68.6835 65.6525V65.4929M68.6835 65.6525H68.524M68.6835 65.6525V65.812M68.6835 65.4929V65.4929ZM68.6835 65.4929H68.8431M68.6835 65.4929V65.3334M68.6835 65.4929H68.524M68.6835 65.3334V65.3334ZM68.524 65.4929V65.4929ZM68.524 65.4929V65.3334M68.524 65.4929H68.3645M68.524 65.4929V65.6525M68.524 65.3334V65.3334ZM68.524 65.3334V65.1739M68.524 65.3334L68.3645 65.1739M68.524 65.3334H68.3645M68.524 65.1739V65.1739ZM68.524 65.1739H68.3645M68.3645 65.1739V65.1739ZM68.3645 65.3334V65.3334ZM68.3645 65.3334H68.2049M68.2049 65.3334V65.3334ZM68.2049 65.3334V65.1739M68.2049 65.3334H68.0454M68.2049 65.1739V65.1739ZM68.0454 65.3334V65.1739M68.0454 65.3334H67.8859M68.0454 65.3334V65.3334ZM68.0454 65.3334V65.4929H68.2049M68.0454 65.1739V65.1739ZM68.0454 65.1739H67.8859M67.8859 65.1739V65.1739ZM67.8859 65.1739H67.7263M67.8859 65.1739V65.3334M67.7263 65.1739V65.1739ZM67.8859 65.3334V65.3334ZM68.2049 65.4929V65.4929ZM68.2049 65.4929H68.3645M68.3645 65.4929V65.4929ZM68.524 65.6525V65.6525ZM68.6835 65.812V65.812ZM68.6835 65.812H68.524M68.6835 65.812V65.9715M68.524 65.812V65.812ZM68.524 65.812H68.3645M68.524 65.812L68.3645 65.9715M68.524 65.812V65.9715M68.3645 65.812V65.812ZM68.3645 65.812L68.2049 65.9715H68.3645M68.3645 65.9715V65.9715ZM68.524 65.9715V65.9715ZM68.524 65.9715H68.6835M68.6835 65.9715V65.9715ZM68.6835 65.9715H68.8431M68.8431 65.9715V65.9715ZM68.8431 65.9715V65.812M68.8431 65.812V65.812ZM68.8431 65.812H69.0026M69.0026 65.812V65.812ZM69.0026 65.812V65.9715M69.0026 65.9715V65.9715ZM69.0026 65.9715V66.131M69.0026 66.131V66.131ZM69.0026 66.131V66.2906M69.0026 66.131H68.8431M69.0026 66.2906V66.2906ZM68.8431 66.131V66.131ZM68.8431 66.131H68.6835M68.8431 66.131V66.2906M68.6835 66.131V66.131ZM68.8431 66.2906V66.2906ZM68.8431 66.2906H68.6835M68.8431 66.2906V66.4501M68.6835 66.2906V66.2906ZM68.6835 66.2906V66.4501M68.6835 66.4501V66.4501ZM68.6835 66.4501H68.524M68.6835 66.4501H68.8431M68.524 66.4501V66.4501ZM68.8431 66.4501V66.4501ZM68.8431 66.4501H69.0026M69.0026 66.4501V66.4501ZM69.0026 66.4501V66.6096M69.0026 66.6096V66.6096ZM69.0026 66.6096H69.1621M69.1621 66.6096V66.6096ZM69.1621 66.6096V66.7692M69.1621 66.7692V66.7692ZM69.1621 66.7692L69.0026 66.9287M69.0026 66.9287V66.9287ZM69.0026 66.9287H69.1621M69.1621 66.9287V66.9287ZM69.1621 66.9287V67.0882M69.1621 67.0882V67.0882ZM69.1621 67.0882V67.2478M69.1621 67.2478V67.2478ZM69.1621 67.2478V67.4073M69.1621 67.4073V67.4073ZM69.1621 67.4073V67.5668M69.1621 67.5668V67.5668ZM69.1621 67.5668H69.3216M69.1621 67.5668L69.3216 67.7263V67.5668M69.1621 67.5668V67.7263M69.3216 67.5668V67.5668ZM69.1621 67.7263V67.7263ZM69.1621 67.7263V67.8859M69.1621 67.8859V67.8859ZM69.1621 67.8859H69.3216M69.1621 67.8859H69.0026M69.3216 67.8859V67.8859ZM69.0026 67.8859V67.8859ZM69.0026 67.8859V67.7263M69.0026 67.7263V67.7263ZM69.0026 67.7263H68.8431M68.8431 67.7263V67.7263ZM68.8431 67.7263V67.5668M68.8431 67.7263L68.6835 67.5668V67.7263M68.8431 67.7263H68.6835M68.8431 67.5668V67.5668ZM68.6835 67.7263V67.7263ZM68.6835 67.7263H68.524M68.524 67.7263V67.7263ZM68.524 67.7263V67.8859H68.6835M68.6835 67.8859V67.8859ZM68.6835 67.8859L68.524 68.0454M68.6835 67.8859V68.0454M68.524 68.0454V68.0454ZM68.524 68.0454H68.6835M68.524 68.0454H68.3645M68.6835 68.0454V68.0454ZM68.6835 68.0454H68.8431M68.8431 68.0454V67.8859M68.8431 68.0454V68.0454ZM68.8431 67.8859V67.8859ZM68.3645 68.0454V68.0454ZM68.3645 68.0454V68.2049M68.3645 68.0454H68.2049M68.3645 68.0454V67.8859M68.3645 68.2049V68.2049ZM68.3645 68.2049H68.2049M68.2049 68.0454V68.0454ZM68.2049 68.0454V67.8859M68.2049 68.0454H68.0454M68.3645 67.8859V67.8859ZM68.3645 67.8859H68.2049M68.2049 67.8859V67.8859ZM68.0454 68.0454V68.0454ZM68.0454 68.0454H67.8859M68.0454 68.0454V68.2049H67.8859M67.8859 68.0454V68.0454ZM67.8859 68.0454H67.7263M67.8859 68.2049V68.2049ZM67.8859 68.2049H67.7263M67.7263 68.2049V68.2049ZM67.7263 68.2049V68.0454M67.7263 68.2049H67.5668M67.7263 68.0454V68.0454ZM67.5668 68.2049V68.2049ZM67.5668 68.2049V68.0454M67.5668 68.0454V68.0454ZM67.5668 68.0454V67.8859H67.4073M67.5668 68.0454H67.4073M67.4073 67.8859V67.8859ZM67.4073 67.8859V68.0454M67.4073 68.0454V68.0454ZM67.4073 68.0454H67.2478M67.2478 68.0454V68.0454ZM67.2478 68.0454V67.8859M67.2478 68.0454V68.2049M67.2478 67.8859V67.8859ZM67.2478 68.2049V68.2049ZM67.2478 68.2049V68.3645M67.2478 68.3645V68.3645ZM67.2478 68.3645L67.4073 68.2049M67.2478 68.3645V68.524M67.2478 68.3645H67.4073M67.2478 68.3645H67.0882M67.4073 68.2049V68.2049ZM67.4073 68.2049V68.3645M67.4073 68.3645V68.3645ZM67.4073 68.3645H67.5668M67.4073 68.3645V68.524M67.5668 68.3645V68.3645ZM67.4073 68.524V68.524ZM67.4073 68.524H67.5668M67.4073 68.524H67.2478M67.5668 68.524V68.524ZM67.5668 68.524V68.6835M67.5668 68.6835V68.6835ZM67.5668 68.6835V68.8431M67.2478 68.524V68.524ZM67.2478 68.524H67.0882M67.0882 68.3645V68.3645ZM67.0882 68.3645V68.524M67.0882 68.524V68.524ZM67.0882 68.524H66.9287M67.0882 68.524V68.6835M66.9287 68.524V68.524ZM67.0882 68.6835V68.6835ZM67.0882 68.6835H67.2478M67.2478 68.6835V68.6835ZM67.2478 68.6835H67.4073M67.4073 68.6835V68.6835ZM67.4073 68.6835L67.5668 68.8431M67.5668 68.8431V68.8431ZM67.5668 68.8431V69.0026M67.5668 69.0026V69.0026ZM67.5668 69.0026H67.7263M67.5668 69.0026L67.7263 69.1621M67.7263 69.0026V69.0026ZM67.7263 69.1621V69.1621ZM67.7263 69.1621L67.8859 69.3216M67.8859 69.3216H67.7263M67.8859 69.3216V69.3216ZM67.8859 69.3216V69.1621M67.7263 69.3216V69.3216ZM67.7263 69.3216V69.4812M67.7263 69.3216L67.8859 69.4812H67.7263M67.7263 69.4812V69.4812ZM67.7263 69.4812H67.5668M67.5668 69.4812V69.4812ZM67.8859 69.1621V69.1621ZM67.8859 69.1621V69.0026M67.8859 69.1621H68.0454M67.8859 69.0026H68.0454M67.8859 69.0026V69.0026ZM68.0454 69.1621V69.1621ZM68.0454 69.1621V69.0026M68.0454 69.1621H68.2049M68.0454 69.0026V69.0026ZM68.2049 69.1621V69.1621ZM68.2049 69.1621V69.3216M68.2049 69.3216V69.3216ZM68.2049 69.3216V69.4812M68.2049 69.4812V69.4812ZM68.2049 69.4812L68.0454 69.6407M68.0454 69.6407V69.6407ZM68.0454 69.6407L67.8859 69.8002M67.8859 69.8002V69.8002ZM67.8859 69.8002H67.7263V69.9598M67.7263 69.9598V69.9598ZM67.7263 69.9598V70.1193M67.7263 70.1193V70.1193ZM67.7263 70.1193H67.5668M67.5668 70.1193V70.1193ZM67.5668 70.1193H67.4073M67.4073 70.1193V70.1193ZM67.4073 70.1193H67.2478L67.0882 70.2788L66.9287 70.4384M66.9287 70.4384V70.4384ZM66.9287 70.4384H66.7692V70.5979M66.7692 70.5979V70.5979ZM66.7692 70.5979L66.6096 70.7574M66.6096 70.7574V70.7574ZM66.6096 70.7574L66.4501 70.9169M66.4501 70.9169V70.9169ZM66.4501 70.9169H66.2906V71.0765M66.2906 71.0765V71.0765ZM66.2906 71.0765H66.131M66.131 71.0765V71.0765ZM66.131 71.0765H65.9715M65.9715 71.0765V71.0765ZM65.9715 71.0765H65.812V70.9169M65.812 70.9169V70.9169ZM65.812 70.9169H65.6525M65.6525 70.9169V70.9169ZM65.6525 70.9169H65.4929M65.4929 70.9169V70.9169ZM65.4929 70.9169L65.3334 70.7574M65.3334 70.7574V70.7574ZM65.3334 70.7574V70.9169M65.3334 70.9169V70.9169ZM65.3334 70.9169H65.1739M65.1739 70.9169V70.9169ZM65.1739 70.9169H65.0143M65.0143 70.9169V70.9169ZM65.0143 70.9169H64.6953M64.6953 70.9169V70.9169ZM64.6953 70.9169H64.5357M64.5357 70.9169V70.9169ZM64.5357 70.9169L64.3762 71.0765M64.3762 71.0765V71.0765ZM64.3762 71.0765L64.0572 71.236M64.0572 71.236V71.236ZM64.0572 71.236H63.8976L63.7381 71.3955H63.5786M63.5786 71.3955V71.3955ZM63.5786 71.3955H63.419M63.419 71.3955V71.3955ZM63.419 71.3955V71.5551M63.419 71.5551V71.5551ZM63.419 71.5551H63.2595M63.2595 71.5551V71.5551ZM63.2595 71.5551H63.1V71.7146M63.1 71.7146V71.7146ZM63.1 71.7146H62.9404M62.9404 71.7146V71.7146ZM62.9404 71.7146V71.8741M62.9404 71.8741V71.8741ZM62.9404 71.8741H62.7809M62.7809 71.8741V71.8741ZM62.7809 71.8741V72.0337M62.7809 72.0337V72.0337ZM62.7809 72.0337L62.6214 72.1932L62.4619 72.3527V72.5122H62.3023V72.6718M62.3023 72.6718V72.6718ZM62.3023 72.6718L62.1428 72.8313M62.1428 72.8313V72.8313ZM62.1428 72.8313V72.9908M62.1428 72.9908V72.9908ZM62.1428 72.9908V73.1504M62.1428 73.1504V73.1504ZM62.1428 73.1504V73.3099M62.1428 73.3099V73.3099ZM62.1428 73.3099V73.4694M62.1428 73.4694V73.4694ZM62.1428 73.4694V73.629M62.1428 73.629V73.629ZM62.1428 73.629L61.9833 73.7885M61.9833 73.7885V73.7885ZM61.9833 73.7885V73.948M61.9833 73.948V73.948ZM61.9833 73.948V74.1075M61.9833 74.1075V74.1075ZM61.9833 74.1075V74.2671M61.9833 74.2671V74.2671ZM61.9833 74.2671V74.4266M61.9833 74.4266V74.4266ZM61.9833 74.4266V74.5861H61.8237M61.8237 74.5861V74.5861ZM61.8237 74.5861V74.7457M61.8237 74.7457V74.7457ZM61.8237 74.7457H61.9833M61.9833 74.7457V74.7457ZM61.9833 74.7457V74.9052M61.9833 74.9052V74.9052ZM61.9833 74.9052L62.1428 75.0647M62.1428 75.0647V75.0647ZM62.1428 75.0647V75.2243M62.1428 75.2243V75.2243ZM62.1428 75.2243H61.9833M62.1428 75.2243H62.3023M61.9833 75.2243V75.2243ZM61.9833 75.2243L61.8237 75.0647M61.9833 75.2243V75.3838M61.8237 75.0647V75.0647ZM61.8237 75.0647L61.6642 75.2243M61.6642 75.2243V75.2243ZM61.6642 75.2243V75.3838M61.6642 75.3838V75.3838ZM61.6642 75.3838V75.5433M61.6642 75.5433V75.5433ZM61.6642 75.5433V75.7028M61.6642 75.7028V75.7028ZM61.6642 75.7028V75.8624H61.8237V75.7028M61.8237 75.7028V75.7028ZM61.8237 75.7028V75.5433H61.9833M61.9833 75.5433V75.5433ZM61.9833 75.5433V75.3838M61.9833 75.3838V75.3838ZM61.9833 75.3838H62.1428M62.1428 75.3838H62.3023M62.1428 75.3838V75.5433M62.3023 75.2243V75.2243ZM62.3023 75.2243H62.4619M62.4619 75.2243V75.2243ZM62.4619 75.2243V75.0647H62.6214M62.4619 75.2243H62.6214M62.4619 75.2243V75.3838M62.6214 75.0647V75.0647ZM62.6214 75.0647V75.2243M62.6214 75.2243V75.2243ZM62.4619 75.3838V75.3838ZM62.4619 75.3838H62.3023M62.3023 75.3838V75.3838ZM62.1428 75.5433V75.5433ZM62.1428 75.5433V75.7028M62.1428 75.7028V75.7028ZM62.1428 75.7028H61.9833M61.9833 75.7028V75.7028ZM61.9833 75.7028V75.8624M61.9833 75.8624V75.8624ZM61.9833 75.8624V76.0219M61.9833 76.0219V76.0219ZM61.9833 76.0219H61.8237M61.8237 76.0219V76.0219ZM61.8237 76.0219V76.1814M61.8237 76.1814V76.1814ZM61.8237 76.1814V76.341V76.5005M61.8237 76.5005V76.5005ZM61.8237 76.5005V76.66M61.8237 76.66V76.66ZM61.8237 76.66V76.8196M61.8237 76.8196V76.8196ZM61.8237 76.8196H61.6642M61.6642 76.8196V76.8196ZM61.6642 76.8196V76.9791M61.6642 76.9791V76.9791ZM61.6642 76.9791V77.1386H61.5047M61.5047 77.1386V77.1386ZM61.5047 77.1386V77.2981M61.5047 77.2981V77.2981ZM61.5047 77.2981V77.4577M61.5047 77.4577V77.4577ZM61.5047 77.4577V77.6172M61.5047 77.6172V77.6172ZM61.5047 77.6172V77.7767M61.5047 77.7767V77.7767ZM61.5047 77.7767V77.9363M61.5047 77.9363V77.9363ZM61.5047 77.9363V78.0958M61.5047 78.0958V78.0958ZM61.5047 78.0958H61.3451V78.2553M61.3451 78.2553V78.2553ZM61.3451 78.2553L61.1856 78.4149H61.0261M61.0261 78.4149V78.4149ZM61.0261 78.4149H60.8666V78.5744M60.8666 78.5744V78.5744ZM60.8666 78.5744H60.707M60.707 78.5744V78.5744ZM60.707 78.5744V78.7339M60.707 78.7339V78.7339ZM60.707 78.7339H60.5475M60.5475 78.7339V78.7339ZM60.5475 78.7339H60.388V78.8934M60.388 78.8934V78.8934ZM60.388 78.8934H60.2284M60.2284 78.8934V78.8934ZM60.2284 78.8934V79.053M60.2284 79.053V79.053ZM60.2284 79.053H60.0689M60.0689 79.053V79.053ZM60.0689 79.053H59.9094M59.9094 79.053V79.053ZM59.9094 79.053V79.2125M59.9094 79.2125V79.2125ZM59.9094 79.2125H60.0689M59.9094 79.2125V79.372M59.9094 79.372V79.372ZM59.9094 79.372V79.5316M59.9094 79.5316V79.5316ZM59.9094 79.5316H59.7498V79.6911M59.7498 79.6911V79.6911ZM59.7498 79.6911V79.8506M59.7498 79.8506V79.8506ZM59.7498 79.8506V80.0102H59.5903M59.5903 80.0102V80.0102ZM59.5903 80.0102V80.1697M59.5903 80.1697V80.1697ZM59.5903 80.1697V80.3292M59.5903 80.3292V80.3292ZM59.5903 80.3292L59.4308 80.4887M59.4308 80.4887V80.4887ZM59.4308 80.4887V80.6483V80.8078H59.2713V80.9673M59.2713 80.9673V80.9673ZM59.2713 80.9673V81.1269M59.2713 81.1269V81.1269ZM59.2713 81.1269L59.1117 81.2864M59.1117 81.2864V81.2864ZM59.1117 81.2864V81.4459M59.1117 81.4459V81.4459ZM59.1117 81.4459H58.9522M58.9522 81.4459V81.4459ZM58.9522 81.4459V81.6055M58.9522 81.6055V81.6055ZM58.9522 81.6055L59.1117 81.765H58.9522M58.9522 81.765V81.765ZM58.9522 81.765V81.9245M58.9522 81.9245V81.9245ZM58.9522 81.9245H59.1117V82.084M59.1117 82.084V82.084ZM59.1117 82.084H58.9522M58.9522 82.084V82.084ZM58.9522 82.084V82.2436M58.9522 82.2436V82.2436ZM58.9522 82.2436V82.4031M58.9522 82.4031V82.4031ZM58.9522 82.4031V82.5626M58.9522 82.5626V82.5626ZM58.9522 82.5626H58.7927M58.7927 82.5626V82.5626ZM58.7927 82.5626V82.7222M58.7927 82.7222V82.7222ZM58.7927 82.7222V82.8817M58.7927 82.8817V82.8817ZM58.7927 82.8817V83.0412M58.7927 83.0412V83.0412ZM58.7927 83.0412H58.6331M58.6331 83.0412V83.0412ZM58.6331 83.0412V83.2008M58.6331 83.2008V83.2008ZM58.6331 83.2008V83.3603M58.6331 83.3603V83.3603ZM58.6331 83.3603V83.5198H58.4736M58.4736 83.5198V83.5198ZM58.4736 83.5198V83.6793M58.4736 83.6793V83.6793ZM58.4736 83.6793V83.8389H58.3141M58.3141 83.8389V83.8389ZM58.3141 83.8389V83.9984M58.3141 83.9984V83.9984ZM58.3141 83.9984V84.1579M58.3141 84.1579V84.1579ZM58.3141 84.1579H58.1545V84.3175M58.1545 84.3175V84.3175ZM58.1545 84.3175V84.477M58.1545 84.477V84.477ZM58.1545 84.477H57.995M57.995 84.477V84.477ZM57.995 84.477V84.6365M57.995 84.6365V84.6365ZM57.995 84.6365L57.8355 84.7961M57.8355 84.7961V84.7961ZM57.8355 84.7961V84.9556H57.676M57.676 84.9556V84.9556ZM57.676 84.9556V85.1151M57.676 85.1151V85.1151ZM57.676 85.1151V85.2746M57.676 85.2746V85.2746ZM57.676 85.2746H57.5164M57.5164 85.2746V85.2746ZM57.5164 85.2746V85.4342M57.5164 85.4342V85.4342ZM57.5164 85.4342V85.5937H57.3569M57.3569 85.5937V85.5937ZM57.3569 85.5937H57.1974M57.1974 85.5937V85.5937ZM57.1974 85.5937V85.7532M57.1974 85.7532V85.7532ZM57.1974 85.7532V85.9128M57.1974 85.9128V85.9128ZM57.1974 85.9128L57.0378 86.0723M57.0378 86.0723V86.0723ZM57.0378 86.0723V86.2318M57.0378 86.2318V86.2318ZM57.0378 86.2318H56.8783V86.3914M56.8783 86.3914V86.3914ZM56.8783 86.3914V86.5509M56.8783 86.5509V86.5509ZM56.8783 86.5509H56.7188M56.7188 86.5509V86.5509ZM56.7188 86.5509V86.7104M56.7188 86.7104V86.7104ZM56.7188 86.7104V86.8699M56.7188 86.8699V86.8699ZM56.7188 86.8699H56.5592M56.5592 86.8699V86.8699ZM56.5592 86.8699V87.0295M56.5592 87.0295V87.0295ZM56.5592 87.0295V87.189M56.5592 87.189V87.189ZM56.5592 87.189V87.3485H56.3997M56.3997 87.3485V87.3485ZM56.3997 87.3485V87.5081M56.3997 87.5081V87.5081ZM56.3997 87.5081V87.6676M56.3997 87.6676V87.6676ZM56.3997 87.6676V87.8271M56.3997 87.8271V87.8271ZM56.3997 87.8271H56.2402M56.2402 87.8271V87.8271ZM56.2402 87.8271V87.9867M56.2402 87.9867V87.9867ZM56.2402 87.9867V88.1462M56.2402 88.1462V88.1462ZM56.2402 88.1462L56.0807 88.3057M56.0807 88.3057V88.3057ZM56.0807 88.3057V88.4652M56.0807 88.4652V88.4652ZM56.0807 88.4652V88.6248M56.0807 88.6248V88.6248ZM56.0807 88.6248H55.9211V88.7843M55.9211 88.7843V88.7843ZM55.9211 88.7843V88.9438M55.9211 88.9438V88.9438ZM55.9211 88.9438V89.1034M55.9211 89.1034V89.1034ZM55.9211 89.1034V89.2629H55.7616M55.7616 89.2629V89.2629ZM55.7616 89.2629V89.1034M55.7616 89.1034V89.1034ZM55.7616 89.1034V88.9438M55.7616 88.9438V88.9438ZM55.7616 88.9438L55.6021 89.1034M55.6021 89.1034V88.9438M55.6021 89.1034V89.1034ZM55.6021 89.1034V89.2629M55.6021 88.9438V88.9438ZM55.6021 89.2629V89.2629ZM55.6021 89.2629H55.4425M55.4425 89.2629V89.2629ZM55.4425 89.2629V89.4224M55.4425 89.4224V89.4224ZM55.4425 89.4224V89.582M55.4425 89.582V89.582ZM55.4425 89.582H55.283M55.283 89.582V89.582ZM55.283 89.582V89.7415M55.283 89.7415V89.7415ZM55.283 89.7415V89.901M55.283 89.901V89.901ZM55.283 89.901H55.1235M55.1235 89.901V89.901ZM55.1235 89.901V90.0605M55.1235 90.0605V90.0605ZM55.1235 90.0605V90.2201M55.1235 90.2201V90.2201ZM55.1235 90.2201V90.3796M55.1235 90.3796V90.3796ZM55.1235 90.3796V90.5391M55.1235 90.5391V90.5391ZM55.1235 90.5391H54.9639M54.9639 90.5391V90.5391ZM54.9639 90.5391V90.6987M54.9639 90.5391H54.8044M54.9639 90.6987V90.6987ZM54.8044 90.5391V90.5391ZM54.8044 90.5391V90.3796M54.8044 90.5391H54.6449M54.8044 90.3796V90.3796ZM54.6449 90.5391V90.5391ZM54.6449 90.5391L54.4854 90.6987M54.4854 90.6987V90.5391M54.4854 90.6987V90.6987ZM54.4854 90.6987V90.8582M54.4854 90.5391V90.5391ZM54.4854 90.8582V90.8582ZM54.4854 90.8582V91.0177M54.4854 91.0177V91.0177ZM54.4854 91.0177L54.6449 91.1773M54.6449 91.1773V91.1773ZM54.6449 91.1773H54.4854M54.4854 91.1773V91.1773ZM54.4854 91.1773H54.3258M54.3258 91.1773V91.1773ZM54.3258 91.1773H54.1663M54.1663 91.1773V91.1773ZM54.1663 91.1773H54.0068M54.0068 91.1773V91.1773ZM54.0068 91.1773H53.8472M53.8472 91.1773V91.1773ZM53.8472 91.1773H53.6877M53.6877 91.1773V91.1773ZM53.6877 91.1773H53.5282V91.0177H53.6877M53.6877 91.0177V91.0177ZM53.6877 91.0177V90.8582M53.6877 90.8582V90.8582ZM53.6877 90.8582H53.5282M53.5282 90.8582V90.8582ZM53.5282 90.8582H53.3686M53.3686 90.8582V90.8582ZM53.3686 90.8582V90.6987M53.3686 90.8582V91.0177M53.3686 90.6987V90.6987ZM53.3686 91.0177V91.0177ZM53.3686 91.0177H53.2091M53.2091 91.0177V91.0177ZM53.2091 91.0177V90.8582M53.2091 91.0177H53.0496M53.0496 91.0177V91.0177ZM53.0496 91.0177V91.1773M53.0496 91.1773V91.1773ZM53.0496 91.1773H52.8901M52.8901 91.1773V91.1773ZM52.8901 91.1773V91.3368M52.8901 91.3368V91.3368ZM52.8901 91.3368V91.4963M52.8901 91.4963V91.4963ZM52.8901 91.4963H52.7305M52.7305 91.4963V91.4963ZM52.7305 91.4963L52.571 91.3368M52.571 91.3368V91.3368ZM52.571 91.3368V91.4963M52.571 91.3368L51.7733 90.6987L49.0613 88.7843L45.5517 86.5509L45.3922 86.3914L44.5945 85.7532L40.9253 83.2008L39.33 81.9245L39.011 81.765L38.8514 81.1269L38.6919 80.8078V80.6483M38.6919 80.6483V80.6483ZM38.6919 80.6483L38.5324 80.4887L38.2133 80.3292L38.0538 80.1697M38.0538 80.1697V80.1697ZM38.0538 80.1697H37.8942L37.5752 80.3292H37.4157H37.2561M37.2561 80.3292V80.3292ZM37.2561 80.3292V80.1697M37.2561 80.1697V80.1697ZM37.2561 80.1697L37.4157 80.0102V79.8506M37.4157 79.8506V79.8506ZM37.4157 79.8506H37.2561H37.0966M37.0966 79.8506V79.8506ZM37.0966 79.8506V79.5316L37.8942 78.7339H38.0538M38.0538 78.7339V78.7339ZM38.0538 78.7339L38.3728 78.2553L38.0538 77.1386V76.8196L37.8942 75.8624L37.5752 75.7028L37.4157 75.5433L36.9371 75.2243L36.618 75.0647L36.4585 74.9052L35.9799 74.5861H35.6608V74.4266L35.3418 74.2671H35.1822L34.8632 74.1075L34.7036 73.948L34.3846 73.7885L34.2251 73.629L33.906 73.4694L33.5869 73.3099H33.4274L32.1512 72.5122L31.513 72.1932L30.8749 71.7146L30.3963 71.5551L29.9177 71.236L29.7582 71.0765H29.5987L29.4392 70.9169L27.8439 70.1193L27.0462 69.6407L26.4081 69.3216L26.089 69.1621L25.9295 69.0026L25.4509 68.6835L23.5365 67.7263L23.2175 67.5668L22.8984 67.2478L22.2603 66.9287L21.7817 66.7692L19.8674 65.6525L19.3888 65.3334L18.7506 65.0143L18.2721 64.6953L17.6339 64.3762L16.8363 63.8976L16.3577 63.5786L16.0386 63.419L15.7196 63.2595L15.241 62.9404L14.7624 62.6214L14.1243 62.3023L13.6457 62.1428L13.3266 61.9833L13.1671 61.8237L12.848 61.6642L12.529 61.5047L12.3694 61.3451L11.5718 60.8666L11.2527 60.707L11.0932 60.5475L10.7741 60.388H10.6146L10.4551 60.2284L10.136 60.0689M10.136 60.0689V60.0689ZM10.136 60.0689L9.65744 59.9094L9.33838 59.7498L9.17885 59.5903L8.85979 59.4308L8.70026 59.2713H8.54073L8.3812 59.1117L8.22167 58.9522L7.90261 58.7927L7.58355 58.6331L7.26449 58.4736H7.10496L6.94543 58.3141M6.94543 58.3141V58.3141ZM6.94543 58.3141L6.30731 57.995L5.1906 57.3569L4.71201 57.0378L3.75483 56.5592M3.75483 56.5592V56.5592ZM3.75483 56.5592L3.5953 56.3997M3.5953 56.3997H3.43577M3.5953 56.3997V56.3997ZM3.5953 56.3997V56.2402M3.5953 56.2402V56.2402ZM3.5953 56.2402V56.0807M3.5953 56.0807V56.0807ZM3.5953 56.0807H3.43577M3.5953 56.0807V55.9211M3.5953 56.0807H3.75483M3.43577 56.0807V56.0807ZM3.43577 56.0807L3.27624 56.2402M3.43577 56.0807H3.27624M3.43577 56.0807V55.9211M3.27624 56.2402V56.2402ZM3.27624 56.2402H3.11671M3.11671 56.2402V56.2402ZM3.11671 56.2402V56.3997M3.11671 56.2402V56.0807M3.11671 56.3997V56.3997ZM3.11671 56.0807V56.0807ZM3.11671 56.0807H2.95718M3.11671 56.0807H3.27624M2.95718 56.0807V56.0807ZM3.27624 56.0807V56.0807ZM3.43577 55.9211V55.9211ZM3.43577 55.9211H3.5953M3.5953 55.9211V55.9211ZM3.75483 56.0807V56.0807ZM3.75483 56.0807V56.2402M3.75483 56.2402V56.2402ZM3.75483 56.2402H3.91436M3.91436 56.2402V56.2402ZM3.91436 56.2402V56.0807M3.91436 56.0807V56.0807ZM3.91436 56.0807V55.9211M3.91436 55.9211V55.9211ZM3.91436 55.9211H3.75483M3.91436 55.9211V55.7616M3.75483 55.9211V55.9211ZM3.91436 55.7616V55.7616ZM3.91436 55.7616V55.6021M3.91436 55.6021V55.6021ZM3.91436 55.6021V55.4425M3.91436 55.4425V55.4425ZM3.91436 55.4425V55.283M3.91436 55.283V55.283ZM3.91436 55.283H4.07389M4.07389 55.283V55.283ZM4.07389 55.283V55.1235M4.07389 55.1235V55.1235ZM4.07389 55.1235H4.23342M4.23342 55.1235V55.1235ZM4.23342 55.1235V54.9639M4.23342 54.9639V54.9639ZM4.23342 54.9639H4.39295M4.39295 54.9639V54.9639ZM4.39295 54.9639L4.55248 54.8044M4.55248 54.8044V54.8044ZM4.55248 54.8044H4.39295M4.39295 54.8044V54.8044ZM4.39295 54.8044V54.6449M4.39295 54.6449V54.6449ZM4.39295 54.6449H4.23342M4.23342 54.6449V54.6449ZM4.23342 54.6449H4.07389M4.07389 54.6449V54.6449ZM4.07389 54.6449V54.4854M4.07389 54.4854V54.4854ZM4.07389 54.4854H3.91436M3.91436 54.4854V54.4854ZM3.91436 54.4854V54.3258M3.91436 54.3258V54.3258ZM3.91436 54.3258H3.75483M3.75483 54.3258V54.3258ZM3.75483 54.3258V54.1663M3.75483 54.1663V54.1663ZM3.75483 54.1663H3.5953M3.5953 54.1663V54.1663ZM3.5953 54.1663V54.3258M3.5953 54.1663H3.43577M3.5953 54.3258V54.3258ZM3.43577 54.1663V54.1663ZM3.43577 54.1663H3.27624M3.27624 54.1663V54.1663ZM3.27624 54.1663V54.0068M3.27624 54.0068V54.0068ZM3.27624 54.0068H3.43577M3.43577 54.0068V54.0068ZM3.43577 54.0068V53.8472M3.43577 53.8472V53.8472ZM3.43577 53.8472H3.27624M3.43577 53.8472L3.27624 53.6877M3.27624 53.8472V53.8472ZM3.27624 53.6877V53.6877ZM3.27624 53.6877H3.43577M3.27624 53.6877V53.5282M3.27624 53.5282V53.5282ZM3.27624 53.5282H3.11671M3.11671 53.5282V53.5282ZM3.11671 53.5282H2.95718M3.11671 53.5282V53.3686M2.95718 53.5282V53.5282ZM3.11671 53.3686V53.3686ZM3.11671 53.3686H3.27624M3.11671 53.3686V53.2091M3.27624 53.3686V53.3686ZM3.11671 53.2091V53.2091ZM3.11671 53.2091V53.0496M3.11671 53.0496V53.0496ZM3.11671 53.0496V52.8901M3.11671 52.8901V52.8901ZM3.11671 52.8901V52.7305M3.11671 52.7305V52.7305ZM3.11671 52.7305V52.571M3.11671 52.571V52.571ZM3.11671 52.571H3.27624M3.27624 52.571V52.571ZM3.27624 52.571H3.43577M3.43577 52.571V52.571ZM3.43577 52.571V52.4115M3.43577 52.4115V52.4115ZM3.43577 52.4115L3.5953 52.2519M3.5953 52.2519V52.2519ZM3.5953 52.2519H3.43577M3.43577 52.2519V52.2519ZM3.43577 52.2519H3.27624L3.43577 52.0924M3.43577 52.0924V52.0924ZM3.43577 52.0924H3.27624M3.27624 52.0924V52.0924ZM3.27624 52.0924V51.9329M3.27624 51.9329V51.9329ZM3.27624 51.9329H3.43577M3.43577 51.9329V51.9329ZM3.43577 51.9329H3.5953M3.5953 51.9329V51.9329ZM3.5953 51.9329V51.7733H3.75483M3.75483 51.7733V51.7733ZM3.75483 51.7733V51.6138M3.75483 51.7733H3.91436M3.75483 51.6138V51.6138ZM3.91436 51.7733V51.7733ZM3.91436 51.7733L4.07389 51.6138M4.07389 51.6138V51.7733H4.23342V51.6138M4.07389 51.6138V51.6138ZM4.23342 51.6138V51.6138ZM4.23342 51.6138V51.4543M4.23342 51.4543V51.4543ZM4.23342 51.4543V51.2948M4.23342 51.2948V51.2948ZM4.23342 51.2948V51.1352M4.23342 51.1352V51.1352ZM4.23342 51.1352V50.9757M4.23342 50.9757V50.9757ZM4.23342 50.9757H4.39295M4.39295 50.9757V50.9757ZM4.39295 50.9757V50.8162M4.39295 50.8162V50.8162ZM4.39295 50.8162H4.55248M4.55248 50.8162V50.8162ZM4.55248 50.8162V50.6566M4.55248 50.6566V50.6566ZM4.55248 50.6566V50.4971M4.55248 50.6566H4.71201M4.55248 50.4971V50.4971ZM4.55248 50.4971H4.39295M4.55248 50.4971H4.71201M4.39295 50.4971V50.4971ZM4.39295 50.4971V50.6566M4.39295 50.6566V50.6566ZM4.39295 50.6566H4.23342M4.23342 50.6566V50.6566ZM4.23342 50.6566H4.07389M4.07389 50.6566V50.6566ZM4.07389 50.6566V50.4971H3.91436M3.91436 50.4971V50.6566M3.91436 50.4971H3.75483M3.91436 50.4971V50.4971ZM3.91436 50.4971L4.07389 50.3376M3.91436 50.6566V50.6566ZM3.91436 50.6566H3.75483M3.75483 50.6566V50.6566ZM3.75483 50.6566V50.4971M3.75483 50.4971V50.4971ZM4.07389 50.3376V50.3376ZM4.07389 50.3376H4.23342V50.178M4.23342 50.178V50.178ZM4.23342 50.178H4.07389M4.23342 50.178V50.0185M4.23342 50.178H4.39295M4.07389 50.178V50.178ZM4.07389 50.178L4.23342 50.0185M4.23342 50.0185V50.0185ZM4.39295 50.178V50.178ZM4.39295 50.178H4.55248M4.55248 50.178V50.178ZM4.55248 50.178V50.3376M4.55248 50.3376V50.3376ZM4.55248 50.3376L4.71201 50.178M4.71201 50.178V50.178ZM4.71201 50.178V50.0185M4.71201 50.178V50.3376M4.71201 50.0185V50.0185ZM4.71201 50.0185V49.859M4.71201 50.0185L4.87154 49.859M4.71201 49.859V49.859ZM4.71201 49.859H4.87154M4.87154 49.859V49.859ZM4.71201 50.3376V50.3376ZM4.71201 50.3376V50.4971M4.71201 50.4971V50.4971ZM4.71201 50.4971V50.6566M4.71201 50.6566V50.6566ZM4.71201 50.6566H4.87154M4.87154 50.6566V50.6566ZM4.87154 50.6566H5.03107M5.03107 50.6566V50.6566ZM5.03107 50.6566V50.8162H5.1906M5.1906 50.8162V50.8162ZM5.1906 50.8162H5.35013M5.35013 50.8162V50.8162ZM5.35013 50.8162V50.9757M5.35013 50.9757V50.9757ZM5.35013 50.9757H5.50966M5.50966 50.9757V50.9757ZM5.50966 50.9757V51.1352M5.50966 50.9757H5.66919M5.50966 51.1352V51.1352ZM5.50966 51.1352H5.66919M5.66919 51.1352V51.1352ZM5.66919 51.1352V50.9757M5.66919 50.9757V50.9757ZM5.66919 50.9757V50.8162M5.66919 50.9757H5.82872M5.66919 50.8162V50.8162ZM5.82872 50.9757V50.9757ZM5.82872 50.9757V51.1352M5.82872 51.1352V51.1352ZM5.82872 51.1352L5.98825 51.2948M5.98825 51.2948V51.2948ZM5.98825 51.2948V51.1352M5.98825 51.1352V51.1352ZM5.98825 51.1352H6.14778M6.14778 51.1352V51.1352ZM6.14778 51.1352V50.9757M6.14778 50.9757V50.9757ZM6.14778 50.9757V50.8162M6.14778 50.8162V50.8162ZM6.14778 50.8162H6.30731M6.30731 50.8162V50.8162ZM6.30731 50.8162H6.46684M6.46684 50.8162V50.8162ZM6.46684 50.8162V50.9757M6.46684 50.9757V50.9757ZM6.46684 50.9757H6.62637M6.46684 50.9757V51.1352H6.62637M6.62637 50.9757V50.9757ZM6.62637 51.1352V51.1352ZM6.62637 51.1352V51.2948M6.62637 51.2948V51.2948ZM6.62637 51.2948H6.7859M6.62637 51.2948V51.4543M6.7859 51.2948V51.1352M6.7859 51.2948V51.2948ZM6.7859 51.1352V51.1352ZM6.62637 51.4543V51.4543ZM6.62637 51.4543V51.6138M6.62637 51.6138V51.6138ZM6.62637 51.6138H6.7859M6.7859 51.6138V51.6138ZM6.7859 51.6138L6.94543 51.4543M6.94543 51.4543V51.4543ZM6.94543 51.4543H7.10496M7.10496 51.4543V51.4543ZM7.10496 51.4543L7.26449 51.2948M7.26449 51.2948V51.2948ZM7.26449 51.2948H7.42402M7.42402 51.2948V51.2948ZM7.42402 51.2948L7.26449 51.1352M7.26449 51.1352V51.1352ZM7.26449 51.1352H7.42402M7.42402 51.1352V51.1352ZM7.42402 51.1352H7.58355V50.9757M7.58355 50.9757V50.9757ZM7.58355 50.9757L7.42402 50.8162H7.26449M7.26449 50.8162V50.8162ZM7.26449 50.8162V50.6566H7.10496M7.10496 50.6566V50.6566ZM7.10496 50.6566V50.4971M7.10496 50.4971V50.4971ZM7.10496 50.4971H6.94543M6.94543 50.4971V50.4971ZM6.94543 50.4971V50.3376M6.94543 50.3376V50.3376ZM6.94543 50.3376V50.178M6.94543 50.178V50.178ZM6.94543 50.178V50.0185M6.94543 50.0185V50.0185ZM6.94543 50.0185H7.10496M7.10496 50.0185V50.0185ZM7.10496 50.0185V49.859M7.10496 49.859V49.859ZM7.10496 49.859H7.26449M7.26449 49.859V49.859ZM7.26449 49.859H7.42402M7.42402 49.859V49.859ZM7.42402 49.859V49.6995M7.42402 49.6995V49.6995ZM7.42402 49.6995H7.58355M7.58355 49.6995V49.6995ZM7.58355 49.6995H7.74308M7.74308 49.6995V49.6995ZM7.74308 49.6995H7.90261H8.06214M8.06214 49.6995V49.6995ZM8.06214 49.6995H8.22167V49.859M8.22167 49.859V49.859ZM8.22167 49.859H8.3812H8.54073M8.54073 49.859V49.859ZM8.54073 49.859V49.6995H8.70026V49.859M8.70026 49.859V49.859ZM8.70026 49.859H8.85979M8.85979 49.859V49.859ZM8.85979 49.859H9.01932M9.01932 49.859V49.859ZM9.01932 49.859H9.17885M9.17885 49.859V49.859ZM9.17885 49.859H9.33838M9.33838 49.859V49.859ZM9.33838 49.859H9.49791M9.49791 49.859V49.859ZM9.49791 49.859H9.65744M9.65744 49.859V49.859ZM9.65744 49.859H9.81697M9.81697 49.859V49.859ZM9.81697 49.859H9.9765M9.9765 49.859V49.859ZM9.9765 49.859V49.6995M9.9765 49.6995V49.6995ZM9.9765 49.6995V49.5399M9.9765 49.5399V49.5399ZM9.9765 49.5399H9.81697M9.81697 49.5399V49.5399ZM9.81697 49.5399V49.3804M9.81697 49.3804V49.3804ZM9.81697 49.3804H9.9765M9.9765 49.3804V49.3804ZM9.9765 49.3804V49.2209M9.9765 49.3804H10.136M10.136 49.3804V49.3804ZM10.136 49.3804V49.2209M10.136 49.2209V49.2209ZM10.136 49.2209L10.2956 49.5399M10.2956 49.5399V49.5399ZM10.2956 49.5399H10.4551V49.6995M10.4551 49.6995V49.6995ZM10.4551 49.6995L10.6146 49.5399M10.6146 49.5399V49.5399ZM10.6146 49.5399H10.7741M10.7741 49.5399V49.5399ZM10.7741 49.5399V49.3804M10.7741 49.3804V49.3804ZM10.7741 49.3804V49.2209M10.7741 49.2209V49.2209ZM10.7741 49.2209H10.9337M10.9337 49.2209V49.2209ZM10.9337 49.2209V49.0613H10.7741M10.7741 49.0613V49.0613ZM10.7741 49.0613H10.6146M10.6146 49.0613V49.0613ZM10.6146 49.0613V48.9018M10.6146 48.9018V48.9018ZM10.6146 48.9018H10.4551M10.4551 48.9018V48.9018ZM10.4551 48.9018V49.0613M10.4551 48.9018V48.7423M10.4551 49.0613V49.0613ZM10.4551 48.7423V48.7423ZM10.4551 48.7423L10.2956 48.5827M10.2956 48.5827V48.5827ZM10.2956 48.5827V48.4232M10.2956 48.4232V48.4232ZM10.2956 48.4232H10.136M10.136 48.4232V48.4232ZM10.136 48.4232V48.2637M10.136 48.2637V48.2637ZM10.136 48.2637L9.9765 48.1042M9.9765 48.1042V48.1042ZM9.9765 48.1042V47.9446H9.81697M9.81697 47.9446V47.9446ZM9.81697 47.9446V48.1042M9.81697 47.9446H9.65744M9.81697 48.1042V48.1042ZM9.65744 47.9446V47.9446ZM9.65744 47.9446V47.7851M9.65744 47.7851V47.7851ZM9.65744 47.7851H9.81697M9.65744 47.7851L9.81697 47.6256M9.81697 47.7851V47.7851ZM9.81697 47.6256V47.6256ZM9.81697 47.6256V47.466M9.81697 47.466V47.466ZM9.81697 47.466V47.3065M9.81697 47.3065V47.3065ZM9.81697 47.3065H9.65744M9.65744 47.3065V47.3065ZM9.65744 47.3065V47.466M9.65744 47.466V47.466ZM9.65744 47.466H9.49791M9.49791 47.466V47.466ZM9.49791 47.466H9.33838V47.3065M9.33838 47.3065V47.3065ZM9.33838 47.3065H9.17885M9.17885 47.3065V47.3065ZM9.17885 47.3065V47.466M9.17885 47.466V47.466ZM9.17885 47.466H9.01932M9.01932 47.466V47.466ZM9.01932 47.466V47.6256M9.01932 47.6256V47.6256ZM9.01932 47.6256H8.85979M8.85979 47.6256V47.6256ZM8.85979 47.6256H8.70026M8.70026 47.6256V47.6256ZM8.70026 47.6256V47.7851M8.70026 47.7851V47.7851ZM8.70026 47.7851H8.54073V47.9446M8.54073 47.9446V47.9446ZM8.54073 47.9446H8.70026M8.54073 47.9446H8.3812M8.70026 47.9446V47.9446ZM8.3812 47.9446V47.9446ZM8.3812 47.9446V47.7851M8.3812 47.7851V47.7851ZM8.3812 47.7851H8.22167M8.22167 47.7851V47.9446M8.22167 47.7851V47.7851ZM8.22167 47.7851L8.06214 47.9446M8.22167 47.9446V47.9446ZM8.06214 47.9446V47.9446ZM8.06214 47.9446V47.7851M8.06214 47.9446H7.90261M8.06214 47.7851V47.7851ZM8.06214 47.7851H7.90261V47.9446M7.90261 47.9446V47.9446ZM7.90261 47.9446L7.74308 48.1042M7.74308 48.1042V48.1042ZM7.74308 48.1042V48.2637M7.74308 48.2637V48.2637ZM7.74308 48.2637H7.58355M7.58355 48.2637V48.2637ZM7.58355 48.2637V48.4232L7.42402 48.2637M7.42402 48.2637V48.2637ZM7.42402 48.2637V48.1042H7.26449V48.2637M7.26449 48.2637V48.2637ZM7.26449 48.2637H7.10496M7.10496 48.2637V48.2637ZM7.10496 48.2637V48.1042M7.10496 48.1042V48.1042ZM7.10496 48.1042H6.94543M6.94543 48.1042V48.1042ZM6.94543 48.1042H6.7859M6.7859 48.1042V48.1042ZM6.7859 48.1042H6.62637V48.2637M6.62637 48.2637V48.2637ZM6.62637 48.2637V48.4232M6.62637 48.4232V48.4232ZM6.62637 48.4232H6.46684M6.46684 48.4232V48.4232ZM6.46684 48.4232V48.2637M6.46684 48.2637V48.2637ZM6.46684 48.2637H6.30731M6.30731 48.2637V48.2637ZM6.30731 48.2637L6.14778 48.4232V48.2637M6.14778 48.2637V48.2637ZM6.14778 48.2637L5.98825 48.4232M5.98825 48.4232V48.4232ZM5.98825 48.4232V48.5827M5.98825 48.5827H5.82872M5.98825 48.5827V48.5827ZM5.98825 48.5827V48.7423M5.98825 48.7423V48.7423ZM5.98825 48.7423H6.14778M6.14778 48.7423V48.7423ZM6.14778 48.7423H6.30731M6.30731 48.7423V48.7423ZM6.30731 48.7423V48.9018M6.30731 48.9018V48.9018ZM6.30731 48.9018H6.46684V49.0613M6.46684 49.0613V49.0613ZM6.46684 49.0613V49.2209M6.46684 49.2209V49.2209ZM6.46684 49.2209V49.3804M6.46684 49.3804V49.3804ZM6.46684 49.3804H6.30731M6.30731 49.3804V49.3804ZM6.30731 49.3804V49.5399M6.30731 49.3804H6.14778V49.5399M6.14778 49.5399V49.5399ZM6.14778 49.5399V49.6995M6.14778 49.6995V49.6995ZM6.14778 49.6995H5.98825M5.98825 49.6995V49.6995ZM5.98825 49.6995V49.859M5.98825 49.859V49.859ZM5.98825 49.859H5.82872M5.82872 49.859V49.859ZM5.82872 49.859L5.66919 50.0185M5.66919 50.0185V50.0185ZM5.66919 50.0185H5.82872M5.66919 50.0185V50.178M5.66919 50.178V50.178ZM5.66919 50.178V50.3376M5.66919 50.3376V50.3376ZM5.66919 50.3376H5.50966M5.50966 50.3376V50.3376ZM5.50966 50.3376H5.35013M5.35013 50.3376V50.3376ZM5.35013 50.3376V50.178M5.35013 50.178V50.178ZM5.35013 50.178H5.50966M5.50966 50.178V50.178ZM5.50966 50.178V50.0185M5.50966 50.0185V50.0185ZM5.50966 50.0185V49.859M5.50966 49.859V49.859ZM5.50966 49.859H5.35013M5.35013 49.859V49.859ZM5.35013 49.859H5.1906M5.1906 49.859V49.859ZM5.1906 49.859V49.6995M5.1906 49.6995V49.6995ZM5.1906 49.6995H5.03107M5.03107 49.6995V49.6995ZM5.03107 49.6995V49.5399H5.1906M5.1906 49.5399V49.5399ZM5.1906 49.5399V49.3804M5.1906 49.3804V49.3804ZM5.1906 49.3804H5.03107M5.03107 49.3804V49.3804ZM5.03107 49.3804V49.2209M5.03107 49.2209V49.2209ZM5.03107 49.2209H5.1906M5.1906 49.2209V49.2209ZM5.1906 49.2209V49.0613M5.1906 49.0613V49.0613ZM5.1906 49.0613V48.9018M5.1906 48.9018V48.9018ZM5.1906 48.9018H5.03107M5.03107 48.9018V48.9018ZM5.03107 48.9018V48.7423M5.03107 48.7423V48.7423ZM5.03107 48.7423H4.87154M4.87154 48.7423V48.7423ZM4.87154 48.7423H4.71201M4.71201 48.7423V48.7423ZM4.71201 48.7423V48.9018M4.71201 48.7423H4.55248M4.71201 48.9018V48.9018ZM4.55248 48.7423V48.7423ZM4.55248 48.7423V48.5827M4.55248 48.5827V48.5827ZM4.55248 48.5827V48.4232M4.55248 48.4232H4.39295M4.55248 48.4232V48.2637M4.39295 48.4232V48.4232ZM4.39295 48.4232V48.5827M4.39295 48.4232V48.2637M4.39295 48.4232H4.23342M4.55248 48.2637V48.2637ZM4.55248 48.2637H4.39295M4.39295 48.2637V48.2637ZM4.23342 48.4232V48.4232ZM4.23342 48.4232H4.07389M4.07389 48.4232V48.4232ZM4.07389 48.4232H3.91436M3.91436 48.4232V48.4232ZM3.91436 48.4232V48.2637M3.91436 48.2637V48.2637ZM3.91436 48.2637H3.75483M3.75483 48.2637V48.2637ZM3.75483 48.2637V48.1042M3.75483 48.1042V48.1042ZM3.75483 48.1042H3.5953M3.5953 48.1042V48.1042ZM3.5953 48.1042V47.9446M3.5953 47.9446V47.9446ZM3.5953 47.9446H3.43577V47.7851H3.5953M3.5953 47.9446V47.7851M3.5953 47.7851V47.7851ZM3.5953 47.7851H3.75483M3.75483 47.7851V47.7851ZM3.75483 47.7851V47.6256M3.75483 47.6256V47.6256ZM3.75483 47.6256H3.91436M3.75483 47.6256V47.466M3.91436 47.6256V47.6256ZM3.91436 47.6256V47.7851M3.91436 47.6256H4.07389M3.91436 47.7851V47.7851ZM4.07389 47.6256V47.6256ZM3.75483 47.466V47.466ZM3.75483 47.466H3.91436M3.91436 47.466V47.466ZM3.91436 47.466L4.07389 47.3065M4.07389 47.3065V47.3065ZM4.07389 47.3065H3.91436M3.91436 47.3065V47.3065ZM3.91436 47.3065V47.147M3.91436 47.147V47.147ZM3.91436 47.147H4.07389V46.9874M3.91436 47.147V46.9874M3.91436 47.147H3.75483M4.07389 46.9874V46.9874ZM4.07389 46.9874H3.91436M3.91436 46.9874V46.9874ZM3.75483 47.147V47.147ZM3.75483 47.147H3.5953M3.5953 47.147V47.147ZM3.5953 47.147H3.43577M3.43577 47.147V47.147ZM3.43577 47.147V47.3065M3.43577 47.3065V47.3065ZM3.43577 47.3065H3.5953M3.43577 47.3065H3.27624M3.5953 47.3065V47.3065ZM3.27624 47.3065V47.466M3.27624 47.3065V47.3065ZM3.27624 47.3065V47.147M3.27624 47.466V47.466ZM3.27624 47.466H3.43577M3.27624 47.466V47.6256M3.27624 47.466H3.11671M3.43577 47.466V47.466ZM3.27624 47.6256V47.6256ZM3.11671 47.466V47.466ZM3.27624 47.147V47.147ZM3.27624 47.147H3.11671M3.11671 47.147V47.147ZM3.11671 47.147V47.3065M3.11671 47.3065V47.3065ZM3.11671 47.3065H2.95718M2.95718 47.3065V47.3065ZM2.95718 47.3065V47.147M2.95718 47.147V47.147ZM2.95718 47.147V46.9874M2.95718 46.9874V46.9874ZM2.95718 46.9874V46.8279M2.95718 46.8279V46.8279ZM2.95718 46.8279H2.79765M2.79765 46.8279V46.8279ZM2.79765 46.8279V46.9874M2.79765 46.8279H2.63812M2.79765 46.8279V46.6684H2.63812M2.79765 46.9874V46.9874ZM2.79765 46.9874H2.63812V46.8279M2.63812 46.8279V46.8279ZM2.63812 46.6684V46.6684ZM2.63812 46.6684V46.5089M2.63812 46.5089V46.5089ZM2.63812 46.5089V46.3493M2.63812 46.3493V46.3493ZM2.63812 46.3493H2.47859V46.1898M2.47859 46.1898V46.1898ZM2.47859 46.1898V46.0303H2.31906M2.31906 46.0303V46.0303ZM2.31906 46.0303V45.8707M2.31906 45.8707V45.8707ZM2.31906 45.8707H2.15953M2.15953 45.8707V45.8707ZM2.15953 45.8707V45.7112M2.15953 45.7112V45.7112ZM2.15953 45.7112H2L2.15953 45.5517M2.15953 45.5517V45.5517ZM2.15953 45.5517H2.31906M2.31906 45.5517V45.5517ZM2.31906 45.5517H2.47859M2.47859 45.5517V45.5517ZM2.47859 45.5517V45.3922M2.47859 45.3922V45.3922ZM2.47859 45.3922V45.2326M2.47859 45.2326V45.2326ZM2.47859 45.2326L2.63812 45.0731M2.63812 45.0731V45.0731ZM2.63812 45.0731L2.47859 44.9136M2.47859 44.9136V45.0731M2.47859 44.9136V44.9136ZM2.47859 44.9136H2.63812M2.47859 45.0731V45.0731ZM2.63812 44.9136V44.9136ZM2.63812 44.9136L2.47859 44.754M2.47859 44.754V44.754ZM2.47859 44.754H2.63812M2.63812 44.754V44.754ZM2.63812 44.754V44.5945M2.63812 44.5945V44.5945ZM2.63812 44.5945V44.435M2.63812 44.435V44.435ZM2.79765 44.2754V44.2754Z" stroke="#31A5E5"/>
<path d="M44 36.6C44.5683 36.6 45.1134 36.8107 45.5152 37.1858C45.9171 37.5609 46.1429 38.0696 46.1429 38.6C46.1429 38.8626 46.0874 39.1227 45.9797 39.3654C45.8721 39.608 45.7142 39.8285 45.5152 40.0142C45.3162 40.1999 45.08 40.3472 44.82 40.4478C44.5601 40.5483 44.2814 40.6 44 40.6C43.4317 40.6 42.8866 40.3893 42.4848 40.0142C42.0829 39.6391 41.8571 39.1304 41.8571 38.6C41.8571 38.0696 42.0829 37.5609 42.4848 37.1858C42.8866 36.8107 43.4317 36.6 44 36.6ZM44 33C45.5913 33 47.1174 33.59 48.2426 34.6402C49.3679 35.6904 50 37.1148 50 38.6C50 42.8 44 49 44 49C44 49 38 42.8 38 38.6C38 37.1148 38.6321 35.6904 39.7574 34.6402C40.8826 33.59 42.4087 33 44 33ZM44 34.6C42.8634 34.6 41.7733 35.0214 40.9695 35.7716C40.1658 36.5217 39.7143 37.5391 39.7143 38.6C39.7143 39.4 39.7143 41 44 46.368C48.2857 41 48.2857 39.4 48.2857 38.6C48.2857 37.5391 47.8342 36.5217 47.0305 35.7716C46.2267 35.0214 45.1366 34.6 44 34.6Z" fill="white"/>
</svg>
