<svg width="22" height="26" viewBox="0 0 22 26" fill="none" xmlns="http://www.w3.org/2000/svg">
<path d="M1.15948 21.2402V21.2402ZM1.15948 21.2402H1.31877M1.15948 21.2402V21.3995L1.31877 21.2402M1.31877 21.2402V21.2402ZM1.31877 21.2402V21.0809M1.31877 21.0809V21.0809ZM1.31877 21.0809V20.9216M1.31877 21.0809H1.47805M1.31877 20.9216V20.9216ZM1.31877 20.9216H1.47805M1.47805 20.9216V20.9216ZM1.47805 20.9216V20.7623M1.47805 20.9216H1.63733M1.47805 20.9216V21.0809M1.47805 20.7623V20.7623ZM1.47805 20.7623H1.63733M1.63733 20.7623V20.7623ZM1.63733 20.7623H1.79661M1.63733 20.7623V20.9216M1.79661 20.7623V20.7623ZM1.63733 20.9216V20.9216ZM1.47805 21.0809V21.0809Z" stroke="#31A5E5"/>
<path d="M1.31906 21.8791V21.8791ZM1.31906 21.8791V21.7196M1.31906 21.8791V22.0386M1.31906 21.7196V21.7196ZM1.31906 21.7196H1.47859V21.56M1.31906 21.7196L1.47859 21.56M1.31906 21.7196V21.56M1.47859 21.56V21.56ZM1.31906 21.56V21.56ZM1.31906 21.56V21.4005M1.31906 21.4005V21.4005ZM1.31906 21.4005H1.47859M1.47859 21.4005V21.4005ZM1.47859 21.4005V21.241M1.47859 21.241V21.241ZM1.47859 21.241V21.0815M1.47859 21.0815V21.0815ZM1.47859 21.0815H1.63812M1.63812 21.0815V21.0815ZM1.63812 21.0815V20.9219M1.63812 21.0815H1.79765M1.63812 20.9219V20.9219ZM1.79765 21.0815V21.0815ZM1.79765 21.0815V20.9219M1.79765 20.9219V20.9219ZM1.79765 20.9219V20.7624L1.95718 20.9219M1.79765 20.9219H1.95718M1.95718 20.9219V20.9219ZM1.95718 20.9219H2.11671M2.11671 20.9219V20.9219ZM2.11671 20.9219V21.0815M2.11671 20.9219V20.7624H2.27624M2.27624 20.7624V20.7624ZM2.27624 20.7624V20.9219M2.27624 20.7624H2.43577M2.27624 20.9219V20.9219ZM2.43577 20.7624V20.7624ZM2.43577 20.7624L2.27624 20.6029M2.27624 20.6029V20.6029ZM2.27624 20.6029H2.43577M2.43577 20.6029V20.6029ZM2.43577 20.6029V20.4433M2.43577 20.4433V20.4433ZM2.43577 20.4433V20.2838M2.43577 20.2838V20.2838ZM2.43577 20.2838H2.5953M2.5953 20.2838V20.2838ZM2.5953 20.2838V20.1243M2.5953 20.1243V20.1243ZM2.5953 20.1243V19.9647M2.5953 19.9647V19.9647ZM2.5953 19.9647H2.75483M2.75483 19.9647V19.9647ZM2.75483 19.9647V20.1243M2.75483 20.1243V20.1243ZM2.75483 20.1243H2.91436M2.91436 20.1243V20.1243ZM2.91436 20.1243V20.2838M2.91436 20.2838V20.2838ZM2.91436 20.2838H2.75483V20.4433M2.75483 20.4433V20.4433ZM2.75483 20.4433V20.6029M2.75483 20.6029V20.6029ZM2.75483 20.6029H2.91436M2.91436 20.6029V20.6029ZM2.91436 20.6029V20.7624M2.91436 20.7624V20.7624ZM2.91436 20.7624V20.9219M2.91436 20.7624H3.07389M2.91436 20.9219V20.9219ZM2.91436 20.9219H2.75483M2.91436 20.9219V21.0815M2.75483 20.9219V20.9219ZM2.75483 20.9219V21.0815M2.75483 21.0815V21.0815ZM2.75483 21.0815H2.91436M2.91436 21.0815V21.0815ZM3.07389 20.7624V20.7624ZM3.07389 20.7624V20.6029M3.07389 20.6029V20.6029ZM3.07389 20.6029V20.4433M3.07389 20.4433V20.4433ZM3.07389 20.4433H3.23342M3.23342 20.4433V20.4433ZM3.23342 20.4433V20.2838M3.23342 20.4433H3.39295M3.23342 20.2838V20.2838ZM3.39295 20.4433V20.4433ZM3.39295 20.4433V20.2838M3.39295 20.2838V20.2838ZM3.39295 20.2838V20.1243M3.39295 20.2838H3.55248M3.39295 20.1243V20.1243ZM3.39295 20.1243H3.55248M3.55248 20.1243V20.1243ZM3.55248 20.1243V19.9647M3.55248 20.1243H3.71201M3.55248 20.1243V20.2838M3.55248 19.9647V19.9647ZM3.55248 19.9647L3.71201 20.1243M3.71201 20.1243V20.2838M3.71201 20.1243V20.1243ZM3.71201 20.1243V19.9647M3.55248 20.2838V20.2838ZM3.55248 20.2838V20.4433M3.55248 20.2838H3.71201M3.55248 20.4433V20.4433ZM3.71201 20.2838V20.2838ZM3.71201 19.9647V19.9647ZM3.71201 19.9647H3.87154M3.87154 19.9647V19.9647ZM3.87154 19.9647V19.8052M3.87154 19.8052V19.8052ZM3.87154 19.8052H4.03107M4.03107 19.8052V19.8052ZM4.03107 19.8052L3.87154 19.6457M4.03107 19.8052V19.6457M4.03107 19.8052H4.1906V19.6457M3.87154 19.6457V19.6457ZM3.87154 19.6457H4.03107M4.03107 19.6457V19.6457ZM4.03107 19.6457H4.1906M4.1906 19.6457V19.6457ZM4.1906 19.6457H4.35013M4.1906 19.6457V19.4862M4.35013 19.6457V19.6457ZM4.35013 19.6457V19.4862M4.35013 19.4862V19.4862ZM4.1906 19.4862V19.4862ZM4.1906 19.4862V19.3266M4.1906 19.3266V19.3266ZM4.1906 19.3266V19.1671M4.1906 19.1671V19.1671ZM4.1906 19.1671L4.35013 19.0076M4.35013 19.0076V19.1671M4.35013 19.0076H4.50966M4.35013 19.0076V19.0076ZM4.35013 19.0076H4.1906L4.35013 18.848M4.35013 19.1671V19.1671ZM4.35013 19.1671H4.50966M4.50966 19.1671V19.1671ZM4.35013 18.848H4.1906M4.35013 18.848V18.848ZM4.35013 18.848H4.50966M4.50966 18.848V18.848ZM4.50966 18.848L4.35013 18.6885M4.50966 18.848V18.6885M4.35013 18.6885V18.6885ZM4.35013 18.6885H4.50966M4.50966 18.6885V18.6885ZM4.50966 18.6885H4.66919M4.66919 18.6885V18.6885ZM4.66919 18.6885V18.848M4.66919 18.6885V18.529M4.66919 18.6885H4.82872M4.66919 18.848V18.848ZM4.66919 18.529V18.529ZM4.66919 18.529L4.82872 18.6885M4.82872 18.6885V18.6885ZM4.82872 18.6885H4.98825M4.98825 18.6885V18.6885ZM4.98825 18.6885V18.848M4.98825 18.6885L4.82872 18.529M4.98825 18.6885V18.529M4.98825 18.848V18.848ZM4.98825 18.848H5.14778M5.14778 18.848L4.98825 19.0076M5.14778 18.848V19.0076M5.14778 18.848V18.848ZM4.98825 19.0076V19.0076ZM4.98825 19.0076H5.14778M5.14778 19.0076V19.0076ZM4.82872 18.529H4.98825M4.82872 18.529V18.529ZM4.82872 18.529V18.3694M4.98825 18.529V18.529ZM4.98825 18.529V18.3694M4.82872 18.3694V18.3694ZM4.82872 18.3694V18.2099M4.82872 18.2099V18.2099ZM4.82872 18.2099H4.66919M4.82872 18.2099V18.0504M4.82872 18.0504V18.0504ZM4.82872 18.0504H4.98825M4.98825 18.0504V18.0504ZM4.98825 18.0504V18.2099M4.98825 18.0504H5.14778M4.98825 18.2099V18.2099ZM4.98825 18.2099V18.3694M4.98825 18.3694V18.3694ZM4.98825 18.3694L5.14778 18.529M4.98825 18.3694H5.14778M5.14778 18.529V18.3694M5.14778 18.529V18.529ZM5.14778 18.3694V18.3694ZM5.14778 18.0504V18.0504ZM5.14778 18.0504V17.8909M5.14778 17.8909V17.8909ZM5.14778 17.8909H5.30731M5.30731 17.8909V17.8909ZM5.30731 17.8909V18.0504M5.30731 18.0504V18.0504ZM5.30731 18.0504H5.46684M5.46684 18.0504V18.0504ZM5.46684 18.0504V18.2099M5.46684 18.0504H5.62637M5.46684 18.0504V17.8909M5.46684 18.2099V18.2099ZM5.62637 18.0504V18.0504ZM5.62637 18.0504V18.2099M5.62637 18.2099V18.2099ZM5.46684 17.8909V17.8909ZM5.46684 17.8909V17.7313M5.46684 17.8909H5.62637M5.46684 17.7313V17.7313ZM5.46684 17.7313H5.62637M5.62637 17.8909V17.8909ZM5.62637 17.8909V17.7313M5.62637 17.7313V17.7313ZM5.62637 17.7313H5.7859M5.62637 17.7313V17.5718M5.7859 17.7313V17.5718M5.7859 17.7313V17.7313ZM5.7859 17.7313V17.8909M5.7859 17.7313H5.94543M5.62637 17.5718V17.5718ZM5.62637 17.5718H5.7859M5.7859 17.5718V17.5718ZM5.7859 17.5718H5.94543M5.7859 17.8909V17.8909ZM5.7859 17.8909H5.94543M5.94543 17.8909V17.8909ZM5.94543 17.8909V17.7313M5.94543 17.7313V17.7313ZM5.94543 17.5718V17.5718ZM5.94543 17.5718H6.10496M5.94543 17.5718V17.4123M5.94543 17.4123V17.4123ZM5.94543 17.4123H5.7859M5.7859 17.4123V17.4123ZM5.7859 17.4123V17.2527M5.7859 17.2527V17.2527ZM5.7859 17.2527H5.62637M5.62637 17.2527V17.2527ZM5.62637 17.2527V17.0932M5.62637 17.0932V17.0932ZM5.62637 17.0932H5.7859M5.62637 17.0932V16.9337M5.62637 17.0932L5.46684 16.9337M5.7859 17.0932V17.0932ZM5.7859 17.0932L5.62637 16.9337M5.62637 16.9337V16.9337ZM5.62637 16.9337H5.46684M5.46684 16.9337V16.9337ZM5.46684 16.9337V16.7741M5.46684 16.7741V16.7741ZM5.46684 16.7741V16.6146M5.46684 16.6146V16.6146ZM5.46684 16.6146V16.4551M5.46684 16.6146H5.30731M5.46684 16.4551V16.4551ZM5.30731 16.6146V16.6146ZM5.30731 16.6146V16.4551M5.30731 16.6146H5.14778M5.30731 16.4551V16.4551ZM5.14778 16.6146V16.6146ZM5.14778 16.6146V16.4551M5.14778 16.4551V16.4551ZM5.14778 16.4551V16.2956M5.14778 16.2956V16.2956ZM5.14778 16.2956H4.98825M4.98825 16.2956V16.2956ZM4.98825 16.2956V16.136M4.98825 16.136V16.136ZM4.98825 16.136H5.14778M5.14778 16.136V16.136ZM5.14778 16.136L4.98825 15.9765M5.14778 16.136V15.9765M5.14778 15.9765V15.9765ZM5.14778 15.9765V15.817M5.14778 15.817V15.817ZM5.14778 15.817V15.6574M5.14778 15.6574V15.6574ZM5.14778 15.6574H5.30731M5.14778 15.6574V15.4979M5.14778 15.4979V15.4979ZM5.14778 15.4979V15.3384M5.14778 15.3384V15.3384ZM5.14778 15.3384H4.98825M4.98825 15.3384V15.3384ZM4.98825 15.3384V15.1788M4.98825 15.1788V15.1788ZM4.98825 15.1788V15.0193M4.98825 15.0193V15.0193ZM4.98825 15.0193H5.14778M4.98825 15.0193V14.8598M5.14778 15.0193V15.0193ZM5.14778 15.0193V14.8598M5.14778 14.8598V14.8598ZM4.98825 14.8598V14.8598ZM4.98825 14.8598V14.7003M4.98825 14.7003V14.7003ZM4.98825 14.7003H5.14778M4.98825 14.7003V14.5407M5.14778 14.7003V14.7003ZM4.98825 14.5407V14.5407ZM4.98825 14.5407H4.82872M4.82872 14.5407V14.5407ZM4.82872 14.5407V14.3812M4.82872 14.3812V14.3812ZM4.82872 14.3812H4.98825M4.82872 14.3812V14.2217M4.98825 14.3812V14.3812ZM4.82872 14.2217V14.2217ZM4.82872 14.2217H4.66919M4.66919 14.2217V14.2217ZM4.66919 14.2217V14.0621M4.66919 14.0621V14.0621ZM4.66919 14.0621V13.9026H4.82872M4.82872 13.9026V13.9026ZM4.82872 13.9026V13.7431M4.82872 13.7431V13.7431ZM4.82872 13.7431L4.98825 13.5835M4.98825 13.5835V13.5835ZM4.98825 13.5835L5.14778 13.424M5.14778 13.424V13.424ZM5.14778 13.424H5.30731V13.2645M5.30731 13.2645V13.2645ZM5.30731 13.2645L5.46684 13.105M5.46684 13.105V13.105ZM5.46684 13.105V12.9454M5.46684 12.9454V12.9454ZM5.46684 12.9454L5.62637 12.7859M5.62637 12.7859V12.7859ZM5.62637 12.7859L5.7859 12.6264V12.4668H5.94543H6.10496H6.26449H6.74308L7.06214 11.9882M7.06214 11.9882V11.9882ZM7.06214 11.9882V11.8287M7.06214 11.8287V11.8287ZM7.06214 11.8287H7.22167M7.22167 11.8287V11.8287ZM7.22167 11.8287V11.6692M7.22167 11.6692V11.6692ZM7.22167 11.6692H7.3812M7.3812 11.6692V11.6692ZM7.3812 11.6692V11.5097M7.3812 11.5097V11.5097ZM7.3812 11.5097H7.54073M7.54073 11.5097V11.5097ZM7.54073 11.5097V11.3501M7.54073 11.3501V11.3501ZM7.54073 11.3501H7.70026M7.70026 11.3501V11.3501ZM7.70026 11.3501V11.1906M7.70026 11.3501L7.85979 11.1906M7.70026 11.1906V11.1906ZM7.85979 11.1906V11.1906ZM7.85979 11.1906H8.01932M8.01932 11.1906V11.3501M8.01932 11.1906V11.1906ZM8.01932 11.1906H8.17885M8.01932 11.3501V11.3501ZM8.17885 11.1906V11.1906ZM8.17885 11.1906H8.33838M8.33838 11.1906V11.1906ZM8.33838 11.1906H8.49791M8.49791 11.1906V11.3501M8.49791 11.1906V11.1906ZM8.49791 11.1906H8.65744M8.65744 11.1906V11.1906ZM8.65744 11.1906H8.81697M8.81697 11.1906V11.1906ZM8.81697 11.1906H8.9765M8.9765 11.1906V11.1906ZM8.9765 11.1906V11.0311M8.9765 11.0311V11.0311ZM8.9765 11.0311H9.13603M9.13603 11.0311V11.0311ZM9.13603 11.0311V10.8715M9.13603 10.8715V10.8715ZM9.13603 10.8715H9.29556M9.29556 10.8715V10.8715ZM9.29556 10.8715H9.45509M9.45509 10.8715V10.8715ZM9.45509 10.8715H9.61462M9.61462 10.8715V10.8715ZM9.61462 10.8715H9.77415M9.77415 10.8715V10.8715ZM9.77415 10.8715V11.0311M9.77415 11.0311V11.0311ZM9.77415 11.0311H9.93368M9.93368 11.0311L10.0932 11.1906V11.0311M9.93368 11.0311H10.0932M9.93368 11.0311V11.0311ZM9.93368 11.0311L10.0932 10.8715M10.0932 11.0311V11.0311ZM10.0932 10.8715V10.8715ZM10.0932 10.8715V10.712M10.0932 10.712V10.712ZM10.0932 10.712H10.2527M10.2527 10.712V10.712ZM10.2527 10.712V10.5525M10.2527 10.5525V10.5525ZM10.2527 10.5525H10.4123M10.4123 10.5525V10.5525ZM10.4123 10.5525V10.712M10.4123 10.712V10.712ZM10.4123 10.712H10.5718M10.5718 10.712V10.712ZM10.5718 10.712V10.8715M10.5718 10.8715V10.8715ZM10.5718 10.8715V11.0311M10.5718 11.0311V11.0311ZM10.5718 11.0311H10.7313M10.7313 11.0311V11.0311ZM10.7313 11.0311H10.8909M10.8909 11.0311V11.0311ZM10.8909 11.0311V11.1906M10.8909 11.1906V11.1906ZM10.8909 11.1906V11.3501M10.8909 11.3501V11.3501ZM10.8909 11.3501V11.5097M10.8909 11.5097V11.5097ZM10.8909 11.5097V11.6692M10.8909 11.6692V11.6692ZM10.8909 11.6692V11.8287M10.8909 11.8287V11.8287ZM10.8909 11.8287L11.0504 11.9882M11.0504 11.9882V11.9882ZM11.0504 11.9882L11.2099 12.1478M11.2099 12.1478V12.1478ZM11.2099 12.1478H11.3694L11.529 11.9882M11.529 11.9882V11.9882ZM11.529 11.9882H11.6885M11.6885 11.9882V11.9882ZM11.6885 11.9882H11.848M11.848 11.9882V11.9882ZM11.848 11.9882V11.8287M11.848 11.8287V11.8287ZM11.848 11.8287H12.0076M12.0076 11.8287V11.8287ZM12.0076 11.8287V11.6692M12.0076 11.6692V11.6692ZM12.0076 11.6692H12.1671V11.5097M12.1671 11.5097V11.5097ZM12.1671 11.5097H12.3266M12.3266 11.5097V11.5097ZM12.3266 11.5097V11.6692M12.3266 11.6692V11.6692ZM12.3266 11.6692H12.4862M12.4862 11.6692V11.6692ZM12.4862 11.6692V11.5097M12.4862 11.5097V11.5097ZM12.4862 11.5097V11.3501M12.4862 11.3501V11.3501ZM12.4862 11.3501H12.6457M12.6457 11.3501V11.3501ZM12.6457 11.3501V11.1906M12.6457 11.1906V11.1906ZM12.6457 11.1906H12.8052M12.8052 11.1906V11.1906ZM12.8052 11.1906H12.9647M12.9647 11.1906V11.1906ZM12.9647 11.1906V11.0311M12.9647 11.1906H13.1243M13.1243 11.1906V11.1906ZM13.1243 11.1906V11.0311M13.1243 11.0311V11.0311ZM13.1243 11.0311H13.2838M13.2838 11.0311V11.0311ZM13.2838 11.0311L13.4433 10.8715M13.4433 10.8715V10.8715ZM13.4433 10.8715H13.6029V10.712M13.6029 10.712V10.712ZM13.6029 10.712V10.5525M13.6029 10.5525V10.5525ZM13.6029 10.5525V10.3929M13.6029 10.3929V10.3929ZM13.6029 10.3929V10.2334M13.6029 10.2334V10.2334ZM13.6029 10.2334V10.0739H13.7624M13.7624 10.0739V10.0739ZM13.7624 10.0739V10.2334M13.7624 10.2334V10.2334ZM13.7624 10.2334H13.9219M13.9219 10.2334V10.2334ZM13.9219 10.2334V10.0739L14.0815 10.2334V10.0739M14.0815 10.0739V10.0739ZM14.0815 10.0739L14.241 9.91436M14.241 9.91436V9.91436ZM14.241 9.91436L14.4005 9.75483M14.4005 9.75483V9.75483ZM14.4005 9.75483V9.5953M14.4005 9.5953V9.5953ZM14.4005 9.5953H14.56M14.56 9.5953V9.5953ZM14.56 9.5953H14.7196V9.43577M14.7196 9.43577V9.43577ZM14.7196 9.43577V9.27624M14.7196 9.27624V9.27624ZM14.7196 9.27624L14.8791 9.11671M14.8791 9.11671V9.11671ZM14.8791 9.11671V8.95718M14.8791 8.95718V8.95718ZM14.8791 8.95718H15.0386M15.0386 8.95718V8.95718ZM15.0386 8.95718V8.79765M15.0386 8.79765V8.79765ZM15.0386 8.79765H15.1982M15.1982 8.79765V8.79765ZM15.1982 8.79765H15.3577M15.1982 8.79765V8.63812M15.3577 8.79765V8.79765ZM15.1982 8.63812V8.63812ZM15.1982 8.63812V8.47859M15.1982 8.47859V8.47859ZM15.1982 8.47859H15.3577L15.1982 8.31906H15.3577M15.3577 8.31906V8.31906ZM15.3577 8.31906V8.15953M15.3577 8.15953V8.15953ZM15.3577 8.15953H15.5172M15.5172 8.15953V8.15953ZM15.5172 8.15953H15.6768M15.6768 8.15953V8.15953ZM15.6768 8.15953H15.8363M15.8363 8.15953V8.15953ZM15.8363 8.15953H15.9958M15.9958 8.15953V8.15953ZM15.9958 8.15953H16.1553M16.1553 8.15953V8.15953ZM16.1553 8.15953V8M16.1553 8V8ZM16.1553 8H16.3149M16.3149 8V8ZM16.3149 8H16.4744M16.4744 8V8ZM16.4744 8V8.15953M16.4744 8.15953V8.15953ZM16.4744 8.15953L16.3149 8.31906M16.3149 8.31906V8.31906ZM16.3149 8.31906V8.47859M16.3149 8.47859V8.47859ZM16.3149 8.47859V8.63812M16.3149 8.63812V8.63812ZM16.3149 8.63812H16.4744M16.4744 8.63812V8.63812ZM16.4744 8.63812H16.6339L16.4744 8.79765M16.4744 8.79765V8.79765ZM16.4744 8.79765V8.95718M16.4744 8.95718V8.95718ZM16.4744 8.95718V9.11671M16.4744 9.11671V9.11671ZM16.4744 9.11671H16.6339M16.6339 9.11671V9.11671ZM16.6339 9.11671H16.7935M16.7935 9.11671V9.11671ZM16.7935 9.11671V9.27624M16.7935 9.27624V9.27624ZM16.7935 9.27624H16.953M16.953 9.27624V9.27624ZM16.953 9.27624V9.43577M16.953 9.43577V9.43577ZM16.953 9.43577V9.5953M16.953 9.5953V9.5953ZM16.953 9.5953H17.1125M17.1125 9.5953V9.5953ZM17.1125 9.5953V9.75483M17.1125 9.75483V9.75483ZM17.1125 9.75483L17.2721 9.91436M17.2721 9.91436V9.91436ZM17.2721 9.91436V10.0739M17.2721 10.0739V10.0739ZM17.2721 10.0739V10.2334M17.2721 10.2334V10.2334ZM17.2721 10.2334H17.4316M17.4316 10.2334V10.2334ZM17.4316 10.2334V10.3929M17.4316 10.3929V10.3929ZM17.4316 10.3929H17.2721M17.2721 10.3929V10.3929ZM17.2721 10.3929V10.5525M17.2721 10.5525V10.5525ZM17.2721 10.5525H17.4316M17.4316 10.5525V10.5525ZM17.4316 10.5525V10.712M17.4316 10.712V10.712ZM17.4316 10.712L17.9102 10.8715L18.0697 11.1906L18.5483 11.3501M18.5483 11.3501V11.3501ZM18.5483 11.3501L18.8674 11.6692L19.0269 11.8287M19.0269 11.8287V11.8287ZM19.0269 11.8287V11.9882L19.1864 12.4668M19.1864 12.4668V12.4668ZM19.1864 12.4668V12.6264L19.5055 13.105H19.665M19.665 13.105V13.105ZM19.665 13.105V13.2645L19.9841 13.7431M19.9841 13.7431V13.7431ZM19.9841 13.7431V13.9026L19.8245 14.2217M19.8245 14.2217V14.2217ZM19.8245 14.2217V14.3812M19.8245 14.3812V14.3812ZM19.8245 14.3812L19.9841 15.3384M19.9841 15.3384V15.3384ZM19.9841 15.3384L19.8245 15.6574V16.136M19.8245 16.136V16.136ZM19.8245 16.136V16.4551L19.665 16.6146H19.8245M19.8245 16.6146V16.6146ZM19.8245 16.6146L19.9841 16.9337L20.3031 17.4123M20.3031 17.4123V17.4123ZM20.3031 17.4123V17.5718H20.4627M20.4627 17.5718V17.5718ZM20.4627 17.5718V17.7313M20.4627 17.7313V17.7313ZM20.4627 17.7313H20.6222M20.6222 17.7313V17.7313ZM20.6222 17.7313V17.8909M20.6222 17.8909V17.8909ZM20.6222 17.8909V18.0504M20.6222 18.0504V18.0504ZM20.6222 18.0504H20.4627M20.4627 18.0504V18.0504ZM20.4627 18.0504V18.2099M20.4627 18.2099V18.2099ZM20.4627 18.2099L20.3031 18.3694M20.3031 18.3694V18.3694ZM20.3031 18.3694H20.4627M20.4627 18.3694V18.3694ZM20.4627 18.3694L20.3031 18.529M20.3031 18.529V18.529ZM20.3031 18.529V18.6885M20.3031 18.6885V18.6885ZM20.3031 18.6885V18.848M20.3031 18.848V18.848ZM20.3031 18.848H20.1436M20.1436 18.848V18.848ZM20.1436 18.848V19.0076M20.1436 19.0076V19.0076ZM20.1436 19.0076V19.1671M20.1436 19.1671V19.1671ZM20.1436 19.1671V19.3266M20.1436 19.3266V19.3266ZM20.1436 19.3266V19.4862M20.1436 19.4862V19.4862ZM20.1436 19.4862V19.6457M20.1436 19.6457V19.6457ZM20.1436 19.6457V19.8052M20.1436 19.8052V19.8052ZM20.1436 19.8052V19.9647M20.1436 19.9647V19.9647ZM20.1436 19.9647V20.1243M20.1436 20.1243V20.1243ZM20.1436 20.1243V20.2838M20.1436 20.2838V20.2838ZM20.1436 20.2838H19.9841M19.9841 20.2838V20.2838ZM19.9841 20.2838V20.4433M19.9841 20.4433V20.4433ZM19.9841 20.4433V20.6029M19.9841 20.6029V20.6029ZM19.9841 20.6029H19.8245M19.8245 20.6029V20.6029ZM19.8245 20.6029H19.665M19.665 20.6029V20.6029ZM19.665 20.6029V20.7624M19.665 20.7624V20.7624ZM19.665 20.7624H19.5055M19.5055 20.7624V20.7624ZM19.5055 20.7624V20.9219M19.5055 20.9219V20.9219ZM19.5055 20.9219H19.3459M19.3459 20.9219V20.9219ZM19.3459 20.9219V20.7624M19.3459 20.7624V20.7624ZM19.3459 20.7624H19.1864M19.1864 20.7624V20.7624ZM19.1864 20.7624H19.0269M19.0269 20.7624V20.7624ZM19.0269 20.7624V20.6029M19.0269 20.6029V20.6029ZM19.0269 20.6029H18.8674M18.8674 20.6029V20.6029ZM18.8674 20.6029H18.7078M18.7078 20.6029V20.6029ZM18.7078 20.6029L18.5483 20.7624M18.5483 20.7624V20.7624ZM18.5483 20.7624V20.9219M18.5483 20.9219V20.9219ZM18.5483 20.9219H18.3888V21.0815M18.3888 21.0815V21.0815ZM18.3888 21.0815H18.2292M18.2292 21.0815V21.0815ZM18.2292 21.0815H18.0697M18.0697 21.0815V21.0815ZM18.0697 21.0815L17.9102 20.9219M17.9102 20.9219V20.9219ZM17.9102 20.9219V21.0815M17.9102 20.9219H17.7506V21.0815M17.9102 21.0815V21.0815ZM17.7506 21.0815V21.0815ZM17.7506 21.0815H17.5911M17.5911 21.0815V21.0815ZM17.5911 21.0815L17.4316 21.241M17.4316 21.241V21.241ZM17.4316 21.241V21.0815M17.4316 21.0815V21.0815ZM17.4316 21.0815H17.2721M17.2721 21.0815V21.0815ZM17.2721 21.0815H17.1125M17.1125 21.0815V21.0815ZM17.1125 21.0815H16.953M16.953 21.0815V21.0815ZM16.953 21.0815V20.9219M16.953 20.9219V20.9219ZM16.953 20.9219H16.7935M16.7935 20.9219V20.9219ZM16.7935 20.9219V20.7624M16.7935 20.7624V20.7624ZM16.7935 20.7624H16.6339M16.6339 20.7624V20.7624ZM16.6339 20.7624V20.6029M16.6339 20.7624L16.4744 20.6029M16.6339 20.6029V20.6029ZM16.4744 20.6029V20.6029ZM16.4744 20.6029V20.4433M16.4744 20.4433V20.4433ZM16.4744 20.4433H16.3149V20.2838M16.3149 20.2838V20.2838ZM16.3149 20.2838H16.4744M16.3149 20.2838H16.1553M16.4744 20.2838V20.2838ZM16.1553 20.2838V20.2838ZM16.1553 20.2838H15.9958M15.9958 20.2838V20.2838ZM15.9958 20.2838V20.1243M15.9958 20.1243V20.1243ZM15.9958 20.1243H15.8363M15.8363 20.1243V20.1243ZM15.8363 20.1243H15.6768M15.6768 20.1243V20.1243ZM15.6768 20.1243V20.2838M15.6768 20.2838V20.2838ZM15.6768 20.2838V20.4433H15.5172M15.5172 20.4433V20.4433ZM15.5172 20.4433V20.6029M15.5172 20.6029V20.6029ZM15.5172 20.6029L15.3577 20.4433M15.3577 20.4433V20.4433ZM15.3577 20.4433V20.2838M15.3577 20.2838V20.2838ZM15.3577 20.2838L15.1982 20.1243M15.1982 20.1243V20.1243ZM15.1982 20.1243H15.0386M15.0386 20.1243V20.1243ZM15.0386 20.1243H14.8791M14.8791 20.1243V20.1243ZM14.8791 20.1243V20.2838M14.8791 20.2838V20.2838ZM14.8791 20.2838V20.4433M14.8791 20.4433V20.4433ZM14.8791 20.4433V20.6029M14.8791 20.6029V20.6029ZM14.8791 20.6029H14.7196L14.8791 20.7624M14.8791 20.7624V20.7624ZM14.8791 20.7624H14.7196M14.7196 20.7624V20.7624ZM14.7196 20.7624H14.56M14.56 20.7624V20.7624ZM14.56 20.7624H14.4005M14.4005 20.7624V20.7624ZM14.4005 20.7624V20.6029M14.4005 20.6029V20.6029ZM14.4005 20.6029H14.241M14.241 20.6029V20.6029ZM14.241 20.6029V20.4433M14.241 20.4433V20.4433ZM14.241 20.4433H14.0815M14.0815 20.4433V20.4433ZM14.0815 20.4433V20.6029M14.0815 20.6029V20.6029ZM14.0815 20.6029V20.7624M14.0815 20.7624V20.7624ZM14.0815 20.7624H13.9219V20.9219M13.9219 20.9219V20.9219ZM13.9219 20.9219V21.0815M13.9219 21.0815V21.0815ZM13.9219 21.0815L13.7624 21.241M13.7624 21.241V21.241ZM13.7624 21.241H13.6029M13.6029 21.241V21.241ZM13.6029 21.241H13.4433M13.4433 21.241V21.241ZM13.4433 21.241L13.2838 21.4005M13.2838 21.4005V21.4005ZM13.2838 21.4005H13.1243M13.1243 21.4005V21.4005ZM13.1243 21.4005V21.241M13.1243 21.241V21.241ZM13.1243 21.241H12.9647M12.9647 21.241V21.241ZM12.9647 21.241H12.8052V21.0815L12.6457 20.9219M12.6457 20.9219V20.9219ZM12.6457 20.9219H12.4862V20.7624M12.4862 20.7624V20.7624ZM12.4862 20.7624V20.6029H12.3266M12.3266 20.6029V20.6029ZM12.3266 20.6029V20.4433H12.1671M12.1671 20.4433V20.4433ZM12.1671 20.4433H12.0076M12.0076 20.4433V20.4433ZM12.0076 20.4433H11.848M11.848 20.4433V20.4433ZM11.848 20.4433L11.6885 20.2838M11.6885 20.2838V20.2838ZM11.6885 20.2838H11.529M11.529 20.2838V20.2838ZM11.529 20.2838V20.4433M11.529 20.4433V20.4433ZM11.529 20.4433V20.6029M11.529 20.6029V20.6029ZM11.529 20.6029H11.3694M11.3694 20.6029V20.6029ZM11.3694 20.6029V20.7624M11.3694 20.7624V20.7624ZM11.3694 20.7624H11.529M11.529 20.7624V20.7624ZM11.529 20.7624V20.9219M11.529 20.9219V20.9219ZM11.529 20.9219V21.0815M11.529 21.0815V21.0815ZM11.529 21.0815V21.241M11.529 21.241V21.241ZM11.529 21.241L11.6885 21.4005M11.6885 21.4005V21.4005ZM11.6885 21.4005V21.56M11.6885 21.56V21.56ZM11.6885 21.56V21.7196M11.6885 21.7196V21.7196ZM11.6885 21.7196V21.8791M11.6885 21.8791V21.8791ZM11.6885 21.8791H11.529M11.529 21.8791V21.8791ZM11.529 21.8791H11.3694M11.3694 21.8791V21.8791ZM11.3694 21.8791V22.0386M11.3694 22.0386V22.0386ZM11.3694 22.0386V22.1982M11.3694 22.1982V22.1982ZM11.3694 22.1982V22.3577M11.3694 22.3577V22.3577ZM11.3694 22.3577H11.2099M11.2099 22.3577V22.3577ZM11.2099 22.3577V22.5172M11.2099 22.5172V22.5172ZM11.2099 22.5172V22.6768M11.2099 22.6768V22.6768ZM11.2099 22.6768H11.3694V22.8363M11.3694 22.8363V22.8363ZM11.3694 22.8363V22.9958M11.3694 22.9958V22.9958ZM11.3694 22.9958V23.1553M11.3694 23.1553V23.1553ZM11.3694 23.1553H11.2099V23.3149H11.3694M11.3694 23.3149V23.3149ZM11.3694 23.3149V23.4744M11.3694 23.4744V23.4744ZM11.3694 23.4744H11.2099M11.3694 23.4744L11.2099 23.6339M11.2099 23.4744V23.4744ZM11.2099 23.6339V23.6339ZM11.2099 23.6339V23.7935M11.2099 23.7935V23.7935ZM11.2099 23.7935V23.953M11.2099 23.953V23.953ZM11.2099 23.953H11.0504M11.0504 23.953V23.953ZM11.0504 23.953V24.1125M11.0504 24.1125V24.1125ZM11.0504 24.1125H10.8909V24.2721M10.8909 24.2721V24.2721ZM10.8909 24.2721V24.4316M10.8909 24.4316V24.4316ZM10.8909 24.4316H10.7313M10.7313 24.4316V24.4316ZM10.7313 24.4316H10.5718M10.5718 24.4316V24.4316ZM10.5718 24.4316V24.5911M10.5718 24.5911V24.5911ZM10.5718 24.5911H10.4123M10.4123 24.5911V24.5911ZM10.4123 24.5911H10.2527M10.2527 24.5911V24.5911ZM10.2527 24.5911H10.0932M10.0932 24.5911V24.5911ZM10.0932 24.5911V24.4316M10.0932 24.4316V24.4316ZM10.0932 24.4316H9.93368M9.93368 24.4316V24.4316ZM9.93368 24.4316V24.5911M9.93368 24.4316L9.77415 24.5911M9.77415 24.5911V24.4316M9.77415 24.5911V24.5911ZM9.77415 24.5911V24.7506M9.77415 24.4316V24.4316ZM9.77415 24.7506V24.7506ZM9.77415 24.7506H9.61462M9.61462 24.7506V24.7506ZM9.61462 24.7506V24.9102M9.61462 24.9102V24.9102ZM9.61462 24.9102H9.45509M9.45509 24.9102V24.9102ZM9.45509 24.9102H9.29556M9.29556 24.9102V24.9102ZM9.29556 24.9102V25.0697M9.29556 25.0697V25.0697ZM9.29556 25.0697H9.13603M9.13603 25.0697V25.0697ZM9.13603 25.0697V24.9102M9.13603 24.9102V24.9102ZM9.13603 24.9102H8.9765M8.9765 24.9102V24.9102ZM8.9765 24.9102L8.81697 24.7506M8.81697 24.7506V24.7506ZM8.81697 24.7506H8.65744M8.65744 24.7506V24.7506ZM8.65744 24.7506H8.49791M8.49791 24.7506V24.7506ZM8.49791 24.7506V24.9102M8.49791 24.9102V24.9102ZM8.49791 24.9102H8.33838M8.33838 24.9102V24.9102ZM8.33838 24.9102H8.17885M8.17885 24.9102V24.9102ZM8.17885 24.9102H8.01932M8.01932 24.9102V24.9102ZM8.01932 24.9102H7.85979M7.85979 24.9102V24.9102ZM7.85979 24.9102H7.70026M7.70026 24.9102V24.9102ZM7.70026 24.9102V25.0697M7.70026 25.0697V25.0697ZM7.70026 25.0697H7.54073M7.54073 25.0697V25.0697ZM7.54073 25.0697H7.3812M7.3812 25.0697V25.0697ZM7.3812 25.0697H7.22167M7.22167 25.0697V25.0697ZM7.22167 25.0697V24.9102M7.22167 24.9102V24.9102ZM7.22167 24.9102H7.06214M7.06214 24.9102V24.9102ZM7.06214 24.9102H6.90261M6.90261 24.9102V24.9102ZM6.90261 24.9102H6.74308M6.74308 24.9102V24.9102ZM6.74308 24.9102V24.7506L6.58355 24.9102M6.58355 24.9102V24.9102ZM6.58355 24.9102V24.7506M6.58355 24.9102H6.42402M6.58355 24.7506V24.7506ZM6.42402 24.9102V24.9102ZM6.42402 24.9102H6.26449M6.26449 24.9102V24.9102ZM6.26449 24.9102V25.0697M6.26449 25.0697V25.0697ZM6.26449 25.0697H6.10496M6.10496 25.0697V25.0697ZM6.10496 25.0697H5.94543M5.94543 25.0697V25.0697ZM5.94543 25.0697V25.2292M5.94543 25.0697H5.7859M5.94543 25.2292V25.2292ZM5.94543 25.2292H5.7859V25.0697M5.7859 25.0697V25.0697ZM5.7859 25.0697V24.9102M5.7859 24.9102V24.9102ZM5.7859 24.9102V24.7506M5.7859 24.7506V24.7506ZM5.7859 24.7506V24.5911M5.7859 24.5911V24.5911ZM5.7859 24.5911H5.62637M5.62637 24.5911V24.5911ZM5.62637 24.5911V24.4316M5.62637 24.4316V24.4316ZM5.62637 24.4316V24.2721M5.62637 24.2721V24.2721ZM5.62637 24.2721H5.7859M5.7859 24.2721V24.2721ZM5.7859 24.2721V24.1125M5.7859 24.1125V24.1125ZM5.7859 24.1125V23.953M5.7859 23.953V23.953ZM5.7859 23.953H5.62637M5.62637 23.953V23.953ZM5.62637 23.953V23.7935M5.62637 23.7935V23.7935ZM5.62637 23.7935H5.46684M5.46684 23.7935V23.7935ZM5.46684 23.7935V23.6339H5.62637M5.62637 23.6339V23.6339ZM5.62637 23.6339V23.4744M5.62637 23.4744V23.4744ZM5.62637 23.4744H5.46684M5.46684 23.4744V23.4744ZM5.46684 23.4744V23.3149H5.30731M5.30731 23.3149V23.3149ZM5.30731 23.3149H5.14778M5.14778 23.3149V23.3149ZM5.14778 23.3149V23.1553M5.14778 23.1553V23.1553ZM5.14778 23.1553H4.98825M4.98825 23.1553V23.1553ZM4.98825 23.1553H4.82872M4.82872 23.1553V23.1553ZM4.82872 23.1553H4.66919M4.66919 23.1553V23.1553ZM4.66919 23.1553H4.50966M4.50966 23.1553V23.1553ZM4.50966 23.1553H4.35013M4.35013 23.1553V23.1553ZM4.35013 23.1553V22.9958M4.35013 23.1553H4.1906M4.35013 22.9958V22.9958ZM4.1906 23.1553V23.1553ZM4.1906 23.1553V22.9958M4.1906 22.9958V22.9958ZM4.1906 22.9958H4.03107M4.03107 22.9958V22.9958ZM4.03107 22.9958H3.87154V22.8363M3.87154 22.8363V22.8363ZM3.87154 22.8363H3.71201M3.71201 22.8363V22.8363ZM3.71201 22.8363V22.9958M3.71201 22.9958V22.9958ZM3.71201 22.9958H3.55248M3.55248 22.9958V22.9958ZM3.55248 22.9958V22.8363M3.55248 22.8363H3.39295M3.55248 22.8363V22.8363ZM3.39295 22.8363V22.8363ZM3.39295 22.8363H3.23342M3.23342 22.8363V22.8363ZM3.23342 22.8363H3.07389M3.07389 22.8363V22.8363ZM3.07389 22.8363V22.9958M3.07389 22.9958V22.9958ZM3.07389 22.9958H2.91436M2.91436 22.9958V22.9958ZM2.91436 22.9958V23.1553M2.91436 23.1553V23.1553ZM2.91436 23.1553V23.3149M2.91436 23.3149V23.3149ZM2.91436 23.3149V23.4744M2.91436 23.4744V23.4744ZM2.91436 23.4744H2.75483M2.75483 23.4744V23.4744ZM2.75483 23.4744L2.91436 23.6339M2.91436 23.6339V23.6339ZM2.91436 23.6339H2.75483M2.91436 23.6339V23.7935M2.75483 23.6339V23.6339ZM2.91436 23.7935V23.7935ZM2.91436 23.7935H2.75483M2.91436 23.7935V23.953M2.75483 23.7935V23.7935ZM2.91436 23.953V23.953ZM2.91436 23.953V24.1125H2.75483M2.75483 24.1125V24.1125ZM2.75483 24.1125V24.2721M2.75483 24.2721V24.2721ZM2.75483 24.2721H2.5953V24.1125M2.5953 24.1125V24.1125ZM2.5953 24.1125L2.43577 23.953M2.43577 23.953V23.953ZM2.43577 23.953H2.27624M2.27624 23.953V23.953ZM2.27624 23.953V23.7935M2.27624 23.7935V23.7935ZM2.27624 23.7935H2.11671M2.11671 23.7935V23.7935ZM2.11671 23.7935V23.953M2.11671 23.953V23.953ZM2.11671 23.953H1.95718M1.95718 23.953V23.953ZM1.95718 23.953V23.7935M1.95718 23.7935V23.7935ZM1.95718 23.7935H1.79765M1.79765 23.7935V23.7935ZM1.79765 23.7935V23.6339M1.79765 23.7935H1.63812V23.6339M1.63812 23.6339V23.6339ZM1.63812 23.6339H1.47859M1.47859 23.6339V23.6339ZM1.47859 23.6339V23.4744M1.47859 23.4744V23.4744ZM1.47859 23.4744H1.31906M1.47859 23.4744V23.3149M1.31906 23.4744V23.4744ZM1.47859 23.3149V23.3149ZM1.47859 23.3149V23.1553M1.47859 23.1553V23.1553ZM1.47859 23.1553V22.9958M1.47859 22.9958V22.9958ZM1.47859 22.9958H1.31906M1.31906 22.9958V22.9958ZM1.31906 22.9958V22.8363M1.31906 22.8363V22.8363ZM1.31906 22.8363V22.6768M1.31906 22.6768V22.6768ZM1.31906 22.6768V22.5172M1.31906 22.5172V22.5172ZM1.31906 22.5172H1.15953M1.15953 22.5172V22.5172ZM1.15953 22.5172V22.3577M1.15953 22.3577V22.3577ZM1.15953 22.3577H1M1 22.3577V22.3577ZM1 22.3577V22.1982M1 22.1982V22.1982ZM1 22.1982L1.15953 22.0386M1.15953 22.0386V22.0386ZM1.15953 22.0386H1.31906M1.31906 22.0386V22.0386Z" stroke="#31A5E5"/>
<path d="M12 3.6C12.5683 3.6 13.1134 3.81071 13.5152 4.18579C13.9171 4.56086 14.1429 5.06957 14.1429 5.6C14.1429 5.86264 14.0874 6.12272 13.9797 6.36537C13.8721 6.60802 13.7142 6.8285 13.5152 7.01421C13.3162 7.19993 13.08 7.34725 12.82 7.44776C12.5601 7.54827 12.2814 7.6 12 7.6C11.4317 7.6 10.8866 7.38929 10.4848 7.01421C10.0829 6.63914 9.85714 6.13043 9.85714 5.6C9.85714 5.06957 10.0829 4.56086 10.4848 4.18579C10.8866 3.81071 11.4317 3.6 12 3.6ZM12 0C13.5913 0 15.1174 0.589998 16.2426 1.6402C17.3679 2.69041 18 4.11479 18 5.6C18 9.8 12 16 12 16C12 16 6 9.8 6 5.6C6 4.11479 6.63214 2.69041 7.75736 1.6402C8.88258 0.589998 10.4087 0 12 0ZM12 1.6C10.8634 1.6 9.77327 2.02143 8.96954 2.77157C8.16582 3.52172 7.71429 4.53913 7.71429 5.6C7.71429 6.4 7.71429 8 12 13.368C16.2857 8 16.2857 6.4 16.2857 5.6C16.2857 4.53913 15.8342 3.52172 15.0305 2.77157C14.2267 2.02143 13.1366 1.6 12 1.6Z" fill="white"/>
</svg>
